<?xml version="1.0" encoding="utf-8"?>
<!-- Generator: Adobe Illustrator 16.0.0, SVG Export Plug-In . SVG Version: 6.00 Build 0)  -->
<!DOCTYPE svg PUBLIC "-//W3C//DTD SVG 1.1//EN" "http://www.w3.org/Graphics/SVG/1.1/DTD/svg11.dtd">
<svg version="1.1" id="Capa_1" xmlns="http://www.w3.org/2000/svg" xmlns:xlink="http://www.w3.org/1999/xlink" x="0px" y="0px"
	 width="3017px" height="612.209px" viewBox="0 0 3017 612.209" enable-background="new 0 0 3017 612.209" xml:space="preserve">
<g>
	<g>
		<g>
			<g>
				<path d="M1726.827,113.38h-240.143c-0.177,7.174-0.347,14.349-0.478,21.523h240.621c56.359,0,81.493,34.273,81.493,111.126
					v117.828c0,53.501-10.642,103.011-87.844,103.011h-336.555c-55.703,0-96.131-45.027-96.131-107.066l-0.707-67.912
					c-7.189-0.346-12.943,0.091-20.112-0.527l-0.707,68.439c0,74.511,49.482,128.594,117.657,128.594h336.555
					c98.031,0,109.369-71.077,109.369-124.538V246.03C1829.846,158.01,1795.184,113.38,1726.827,113.38z"/>
			</g>
			<path d="M1434.103,98.74h-121.532c-24.015,0-43.484,18.836-43.484,42.074v111.118c0,23.238,19.469,42.075,43.484,42.075h121.532
				c24.016,0,43.485-18.836,43.485-42.075V140.813C1477.588,117.576,1458.118,98.74,1434.103,98.74z M1457.78,241.376
				c0,18.823-15.771,34.081-35.223,34.081h-98.441c-19.453,0-35.223-15.258-35.223-34.081v-90.005
				c0-18.823,15.771-34.079,35.223-34.079h98.441c19.452,0,35.223,15.256,35.223,34.079V241.376z"/>
			<polygon points="1366.688,260.902 1358.521,261.2 1340.525,245.854 1303.485,214.103 1324.123,190.818 1358.262,220.655 
				1419.596,133.504 1446.543,152.217 			"/>
		</g>
		<g>
			<path d="M1503.538,173.914h21.675v79.964h37.641v18.779h-59.316V173.914z"/>
			<path d="M1638.853,261.596l-39.028,0.138l-4.762,10.923h-18.02l46.86-106.71l35.984,106.71l-15.876,0.051L1638.853,261.596z
				 M1633.43,245.589l-13.023-34.663c-3.912,10.319-14.494,34.398-14.494,34.398L1633.43,245.589z"/>
			<path d="M1683.804,173.914h32.659c19.919,0,35.297,5.603,35.297,24.533c0,8.785-4.979,18.325-16.11,21.355v0.606
				c13.621,2.574,20.796,9.995,20.796,23.171c0,20.143-16.401,29.078-37.199,29.078h-35.442V173.914z M1715.436,213.745
				c10.545,0,15.233-4.697,15.233-12.116c0-7.421-4.979-10.45-14.938-10.45h-10.255v22.566H1715.436z M1717.49,255.393
				c11.712,0,17.864-4.544,17.864-13.48c0-8.632-6.002-12.418-17.864-12.418h-12.014v25.898H1717.49z"/>
		</g>
		<g>
			<path d="M1305.562,316.072h20.798l10.533,40.53c2.533,9.465,4.266,18.265,6.934,27.864h0.533
				c2.666-9.6,4.399-18.399,6.932-27.864l10.267-40.53h20.132L1355.426,403h-23.598L1305.562,316.072z"/>
			<path d="M1418.89,335.271c18.799,0,28.131,13.732,28.131,31.732c0,3.465-0.399,6.665-0.799,8.266h-39.598
				c1.732,9.998,8.4,14.398,17.199,14.398c4.932,0,9.465-1.466,14.266-4.4l6.532,11.865c-6.799,4.669-15.599,7.468-23.464,7.468
				c-18.933,0-33.464-12.801-33.464-34.665C1387.692,348.47,1403.024,335.271,1418.89,335.271z M1430.355,363.136
				c0-7.6-3.2-12.932-11.066-12.932c-6.133,0-11.466,4.134-12.799,12.932H1430.355z"/>
			<path d="M1465.421,336.87h16l1.332,11.6h0.534c4.8-8.933,12-13.199,18.798-13.199c3.734,0,6,0.532,7.866,1.334l-3.199,16.932
				c-2.4-0.668-4.4-1.067-7.199-1.067c-4.934,0-11.066,3.199-14.533,12.134V403h-19.598V336.87z"/>
			<path d="M1521.684,316.872c0-5.999,4.799-10.133,11.333-10.133c6.666,0,11.333,4.134,11.333,10.133
				c0,5.998-4.667,10.265-11.333,10.265C1526.482,327.137,1521.684,322.87,1521.684,316.872z M1523.283,336.87h19.599V403h-19.599
				V336.87z"/>
			<path d="M1602.21,324.739c-2.267-0.801-4.666-1.334-6.8-1.334c-4.799,0-7.6,2.665-7.6,9.466v3.999h11.867v15.331h-11.867V403
				h-19.599v-50.799h-8.799V337.67l8.799-0.666v-3.601c0-13.999,6.533-25.465,24.399-25.465c5.465,0,10.266,1.334,13.199,2.399
				L1602.21,324.739z"/>
			<path d="M1613.544,316.872c0-5.999,4.8-10.133,11.332-10.133c6.667,0,11.333,4.134,11.333,10.133
				c0,5.998-4.666,10.265-11.333,10.265C1618.344,327.137,1613.544,322.87,1613.544,316.872z M1615.144,336.87h19.599V403h-19.599
				V336.87z"/>
			<path d="M1684.07,335.271c18.801,0,28.133,13.732,28.133,31.732c0,3.465-0.401,6.665-0.801,8.266h-39.598
				c1.734,9.998,8.401,14.398,17.199,14.398c4.934,0,9.466-1.466,14.266-4.4l6.533,11.865c-6.799,4.669-15.599,7.468-23.465,7.468
				c-18.933,0-33.464-12.801-33.464-34.665C1652.874,348.47,1668.206,335.271,1684.07,335.271z M1695.537,363.136
				c0-7.6-3.199-12.932-11.066-12.932c-6.131,0-11.465,4.134-12.798,12.932H1695.537z"/>
			<path d="M1754.602,335.271c7.332,0,11.73,2.665,16.264,6.935l-0.799-10.134V309.54h19.598V403h-15.998l-1.334-6.534h-0.531
				c-4.668,4.667-11.199,8.134-17.601,8.134c-16.399,0-27.064-13.066-27.064-34.665S1740.602,335.271,1754.602,335.271z
				 M1759.268,388.601c4.265,0,7.6-1.6,10.799-5.999v-27.065c-3.466-3.2-7.333-4.266-10.933-4.266
				c-6.267,0-11.867,5.866-11.867,18.398C1747.267,382.734,1751.668,388.601,1759.268,388.601z"/>
		</g>
	</g>
	<g>
		<g>
			<path d="M652.56,102.757h101.843v25.267h-71.936v47.698h61.106v25.267h-61.106v70.388H652.56V102.757z"/>
			<path d="M792.303,102.757h44.862c51.565,0,82.248,27.845,82.248,83.537c0,55.949-30.682,85.083-80.701,85.083h-46.409V102.757z
				 M835.102,247.142c34.033,0,53.628-19.338,53.628-60.848c0-41.253-19.596-59.301-53.628-59.301H822.21v120.149H835.102z"/>
			<path d="M1037.753,225.741h-56.465l-13.149,45.636h-30.681l55.175-168.62h35.064l54.918,168.62h-31.713L1037.753,225.741z
				 M1031.051,202.279l-5.931-20.626c-5.156-17.791-10.313-37.128-15.212-55.692h-1.032c-4.64,18.822-9.539,37.901-14.953,55.692
				l-5.93,20.626H1031.051z"/>
		</g>
		<g>
			<path d="M671.28,366.627l-9.284-17.456h-5.941v17.456h-10.993v-48.428h17.455c10.25,0,18.717,3.565,18.717,15.078
				c0,7.13-3.491,11.66-8.616,13.963l10.919,19.387H671.28z M656.055,340.482h5.57c5.719,0,8.839-2.451,8.839-7.205
				s-3.12-6.388-8.839-6.388h-5.57V340.482z"/>
			<path d="M707.082,328.895c10.473,0,15.673,7.65,15.673,17.677c0,1.934-0.223,3.714-0.447,4.605H700.25
				c0.965,5.571,4.679,8.022,9.582,8.022c2.748,0,5.273-0.818,7.947-2.451l3.639,6.609c-3.787,2.6-8.69,4.161-13.073,4.161
				c-10.547,0-18.643-7.132-18.643-19.313C689.702,336.248,698.243,328.895,707.082,328.895z M713.47,344.418
				c0-4.234-1.782-7.205-6.165-7.205c-3.416,0-6.387,2.303-7.13,7.205H713.47z"/>
			<path d="M735.234,365.512v-0.298c-1.931-1.261-3.417-3.192-3.417-6.238c0-2.673,1.782-5.272,4.159-6.907v-0.297
				c-2.599-1.782-4.976-5.273-4.976-9.582c0-8.839,7.279-13.295,15.226-13.295c2.08,0,4.086,0.297,5.72,0.892h13.443v7.947h-5.867
				c0.668,1.116,1.188,2.896,1.188,4.828c0,8.467-6.389,12.402-14.484,12.402c-1.336,0-2.822-0.222-4.456-0.741
				c-0.965,0.815-1.337,1.486-1.337,2.748c0,1.856,1.486,2.747,5.57,2.747h5.942c9.062,0,14.038,2.749,14.038,9.36
				c0,7.649-7.947,13.219-20.574,13.219c-8.616,0-15.45-2.821-15.45-9.356C729.96,369.895,731.817,367.442,735.234,365.512z
				 M747.118,375.465c4.902,0,8.467-2.006,8.467-4.529c0-2.304-2.005-2.898-5.645-2.898h-3.788c-2.526,0-4.012-0.148-5.2-0.445
				c-1.337,1.187-2.005,2.303-2.005,3.638C738.947,373.979,742.215,375.465,747.118,375.465z M751.277,342.189
				c0-3.862-2.155-5.941-5.052-5.941c-2.896,0-5.05,2.005-5.05,5.941c0,4.086,2.154,6.164,5.05,6.164
				C749.123,348.354,751.277,346.275,751.277,342.189z"/>
			<path d="M773.708,318.645c0-3.344,2.674-5.645,6.313-5.645c3.714,0,6.313,2.301,6.313,5.645c0,3.342-2.599,5.72-6.313,5.72
				C776.381,324.364,773.708,321.986,773.708,318.645z M774.6,329.786h10.919v36.841H774.6V329.786z"/>
			<path d="M799.407,355.559c3.343,2.526,6.388,3.864,9.506,3.864c3.27,0,4.68-1.19,4.68-3.12c0-2.451-3.714-3.566-7.501-5.051
				c-4.457-1.709-9.73-4.754-9.73-10.845c0-6.834,5.571-11.513,14.113-11.513c5.645,0,9.805,2.304,12.997,4.679l-4.901,6.536
				c-2.674-1.931-5.199-3.117-7.799-3.117c-2.823,0-4.159,1.039-4.159,2.896c0,2.376,3.416,3.267,7.204,4.679
				c4.681,1.708,9.953,4.309,9.953,11.066c0,6.685-5.272,11.885-15.152,11.885c-4.827,0-10.397-2.081-14.112-5.127L799.407,355.559z
				"/>
			<path d="M834.837,338.327h-5.051v-8.095l5.645-0.446l1.263-9.805h9.062v9.805h8.838v8.541h-8.838v14.781
				c0,4.158,1.856,5.867,4.753,5.867c1.189,0,2.525-0.371,3.491-0.743l1.708,7.948c-1.931,0.594-4.605,1.338-8.17,1.338
				c-9.136,0-12.701-5.721-12.701-14.261V338.327z"/>
			<path d="M878.956,328.895c10.473,0,15.673,7.65,15.673,17.677c0,1.934-0.224,3.714-0.447,4.605h-22.059
				c0.965,5.571,4.678,8.022,9.581,8.022c2.748,0,5.273-0.818,7.947-2.451l3.64,6.609c-3.788,2.6-8.69,4.161-13.073,4.161
				c-10.546,0-18.643-7.132-18.643-19.313C861.577,336.248,870.118,328.895,878.956,328.895z M885.344,344.418
				c0-4.234-1.783-7.205-6.164-7.205c-3.417,0-6.388,2.303-7.13,7.205H885.344z"/>
			<path d="M904.88,329.786h8.912l0.743,6.462h0.297c2.675-4.978,6.686-7.354,10.473-7.354c2.08,0,3.343,0.297,4.382,0.743
				l-1.783,9.433c-1.336-0.373-2.451-0.594-4.009-0.594c-2.749,0-6.167,1.783-8.096,6.759v21.392H904.88V329.786z"/>
			<path d="M951.599,328.895c10.472,0,15.672,7.65,15.672,17.677c0,1.934-0.222,3.714-0.445,4.605h-22.059
				c0.964,5.571,4.678,8.022,9.58,8.022c2.749,0,5.274-0.818,7.948-2.451l3.64,6.609c-3.788,2.6-8.69,4.161-13.073,4.161
				c-10.547,0-18.642-7.132-18.642-19.313C934.219,336.248,942.76,328.895,951.599,328.895z M957.986,344.418
				c0-4.234-1.783-7.205-6.165-7.205c-3.416,0-6.388,2.303-7.13,7.205H957.986z"/>
			<path d="M990.891,328.895c4.085,0,6.537,1.486,9.062,3.861l-0.446-5.644v-12.552h10.918v52.066h-8.914l-0.742-3.641h-0.297
				c-2.6,2.6-6.24,4.532-9.805,4.532c-9.136,0-15.078-7.28-15.078-19.313C975.59,336.173,983.091,328.895,990.891,328.895z
				 M993.49,358.604c2.377,0,4.234-0.891,6.017-3.342v-15.079c-1.932-1.781-4.085-2.376-6.091-2.376
				c-3.49,0-6.609,3.269-6.609,10.25C986.806,355.337,989.256,358.604,993.49,358.604z"/>
			<path d="M1081.655,367.519c-4.011-0.819-8.244-2.526-12.404-4.904c-4.084,3.046-9.135,4.904-15.226,4.904
				c-10.547,0-16.118-6.39-16.118-13.815c0-6.761,4.085-10.622,8.838-13.667c-1.857-3.491-2.971-6.981-2.971-10.028
				c0-6.907,5.051-12.7,13.147-12.7c7.279,0,11.883,4.308,11.883,10.992c0,6.313-5.05,10.325-10.101,13.74
				c2.749,3.195,6.165,6.241,9.73,8.84c2.452-3.193,4.383-7.056,5.571-11.587h9.953c-1.783,5.868-4.383,11.289-8.096,16.341
				c3.045,1.56,5.942,2.674,8.393,3.045L1081.655,367.519z M1055.437,359.199c2.004,0,4.084-0.669,6.165-1.933
				c-3.788-3.044-7.279-6.46-10.101-10.026c-1.931,1.708-3.269,3.566-3.269,5.794
				C1048.231,356.673,1051.128,359.199,1055.437,359.199z M1054.322,335.728c3.491-2.078,6.165-4.159,6.165-7.428
				c0-2.302-1.04-3.787-3.343-3.787c-2.451,0-4.381,2.079-4.381,5.422C1052.763,331.718,1053.356,333.722,1054.322,335.728z"/>
			<path d="M556.747,407.33h10.993v48.428h-10.993V407.33z"/>
			<path d="M580.887,418.919h8.913l0.743,4.679h0.297c3.12-2.971,6.833-5.571,11.809-5.571c8.022,0,11.439,5.646,11.439,14.855
				v22.876h-10.919v-21.466c0-5.347-1.411-6.98-4.53-6.98c-2.749,0-4.457,1.263-6.833,3.565v24.881h-10.918V418.919z"/>
			<path d="M627.68,444.692c3.342,2.523,6.388,3.861,9.508,3.861c3.268,0,4.68-1.188,4.68-3.118c0-2.452-3.715-3.567-7.502-5.052
				c-4.457-1.708-9.73-4.755-9.73-10.845c0-6.832,5.571-11.513,14.112-11.513c5.646,0,9.806,2.303,12.999,4.681l-4.902,6.536
				c-2.675-1.932-5.2-3.12-7.798-3.12c-2.824,0-4.16,1.041-4.16,2.896c0,2.376,3.417,3.269,7.204,4.679
				c4.68,1.71,9.953,4.308,9.953,11.067c0,6.686-5.273,11.885-15.151,11.885c-4.828,0-10.399-2.08-14.112-5.127L627.68,444.692z"/>
			<path d="M672.543,458.656v10.769h-10.918v-50.506h8.912l0.744,3.638h0.297c2.896-2.6,6.61-4.53,10.474-4.53
				c8.912,0,14.409,7.353,14.409,18.717c0,12.629-7.577,19.907-15.524,19.907c-3.194,0-6.165-1.411-8.765-3.863L672.543,458.656z
				 M678.411,447.737c3.788,0,6.833-3.269,6.833-10.845c0-6.609-2.005-9.952-6.387-9.952c-2.228,0-4.16,1.039-6.314,3.343v15.075
				C674.474,447.144,676.554,447.737,678.411,447.737z"/>
			<path d="M722.085,418.026c10.472,0,15.673,7.651,15.673,17.677c0,1.932-0.224,3.714-0.447,4.606h-22.06
				c0.966,5.571,4.679,8.021,9.582,8.021c2.748,0,5.274-0.816,7.947-2.45l3.64,6.609c-3.788,2.6-8.69,4.16-13.073,4.16
				c-10.547,0-18.643-7.132-18.643-19.311C704.705,425.379,713.247,418.026,722.085,418.026z M728.473,433.551
				c0-4.234-1.783-7.204-6.165-7.204c-3.416,0-6.388,2.301-7.13,7.204H728.473z"/>
			<path d="M765.018,418.026c4.531,0,8.319,1.71,10.769,4.233l-4.976,6.76c-1.783-1.484-3.417-2.154-5.125-2.154
				c-5.274,0-8.616,4.085-8.616,10.475c0,6.385,3.491,10.472,8.245,10.472c2.674,0,4.828-1.263,6.611-2.674l4.382,6.906
				c-3.566,3.12-8.245,4.606-12.256,4.606c-10.25,0-18.197-7.056-18.197-19.311C745.854,425.084,754.841,418.026,765.018,418.026z"
				/>
			<path d="M786.854,427.459h-5.051v-8.096l5.645-0.444l1.262-9.804h9.062v9.804h8.839v8.54h-8.839v14.781
				c0,4.16,1.858,5.868,4.754,5.868c1.189,0,2.525-0.371,3.491-0.742l1.708,7.946c-1.931,0.594-4.605,1.338-8.17,1.338
				c-9.135,0-12.701-5.721-12.701-14.262V427.459z"/>
			<path d="M830.974,418.026c10.474,0,15.672,7.651,15.672,17.677c0,1.932-0.223,3.714-0.446,4.606h-22.059
				c0.965,5.571,4.68,8.021,9.582,8.021c2.748,0,5.273-0.816,7.947-2.45l3.64,6.609c-3.788,2.6-8.69,4.16-13.073,4.16
				c-10.546,0-18.643-7.132-18.643-19.311C813.594,425.379,822.136,418.026,830.974,418.026z M837.361,433.551
				c0-4.234-1.782-7.204-6.164-7.204c-3.417,0-6.388,2.301-7.13,7.204H837.361z"/>
			<path d="M870.267,418.026c4.084,0,6.535,1.486,9.061,3.862l-0.445-5.644v-12.553h10.918v52.065h-8.913l-0.743-3.639h-0.297
				c-2.6,2.6-6.24,4.531-9.804,4.531c-9.136,0-15.078-7.278-15.078-19.311S862.467,418.026,870.267,418.026z M872.867,447.737
				c2.376,0,4.233-0.893,6.016-3.343v-15.078c-1.932-1.781-4.085-2.376-6.091-2.376c-3.492,0-6.61,3.268-6.61,10.249
				C866.182,444.469,868.632,447.737,872.867,447.737z"/>
			<path d="M921.071,407.33h30.601v9.211h-19.609v11.217h16.712v9.21h-16.712v18.79h-10.992V407.33z"/>
			<path d="M978.338,432.065c-0.223-3.269-1.856-5.349-5.793-5.349c-3.12,0-6.24,1.263-9.804,3.342l-3.863-7.203
				c4.68-2.823,9.953-4.829,15.747-4.829c9.432,0,14.631,5.347,14.631,16.637v21.095h-8.912l-0.817-3.788h-0.223
				c-3.119,2.749-6.61,4.681-10.769,4.681c-6.686,0-10.918-4.902-10.918-11.142C957.616,437.784,963.78,433.551,978.338,432.065z
				 M972.248,448.183c2.525,0,4.159-1.188,6.09-3.119v-6.463c-7.799,1.039-10.325,3.268-10.325,6.092
				C968.013,447.067,969.648,448.183,972.248,448.183z"/>
			<path d="M1018.299,418.026c4.532,0,8.319,1.71,10.77,4.233l-4.977,6.76c-1.782-1.484-3.417-2.154-5.125-2.154
				c-5.273,0-8.616,4.085-8.616,10.475c0,6.385,3.491,10.472,8.245,10.472c2.673,0,4.828-1.263,6.611-2.674l4.382,6.906
				c-3.565,3.12-8.245,4.606-12.256,4.606c-10.25,0-18.197-7.056-18.197-19.311C999.136,425.084,1008.123,418.026,1018.299,418.026z
				"/>
			<path d="M1037.759,407.777c0-3.343,2.674-5.645,6.313-5.645c3.715,0,6.313,2.302,6.313,5.645s-2.599,5.719-6.313,5.719
				C1040.433,413.496,1037.759,411.12,1037.759,407.777z M1038.652,418.919h10.917v36.839h-10.917V418.919z"/>
			<path d="M1061.825,403.692h10.918v41.073c0,2.302,1.04,3.046,1.93,3.046c0.447,0,0.744,0,1.338-0.15l1.337,8.097
				c-1.189,0.52-3.045,0.893-5.498,0.893c-7.501,0-10.026-4.902-10.026-12.331V403.692z"/>
			<path d="M1084.851,407.777c0-3.343,2.673-5.645,6.312-5.645c3.716,0,6.314,2.302,6.314,5.645s-2.599,5.719-6.314,5.719
				C1087.524,413.496,1084.851,411.12,1084.851,407.777z M1085.742,418.919h10.918v36.839h-10.918V418.919z"/>
			<path d="M1110.4,427.459h-5.051v-8.096l5.645-0.444l1.263-9.804h9.061v9.804h8.839v8.54h-8.839v14.781
				c0,4.16,1.857,5.868,4.754,5.868c1.189,0,2.525-0.371,3.491-0.742l1.708,7.946c-1.93,0.594-4.604,1.338-8.169,1.338
				c-9.135,0-12.701-5.721-12.701-14.262V427.459z"/>
			<path d="M1143.304,461.552c3.64,0,5.496-1.931,6.462-4.828l0.52-1.931l-14.187-35.874h10.992l5.273,15.82
				c1.041,3.343,1.932,6.834,2.897,10.472h0.297c0.816-3.49,1.634-6.981,2.525-10.472l4.456-15.82h10.473l-12.774,37.21
				c-3.491,9.285-7.428,14.039-16.119,14.039c-2.227,0-3.713-0.298-5.199-0.743l1.931-8.318
				C1141.521,461.256,1142.487,461.552,1143.304,461.552z"/>
		</g>
	</g>
	<g transform="translate(-0.162903,224.575867) scale(0.100000,-0.100000)">
		<g>
			<path fill="#00783E" d="M27264.078,1523.698c-1018.506-137.139-1831.279-970.102-1948.242-1992.651
				c-108.926-947.905,395.283-1865.581,1262.539-2297.143c611.084-304.58,1391.592-294.502,2020.85,24.17
				c863.223,435.635,1357.324,1403.721,1208.105,2361.728c-143.213,933.794-857.148,1684.067-1780.898,1875.659
				C27832.838,1535.803,27453.688,1549.924,27264.078,1523.698z M27980.045,1453.112
				c570.771-106.89,1105.264-459.834,1421.875-937.832c594.971-893.457,484.033-2047.09-270.225-2803.398
				c-855.146-855.156-2184.268-873.32-3093.857-40.352c-326.719,300.518-586.885,794.658-659.512,1258.515
				c-36.289,217.793-16.133,681.689,38.34,885.391c217.812,828.921,865.215,1450.112,1696.152,1629.614
				C27334.654,1493.454,27750.162,1497.487,27980.045,1453.112z"/>
			<path fill="#00783E" d="M27374.986,1350.251c-54.424-18.149-80.645-72.603-80.645-161.348
				c0-185.547,187.559-231.938,248.066-60.508c20.156,54.463-36.299,40.337-62.5-16.133c-12.129-28.237-36.309-50.425-52.441-50.425
				c-70.596,0-123.027,163.374-68.594,217.822c32.266,32.271,86.719,30.259,116.973-6.045
				c48.428-58.491,82.715-26.221,36.309,34.287C27481.9,1346.223,27417.369,1364.377,27374.986,1350.251z"/>
			<path fill="#00783E" d="M27619.059,1348.229c-14.141-4.023-22.207-68.569-22.207-157.31v-149.243l60.518-4.038
				c34.277-2.017,76.631-4.028,94.785-4.028c18.174-2.021,36.289,10.088,42.354,24.199c4.023,16.138-18.174,24.204-74.609,24.204
				c-74.639,0-82.725,4.033-82.725,50.42c0,48.403,4.072,50.425,82.725,38.315c66.533-12.1,82.686-8.071,74.609,14.131
				c-4.014,16.133-42.354,30.244-82.676,34.277c-58.496,6.055-74.658,14.111-74.658,46.392c0,32.256,14.141,38.32,80.674,38.32
				c44.395,0,80.684,8.062,80.684,18.154C27798.531,1340.168,27657.369,1360.334,27619.059,1348.229z"/>
			<path fill="#00783E" d="M27181.402,1259.494c8.057-36.304,18.125-104.878,26.221-153.286
				c10.068-78.652,36.289-123.013,58.477-100.835c8.086,8.071-24.199,211.772-44.365,284.37
				C27201.568,1354.289,27167.271,1328.068,27181.402,1259.494z"/>
			<path fill="#00783E" d="M27857.037,1269.582c-18.174-48.403-14.121-62.524,28.223-96.802
				c26.24-22.197,64.512-50.425,84.707-62.539c22.207-12.1,30.254-30.244,22.207-44.365c-22.207-38.32-90.742-28.237-117.002,16.138
				c-32.256,50.42-56.465,52.441-56.465,4.033c0-54.458,40.332-84.707,112.959-84.707c125.049,0,149.209,129.082,34.277,179.497
				c-72.598,32.266-86.758,76.641-32.266,96.812c22.188,8.071,44.355-2.012,62.52-30.254c34.277-50.43,64.531-58.491,64.531-16.138
				c0,48.403-60.508,92.778-123.027,92.778C27891.334,1324.035,27873.17,1311.931,27857.037,1269.582z"/>
			<path fill="#00783E" d="M27072.486,1168.732v-137.144l-64.551,106.895c-78.623,127.065-143.184,147.236-72.598,24.194
				c56.465-100.84,149.268-215.796,163.369-201.675c6.055,6.045,14.111,84.702,22.188,177.48
				c8.047,137.153,6.045,165.386-18.145,165.386C27078.531,1303.869,27072.486,1273.615,27072.486,1168.732z"/>
			<path fill="#00783E" d="M26707.447,1168.732l-74.629-30.249l60.508-139.155c34.277-76.646,74.629-139.165,90.742-139.165
				c22.188,0,22.188,10.083-2.002,58.481c-28.223,54.458-28.223,58.496,24.189,80.684c44.365,22.183,56.484,20.161,78.672-10.093
				c14.121-18.149,28.223-42.354,32.266-54.453c4.023-12.1,18.145-14.111,30.234-6.045c18.164,10.078,12.109,32.266-20.156,78.652
				c-26.211,36.309-44.355,76.636-40.342,88.73c10.088,42.363-36.309,106.904-72.607,104.893
				C26796.178,1198.991,26747.76,1184.88,26707.447,1168.732z M26838.551,1112.263c6.025-18.149-8.086-42.344-40.342-64.546
				c-44.365-28.228-54.473-28.228-70.605-4.019c-24.199,40.327-22.188,72.603,8.066,84.697
				C26784.068,1148.561,26826.422,1142.516,26838.551,1112.263z"/>
			<path fill="#00783E" d="M28242.223,1162.678c-80.664-80.664-80.664-213.774,2.061-260.161
				c106.865-58.491,219.805,30.254,219.805,175.459C28464.088,1190.92,28324.947,1245.383,28242.223,1162.678z M28385.445,1142.516
				c50.439-28.223,48.389-102.866-4.043-169.414c-48.389-60.493-82.695-66.558-129.082-20.166
				c-38.311,38.32-26.211,116.982,24.229,175.459C28314.869,1168.732,28330.982,1170.749,28385.445,1142.516z"/>
			<path fill="#00783E" d="M26503.736,1059.826c-40.352-20.176-78.652-46.382-84.707-56.47
				c-16.152-24.204,127.07-264.204,153.281-264.204c32.256,0,157.314,82.695,157.314,102.861c0,28.232-36.299,22.173-90.771-14.116
				c-92.754-60.517-125.039,14.116-34.287,84.712c70.586,58.477,46.406,82.676-36.289,36.294
				c-54.463-32.275-64.541-34.292-80.664-8.071c-18.154,30.254,2.012,54.453,78.652,98.818
				c14.131,10.098,24.199,26.226,20.176,38.325C26580.396,1090.075,26550.143,1084.025,26503.736,1059.826z"/>
			<path fill="#00783E" d="M28488.307,965.031c-46.396-76.636-72.598-139.16-60.508-143.184
				c22.178-8.071,66.533,40.337,82.695,84.697c4.014,12.1,28.252,6.064,60.498-14.111c28.232-20.166,62.529-30.249,76.68-22.188
				c14.092,10.088,0,28.237-38.33,54.443c-38.35,24.214-58.525,50.425-50.439,68.589c14.092,36.299,48.398,36.299,98.848-2.021
				c48.369-36.309,68.525-38.32,68.525-4.043c0,12.114-36.27,44.375-78.604,68.569l-78.701,44.38L28488.307,965.031z"/>
			<path fill="#00783E" d="M26245.572,884.362c-36.27-30.264-44.385-48.403-32.266-92.764
				c18.145-70.596,60.508-84.717,147.227-54.468c50.43,18.159,76.66,20.176,92.764,4.048c32.295-32.28-24.17-86.738-78.623-74.629
				c-64.551,16.123-80.684-24.214-20.176-50.425c102.852-48.408,209.746,98.813,129.062,179.492
				c-30.264,30.254-108.887,32.28-127.051,4.043c-24.219-38.32-90.762-22.188-90.762,20.166c0,32.266,14.111,40.337,62.529,40.337
				c40.342,0,58.486,8.066,54.463,26.216C26368.619,926.721,26296.002,924.689,26245.572,884.362z"/>
			<path fill="#00783E" d="M27290.299,880.334c-155.293-28.242-296.484-78.657-490.078-179.502
				c-143.193-72.612-217.832-131.094-363.027-274.292c-240.02-240.005-358.994-445.728-447.754-778.501
				c-50.43-189.6-44.355-564.731,10.068-774.468c244.062-917.666,1196.016-1427.9,2099.561-1127.441
				c524.355,175.498,945.889,653.477,1058.838,1204.082c173.408,834.966-320.703,1643.721-1157.686,1893.813
				C27850.992,888.395,27445.592,908.566,27290.299,880.334z M27969.967,795.617
				c572.773-149.248,1020.547-625.215,1141.562-1216.152c70.576-338.823,28.203-655.464-133.145-988.247
				c-157.266-322.705-385.215-556.66-703.848-713.984c-223.906-112.93-435.674-163.359-689.775-165.352
				c-709.922-2.021-1302.881,433.604-1520.703,1121.348c-62.51,199.668-76.631,532.451-32.266,758.335
				c40.322,205.723,191.611,524.38,320.684,679.678c320.674,385.215,812.793,605.049,1294.795,576.816
				C27736.012,842.014,27881.256,819.826,27969.967,795.617z"/>
			<path fill="#00783E" d="M27399.225,612.087c-90.771-90.762-165.391-171.431-165.391-177.48
				c0-6.045,133.125-12.109,296.475-12.109l294.463-4.019l320.684-318.677c207.705-205.713,318.633-304.531,314.609-276.294
				c-4.023,24.194-205.723,248.066-449.785,500.171l-445.684,455.811L27399.225,612.087z"/>
			<path fill="#00783E" d="M26806.256,339.812l-258.154-6.045V93.757V-148.25l227.9,221.841l225.898,221.855h433.613
				c300.498,0,425.566,6.05,411.426,20.171C27824.771,337.8,27282.232,349.895,26806.256,339.812z"/>
			<path fill="#00783E" d="M28151.471,333.767c-4.014-6.05,82.725-100.84,193.652-211.772l199.609-199.668v-461.855
				c0-407.407,4.082-457.827,30.283-435.63c26.221,22.168,30.244,120.996,30.244,667.573v641.353l-223.857,6.045
				C28258.395,343.85,28153.512,339.812,28151.471,333.767z"/>
			<path fill="#00783E" d="M26562.213-275.33l-457.822-447.739l171.436-171.416l171.426-171.445v292.461v292.422l326.738,326.738
				c225.898,225.884,316.65,328.755,288.398,326.729C27038.189,172.419,26840.553-5.062,26562.213-275.33z"/>
			<path fill="#00783E" d="M27677.516,113.928c0-10.078,20.166-20.171,46.416-20.171c36.299,0,38.311,4.028,14.092,20.171
				C27699.732,140.144,27677.516,140.144,27677.516,113.928z"/>
			<path fill="#00783E" d="M27828.785,73.591c6.064-10.088,26.23-20.166,42.373-20.166c16.123,0,24.209,10.078,18.125,20.166
				c-6.016,12.1-26.182,20.166-42.344,20.166C27830.826,93.757,27822.75,85.69,27828.785,73.591z"/>
			<path fill="#00783E" d="M27132.984,13.088c-16.123-10.083-22.168-24.204-14.111-32.275c8.066-8.062,26.23-4.033,38.32,8.071
				c12.1,12.1,20.166,28.228,14.121,32.271C27167.271,27.199,27149.117,23.171,27132.984,13.088z"/>
			<path fill="#00783E" d="M27959.879,17.111c0-10.078,14.131-26.206,32.295-32.256c20.176-8.076,28.193-2.012,24.18,12.09
				C28006.275,27.199,27959.879,43.342,27959.879,17.111z"/>
			<path fill="#00783E" d="M27221.734-323.724c8.047-104.897,6.045-189.585-6.045-205.728
				c-26.23-40.337-153.301-38.306-199.668,4.038c-54.473,48.403-64.551,42.349-64.551-36.299
				c0-82.686,40.332-110.918,159.346-110.918c62.5,0,96.807,14.102,141.172,56.455c58.486,52.441,60.518,62.52,66.553,256.152
				l6.045,201.675l-58.486,6.05l-56.484,8.062L27221.734-323.724z"/>
			<path fill="#00783E" d="M27383.092-214.822c6.035-24.194,12.09-60.508,12.09-78.652c0-20.171,28.242-50.425,60.508-66.548
				c86.719-44.38,119.004-118.999,72.617-169.429c-20.176-22.173-62.549-50.415-94.805-62.505
				c-86.719-36.309-72.617-60.508,36.309-60.508c68.574,0,106.885,12.09,141.172,44.365l46.387,44.365l32.285-44.365
				c38.291-56.484,108.877-56.484,310.566-4.043c82.715,22.188,177.49,40.342,207.744,40.342c52.422,0,56.484,4.043,50.43,76.636
				c-4.053,58.486-14.111,74.629-46.416,74.629c-22.178,0-68.535,16.133-104.854,36.304c-88.76,46.396-199.688,46.396-227.939-4.033
				c-32.246-62.52-24.17-80.688,38.34-78.662c74.648,2.021,116.992-22.188,80.684-46.382
				c-34.287-22.192-201.699-22.192-233.955-2.017c-12.1,8.062-28.242,88.745-36.309,181.519
				c-10.098,110.913-24.189,165.381-40.342,165.381c-28.213,0-50.43-62.529-50.43-145.22c0-54.443,0-54.443-86.689,32.271
				c-48.418,46.387-106.885,90.762-133.115,98.828C27377.047-172.469,27372.994-176.492,27383.092-214.822z"/>
			<path fill="#00783E" d="M26822.408-301.541c-8.086-20.166-2.031-28.232,12.08-24.199c30.264,10.083,46.396,56.475,20.186,56.475
				C26844.576-269.266,26828.463-283.392,26822.408-301.541z"/>
			<path fill="#00783E" d="M28685.943-672.63v-312.617l-316.631-316.65c-175.469-175.469-304.541-318.672-286.377-318.672
				c18.125,0,239.971,203.711,494.131,451.768l461.807,451.777l-175.41,179.517l-177.52,177.485V-672.63z"/>
			<path fill="#00783E" d="M28343.072-418.523c0-16.128,10.088-36.299,20.156-42.349c12.148-6.055,20.176,6.05,20.176,28.237
				c0,24.199-8.027,42.363-20.176,42.363C28353.16-390.271,28343.072-402.376,28343.072-418.523z"/>
			<path fill="#00783E" d="M26560.221-483.064c-6.064-18.149-12.119-320.659-12.119-675.639v-643.369h252.119
				c139.16,0,252.08,4.053,252.08,8.057c0,6.074-98.789,106.934-221.836,225.879l-221.855,215.811v451.787
				C26608.609-493.143,26596.51-388.265,26560.221-483.064z"/>
			<path fill="#00783E" d="M28383.404-571.8c0-22.188,10.088-40.342,20.176-40.342c12.129,0,20.176,18.154,20.176,40.342
				c0,22.183-8.047,40.337-20.176,40.337C28393.492-531.463,28383.404-549.617,28383.404-571.8z"/>
			<path fill="#00783E" d="M26903.082-844.065c-6.064-16.143,0-30.244,12.09-30.244c14.141,0,18.154-42.383,12.1-127.07
				c-10.078-118.994-8.066-127.07,30.254-125.049c42.363,4.043,76.65,50.429,36.289,50.429c-12.09,0-22.178,18.125-22.178,40.322
				c0,30.254,14.131,40.342,52.471,40.342c50.41,0,52.412-4.033,38.281-72.607c-12.08-68.574-10.088-70.595,34.277-58.486
				c60.527,18.144,72.627,34.287,42.373,44.385c-32.266,12.09-36.289,207.734-6.055,207.734c12.119,0,20.166,14.102,20.166,30.244
				c0,18.145-18.145,30.254-48.389,30.254c-26.23,0-52.461-14.121-60.498-30.254c-6.074-16.143-2.041-30.244,8.037-30.244
				c12.119,0,20.186-18.174,20.186-40.342c0-30.254-14.131-40.352-50.43-40.352c-36.289,0-50.42,10.098-50.42,40.352
				c0,22.168,10.088,40.342,20.166,40.342c12.119,0,20.176,14.102,20.176,30.244c0,18.145-18.164,30.254-48.408,30.254
				C26937.35-813.812,26911.139-827.933,26903.082-844.065z"/>
			<path fill="#00783E" d="M27233.834-842.054c0-18.154,10.078-32.256,20.176-32.256c30.244,0,24.199-42.383-28.223-145.225
				l-44.385-92.764l46.377-10.088c48.408-8.086,92.783,28.213,50.43,42.353c-46.396,14.102-22.188,44.355,36.289,44.355
				c54.453,0,60.488-6.025,48.418-48.389c-10.078-42.363-6.045-46.406,40.332-38.32c50.439,10.088,68.555,36.299,36.309,50.42
				c-10.088,4.023-36.309,60.518-58.486,127.061c-34.287,104.873-46.416,120.996-92.793,127.041
				C27249.957-813.812,27233.834-819.876,27233.834-842.054z M27354.85-979.192c0-10.098-14.121-16.143-30.264-16.143
				c-30.244,0-40.332,42.344-16.133,66.543C27322.584-914.651,27354.85-950.95,27354.85-979.192z"/>
			<path fill="#00783E" d="M27475.846-844.065c0-16.143,10.098-30.244,20.176-30.244c30.244,0,26.211-195.645-4.043-207.734
				c-38.291-12.129-10.078-34.287,46.406-38.33c149.219-6.055,169.375,2.002,167.373,64.541c0,34.287-10.078,58.477-20.156,56.465
				c-10.098-4.033-16.133-22.178-14.121-40.332c4.023-28.242-8.076-36.299-54.482-36.299c-58.438,0-60.459,2.002-60.459,100.84
				c0,76.641,8.057,100.85,30.234,100.85c16.133,0,30.225,14.102,30.225,30.244c0,20.156-22.168,30.254-70.557,30.254
				S27475.846-823.909,27475.846-844.065z"/>
			<path fill="#00783E" d="M27778.355-842.054c0-18.154,10.088-32.256,22.217-32.256c26.211,0,10.078-80.693-34.316-169.434
				c-36.279-74.629-36.279-72.588,22.188-72.588c28.232,0,50.42,10.058,50.42,20.156c0,12.109-8.037,20.176-20.156,20.176
				c-10.107,0-20.176,10.068-20.176,20.166c0,12.09,28.252,20.156,62.549,20.156c52.422,0,58.467-6.025,48.379-40.322
				c-10.078-32.285-4.023-40.332,38.32-40.332c50.43,0,72.588,28.213,36.318,44.365c-10.088,4.023-36.318,60.518-58.486,127.061
				c-34.277,104.873-46.426,120.996-92.773,127.041C27794.508-813.812,27778.355-819.876,27778.355-842.054z M27897.369-979.192
				c2.012-10.098-12.109-16.143-28.242-16.143c-32.285,0-38.301,18.145-16.113,72.598c12.09,32.275,14.092,32.275,28.242-4.033
				C27889.283-946.937,27897.369-971.116,27897.369-979.192z"/>
			<path fill="#00783E" d="M28020.367-844.065c0-16.143,8.105-30.244,18.174-30.244c30.254,0,36.328-185.566,8.086-195.645
				c-62.529-24.219-16.152-46.377,94.766-46.377h121.016v70.576c0,38.32-8.066,70.596-20.186,70.596
				c-10.088,0-20.166-22.197-20.166-50.43c0-42.354-10.078-50.41-60.498-50.41c-58.447,0-60.498,2.002-60.498,100.84
				c0,76.641,8.057,100.85,30.254,100.85c16.143,0,30.244,14.102,30.244,30.244c0,20.156-22.178,30.254-70.596,30.254
				C28042.613-813.812,28020.367-823.909,28020.367-844.065z"/>
			<path fill="#00783E" d="M26729.625-872.308c0-24.219,10.088-42.344,20.166-42.344c12.109,0,20.166,12.09,20.166,28.213
				c0,16.162-8.057,36.318-20.166,42.373C26739.713-838.021,26729.625-850.12,26729.625-872.308z"/>
			<path fill="#00783E" d="M28383.404-864.241c0-16.133,10.088-30.244,20.176-30.244c12.129,0,20.176,14.111,20.176,30.244
				c0,16.123-8.047,30.264-20.176,30.264C28393.492-833.978,28383.404-848.118,28383.404-864.241z"/>
			<path fill="#00783E" d="M26769.957-1015.491c0-38.34,6.045-42.383,24.219-24.209c18.154,18.154,18.154,30.254,0,48.398
				C26776.002-973.157,26769.957-977.19,26769.957-1015.491z"/>
			<path fill="#00783E" d="M26669.117-1263.577c0-20.156,203.701-242.002,451.777-494.111l453.799-457.832l161.318,161.338
				c90.771,88.74,163.369,167.412,163.369,175.488c0,10.078-133.125,16.113-294.463,16.113h-294.443l-258.174,258.174
				C26669.117-1223.225,26669.117-1223.225,26669.117-1263.577z"/>
			<path fill="#00783E" d="M28383.404-1529.798l-211.758-211.777h-441.67c-389.248,0-437.646-4.014-415.479-30.244
				c22.207-26.201,121.016-30.254,657.52-30.254h633.242v242.021c0,133.105-1.992,242.031-6.035,242.031
				C28597.223-1318.02,28500.416-1412.825,28383.404-1529.798z"/>
			<path fill="#00783E" d="M27016.021-1362.405c10.078-30.244,56.465-46.377,56.465-20.176c0,10.098-14.131,26.23-32.256,32.256
				C27020.045-1342.239,27011.979-1348.284,27016.021-1362.405z"/>
			<path fill="#00783E" d="M28103.111-1356.35c-16.152-10.098-18.164-22.188-6.084-30.254c10.098-6.045,30.273,2.021,44.365,18.154
				C28169.625-1336.194,28147.457-1328.098,28103.111-1356.35z"/>
			<path fill="#00783E" d="M27137.037-1443.079c10.078-30.244,56.445-46.377,56.445-20.166c0,10.078-14.111,26.221-32.246,32.275
				C27141.061-1422.913,27132.984-1428.948,27137.037-1443.079z"/>
			<path fill="#00783E" d="M27980.045-1439.046c-40.332-24.199-10.078-48.408,32.305-24.199
				c18.125,10.078,24.18,24.199,14.082,30.273C28016.354-1426.946,27996.197-1428.948,27980.045-1439.046z"/>
			<path fill="#00783E" d="M27859.039-1499.563c-16.123-10.068-22.197-24.17-14.111-32.246c8.086-8.086,26.23-4.023,38.34,8.076
				C27913.502-1493.479,27897.369-1475.335,27859.039-1499.563z"/>
			<path fill="#00783E" d="M27546.441-1560.052c-6.035-10.088,6.045-20.176,28.252-20.176c24.199,0,42.305,10.088,42.305,20.176
				c0,12.08-12.08,20.156-28.193,20.156C27572.662-1539.895,27552.486-1547.971,27546.441-1560.052z"/>
			<path fill="#00783E" d="M28800.924,753.264c-94.805-54.448-131.074-86.714-117.002-100.845
				c14.16-14.111,28.271-14.111,46.416,2.021c20.186,16.147,38.32,12.109,74.609-14.111c40.352-30.254,44.414-42.363,24.209-78.667
				c-16.133-30.254-16.133-46.382,0-54.448c26.201-16.143,18.145-28.237,92.803,145.205
				C29004.615,842.014,28984.459,860.163,28800.924,753.264z M28903.775,714.938c-14.102-26.201-28.242-50.42-30.254-54.448
				c-4.004-4.033-20.156,4.028-36.318,18.159c-30.244,24.199-28.193,30.249,14.141,52.437
				C28917.896,769.406,28932.018,765.368,28903.775,714.938z"/>
			<path fill="#00783E" d="M28982.447,585.871c-100.84-80.674-139.17-129.082-102.842-129.082c6.025,0,52.412,32.271,100.82,72.607
				c48.398,40.342,88.73,66.553,88.73,60.503c0-8.071-26.221-54.453-60.518-102.852c-90.742-133.115-82.695-155.303,42.383-102.861
				c155.273,62.529,171.436,58.486,74.619-16.128c-84.707-66.562-121.025-112.949-84.707-112.949
				c6.025,0,64.521,42.358,129.062,92.773c74.629,58.486,114.961,102.852,106.895,121.016
				c-12.08,34.277,2.021,36.299-137.158-12.109c-64.531-22.183-121.016-40.327-125.02-40.327c-4.023,0,18.145,38.315,50.4,86.714
				c84.697,125.044,86.748,129.072,58.516,151.265C29103.443,670.588,29069.156,652.419,28982.447,585.871z"/>
			<path fill="#00783E" d="M25965.26,599.992c-60.508-60.508-52.451-116.982,26.201-195.64
				c78.652-78.652,153.281-88.735,213.779-28.232c44.395,44.37,50.42,84.697,18.164,143.198
				c-28.242,54.448-62.539,28.237-46.367-36.309c20.137-78.657-38.35-114.951-114.99-74.624
				c-78.662,40.342-104.873,92.773-68.584,141.187c14.131,22.178,46.406,38.311,68.584,38.311c58.496,0,54.463,38.325-6.055,46.392
				C26025.758,638.308,25989.439,624.187,25965.26,599.992z"/>
			<path fill="#00783E" d="M25830.113,414.436c-6.025-12.1-8.066-22.188-6.025-26.216c4.004-2.017,60.498-36.309,123.008-78.657
				c114.951-74.619,157.295-88.745,157.295-58.491C26104.391,281.32,25844.225,434.606,25830.113,414.436z"/>
			<path fill="#00783E" d="M29210.309,301.496c-72.578-40.337-135.107-76.641-139.111-78.657
				c-10.098-10.083,62.52-149.248,84.688-163.369c34.268-22.188,36.328,12.104,4.023,74.624
				c-28.213,54.448-30.254,68.569-6.035,82.69c42.354,28.242,52.422,22.188,88.75-44.365c20.176-42.358,38.281-56.475,52.432-42.358
				c12.1,12.104,10.098,40.342-12.109,80.669c-16.133,32.28-24.209,64.551-18.135,72.612c28.232,28.237,66.504,8.062,98.828-50.415
				c20.176-40.337,38.281-56.465,50.42-44.385c12.1,12.109,2.021,50.43-28.262,102.861l-46.387,82.695L29210.309,301.496z"/>
			<path fill="#00783E" d="M25757.496,301.496c-4.014-22.188,26.24-68.569,84.707-123.027l90.752-86.729l-133.086,14.126
				c-104.883,10.078-135.127,6.045-145.215-16.143c-6.055-20.166,28.242-48.403,118.994-92.778
				c135.127-66.548,169.404-76.631,169.404-48.398c0,10.078-44.375,38.315-100.85,64.541
				c-54.463,26.216-98.818,50.415-94.795,52.437c2.041,4.033,56.484-2.021,121.016-10.083c66.553-8.071,121.016-8.071,127.09,2.012
				c8.047,10.083-32.305,58.491-84.717,106.899c-112.969,102.861-106.904,110.928,32.256,40.342
				c54.453-28.232,102.881-42.363,110.928-32.275c8.066,16.123-40.332,44.365-276.318,159.326
				C25771.627,335.783,25761.549,321.662,25757.496,301.496z"/>
			<path fill="#00783E" d="M29391.822,103.85c-157.285-56.479-223.838-90.762-211.758-108.911c8.096-14.126,30.244-14.126,64.561,0
				c92.783,34.277,125.039-78.672,32.266-121.006c-34.268-16.147-46.387-30.254-32.266-44.38
				c22.188-22.188,127.041,16.138,127.041,44.38c0,8.066,28.242,18.14,62.568,22.173c92.744,8.081,110.928,52.441,66.514,151.265
				l-38.301,82.69L29391.822,103.85z M29464.479-41.375c-18.154-44.36-72.656-30.249-92.812,26.23
				c-26.191,66.553-26.191,64.531,26.24,72.598C29444.303,63.503,29482.604,9.045,29464.479-41.375z"/>
			<path fill="#00783E" d="M25586.061-118.001c-6.045-18.154-8.047-34.297-4.023-38.32
				c12.109-8.081,209.746-141.182,215.791-147.231c4.043-2.021,2.041-38.32-6.045-82.7l-12.07-78.652l-123.066,20.171
				c-74.609,10.083-129.053,10.083-141.172-2.031c-14.092-14.106,201.689-64.526,284.395-64.526
				c10.078,0,28.223,48.403,42.334,104.863c18.154,92.783,18.154,108.926-12.09,131.099
				c-52.451,38.335-20.166,147.236,44.375,147.236c26.201,0,48.398,10.093,48.398,20.166c0,12.114-66.553,20.176-161.338,20.176
				C25634.479-87.752,25596.148-93.812,25586.061-118.001z M25781.705-146.238c0-6.06-8.057-24.209-18.164-40.342
				c-14.092-22.188-26.201-20.166-70.557,8.071c-28.242,20.161-52.451,38.32-52.451,42.354s32.275,6.045,70.586,4.033
				C25749.449-134.144,25781.705-140.188,25781.705-146.238z"/>
			<path fill="#00783E" d="M29387.818-184.563c-70.566-20.166-116.992-44.37-116.992-60.513c0-16.128,14.131-22.173,36.328-16.128
				c18.154,6.055,86.738,24.209,151.27,42.363c62.5,18.145,114.922,42.349,114.922,52.432
				C29573.346-142.215,29526.979-146.238,29387.818-184.563z"/>
			<path fill="#00783E" d="M29343.453-311.624c-30.225-24.209-52.451-60.508-52.451-90.752c0-54.458,64.57-129.087,110.918-129.087
				c44.404,0,36.328,54.453-10.098,66.558c-60.508,16.128-52.412,102.861,10.098,131.099c28.232,14.121,68.584,24.204,86.738,24.204
				c78.662,0,114.961-102.861,50.43-139.175c-30.254-16.128-32.266-24.199-10.078-46.387c22.168-22.183,34.248-18.145,66.562,22.188
				c48.369,60.513,48.369,112.954-2.051,163.374C29539.088-255.149,29414.059-255.149,29343.453-311.624z"/>
			<path fill="#00783E" d="M25521.549-569.788c-22.188-22.168-36.328-56.455-32.285-76.641c4.033-20.166,8.066-46.377,8.066-60.508
				c2.031-32.256,72.607-52.422,123.037-36.289c22.197,8.047,46.377,40.352,56.465,76.631c18.154,70.596,76.65,96.807,98.838,42.354
				c8.066-22.188-2.021-46.387-34.297-72.598c-60.508-48.418-28.242-90.771,36.289-44.375
				c80.684,56.475,40.332,209.751-54.434,209.751c-46.396,0-80.664-40.337-100.85-114.966
				c-8.086-30.264-28.232-56.445-44.365-56.445c-40.352,0-46.377,68.555-8.076,110.918
				C25616.305-541.561,25571.949-519.363,25521.549-569.788z"/>
			<path fill="#00783E" d="M29331.314-579.866c0-14.121,18.193-32.275,40.352-38.33c28.242-6.045,40.342-28.232,40.342-64.531
				c0-36.318-12.1-58.486-40.342-64.551c-22.158-6.035-40.352-22.158-40.352-36.289c0-20.156,44.434-12.109,161.348,26.221
				c203.75,66.543,203.75,94.795,0,159.336c-82.656,24.199-153.252,46.387-155.254,46.387
				C29333.395-551.624,29331.314-563.733,29331.314-579.866z M29526.979-654.495c52.441-20.166,54.453-24.209,16.123-38.311
				c-66.533-28.252-90.752-22.188-90.752,20.176C29452.35-626.243,29452.35-626.243,29526.979-654.495z"/>
			<path fill="#00783E" d="M25646.559-807.776c-98.809-6.035-147.197-16.133-147.197-32.256c0-18.164,44.365-22.197,161.318-18.164
				c123.057,6.035,161.367,14.131,161.367,36.299c0,16.143-6.045,26.221-14.111,24.219
				C25797.828-799.7,25725.23-805.755,25646.559-807.776z"/>
			<path fill="#00783E" d="M29537.076-1140.54c12.09-36.328,56.445-42.354,56.445-8.096c0,18.164-14.102,32.305-32.246,32.305
				C29543.102-1116.331,29533.033-1126.428,29537.076-1140.54z"/>
			<path fill="#00783E" d="M25696.998-1213.147c-72.598-20.176-116.982-44.365-116.982-60.508c0-18.154,12.129-24.209,34.277-16.143
				c18.193,8.066,90.771,28.242,159.355,44.375c70.576,18.164,123.018,40.312,116.963,50.41
				C25876.49-1170.803,25836.158-1174.846,25696.998-1213.147z"/>
			<path fill="#00783E" d="M29252.711-1233.323c-12.129-4.043-22.207-18.154-20.156-30.254
				c0-26.221,227.842-195.625,260.107-195.625c32.305,0,24.238,36.289-12.07,56.465c-54.434,30.254-20.195,125.029,42.354,125.029
				c32.295,0,50.4,12.1,50.4,30.254c0,26.221-26.182,30.293-149.199,26.221C29343.453-1223.225,29264.811-1229.3,29252.711-1233.323
				z M29418.053-1309.983c-14.082-38.301-32.256-36.289-86.738,8.086l-46.357,36.289l72.598-8.047
				C29407.994-1279.729,29426.158-1289.798,29418.053-1309.983z"/>
			<path fill="#00783E" d="M25707.096-1318.02c-119.004-72.607-78.662-242.031,58.486-242.031
				c145.215,0,233.926,112.939,175.469,219.824C25902.721-1271.643,25795.826-1261.555,25707.096-1318.02z M25878.512-1350.325
				c58.516-40.303,56.465-76.621-10.088-129.053c-62.51-48.418-143.193-46.357-175.439,6.055c-26.24,42.354,0,92.754,70.557,129.082
				C25824.088-1311.985,25824.088-1311.985,25878.512-1350.325z"/>
			<path fill="#00783E" d="M25862.359-1610.481c-135.107-137.119-120.986-173.447,40.361-112.939
				c60.488,22.197,110.928,38.33,114.951,36.338c2.021-4.072-30.244-42.383-74.619-84.736
				c-74.629-72.607-102.852-131.084-64.541-131.084c14.111,0,181.504,54.463,282.354,90.732
				c14.121,6.084,22.207,18.154,14.121,28.242c-6.055,12.109-58.477,4.014-127.061-20.156l-114.971-40.342l84.717,86.738
				c112.939,114.951,94.805,151.26-52.412,94.775c-60.508-22.178-110.947-36.309-114.961-32.256
				c-6.074,4.014,30.234,44.355,80.645,90.762c78.662,72.598,94.814,104.844,52.441,104.844
				C25977.35-1499.563,25922.887-1549.973,25862.359-1610.481z"/>
			<path fill="#00783E" d="M29109.469-1543.919c-48.369-52.412-52.412-102.842-8.008-145.225
				c44.326-46.377,88.691-40.322,153.242,22.227c42.363,40.332,62.549,48.369,78.691,32.266
				c34.258-34.316,8.027-84.756-56.504-110.938c-54.434-22.188-56.484-24.219-10.078-32.266
				c68.584-10.088,102.852,8.047,125.01,66.523c44.414,117.012-68.535,189.609-159.268,102.852
				c-66.582-62.5-102.9-66.523-102.9-12.09c0,26.25,20.156,48.408,54.492,62.529c44.346,16.143,48.408,24.229,26.162,38.33
				C29165.973-1491.468,29155.885-1495.491,29109.469-1543.919z"/>
			<path fill="#00783E" d="M29412.008-1527.796c0-18.125,14.15-32.256,32.295-32.256c34.287,0,28.223,44.375-8.066,56.475
				C29422.086-1499.563,29412.008-1509.632,29412.008-1527.796z"/>
			<path fill="#00783E" d="M28948.141-1794.016c0-6.045,42.373-50.41,96.816-98.828c78.672-72.598,90.752-92.764,72.598-122.998
				c-34.287-58.506-58.486-54.453-165.352,30.234c-131.084,104.854-157.344,72.598-30.244-36.318
				c118.975-100.84,193.574-108.877,233.926-26.172c36.328,74.59,26.221,102.842-80.684,191.572
				C28992.535-1787.942,28948.141-1765.764,28948.141-1794.016z"/>
			<path fill="#00783E" d="M29220.406-1860.579c-14.111-24.189,24.219-48.369,50.42-32.266c22.217,14.15,8.086,50.43-20.176,50.43
				C29240.582-1842.415,29228.492-1850.501,29220.406-1860.579z"/>
			<path fill="#00783E" d="M26068.102-1925.11c-70.596-32.256-123.018-66.553-114.951-78.652c8.066-14.102,24.199-14.102,48.398,0
				c54.443,28.242,108.906-38.33,90.762-108.906c-22.197-94.795,28.232-56.455,102.852,74.629
				c38.32,70.586,70.586,139.17,70.586,151.27C26265.748-1848.44,26205.24-1860.579,26068.102-1925.11z M26193.15-1947.278
				c-38.33-68.564-52.451-76.65-82.695-52.432c-24.199,20.186-22.188,28.213,18.145,48.379
				C26189.098-1917.024,26211.295-1917.024,26193.15-1947.278z"/>
			<path fill="#00783E" d="M28776.715-2205.442c-42.354-46.377-24.209-78.672,26.23-48.428c38.33,24.248,58.486,88.76,28.232,88.76
				C28821.119-2165.11,28796.861-2183.264,28776.715-2205.442z"/>
			<path fill="#00783E" d="M26306.1-2201.38c0-20.166,66.533-84.746,86.709-84.746c30.244,0,12.1,60.498-24.189,80.684
				C26320.211-2181.223,26306.1-2179.212,26306.1-2201.38z"/>
			<path fill="#00783E" d="M28449.977-2239.719c-76.641-38.33-76.641-42.354-34.268-143.193l30.264-74.639l38.291,50.43
				c32.305,40.312,44.375,46.396,74.639,28.232c58.506-36.318,46.357-98.818-18.154-98.818
				c-72.598-2.012-88.77-22.207-42.354-48.428c88.75-46.377,177.451,62.549,127.041,157.324
				c-24.199,46.406-116.973,58.496-155.293,20.186c-14.102-14.111-24.17-12.1-32.275,8.066c-6.025,18.154,8.105,40.342,38.35,54.434
				c26.201,16.162,48.379,38.33,48.379,54.492c0,14.111-2.012,26.191-4.023,24.17
				C28516.568-2207.464,28484.264-2223.616,28449.977-2239.719z"/>
			<path fill="#00783E" d="M26588.434-2263.948c-30.234-58.457-26.221-78.623,30.264-127.031
				c56.455-48.428,64.541-92.773,20.156-108.936c-40.322-16.133-90.752,26.25-90.752,74.609c0,22.227-8.057,38.34-20.156,38.34
				c-34.307,0-22.188-92.754,16.123-127.041c50.42-46.396,139.17-44.385,165.391,4.023c30.254,58.506,26.211,80.664-32.275,133.115
				c-34.297,30.244-48.408,60.498-40.322,82.656c16.133,40.342,56.465,28.252,82.666-28.193
				c22.207-50.41,70.605-60.508,70.605-14.15C26790.133-2245.784,26628.775-2189.3,26588.434-2263.948z"/>
			<path fill="#00783E" d="M28238.209-2342.571c-74.609-34.297-114.941-104.893-40.352-74.639
				c104.873,42.344,104.873,42.344,100.85-88.74c-2.012-110.938,10.098-165.381,32.275-141.191
				c8.066,8.076,20.166,260.176,14.141,316.66C28343.072-2300.218,28333.014-2302.219,28238.209-2342.571z"/>
			<path fill="#00783E" d="M26802.232-2401.067c-18.164-42.354-44.375-106.895-60.498-141.182
				c-24.209-52.412-24.209-66.562-4.043-66.562c14.131,0,54.463,64.551,88.73,141.152c44.385,100.85,54.463,141.191,36.318,141.191
				C26846.588-2326.468,26820.377-2360.725,26802.232-2401.067z"/>
			<path fill="#00783E" d="M26872.818-2489.807c-28.242-84.707-38.33-151.279-28.242-161.338
				c12.109-12.1,34.297,28.242,56.484,96.816l38.32,116.943l30.264-135.127c16.123-74.629,42.334-141.172,54.463-145.225
				c30.225-12.08,135.098,284.414,106.885,300.527c-20.176,14.131-28.242-4.014-68.604-135.117l-26.201-86.738l-22.178,90.762
				C26953.512-2306.292,26935.338-2298.225,26872.818-2489.807z"/>
			<path fill="#00783E" d="M27992.174-2439.407c-44.395-42.334-40.342-100.83,8.047-149.238
				c32.295-32.256,50.41-36.279,90.742-20.166c68.604,26.24,68.604,26.24,56.494-18.154c-12.09-44.365-58.496-70.596-76.65-42.363
				c-18.135,30.264-50.439,24.219-50.439-8.066c0-26.201,40.361-52.422,82.744-52.422c10.088,0,36.27,18.145,58.447,40.332
				c34.307,34.307,38.32,56.484,28.242,116.973C28161.559-2423.245,28068.795-2360.725,27992.174-2439.407z M28111.139-2507.962
				c0-36.299-12.07-52.441-42.344-56.455c-52.441-8.096-80.684,48.369-46.387,90.752
				C28058.717-2431.331,28111.139-2451.477,28111.139-2507.962z"/>
			<path fill="#00783E" d="M27209.615-2467.659c-60.498-46.348-86.709-153.242-58.477-227.842
				c34.287-90.781,187.559-96.826,213.779-12.139c20.176,62.529-4.033,70.576-48.389,16.152
				c-32.275-40.342-46.406-44.355-76.641-26.25c-42.363,26.25-58.486,131.104-26.23,189.58
				c30.254,56.494,90.781,50.449,139.18-14.092l40.332-56.494l2.012,52.451
				C27395.182-2449.466,27288.277-2405.11,27209.615-2467.659z"/>
			<path fill="#00783E" d="M27834.85-2489.807c-44.355-48.428-44.355-52.441,4.014-64.521c30.264-8.076,40.322-28.242,40.322-78.672
				c0-66.572,28.252-135.166,48.428-114.99c14.15,14.15-30.244,300.527-46.357,298.525
				C27875.172-2449.466,27853.014-2467.659,27834.85-2489.807z"/>
			<path fill="#00783E" d="M27449.635-2512.005c-4.043-26.23-10.078-98.818-12.08-161.348l-4.053-116.973h100.84
				c54.463,0,104.873,8.066,110.918,18.154c14.131,22.178-98.818,50.43-129.082,32.246c-12.09-8.066-20.156,8.096-20.156,38.33
				c0,46.416,8.066,52.451,70.596,52.451c88.711,0,92.773,36.309,6.045,44.375c-50.43,4.014-68.574,16.123-72.598,52.441
				c-6.045,38.32,2.002,44.365,64.531,44.365c40.322,0,72.578,10.059,72.578,20.156c0,12.1-40.322,20.146-88.701,20.146
				C27473.844-2467.659,27457.711-2473.665,27449.635-2512.005z"/>
			<path fill="#00783E" d="M29238.551-2366.809c-135.107-54.414-145.195-282.334-14.092-340.83
				c125.049-56.445,272.285,0,294.463,116.992C29553.189-2423.245,29397.906-2302.219,29238.551-2366.809z M29428.15-2427.317
				c119.014-110.918-1.992-318.633-151.26-260.156c-108.906,40.332-139.16,153.301-64.531,248.066
				C29264.811-2372.815,29363.639-2368.811,29428.15-2427.317z"/>
			<path fill="#00783E" d="M29250.65-2546.292c0-56.465,10.107-102.852,20.176-102.852c12.119,0,20.176,18.145,20.176,40.332
				c0,22.178,12.129,40.322,28.232,40.322c16.162,0,36.338-18.145,42.354-40.322c22.227-72.607,44.395-42.334,42.383,56.484
				c-2.051,94.775-2.051,94.775-76.67,100.85l-76.65,6.025V-2546.292z M29357.555-2497.903c2.012-10.059-12.08-22.158-30.254-26.172
				c-22.148-4.082-36.299,6.025-36.299,26.172C29291.002-2463.587,29351.49-2461.565,29357.555-2497.903z"/>
		</g>
	</g>
	<g>
		<g>
			<path fill="#AFAFAF" d="M1985.382,78.486c9.189,0.002,66.262,27.998,74.475,56.057c1.343,4.59,2.365,9.543,2.968,14.621
				c36.424-34.395,85.544-55.487,139.597-55.487c112.32,0,203.375,91.054,203.375,203.375c0,112.322-91.055,203.374-203.375,203.374
				c-112.322,0-203.376-91.052-203.376-203.374c0-33.122,7.924-64.392,21.97-92.026c-16.888-1.699-33.58-13.133-42.97-26.616
				c-23.059-33.111,8.984-60.703,6.093-99.197C1984.1,78.721,1984.539,78.486,1985.382,78.486 M1985.386,58.209
				c-0.001,0-0.001,0-0.002,0c-6.296,0-12.02,2.335-16.118,6.751c-3.96,4.269-5.98,10.009-5.542,15.833
				c0.861,11.479-2.802,22.606-6.686,34.413c-6.854,20.848-15.382,46.782,4.209,74.913c6.297,9.045,14.759,17.092,24.464,23.282
				c2.41,1.538,4.869,2.936,7.363,4.197c-9.633,25.264-14.5,51.892-14.5,79.454c0,30.21,5.92,59.525,17.599,87.138
				c11.274,26.657,27.412,50.593,47.964,71.146c20.551,20.55,44.487,36.687,71.146,47.962
				c27.609,11.678,56.927,17.599,87.138,17.599s59.526-5.921,87.137-17.599c26.658-11.275,50.596-27.412,71.146-47.963
				c20.552-20.553,36.689-44.487,47.963-71.146c11.68-27.611,17.6-56.929,17.6-87.138c0-30.21-5.92-59.527-17.6-87.138
				c-11.273-26.658-27.411-50.595-47.963-71.145c-20.55-20.552-44.487-36.689-71.146-47.965
				c-27.61-11.678-56.926-17.599-87.137-17.599c-46.887,0-91.894,14.482-129.548,41.271c-7.735-12.183-20.743-24.154-38.864-35.733
				c-8.326-5.32-17.501-10.229-25.829-13.998C1995.185,58.867,1989.171,58.209,1985.386,58.209L1985.386,58.209z"/>
		</g>
		<circle fill="#60AAD4" cx="2202.42" cy="297.052" r="203.375"/>
		<path fill="#95BC4E" d="M2059.856,134.543c6.652,22.729,5.615,54.269-16.977,66.383c-22.594,12.114-51.301-3.083-64.835-22.516
			c-23.059-33.111,8.984-60.703,6.093-99.198C1983.697,73.354,2050.891,103.911,2059.856,134.543z"/>
		<path fill="#DEDE3B" d="M2047.107,200.259c2.406-4.933-8.01-39.385-8.01-39.385l14.463-29.149l-2.002-1.112
			c0,0-13.821,25.44-14.02,24.921c-8.233-21.473-30.039-61.635-38.718-61.191c-0.669,0.035-2.678,2.231-1.056,3.31
			c7.23,4.812,24.644,33.516,26.424,41.638c0.095,0.438-27.537-13.574-36.492-15.131c-0.668-0.116-3.083,1.682-0.446,2.67
			c13.073,4.896,35.227,15.367,39.44,19.581c3.116,3.115,9.623,25.145,7.51,25.145c-3.449,0-43.556-23.586-54.737-23.364
			c-0.951,0.019-3.634,2.617-1.335,3.561c14.909,6.118,52.767,24.735,57.444,28.777c1.631,1.41,0.667,22.77,1.742,23.512
			C2039.478,205.531,2046.438,201.631,2047.107,200.259z"/>
		<g>
			<g>
				<path fill="#FFFFFF" d="M2041.859,381.387v-164.22h12.434v164.22H2041.859z"/>
				<path fill="#FFFFFF" d="M2226.016,358.631c-16.421,16.425-38.237,24.634-59.822,24.634c-55.365,0-84.221-38.71-84.456-83.047
					c-0.468-43.872,28.152-84.928,84.456-84.928c21.585,0,43.401,8.211,59.822,24.634l-8.679,7.507
					c-14.076-14.077-32.61-20.879-51.144-20.879c-47.857,0-72.49,33.783-72.258,73.194c0.472,38.476,24.87,71.789,72.258,71.789
					c18.533,0,37.303-7.039,51.378-20.88L2226.016,358.631z"/>
				<path fill="#FFFFFF" d="M2364.659,248.839c-11.965-19.238-31.204-22.053-49.735-22.288c-19.238,0-49.736,7.037-49.736,33.312
					c0,20.88,22.523,25.806,50.204,30.968c31.672,6.101,64.515,11.73,64.515,47.154c-0.232,37.069-37.535,45.981-64.982,45.981
					c-25.572,0-54.662-10.557-67.332-35.657l11.261-5.632c10.088,19.94,35.894,29.793,56.071,29.793
					c20.176,0,52.314-5.629,52.314-34.719c0.236-24.635-26.979-30.029-53.959-35.19c-30.029-5.865-60.76-11.966-60.76-42.228
					c-0.703-34.721,35.424-45.514,62.404-45.514c23.46,0,43.869,3.754,60.059,27.918L2364.659,248.839z"/>
			</g>
		</g>
	</g>
	<g>
		<g>
			<path fill="#FFFFFF" d="M433.162,307.197c-7.896,0-14.319-6.424-14.319-14.318c0-7.897,6.423-14.319,14.319-14.319
				c7.896,0,14.319,6.422,14.319,14.319C447.481,300.773,441.058,307.197,433.162,307.197z M433.162,280.82
				c-6.648,0-12.059,5.409-12.059,12.059c0,6.648,5.41,12.058,12.059,12.058s12.058-5.409,12.058-12.058
				C445.22,286.229,439.811,280.82,433.162,280.82z"/>
		</g>
		<g>
			<path fill="#FFFFFF" d="M437.893,301.982l-4.119-7.221h-3.078v7.221h-2.19v-17.104h5.372c3.469,0,5.971,1.25,5.971,4.797
				c0,2.659-1.513,4.25-3.833,4.851l4.355,7.456H437.893z M430.696,292.988h2.869c2.659,0,4.12-1.097,4.12-3.312
				c0-2.243-1.46-3.05-4.12-3.05h-2.869V292.988z"/>
		</g>
	</g>
	<g>
		<circle fill="#224E8A" cx="240.352" cy="240.202" r="210.476"/>
		<path fill="#FFFFFF" d="M181.133,149.459v177.391h-40.43l-23.997-80.643v80.643H78.139V149.459h38.567l25.859,79.875v-79.875
			H181.133z"/>
		<path fill="#FFFFFF" d="M293.215,203.147h-42.842v-13.148c0-6.135-0.548-10.042-1.644-11.724c-1.097-1.679-2.922-2.52-5.479-2.52
			c-2.776,0-4.876,1.133-6.3,3.4c-1.424,2.267-2.136,5.701-2.136,10.306c0,5.92,0.798,10.38,2.4,13.376
			c1.53,2.997,5.875,6.613,13.037,10.845c20.535,12.187,33.466,22.19,38.799,30.004c5.331,7.817,7.998,20.417,7.998,37.801
			c0,12.638-1.478,21.951-4.437,27.939c-2.958,5.99-8.675,11.011-17.147,15.064c-8.476,4.055-18.337,6.083-29.585,6.083
			c-12.345,0-22.882-2.34-31.609-7.011c-8.731-4.676-14.447-10.63-17.148-17.861c-2.704-7.23-4.054-17.494-4.054-30.789v-11.614
			h42.841v21.584c0,6.648,0.603,10.921,1.807,12.82c1.206,1.898,3.343,2.849,6.41,2.849c3.069,0,5.35-1.206,6.85-3.616
			c1.496-2.412,2.245-5.988,2.245-10.737c0-10.446-1.423-17.274-4.272-20.49c-2.923-3.213-10.119-8.582-21.585-16.106
			c-11.469-7.597-19.065-13.11-22.791-16.545c-3.725-3.433-6.812-8.179-9.258-14.243c-2.448-6.063-3.671-13.806-3.671-23.229
			c0-13.586,1.735-23.519,5.205-29.802c3.468-6.281,9.076-11.193,16.819-14.737c7.741-3.542,17.092-5.314,28.049-5.314
			c11.979,0,22.188,1.937,30.624,5.807c8.438,3.873,14.025,8.748,16.765,14.627c2.739,5.88,4.109,15.871,4.109,29.966V203.147z"/>
		<path fill="#FFFFFF" d="M307.342,149.459h78.123v35.5h-31.994v33.638h28.487v33.747h-28.487v74.507h-46.129V149.459z"/>
		
			<rect x="28.868" y="474.847" fill="none" stroke="#224E8A" stroke-width="6.0424" stroke-miterlimit="10" width="418.938" height="75.53"/>
		<g>
			<g>
				<g>
					<path fill="#224E8A" d="M131.639,482.583c2.273,1.211,3.664,3.333,4.172,6.363h-3.11c-0.373-1.693-1.14-2.93-2.306-3.702
						s-2.634-1.159-4.407-1.159c-2.103,0-3.874,0.804-5.312,2.414c-1.437,1.61-2.157,4.012-2.157,7.201
						c0,2.759,0.594,5.005,1.78,6.735c1.187,1.732,3.121,2.598,5.805,2.598c2.052,0,3.751-0.606,5.098-1.825
						c1.348-1.215,2.037-3.18,2.067-5.898h-7.265v-2.604h10.186v12.412h-2.02l-0.759-2.983c-1.046,1.167-1.973,1.979-2.781,2.432
						c-1.356,0.779-3.079,1.167-5.172,1.167c-2.704,0-5.028-0.888-6.974-2.668c-2.124-2.232-3.186-5.294-3.186-9.19
						c0-3.885,1.039-6.974,3.113-9.271c1.972-2.188,4.524-3.283,7.658-3.283C128.216,481.32,130.073,481.741,131.639,482.583z"/>
					<path fill="#224E8A" d="M141.599,481.92h4.502l6.669,19.612l6.623-19.612h4.471v23.197h-3v-13.69
						c0-0.474,0.01-1.258,0.031-2.354c0.022-1.096,0.033-2.269,0.033-3.521l-6.624,19.564h-3.113l-6.686-19.564v0.711
						c0,0.568,0.017,1.432,0.047,2.598c0.031,1.163,0.047,2.019,0.047,2.565v13.69h-3V481.92z"/>
					<path fill="#224E8A" d="M169.241,481.92h10.381c2.05,0,3.708,0.582,4.969,1.745c1.263,1.164,1.894,2.798,1.894,4.903
						c0,1.812-0.563,3.387-1.689,4.73c-1.126,1.342-2.85,2.011-5.17,2.011h-7.244v9.808h-3.141V481.92z M181.429,485.111
						c-0.689-0.327-1.636-0.492-2.837-0.492h-6.209v8.039h6.209c1.399,0,2.537-0.301,3.409-0.9c0.873-0.599,1.309-1.658,1.309-3.174
						C183.31,486.879,182.683,485.72,181.429,485.111z"/>
					<path fill="#224E8A" d="M199.954,481.92H210.5c1.735,0,3.167,0.257,4.295,0.774c2.139,0.99,3.209,2.817,3.209,5.479
						c0,1.391-0.287,2.527-0.86,3.41c-0.574,0.887-1.376,1.597-2.409,2.134c0.906,0.368,1.588,0.853,2.045,1.451
						c0.459,0.603,0.714,1.576,0.766,2.923l0.11,3.11c0.033,0.885,0.106,1.543,0.222,1.975c0.189,0.737,0.526,1.211,1.01,1.422v0.52
						h-3.854c-0.104-0.2-0.188-0.458-0.251-0.773c-0.064-0.316-0.117-0.928-0.159-1.832l-0.188-3.87
						c-0.074-1.514-0.621-2.529-1.643-3.045c-0.583-0.287-1.5-0.429-2.748-0.429h-6.951v9.949h-3.142V481.92z M210.162,492.547
						c1.432,0,2.565-0.293,3.4-0.884c0.835-0.59,1.252-1.651,1.252-3.189c0-1.651-0.583-2.778-1.751-3.379
						c-0.624-0.315-1.458-0.476-2.502-0.476h-7.464v7.928H210.162z"/>
					<path fill="#224E8A" d="M233.321,488.67c1.119,0.563,1.973,1.294,2.559,2.189c0.565,0.851,0.94,1.846,1.129,2.983
						c0.167,0.78,0.25,2.021,0.25,3.727h-12.301c0.053,1.722,0.455,3.102,1.208,4.142c0.751,1.038,1.917,1.559,3.493,1.559
						c1.473,0,2.648-0.491,3.526-1.474c0.491-0.572,0.838-1.232,1.043-1.985h2.795c-0.074,0.623-0.318,1.314-0.734,2.078
						c-0.417,0.764-0.88,1.385-1.393,1.869c-0.856,0.845-1.916,1.413-3.182,1.707c-0.678,0.168-1.446,0.253-2.303,0.253
						c-2.092,0-3.867-0.767-5.322-2.297c-1.452-1.532-2.18-3.679-2.18-6.438c0-2.714,0.733-4.92,2.198-6.615
						c1.464-1.696,3.378-2.543,5.743-2.543C231.046,487.825,232.201,488.107,233.321,488.67z M234.339,495.31
						c-0.115-1.229-0.38-2.214-0.799-2.952c-0.771-1.368-2.062-2.052-3.867-2.052c-1.293,0-2.379,0.471-3.256,1.413
						c-0.877,0.942-1.342,2.14-1.395,3.591H234.339z"/>
					<path fill="#224E8A" d="M250.587,488.884c0.535,0.369,1.08,0.908,1.635,1.61v-2.133h2.622v15.383
						c0,2.147-0.316,3.842-0.945,5.084c-1.174,2.295-3.394,3.443-6.657,3.443c-1.814,0-3.343-0.408-4.58-1.224
						c-1.238-0.815-1.93-2.095-2.078-3.829h2.889c0.137,0.757,0.409,1.343,0.817,1.753c0.64,0.631,1.645,0.947,3.016,0.947
						c2.167,0,3.586-0.77,4.256-2.306c0.398-0.905,0.582-2.521,0.55-4.85c-0.567,0.865-1.248,1.507-2.046,1.928
						c-0.796,0.42-1.85,0.631-3.161,0.631c-1.824,0-3.42-0.649-4.79-1.949c-1.368-1.299-2.052-3.45-2.052-6.451
						c0-2.832,0.691-5.042,2.067-6.632c1.38-1.591,3.045-2.385,4.995-2.385C248.448,487.905,249.601,488.231,250.587,488.884z
						 M250.934,491.933c-0.858-1.012-1.952-1.518-3.283-1.518c-1.991,0-3.352,0.938-4.084,2.812
						c-0.387,1.001-0.581,2.311-0.581,3.932c0,1.906,0.384,3.356,1.155,4.352c0.768,0.993,1.803,1.491,3.102,1.491
						c2.032,0,3.462-0.92,4.289-2.763c0.46-1.042,0.691-2.258,0.691-3.646C252.223,494.495,251.793,492.943,250.934,491.933z"/>
					<path fill="#224E8A" d="M259.495,481.92h2.89v3.221h-2.89V481.92z M259.495,488.283h2.89v16.834h-2.89V488.283z"/>
					<path fill="#224E8A" d="M268.693,499.811c0.084,0.948,0.326,1.676,0.724,2.181c0.73,0.915,1.998,1.375,3.804,1.375
						c1.073,0,2.019-0.23,2.836-0.69c0.815-0.457,1.225-1.164,1.225-2.121c0-0.727-0.326-1.28-0.979-1.659
						c-0.417-0.23-1.241-0.5-2.472-0.805l-2.294-0.568c-1.467-0.359-2.547-0.758-3.243-1.201c-1.241-0.769-1.862-1.832-1.862-3.188
						c0-1.6,0.585-2.896,1.754-3.886c1.168-0.988,2.738-1.483,4.712-1.483c2.583,0,4.444,0.747,5.585,2.24
						c0.715,0.949,1.062,1.971,1.041,3.065h-2.685c-0.054-0.639-0.285-1.218-0.694-1.744c-0.668-0.742-1.827-1.115-3.477-1.115
						c-1.1,0-1.932,0.205-2.497,0.615c-0.566,0.408-0.848,0.948-0.848,1.619c0,0.734,0.371,1.322,1.115,1.763
						c0.428,0.262,1.062,0.493,1.897,0.693l1.916,0.457c2.079,0.497,3.476,0.973,4.183,1.439c1.105,0.726,1.657,1.868,1.657,3.426
						c0,1.504-0.578,2.805-1.735,3.9c-1.156,1.095-2.917,1.644-5.284,1.644c-2.547,0-4.35-0.572-5.41-1.715
						c-1.062-1.143-1.63-2.557-1.705-4.241H268.693z"/>
					<path fill="#224E8A" d="M284.065,483.484h2.874v4.721h2.701v2.32h-2.701v11.039c0,0.589,0.201,0.986,0.6,1.185
						c0.222,0.115,0.589,0.174,1.104,0.174c0.138,0,0.285-0.003,0.442-0.009c0.159-0.009,0.343-0.026,0.555-0.054v2.257
						c-0.327,0.095-0.667,0.162-1.02,0.205c-0.352,0.042-0.734,0.063-1.145,0.063c-1.327,0-2.227-0.341-2.7-1.019
						c-0.474-0.679-0.71-1.561-0.71-2.646v-11.196h-2.29v-2.32h2.29V483.484z"/>
					<path fill="#224E8A" d="M303.253,488.67c1.118,0.563,1.971,1.294,2.558,2.189c0.564,0.851,0.941,1.846,1.129,2.983
						c0.167,0.78,0.25,2.021,0.25,3.727h-12.3c0.051,1.722,0.453,3.102,1.206,4.142c0.751,1.038,1.917,1.559,3.493,1.559
						c1.474,0,2.65-0.491,3.526-1.474c0.491-0.572,0.839-1.232,1.043-1.985h2.795c-0.074,0.623-0.32,1.314-0.735,2.078
						s-0.879,1.385-1.391,1.869c-0.856,0.845-1.918,1.413-3.182,1.707c-0.68,0.168-1.448,0.253-2.304,0.253
						c-2.092,0-3.865-0.767-5.32-2.297c-1.456-1.532-2.182-3.679-2.182-6.438c0-2.714,0.733-4.92,2.197-6.615
						c1.465-1.696,3.38-2.543,5.746-2.543C300.976,487.825,302.133,488.107,303.253,488.67z M304.271,495.31
						c-0.117-1.229-0.382-2.214-0.8-2.952c-0.772-1.368-2.062-2.052-3.868-2.052c-1.295,0-2.38,0.471-3.258,1.413
						c-0.876,0.942-1.34,2.14-1.393,3.591H304.271z"/>
					<path fill="#224E8A" d="M311.193,488.205h2.702v2.92c0.221-0.568,0.762-1.258,1.625-2.073c0.863-0.817,1.859-1.227,2.985-1.227
						c0.052,0,0.143,0.007,0.269,0.016c0.127,0.013,0.342,0.032,0.648,0.064v3.001c-0.168-0.034-0.324-0.053-0.466-0.065
						c-0.143-0.008-0.299-0.014-0.466-0.014c-1.433,0-2.533,0.46-3.301,1.382c-0.769,0.92-1.153,1.98-1.153,3.182v9.727h-2.843
						V488.205z"/>
					<path fill="#224E8A" d="M332.655,488.67c1.119,0.563,1.972,1.294,2.559,2.189c0.565,0.851,0.941,1.846,1.129,2.983
						c0.168,0.78,0.251,2.021,0.251,3.727h-12.302c0.053,1.722,0.456,3.102,1.206,4.142c0.752,1.038,1.919,1.559,3.495,1.559
						c1.474,0,2.648-0.491,3.525-1.474c0.492-0.572,0.838-1.232,1.043-1.985h2.796c-0.073,0.623-0.318,1.314-0.735,2.078
						s-0.879,1.385-1.392,1.869c-0.855,0.845-1.917,1.413-3.181,1.707c-0.678,0.168-1.447,0.253-2.304,0.253
						c-2.091,0-3.866-0.767-5.32-2.297c-1.454-1.532-2.18-3.679-2.18-6.438c0-2.714,0.731-4.92,2.197-6.615
						c1.464-1.696,3.379-2.543,5.744-2.543C330.378,487.825,331.535,488.107,332.655,488.67z M333.672,495.31
						c-0.115-1.229-0.38-2.214-0.798-2.952c-0.773-1.368-2.061-2.052-3.867-2.052c-1.293,0-2.38,0.471-3.256,1.413
						c-0.878,0.942-1.343,2.14-1.395,3.591H333.672z"/>
					<path fill="#224E8A" d="M349.81,488.726c0.503,0.315,1.076,0.87,1.715,1.659v-8.544h2.732v23.276h-2.559v-2.354
						c-0.66,1.042-1.442,1.796-2.344,2.261c-0.902,0.462-1.936,0.693-3.099,0.693c-1.878,0-3.503-0.793-4.878-2.377
						c-1.373-1.584-2.06-3.691-2.06-6.325c0-2.462,0.627-4.598,1.881-6.402c1.252-1.806,3.043-2.708,5.371-2.708
						C347.859,487.905,348.94,488.18,349.81,488.726z M343.464,501.406c0.766,1.221,1.991,1.832,3.679,1.832
						c1.308,0,2.385-0.565,3.228-1.697c0.843-1.132,1.264-2.756,1.264-4.873c0-2.137-0.434-3.718-1.304-4.745
						c-0.871-1.026-1.943-1.538-3.222-1.538c-1.424,0-2.579,0.547-3.464,1.643c-0.886,1.095-1.328,2.704-1.328,4.83
						C342.318,498.671,342.701,500.186,343.464,501.406z"/>
				</g>
				<g>
					<path fill="#224E8A" d="M84.675,514.572h9.272c3.147,0,5.589,1.134,7.324,3.397c1.548,2.041,2.323,4.657,2.323,7.846
						c0,2.465-0.458,4.692-1.372,6.681c-1.61,3.517-4.379,5.274-8.307,5.274h-9.24V514.572z M93.33,535.086
						c1.04,0,1.895-0.11,2.564-0.332c1.194-0.409,2.172-1.202,2.934-2.369c0.607-0.936,1.044-2.137,1.312-3.599
						c0.155-0.874,0.231-1.686,0.231-2.433c0-2.873-0.558-5.106-1.675-6.696c-1.116-1.59-2.915-2.384-5.396-2.384H87.85v17.812
						H93.33z"/>
					<path fill="#224E8A" d="M107.832,514.572h2.891v3.222h-2.891V514.572z M107.832,520.938h2.891v16.833h-2.891V520.938z"/>
					<path fill="#224E8A" d="M125.788,521.324c1.12,0.562,1.972,1.292,2.559,2.188c0.564,0.853,0.941,1.847,1.13,2.985
						c0.168,0.779,0.25,2.02,0.25,3.727h-12.3c0.052,1.719,0.454,3.1,1.205,4.14c0.753,1.04,1.918,1.559,3.496,1.559
						c1.473,0,2.647-0.49,3.525-1.473c0.491-0.572,0.838-1.235,1.043-1.985h2.795c-0.074,0.623-0.319,1.314-0.734,2.077
						s-0.879,1.387-1.391,1.871c-0.857,0.843-1.918,1.412-3.183,1.705c-0.678,0.17-1.446,0.254-2.303,0.254
						c-2.093,0-3.866-0.767-5.321-2.297c-1.453-1.533-2.18-3.679-2.18-6.437c0-2.715,0.732-4.922,2.198-6.615
						c1.464-1.696,3.378-2.543,5.743-2.543C123.511,520.479,124.668,520.76,125.788,521.324z M126.806,527.965
						c-0.115-1.233-0.381-2.217-0.799-2.954c-0.771-1.369-2.062-2.052-3.866-2.052c-1.294,0-2.382,0.471-3.257,1.413
						c-0.877,0.943-1.343,2.14-1.396,3.593H126.806z"/>
					<path fill="#224E8A" d="M134.22,516.137h2.875v4.722h2.701v2.321h-2.701v11.038c0,0.59,0.2,0.985,0.599,1.184
						c0.221,0.117,0.59,0.175,1.106,0.175c0.137,0,0.285-0.005,0.441-0.011c0.158-0.007,0.342-0.025,0.555-0.052v2.257
						c-0.327,0.095-0.667,0.161-1.02,0.205c-0.353,0.041-0.734,0.063-1.146,0.063c-1.326,0-2.227-0.34-2.7-1.019
						c-0.474-0.679-0.71-1.56-0.71-2.646V523.18h-2.29v-2.321h2.29V516.137z"/>
					<path fill="#224E8A" d="M152.024,527.536c0.652-0.085,1.089-0.357,1.31-0.82c0.126-0.254,0.19-0.618,0.19-1.093
						c0-0.973-0.344-1.679-1.032-2.115c-0.689-0.442-1.673-0.66-2.956-0.66c-1.481,0-2.533,0.403-3.152,1.207
						c-0.347,0.443-0.573,1.105-0.677,1.981h-2.654c0.053-2.088,0.729-3.543,2.027-4.363c1.298-0.815,2.805-1.226,4.519-1.226
						c1.988,0,3.601,0.379,4.842,1.136c1.231,0.76,1.847,1.938,1.847,3.54v9.743c0,0.293,0.061,0.532,0.182,0.71
						c0.119,0.178,0.375,0.268,0.766,0.268c0.126,0,0.268-0.008,0.426-0.023c0.157-0.016,0.325-0.04,0.505-0.071v2.102
						c-0.443,0.125-0.78,0.204-1.011,0.235s-0.547,0.048-0.947,0.048c-0.98,0-1.691-0.348-2.133-1.042
						c-0.231-0.367-0.395-0.889-0.489-1.563c-0.58,0.758-1.412,1.416-2.495,1.975c-1.084,0.559-2.28,0.838-3.585,0.838
						c-1.569,0-2.851-0.478-3.845-1.428c-0.996-0.953-1.492-2.144-1.492-3.574c0-1.565,0.488-2.78,1.468-3.643
						c0.978-0.862,2.263-1.395,3.853-1.593L152.024,527.536z M146.04,535.213c0.601,0.476,1.311,0.709,2.13,0.709
						c1.001,0,1.969-0.229,2.907-0.691c1.579-0.768,2.367-2.024,2.367-3.769v-2.287c-0.346,0.222-0.792,0.405-1.339,0.555
						c-0.545,0.148-1.082,0.253-1.607,0.315l-1.718,0.222c-1.029,0.138-1.804,0.353-2.322,0.646
						c-0.879,0.493-1.318,1.282-1.318,2.364C145.139,534.097,145.438,534.741,146.04,535.213z"/>
					<path fill="#224E8A" d="M161.349,520.858h2.701v2.92c0.221-0.568,0.762-1.258,1.625-2.076c0.864-0.814,1.859-1.223,2.985-1.223
						c0.053,0,0.141,0.005,0.269,0.015c0.127,0.012,0.342,0.032,0.647,0.063v3.002c-0.168-0.034-0.324-0.052-0.465-0.064
						c-0.144-0.01-0.298-0.015-0.466-0.015c-1.433,0-2.533,0.46-3.301,1.382c-0.768,0.92-1.152,1.98-1.152,3.182v9.727h-2.842
						V520.858z"/>
					<path fill="#224E8A" d="M182.935,520.858h3.141c-0.399,1.085-1.289,3.561-2.668,7.425c-1.032,2.909-1.895,5.277-2.589,7.109
						c-1.641,4.314-2.798,6.943-3.471,7.89c-0.674,0.946-1.831,1.421-3.472,1.421c-0.398,0-0.708-0.016-0.922-0.047
						c-0.216-0.032-0.482-0.09-0.797-0.174v-2.59c0.495,0.137,0.851,0.22,1.071,0.253c0.221,0.031,0.417,0.048,0.584,0.048
						c0.525,0,0.911-0.088,1.158-0.262c0.247-0.174,0.455-0.386,0.624-0.638c0.052-0.085,0.242-0.515,0.566-1.291
						c0.327-0.778,0.563-1.355,0.711-1.735l-6.254-17.409h3.222l4.531,13.776L182.935,520.858z"/>
					<path fill="#224E8A" d="M200.596,530.285c0.071,1.315,0.372,2.385,0.899,3.205c1.002,1.538,2.773,2.307,5.308,2.307
						c1.136,0,2.171-0.168,3.104-0.507c1.805-0.652,2.708-1.82,2.708-3.505c0-1.263-0.382-2.162-1.148-2.699
						c-0.775-0.527-1.989-0.984-3.641-1.374L204.781,527c-1.987-0.462-3.396-0.972-4.221-1.53c-1.428-0.97-2.143-2.415-2.143-4.344
						c0-2.083,0.702-3.796,2.107-5.132c1.403-1.338,3.39-2.005,5.962-2.005c2.367,0,4.376,0.585,6.031,1.76s2.482,3.053,2.482,5.63
						h-2.955c-0.149-1.242-0.473-2.194-0.969-2.857c-0.917-1.21-2.477-1.818-4.676-1.818c-1.777,0-3.053,0.392-3.831,1.17
						c-0.778,0.78-1.167,1.686-1.167,2.717c0,1.137,0.46,1.969,1.378,2.495c0.601,0.339,1.963,0.757,4.085,1.263l3.151,0.742
						c1.521,0.36,2.693,0.849,3.519,1.469c1.428,1.084,2.141,2.659,2.141,4.722c0,2.57-0.91,4.406-2.732,5.512
						c-1.822,1.105-3.94,1.659-6.353,1.659c-2.813,0-5.014-0.738-6.606-2.212c-1.592-1.463-2.372-3.447-2.341-5.954H200.596z"/>
					<path fill="#224E8A" d="M222.901,520.858v11.227c0,0.865,0.134,1.57,0.401,2.116c0.492,1.012,1.409,1.518,2.752,1.518
						c1.928,0,3.239-0.885,3.937-2.653c0.38-0.947,0.569-2.249,0.569-3.899v-8.308h2.842v16.912h-2.686l0.033-2.496
						c-0.363,0.644-0.812,1.186-1.349,1.627c-1.064,0.885-2.356,1.328-3.874,1.328c-2.367,0-3.978-0.806-4.835-2.418
						c-0.466-0.863-0.697-2.016-0.697-3.457v-11.496H222.901z"/>
					<path fill="#224E8A" d="M238.132,520.938h2.78v2.242c0.569-0.769,1.193-1.363,1.868-1.784c0.96-0.631,2.089-0.948,3.388-0.948
						c1.92,0,3.551,0.734,4.892,2.203s2.012,3.566,2.012,6.293c0,3.688-0.967,6.316-2.902,7.896
						c-1.226,0.999-2.653,1.502-4.28,1.502c-1.278,0-2.352-0.279-3.218-0.838c-0.507-0.315-1.072-0.859-1.696-1.628v8.641h-2.843
						V520.938z M248.827,534.193c0.882-1.109,1.323-2.771,1.323-4.981c0-1.347-0.196-2.504-0.587-3.473
						c-0.74-1.865-2.091-2.798-4.057-2.798c-1.975,0-3.327,0.985-4.056,2.953c-0.391,1.055-0.586,2.391-0.586,4.014
						c0,1.304,0.196,2.415,0.586,3.33c0.74,1.748,2.091,2.622,4.056,2.622C246.839,535.86,247.944,535.304,248.827,534.193z"/>
					<path fill="#224E8A" d="M256.442,520.938h2.778v2.242c0.57-0.769,1.193-1.363,1.868-1.784c0.96-0.631,2.091-0.948,3.389-0.948
						c1.921,0,3.55,0.734,4.892,2.203c1.34,1.469,2.01,3.566,2.01,6.293c0,3.688-0.967,6.316-2.902,7.896
						c-1.225,0.999-2.651,1.502-4.279,1.502c-1.281,0-2.351-0.279-3.219-0.838c-0.508-0.315-1.074-0.859-1.696-1.628v8.641h-2.842
						V520.938z M267.137,534.193c0.88-1.109,1.322-2.771,1.322-4.981c0-1.347-0.194-2.504-0.586-3.473
						c-0.739-1.865-2.091-2.798-4.057-2.798c-1.974,0-3.328,0.985-4.055,2.953c-0.391,1.055-0.586,2.391-0.586,4.014
						c0,1.304,0.196,2.415,0.586,3.33c0.739,1.748,2.09,2.622,4.055,2.622C265.146,535.86,266.254,535.304,267.137,534.193z"/>
					<path fill="#224E8A" d="M275.068,514.572h2.842v23.198h-2.842V514.572z"/>
					<path fill="#224E8A" d="M292.943,521.324c1.12,0.562,1.972,1.292,2.56,2.188c0.564,0.853,0.94,1.847,1.129,2.985
						c0.168,0.779,0.251,2.02,0.251,3.727h-12.301c0.052,1.719,0.456,3.1,1.206,4.14c0.753,1.04,1.916,1.559,3.495,1.559
						c1.473,0,2.648-0.49,3.524-1.473c0.492-0.572,0.839-1.235,1.044-1.985h2.795c-0.074,0.623-0.319,1.314-0.735,2.077
						c-0.415,0.763-0.879,1.387-1.392,1.871c-0.856,0.843-1.917,1.412-3.181,1.705c-0.679,0.17-1.448,0.254-2.303,0.254
						c-2.092,0-3.866-0.767-5.32-2.297c-1.454-1.533-2.182-3.679-2.182-6.437c0-2.715,0.733-4.922,2.199-6.615
						c1.464-1.696,3.378-2.543,5.743-2.543C290.667,520.479,291.824,520.76,292.943,521.324z M293.961,527.965
						c-0.115-1.233-0.38-2.217-0.799-2.954c-0.772-1.369-2.061-2.052-3.866-2.052c-1.295,0-2.38,0.471-3.258,1.413
						c-0.876,0.943-1.341,2.14-1.394,3.593H293.961z"/>
					<path fill="#224E8A" d="M300.807,520.858h2.811v2.401c0.673-0.832,1.284-1.438,1.832-1.817c0.937-0.643,2-0.963,3.191-0.963
						c1.346,0,2.43,0.331,3.251,0.994c0.464,0.379,0.884,0.938,1.264,1.674c0.632-0.906,1.374-1.575,2.226-2.012
						c0.854-0.438,1.811-0.656,2.875-0.656c2.273,0,3.822,0.82,4.643,2.462c0.441,0.886,0.663,2.075,0.663,3.57v11.259h-2.952
						v-11.747c0-1.128-0.283-1.9-0.846-2.322s-1.25-0.634-2.06-0.634c-1.116,0-2.077,0.374-2.882,1.122
						c-0.806,0.749-1.209,1.995-1.209,3.742v9.839h-2.889v-11.039c0-1.148-0.137-1.983-0.41-2.509
						c-0.433-0.789-1.239-1.186-2.417-1.186c-1.074,0-2.05,0.417-2.929,1.249c-0.88,0.831-1.318,2.337-1.318,4.515v8.97h-2.843
						V520.858z"/>
					<path fill="#224E8A" d="M338.518,521.324c1.118,0.562,1.971,1.292,2.558,2.188c0.565,0.853,0.941,1.847,1.13,2.985
						c0.168,0.779,0.251,2.02,0.251,3.727h-12.302c0.052,1.719,0.455,3.1,1.206,4.14c0.752,1.04,1.917,1.559,3.494,1.559
						c1.473,0,2.649-0.49,3.525-1.473c0.491-0.572,0.838-1.235,1.043-1.985h2.795c-0.073,0.623-0.318,1.314-0.733,2.077
						c-0.417,0.763-0.88,1.387-1.392,1.871c-0.857,0.843-1.918,1.412-3.182,1.705c-0.679,0.17-1.447,0.254-2.304,0.254
						c-2.092,0-3.866-0.767-5.319-2.297c-1.455-1.533-2.182-3.679-2.182-6.437c0-2.715,0.732-4.922,2.197-6.615
						c1.464-1.696,3.38-2.543,5.744-2.543C336.241,520.479,337.397,520.76,338.518,521.324z M339.536,527.965
						c-0.116-1.233-0.381-2.217-0.8-2.954c-0.771-1.369-2.061-2.052-3.867-2.052c-1.294,0-2.381,0.471-3.257,1.413
						c-0.877,0.943-1.342,2.14-1.395,3.593H339.536z"/>
					<path fill="#224E8A" d="M346.381,520.858h2.7v2.401c0.801-0.989,1.647-1.7,2.542-2.134c0.895-0.431,1.891-0.646,2.984-0.646
						c2.4,0,4.022,0.837,4.863,2.511c0.463,0.916,0.695,2.227,0.695,3.933v10.848h-2.89v-10.658c0-1.033-0.152-1.864-0.457-2.496
						c-0.505-1.052-1.422-1.579-2.748-1.579c-0.675,0-1.227,0.068-1.658,0.206c-0.78,0.23-1.464,0.694-2.053,1.389
						c-0.474,0.559-0.782,1.136-0.924,1.729c-0.142,0.596-0.212,1.444-0.212,2.551v8.858h-2.842V520.858z"/>
					<path fill="#224E8A" d="M365.258,516.137h2.874v4.722h2.7v2.321h-2.7v11.038c0,0.59,0.201,0.985,0.601,1.184
						c0.221,0.117,0.589,0.175,1.105,0.175c0.137,0,0.285-0.005,0.442-0.011c0.157-0.007,0.342-0.025,0.552-0.052v2.257
						c-0.327,0.095-0.664,0.161-1.017,0.205c-0.354,0.041-0.735,0.063-1.146,0.063c-1.326,0-2.226-0.34-2.7-1.019
						c-0.473-0.679-0.71-1.56-0.71-2.646V523.18h-2.29v-2.321h2.29V516.137z"/>
					<path fill="#224E8A" d="M375.688,532.464c0.086,0.947,0.329,1.674,0.726,2.179c0.731,0.916,2,1.375,3.803,1.375
						c1.076,0,2.021-0.229,2.838-0.688c0.817-0.457,1.225-1.165,1.225-2.123c0-0.726-0.326-1.279-0.979-1.658
						c-0.418-0.231-1.242-0.499-2.472-0.806l-2.294-0.568c-1.466-0.358-2.546-0.759-3.242-1.2c-1.241-0.768-1.861-1.831-1.861-3.19
						c0-1.6,0.584-2.894,1.752-3.883c1.167-0.989,2.738-1.485,4.713-1.485c2.582,0,4.443,0.749,5.584,2.243
						c0.716,0.947,1.062,1.966,1.04,3.062h-2.684c-0.054-0.639-0.287-1.219-0.695-1.743c-0.668-0.743-1.828-1.114-3.476-1.114
						c-1.098,0-1.931,0.203-2.497,0.615c-0.567,0.408-0.849,0.947-0.849,1.619c0,0.732,0.372,1.32,1.115,1.762
						c0.43,0.263,1.063,0.492,1.899,0.693l1.914,0.457c2.083,0.497,3.476,0.975,4.185,1.438c1.104,0.727,1.658,1.869,1.658,3.427
						c0,1.506-0.579,2.807-1.735,3.899c-1.156,1.098-2.917,1.643-5.284,1.643c-2.546,0-4.352-0.569-5.412-1.713
						c-1.06-1.141-1.628-2.554-1.703-4.24H375.688z"/>
				</g>
			</g>
		</g>
	</g>
</g>
</svg>
