<?xml version="1.0" encoding="utf-8"?>
<!-- Generator: Adobe Illustrator 16.0.0, SVG Export Plug-In . SVG Version: 6.00 Build 0)  -->
<!DOCTYPE svg PUBLIC "-//W3C//DTD SVG 1.1//EN" "http://www.w3.org/Graphics/SVG/1.1/DTD/svg11.dtd">
<svg version="1.1" id="Capa_1" xmlns="http://www.w3.org/2000/svg" xmlns:xlink="http://www.w3.org/1999/xlink" x="0px" y="0px"
	 width="3017px" height="612.209px" viewBox="0 0 3017 612.209" enable-background="new 0 0 3017 612.209" xml:space="preserve">
<rect x="29" y="497.524" opacity="0.8" fill="#FFFFFF" enable-background="new    " width="418" height="76"/>
<circle opacity="0.8" fill="#FFFFFF" enable-background="new    " cx="2932.67" cy="501.19" r="18.667"/>
<circle opacity="0.8" fill="#FFFFFF" stroke="#000000" stroke-width="1.003" stroke-miterlimit="10" enable-background="new    " cx="2759.112" cy="318.16" r="224.906"/>
<g>
	<g>
		<g>
			<path fill="#474747" d="M1726.827,136.298h-240.144c-0.178,7.174-0.348,14.35-0.479,21.523h240.621
				c56.357,0,81.492,34.271,81.492,111.125v117.828c0,53.502-10.643,103.012-87.844,103.012h-336.556
				c-55.702,0-96.131-45.027-96.131-107.066l-0.707-67.912c-7.188-0.346-12.942,0.092-20.112-0.526l-0.707,68.438
				c0,74.511,49.482,128.595,117.657,128.595h336.556c98.03,0,109.369-71.076,109.369-124.538V268.948
				C1829.846,180.928,1795.184,136.298,1726.827,136.298z"/>
		</g>
		<path fill="#474747" d="M1434.104,121.658h-121.531c-24.016,0-43.484,18.836-43.484,42.073V274.85
			c0,23.237,19.47,42.074,43.484,42.074h121.531c24.017,0,43.484-18.836,43.484-42.074V163.731
			C1477.588,140.494,1458.118,121.658,1434.104,121.658z M1457.78,264.294c0,18.823-15.771,34.081-35.224,34.081h-98.44
			c-19.453,0-35.225-15.258-35.225-34.081v-90.005c0-18.823,15.771-34.079,35.225-34.079h98.439
			c19.452,0,35.224,15.256,35.224,34.079L1457.78,264.294L1457.78,264.294z"/>
		<polygon fill="#474747" points="1366.688,283.819 1358.521,284.118 1340.525,268.772 1303.484,237.021 1324.123,213.735 
			1358.262,243.573 1419.596,156.422 1446.543,175.135 		"/>
	</g>
	<g>
		<path fill="#474747" d="M1503.538,196.832h21.675v79.964h37.641v18.779h-59.314L1503.538,196.832L1503.538,196.832z"/>
		<path fill="#474747" d="M1638.854,284.515l-39.027,0.137l-4.764,10.924h-18.02l46.86-106.71l35.983,106.71l-15.875,0.051
			L1638.854,284.515z M1633.43,268.507l-13.021-34.663c-3.912,10.319-14.494,34.398-14.494,34.398L1633.43,268.507z"/>
		<path fill="#474747" d="M1683.804,196.832h32.659c19.919,0,35.297,5.603,35.297,24.533c0,8.784-4.979,18.325-16.109,21.354v0.606
			c13.621,2.573,20.797,9.995,20.797,23.171c0,20.143-16.401,29.078-37.199,29.078h-35.441L1683.804,196.832L1683.804,196.832z
			 M1715.436,236.663c10.545,0,15.233-4.697,15.233-12.116c0-7.421-4.979-10.45-14.938-10.45h-10.254v22.566H1715.436z
			 M1717.49,278.312c11.712,0,17.863-4.545,17.863-13.48c0-8.632-6.002-12.418-17.863-12.418h-12.014v25.898H1717.49z"/>
	</g>
	<g>
		<path fill="#474747" d="M1305.562,338.99h20.797l10.532,40.528c2.533,9.467,4.268,18.267,6.936,27.864h0.532
			c2.666-9.6,4.398-18.397,6.933-27.864l10.267-40.528h20.133l-26.266,86.928h-23.598L1305.562,338.99z"/>
		<path fill="#474747" d="M1418.891,358.188c18.799,0,28.131,13.731,28.131,31.731c0,3.465-0.398,6.665-0.799,8.266h-39.599
			c1.731,9.998,8.399,14.398,17.199,14.398c4.932,0,9.465-1.466,14.266-4.4l6.532,11.865c-6.799,4.669-15.6,7.468-23.464,7.468
			c-18.933,0-33.464-12.801-33.464-34.664C1387.691,371.388,1403.023,358.188,1418.891,358.188z M1430.355,386.054
			c0-7.6-3.2-12.932-11.066-12.932c-6.133,0-11.466,4.134-12.799,12.932H1430.355z"/>
		<path fill="#474747" d="M1465.421,359.788h16l1.332,11.6h0.534c4.8-8.933,12-13.197,18.798-13.197c3.734,0,6,0.53,7.866,1.334
			l-3.199,16.932c-2.4-0.668-4.4-1.066-7.199-1.066c-4.934,0-11.064,3.198-14.533,12.135v38.396h-19.598L1465.421,359.788
			L1465.421,359.788z"/>
		<path fill="#474747" d="M1521.684,339.79c0-5.999,4.799-10.133,11.334-10.133c6.666,0,11.332,4.134,11.332,10.133
			c0,5.998-4.666,10.266-11.332,10.266C1526.482,350.055,1521.684,345.788,1521.684,339.79z M1523.283,359.788h19.599v66.13h-19.599
			V359.788z"/>
		<path fill="#474747" d="M1602.21,347.657c-2.267-0.801-4.666-1.334-6.8-1.334c-4.799,0-7.6,2.665-7.6,9.466v3.999h11.865v15.331
			h-11.865v50.799h-19.601v-50.799h-8.799v-14.531l8.799-0.666v-3.601c0-13.999,6.533-25.465,24.397-25.465
			c5.467,0,10.268,1.334,13.199,2.397L1602.21,347.657z"/>
		<path fill="#474747" d="M1613.544,339.79c0-5.999,4.8-10.133,11.332-10.133c6.667,0,11.333,4.134,11.333,10.133
			c0,5.998-4.666,10.266-11.333,10.266C1618.344,350.055,1613.544,345.788,1613.544,339.79z M1615.145,359.788h19.6v66.13h-19.6
			V359.788z"/>
		<path fill="#474747" d="M1684.07,358.188c18.801,0,28.133,13.731,28.133,31.731c0,3.465-0.401,6.665-0.801,8.266h-39.6
			c1.734,9.998,8.401,14.398,17.199,14.398c4.936,0,9.466-1.466,14.268-4.4l6.531,11.865c-6.799,4.669-15.599,7.468-23.465,7.468
			c-18.934,0-33.464-12.801-33.464-34.664C1652.874,371.388,1668.206,358.188,1684.07,358.188z M1695.537,386.054
			c0-7.6-3.199-12.932-11.066-12.932c-6.131,0-11.465,4.134-12.798,12.932H1695.537z"/>
		<path fill="#474747" d="M1754.602,358.188c7.332,0,11.73,2.664,16.266,6.936l-0.799-10.134v-22.532h19.598v93.46h-15.998
			l-1.334-6.534h-0.529c-4.668,4.667-11.199,8.134-17.603,8.134c-16.397,0-27.063-13.064-27.063-34.665
			C1727.137,371.254,1740.602,358.188,1754.602,358.188z M1759.268,411.52c4.267,0,7.602-1.601,10.799-6v-27.063
			c-3.465-3.2-7.332-4.266-10.933-4.266c-6.267,0-11.866,5.865-11.866,18.396C1747.268,405.652,1751.668,411.52,1759.268,411.52z"/>
	</g>
</g>
<g>
	<g>
		<path fill="#474747" d="M652.561,125.675h101.844v25.268h-71.938v47.697h61.106v25.268h-61.106v70.388h-29.906V125.675z"/>
		<path fill="#474747" d="M792.303,125.675h44.862c51.565,0,82.248,27.846,82.248,83.537c0,55.949-30.683,85.083-80.701,85.083
			h-46.409V125.675z M835.102,270.06c34.033,0,53.629-19.338,53.629-60.848c0-41.253-19.597-59.301-53.629-59.301H822.21V270.06
			H835.102L835.102,270.06z"/>
		<path fill="#474747" d="M1037.753,248.659h-56.465l-13.149,45.636h-30.681l55.175-168.62h35.064l54.918,168.62h-31.713
			L1037.753,248.659z M1031.051,225.196l-5.931-20.625c-5.156-17.791-10.313-37.129-15.212-55.692h-1.032
			c-4.64,18.822-9.539,37.901-14.953,55.692l-5.93,20.625H1031.051L1031.051,225.196z"/>
	</g>
	<g>
		<path fill="#474747" d="M671.28,389.545l-9.284-17.456h-5.941v17.456h-10.992v-48.428h17.455c10.25,0,18.718,3.563,18.718,15.078
			c0,7.13-3.491,11.659-8.616,13.963l10.919,19.387H671.28z M656.055,363.399h5.57c5.719,0,8.839-2.45,8.839-7.204
			c0-4.755-3.12-6.39-8.839-6.39h-5.57V363.399z"/>
		<path fill="#474747" d="M707.082,351.812c10.473,0,15.673,7.65,15.673,17.679c0,1.934-0.223,3.714-0.447,4.604H700.25
			c0.965,5.571,4.679,8.022,9.582,8.022c2.748,0,5.273-0.818,7.947-2.451l3.639,6.609c-3.787,2.6-8.689,4.16-13.073,4.16
			c-10.547,0-18.643-7.133-18.643-19.312C689.702,359.166,698.243,351.812,707.082,351.812z M713.47,367.336
			c0-4.233-1.782-7.205-6.165-7.205c-3.416,0-6.387,2.304-7.13,7.205H713.47z"/>
		<path fill="#474747" d="M735.234,388.431v-0.299c-1.933-1.261-3.417-3.191-3.417-6.238c0-2.673,1.78-5.271,4.159-6.906v-0.297
			c-2.601-1.781-4.978-5.272-4.978-9.582c0-8.84,7.279-13.295,15.228-13.295c2.078,0,4.086,0.297,5.72,0.893h13.441v7.947h-5.866
			c0.668,1.115,1.188,2.896,1.188,4.826c0,8.469-6.389,12.402-14.484,12.402c-1.336,0-2.82-0.222-4.455-0.74
			c-0.966,0.814-1.338,1.485-1.338,2.748c0,1.855,1.486,2.746,5.57,2.746h5.942c9.062,0,14.038,2.749,14.038,9.36
			c0,7.647-7.947,13.219-20.574,13.219c-8.616,0-15.45-2.821-15.45-9.354C729.96,392.812,731.817,390.36,735.234,388.431z
			 M747.118,398.383c4.901,0,8.467-2.006,8.467-4.528c0-2.305-2.005-2.897-5.646-2.897h-3.787c-2.526,0-4.014-0.147-5.2-0.445
			c-1.337,1.188-2.005,2.304-2.005,3.64C738.947,396.896,742.215,398.383,747.118,398.383z M751.277,365.106
			c0-3.861-2.155-5.94-5.054-5.94c-2.896,0-5.05,2.005-5.05,5.94c0,4.086,2.154,6.164,5.05,6.164
			C749.123,371.271,751.277,369.192,751.277,365.106z"/>
		<path fill="#474747" d="M773.708,341.562c0-3.344,2.674-5.645,6.313-5.645c3.714,0,6.312,2.301,6.312,5.645
			s-2.599,5.722-6.312,5.722C776.381,347.282,773.708,344.904,773.708,341.562z M774.6,352.704h10.92v36.841H774.6V352.704z"/>
		<path fill="#474747" d="M799.407,378.478c3.343,2.525,6.388,3.863,9.506,3.863c3.27,0,4.68-1.189,4.68-3.119
			c0-2.451-3.714-3.565-7.501-5.052c-4.457-1.709-9.729-4.754-9.729-10.845c0-6.834,5.569-11.514,14.111-11.514
			c5.646,0,9.807,2.305,12.997,4.68l-4.899,6.535c-2.676-1.932-5.199-3.116-7.801-3.116c-2.821,0-4.157,1.039-4.157,2.896
			c0,2.377,3.416,3.269,7.202,4.68c4.683,1.709,9.953,4.31,9.953,11.065c0,6.687-5.271,11.886-15.15,11.886
			c-4.827,0-10.397-2.08-14.112-5.127L799.407,378.478z"/>
		<path fill="#474747" d="M834.837,361.245h-5.051v-8.096l5.645-0.445l1.265-9.805h9.062v9.805h8.838v8.541h-8.838v14.781
			c0,4.156,1.856,5.865,4.753,5.865c1.189,0,2.525-0.371,3.491-0.742l1.708,7.947c-1.931,0.596-4.604,1.338-8.17,1.338
			c-9.136,0-12.701-5.721-12.701-14.261L834.837,361.245L834.837,361.245z"/>
		<path fill="#474747" d="M878.956,351.812c10.473,0,15.673,7.65,15.673,17.679c0,1.934-0.224,3.714-0.447,4.604h-22.059
			c0.965,5.571,4.678,8.022,9.581,8.022c2.748,0,5.271-0.818,7.946-2.451l3.641,6.609c-3.788,2.6-8.69,4.16-13.073,4.16
			c-10.546,0-18.643-7.133-18.643-19.312C861.577,359.166,870.118,351.812,878.956,351.812z M885.344,367.336
			c0-4.233-1.783-7.205-6.164-7.205c-3.417,0-6.388,2.304-7.13,7.205H885.344z"/>
		<path fill="#474747" d="M904.88,352.704h8.912l0.743,6.462h0.297c2.675-4.979,6.686-7.354,10.473-7.354
			c2.08,0,3.344,0.299,4.383,0.744l-1.782,9.434c-1.336-0.373-2.451-0.596-4.011-0.596c-2.748,0-6.166,1.783-8.096,6.761v21.392
			H904.88V352.704z"/>
		<path fill="#474747" d="M951.6,351.812c10.473,0,15.672,7.65,15.672,17.679c0,1.934-0.223,3.714-0.444,4.604h-22.06
			c0.963,5.571,4.679,8.022,9.579,8.022c2.749,0,5.274-0.818,7.948-2.451l3.641,6.609c-3.789,2.6-8.689,4.16-13.072,4.16
			c-10.549,0-18.644-7.133-18.644-19.312C934.219,359.166,942.76,351.812,951.6,351.812z M957.986,367.336
			c0-4.233-1.783-7.205-6.165-7.205c-3.416,0-6.388,2.304-7.13,7.205H957.986z"/>
		<path fill="#474747" d="M990.891,351.812c4.086,0,6.537,1.486,9.062,3.861l-0.446-5.644v-12.554h10.918v52.066h-8.914
			l-0.741-3.641h-0.297c-2.601,2.6-6.239,4.531-9.806,4.531c-9.136,0-15.078-7.279-15.078-19.312
			C975.59,359.091,983.091,351.812,990.891,351.812z M993.49,381.521c2.377,0,4.233-0.891,6.017-3.342v-15.078
			c-1.932-1.781-4.085-2.377-6.091-2.377c-3.49,0-6.609,3.271-6.609,10.25C986.807,378.255,989.256,381.521,993.49,381.521z"/>
		<path fill="#474747" d="M1081.655,390.437c-4.011-0.817-8.244-2.524-12.404-4.902c-4.084,3.046-9.135,4.902-15.226,4.902
			c-10.547,0-16.118-6.39-16.118-13.813c0-6.761,4.085-10.622,8.838-13.667c-1.857-3.491-2.972-6.98-2.972-10.028
			c0-6.907,5.052-12.7,13.146-12.7c7.279,0,11.884,4.31,11.884,10.992c0,6.313-5.051,10.325-10.102,13.74
			c2.749,3.195,6.165,6.241,9.729,8.84c2.451-3.191,4.383-7.056,5.57-11.587h9.953c-1.783,5.868-4.383,11.289-8.096,16.341
			c3.045,1.562,5.94,2.674,8.393,3.045L1081.655,390.437z M1055.438,382.117c2.005,0,4.084-0.669,6.164-1.935
			c-3.787-3.043-7.277-6.459-10.101-10.024c-1.931,1.708-3.269,3.565-3.269,5.794
			C1048.23,379.591,1051.128,382.117,1055.438,382.117z M1054.322,358.646c3.49-2.076,6.165-4.157,6.165-7.428
			c0-2.302-1.04-3.787-3.343-3.787c-2.451,0-4.382,2.079-4.382,5.422C1052.763,354.636,1053.355,356.64,1054.322,358.646z"/>
		<path fill="#474747" d="M556.747,430.248h10.993v48.428h-10.993V430.248z"/>
		<path fill="#474747" d="M580.887,441.837h8.913l0.743,4.679h0.297c3.12-2.971,6.833-5.569,11.811-5.569
			c8.021,0,11.438,5.646,11.438,14.854v22.876h-10.919V457.21c0-5.347-1.411-6.979-4.53-6.979c-2.749,0-4.457,1.264-6.833,3.564
			v24.881h-10.918L580.887,441.837L580.887,441.837z"/>
		<path fill="#474747" d="M627.68,467.61c3.342,2.521,6.39,3.859,9.508,3.859c3.27,0,4.682-1.188,4.682-3.118
			c0-2.45-3.715-3.565-7.502-5.052c-4.457-1.708-9.73-4.755-9.73-10.845c0-6.832,5.571-11.513,14.112-11.513
			c5.646,0,9.806,2.303,12.999,4.681l-4.902,6.536c-2.675-1.934-5.199-3.12-7.798-3.12c-2.823,0-4.159,1.041-4.159,2.896
			c0,2.376,3.416,3.271,7.203,4.681c4.682,1.71,9.953,4.308,9.953,11.065c0,6.688-5.271,11.887-15.15,11.887
			c-4.827,0-10.398-2.08-14.111-5.128L627.68,467.61z"/>
		<path fill="#474747" d="M672.543,481.574v10.769h-10.918v-50.506h8.912l0.744,3.638h0.297c2.896-2.6,6.609-4.528,10.474-4.528
			c8.912,0,14.409,7.353,14.409,18.717c0,12.629-7.577,19.907-15.523,19.907c-3.193,0-6.166-1.411-8.766-3.863L672.543,481.574z
			 M678.411,470.655c3.788,0,6.833-3.271,6.833-10.847c0-6.607-2.005-9.95-6.387-9.95c-2.229,0-4.16,1.038-6.314,3.343v15.075
			C674.474,470.062,676.554,470.655,678.411,470.655z"/>
		<path fill="#474747" d="M722.085,440.944c10.472,0,15.673,7.649,15.673,17.677c0,1.932-0.224,3.714-0.447,4.604h-22.06
			c0.966,5.571,4.679,8.021,9.582,8.021c2.748,0,5.274-0.816,7.947-2.45l3.64,6.609c-3.788,2.6-8.689,4.16-13.073,4.16
			c-10.547,0-18.643-7.134-18.643-19.312C704.705,448.297,713.247,440.944,722.085,440.944z M728.473,456.469
			c0-4.232-1.783-7.204-6.164-7.204c-3.416,0-6.389,2.303-7.131,7.204H728.473z"/>
		<path fill="#474747" d="M765.018,440.944c4.531,0,8.319,1.71,10.771,4.231l-4.978,6.76c-1.781-1.482-3.416-2.152-5.125-2.152
			c-5.272,0-8.614,4.085-8.614,10.475c0,6.385,3.489,10.473,8.244,10.473c2.675,0,4.827-1.264,6.61-2.675l4.383,6.906
			c-3.565,3.12-8.245,4.606-12.257,4.606c-10.25,0-18.195-7.058-18.195-19.312C745.854,448.002,754.841,440.944,765.018,440.944z"/>
		<path fill="#474747" d="M786.854,450.377h-5.051v-8.096l5.646-0.444l1.262-9.804h9.062v9.804h8.84v8.54h-8.84v14.781
			c0,4.16,1.857,5.868,4.755,5.868c1.188,0,2.523-0.371,3.491-0.742l1.707,7.946c-1.932,0.594-4.604,1.338-8.171,1.338
			c-9.135,0-12.7-5.723-12.7-14.264L786.854,450.377L786.854,450.377z"/>
		<path fill="#474747" d="M830.974,440.944c10.476,0,15.673,7.649,15.673,17.677c0,1.932-0.224,3.714-0.445,4.604h-22.061
			c0.965,5.571,4.682,8.021,9.582,8.021c2.748,0,5.273-0.816,7.947-2.45l3.641,6.609c-3.789,2.6-8.689,4.16-13.072,4.16
			c-10.547,0-18.645-7.134-18.645-19.312C813.594,448.297,822.136,440.944,830.974,440.944z M837.361,456.469
			c0-4.232-1.782-7.204-6.164-7.204c-3.417,0-6.389,2.303-7.13,7.204H837.361z"/>
		<path fill="#474747" d="M870.268,440.944c4.084,0,6.534,1.484,9.062,3.86l-0.445-5.644v-12.553h10.918v52.063h-8.913l-0.742-3.639
			h-0.298c-2.6,2.6-6.238,4.531-9.804,4.531c-9.136,0-15.078-7.278-15.078-19.312S862.467,440.944,870.268,440.944z
			 M872.867,470.655c2.376,0,4.231-0.895,6.016-3.345v-15.076c-1.932-1.781-4.085-2.376-6.091-2.376
			c-3.492,0-6.61,3.268-6.61,10.249C866.182,467.387,868.632,470.655,872.867,470.655z"/>
		<path fill="#474747" d="M921.071,430.248h30.601v9.211h-19.609v11.217h16.714v9.21h-16.714v18.79h-10.99L921.071,430.248
			L921.071,430.248z"/>
		<path fill="#474747" d="M978.338,454.983c-0.223-3.271-1.854-5.351-5.793-5.351c-3.12,0-6.24,1.264-9.804,3.342l-3.863-7.201
			c4.681-2.823,9.953-4.829,15.747-4.829c9.432,0,14.631,5.347,14.631,16.637v21.095h-8.912l-0.815-3.788h-0.225
			c-3.118,2.749-6.609,4.683-10.769,4.683c-6.686,0-10.918-4.902-10.918-11.144C957.616,460.702,963.78,456.469,978.338,454.983z
			 M972.248,471.101c2.525,0,4.159-1.188,6.09-3.117v-6.464c-7.799,1.038-10.325,3.269-10.325,6.093
			C968.013,469.985,969.648,471.101,972.248,471.101z"/>
		<path fill="#474747" d="M1018.299,440.944c4.532,0,8.319,1.71,10.771,4.231l-4.978,6.76c-1.781-1.482-3.417-2.152-5.125-2.152
			c-5.273,0-8.616,4.085-8.616,10.475c0,6.385,3.491,10.473,8.245,10.473c2.673,0,4.828-1.264,6.611-2.675l4.382,6.906
			c-3.565,3.12-8.245,4.606-12.256,4.606c-10.25,0-18.197-7.058-18.197-19.312S1008.123,440.944,1018.299,440.944z"/>
		<path fill="#474747" d="M1037.759,430.695c0-3.345,2.675-5.646,6.313-5.646c3.715,0,6.312,2.302,6.312,5.646
			c0,3.343-2.599,5.719-6.312,5.719C1040.434,436.414,1037.759,434.038,1037.759,430.695z M1038.652,441.837h10.916v36.839h-10.916
			V441.837z"/>
		<path fill="#474747" d="M1061.825,426.61h10.918v41.071c0,2.304,1.04,3.046,1.93,3.046c0.447,0,0.744,0,1.338-0.148l1.337,8.097
			c-1.188,0.521-3.045,0.895-5.498,0.895c-7.5,0-10.024-4.902-10.024-12.331V426.61L1061.825,426.61z"/>
		<path fill="#474747" d="M1084.852,430.695c0-3.345,2.673-5.646,6.312-5.646c3.716,0,6.312,2.302,6.312,5.646
			c0,3.343-2.599,5.719-6.312,5.719C1087.523,436.414,1084.852,434.038,1084.852,430.695z M1085.742,441.837h10.918v36.839h-10.918
			V441.837z"/>
		<path fill="#474747" d="M1110.4,450.377h-5.052v-8.096l5.646-0.444l1.263-9.804h9.062v9.804h8.839v8.54h-8.839v14.781
			c0,4.16,1.855,5.868,4.754,5.868c1.188,0,2.524-0.371,3.489-0.742l1.709,7.946c-1.931,0.594-4.604,1.338-8.17,1.338
			c-9.135,0-12.701-5.723-12.701-14.264V450.377L1110.4,450.377z"/>
		<path fill="#474747" d="M1143.304,484.47c3.641,0,5.496-1.931,6.462-4.828l0.521-1.931l-14.188-35.874h10.991l5.272,15.82
			c1.041,3.343,1.933,6.834,2.896,10.472h0.297c0.816-3.49,1.635-6.979,2.525-10.472l4.456-15.82h10.473l-12.772,37.21
			c-3.491,9.285-7.428,14.039-16.119,14.039c-2.229,0-3.713-0.298-5.199-0.743l1.932-8.316
			C1141.521,484.174,1142.487,484.47,1143.304,484.47z"/>
	</g>
</g>
<g transform="translate(-0.162903,224.575867) scale(0.100000,-0.100000)">
	<g>
		<path fill="#00783E" d="M27264.078,1294.519c-1018.506-137.139-1831.279-970.098-1948.242-1992.656
			c-108.926-947.9,395.283-1865.576,1262.539-2297.139c611.084-304.58,1391.592-294.501,2020.85,24.17
			c863.223,435.635,1357.324,1403.721,1208.105,2361.729c-143.213,933.799-857.148,1684.072-1780.898,1875.654
			C27832.838,1306.628,27453.688,1320.749,27264.078,1294.519z M27980.045,1223.933
			c570.771-106.895,1105.264-459.834,1421.875-937.832c594.971-893.457,484.033-2047.09-270.225-2803.398
			c-855.146-855.156-2184.268-873.32-3093.857-40.352c-326.719,300.518-586.885,794.658-659.512,1258.516
			c-36.289,217.793-16.133,681.689,38.34,885.391c217.812,828.926,865.215,1450.117,1696.152,1629.609
			C27334.654,1264.274,27750.162,1268.308,27980.045,1223.933z"/>
		<path fill="#00783E" d="M27374.986,1121.071c-54.424-18.154-80.645-72.607-80.645-161.348
			c0-185.547,187.559-231.943,248.066-60.508c20.156,54.463-36.299,40.342-62.5-16.133c-12.129-28.232-36.309-50.42-52.441-50.42
			c-70.596,0-123.027,163.369-68.594,217.812c32.266,32.275,86.719,30.264,116.973-6.035c48.428-58.496,82.715-26.23,36.309,34.277
			C27481.9,1117.038,27417.369,1135.202,27374.986,1121.071z"/>
		<path fill="#00783E" d="M27619.059,1119.05c-14.141-4.023-22.207-68.574-22.207-157.305V812.497l60.518-4.033
			c34.277-2.021,76.631-4.033,94.785-4.033c18.174-2.021,36.289,10.088,42.354,24.199c4.023,16.143-18.174,24.209-74.609,24.209
			c-74.639,0-82.725,4.023-82.725,50.41c0,48.408,4.072,50.43,82.725,38.32c66.533-12.1,82.686-8.066,74.609,14.131
			c-4.014,16.133-42.354,30.244-82.676,34.277c-58.496,6.055-74.658,14.111-74.658,46.396c0,32.246,14.141,38.32,80.674,38.32
			c44.395,0,80.684,8.057,80.684,18.145C27798.531,1110.983,27657.369,1131.159,27619.059,1119.05z"/>
		<path fill="#00783E" d="M27181.402,1030.319c8.057-36.309,18.125-104.883,26.221-153.291
			c10.068-78.652,36.289-123.018,58.477-100.83c8.086,8.066-24.199,211.768-44.365,284.365
			C27201.568,1125.104,27167.271,1098.894,27181.402,1030.319z"/>
		<path fill="#00783E" d="M27857.037,1040.397c-18.174-48.398-14.121-62.52,28.223-96.797c26.24-22.197,64.512-50.43,84.707-62.539
			c22.207-12.1,30.254-30.244,22.207-44.365c-22.207-38.32-90.742-28.232-117.002,16.143c-32.256,50.41-56.465,52.441-56.465,4.023
			c0-54.453,40.332-84.707,112.959-84.707c125.049,0,149.209,129.082,34.277,179.502c-72.598,32.266-86.758,76.641-32.266,96.807
			c22.188,8.076,44.355-2.012,62.52-30.254c34.277-50.43,64.531-58.486,64.531-16.133c0,48.398-60.508,92.773-123.027,92.773
			C27891.334,1094.851,27873.17,1082.751,27857.037,1040.397z"/>
		<path fill="#00783E" d="M27072.486,939.558V802.409l-64.551,106.895c-78.623,127.07-143.184,147.236-72.598,24.199
			c56.465-100.84,149.268-215.801,163.369-201.68c6.055,6.045,14.111,84.707,22.188,177.48
			c8.047,137.148,6.045,165.391-18.145,165.391C27078.531,1074.694,27072.486,1044.44,27072.486,939.558z"/>
		<path fill="#00783E" d="M26707.447,939.558l-74.629-30.254l60.508-139.16c34.277-76.641,74.629-139.16,90.742-139.16
			c22.188,0,22.188,10.078-2.002,58.477c-28.223,54.463-28.223,58.496,24.189,80.684c44.365,22.188,56.484,20.166,78.672-10.088
			c14.121-18.154,28.223-42.354,32.266-54.453c4.023-12.1,18.145-14.111,30.234-6.045c18.164,10.078,12.109,32.266-20.156,78.652
			c-26.211,36.309-44.355,76.641-40.342,88.73c10.088,42.363-36.309,106.904-72.607,104.893
			C26796.178,969.812,26747.76,955.7,26707.447,939.558z M26838.551,883.083c6.025-18.154-8.086-42.344-40.342-64.541
			c-44.365-28.232-54.473-28.232-70.605-4.023c-24.199,40.332-22.188,72.598,8.066,84.697
			C26784.068,919.382,26826.422,913.337,26838.551,883.083z"/>
		<path fill="#00783E" d="M28242.223,933.503c-80.664-80.664-80.664-213.779,2.061-260.166
			c106.865-58.486,219.805,30.254,219.805,175.459C28464.088,961.745,28324.947,1016.198,28242.223,933.503z M28385.445,913.337
			c50.439-28.223,48.389-102.861-4.043-169.414c-48.389-60.498-82.695-66.553-129.082-20.166
			c-38.311,38.32-26.211,116.982,24.229,175.459C28314.869,939.558,28330.982,941.569,28385.445,913.337z"/>
		<path fill="#00783E" d="M26503.736,830.651c-40.352-20.176-78.652-46.387-84.707-56.475
			c-16.152-24.209,127.07-264.209,153.281-264.209c32.256,0,157.314,82.695,157.314,102.871c0,28.223-36.299,22.168-90.771-14.121
			c-92.754-60.518-125.039,14.121-34.287,84.707c70.586,58.477,46.406,82.676-36.289,36.299
			c-54.463-32.275-64.541-34.287-80.664-8.076c-18.154,30.254,2.012,54.453,78.652,98.828c14.131,10.098,24.199,26.221,20.176,38.32
			C26580.396,860.896,26550.143,854.851,26503.736,830.651z"/>
		<path fill="#00783E" d="M28488.307,735.847c-46.396-76.631-72.598-139.16-60.508-143.184
			c22.178-8.066,66.533,40.342,82.695,84.707c4.014,12.09,28.252,6.055,60.498-14.121c28.232-20.156,62.529-30.244,76.68-22.188
			c14.092,10.098,0,28.242-38.33,54.453c-38.35,24.209-58.525,50.42-50.439,68.584c14.092,36.299,48.398,36.299,98.848-2.021
			c48.369-36.309,68.525-38.32,68.525-4.043c0,12.109-36.27,44.375-78.604,68.574l-78.701,44.375L28488.307,735.847z"/>
		<path fill="#00783E" d="M26245.572,655.183c-36.27-30.264-44.385-48.398-32.266-92.764
			c18.145-70.596,60.508-84.717,147.227-54.463c50.43,18.154,76.66,20.176,92.764,4.043c32.295-32.285-24.17-86.738-78.623-74.629
			c-64.551,16.123-80.684-24.219-20.176-50.43c102.852-48.398,209.746,98.818,129.062,179.492
			c-30.264,30.254-108.887,32.285-127.051,4.043c-24.219-38.32-90.762-22.188-90.762,20.176c0,32.266,14.111,40.332,62.529,40.332
			c40.342,0,58.486,8.066,54.463,26.211C26368.619,697.546,26296.002,695.515,26245.572,655.183z"/>
		<path fill="#00783E" d="M27290.299,651.159c-155.293-28.242-296.484-78.662-490.078-179.512
			c-143.193-72.607-217.832-131.094-363.027-274.287c-240.02-240.01-358.994-445.732-447.754-778.506
			c-50.43-189.59-44.355-564.727,10.068-774.463c244.062-917.666,1196.016-1427.9,2099.561-1127.441
			c524.355,175.498,945.889,653.477,1058.838,1204.082c173.408,834.971-320.703,1643.721-1157.686,1893.818
			C27850.992,659.216,27445.592,679.382,27290.299,651.159z M27969.967,566.433c572.773-149.238,1020.547-625.215,1141.562-1216.152
			c70.576-338.818,28.203-655.459-133.145-988.242c-157.266-322.705-385.215-556.66-703.848-713.984
			c-223.906-112.93-435.674-163.359-689.775-165.352c-709.922-2.021-1302.881,433.604-1520.703,1121.348
			c-62.51,199.668-76.631,532.451-32.266,758.34c40.322,205.723,191.611,524.375,320.684,679.668
			c320.674,385.215,812.793,605.059,1294.795,576.816C27736.012,612.839,27881.256,590.651,27969.967,566.433z"/>
		<path fill="#00783E" d="M27399.225,382.907c-90.771-90.762-165.391-171.436-165.391-177.48s133.125-12.109,296.475-12.109
			l294.463-4.014l320.684-318.682c207.705-205.713,318.633-304.531,314.609-276.299c-4.023,24.199-205.723,248.066-449.785,500.176
			l-445.684,455.811L27399.225,382.907z"/>
		<path fill="#00783E" d="M26806.256,110.632l-258.154-6.045v-240.01v-242.012l227.9,221.846L27001.9,66.267h433.613
			c300.498,0,425.566,6.045,411.426,20.166C27824.771,108.62,27282.232,120.71,26806.256,110.632z"/>
		<path fill="#00783E" d="M28151.471,104.587c-4.014-6.045,82.725-100.84,193.652-211.768l199.609-199.668v-461.855
			c0-407.412,4.082-457.832,30.283-435.635c26.221,22.168,30.244,120.996,30.244,667.568v641.357l-223.857,6.045
			C28258.395,114.675,28153.512,110.632,28151.471,104.587z"/>
		<path fill="#00783E" d="M26562.213-504.505l-457.822-447.744l171.436-171.416l171.426-171.445v292.461v292.422l326.738,326.738
			c225.898,225.879,316.65,328.75,288.398,326.729C27038.189-56.761,26840.553-234.241,26562.213-504.505z"/>
		<path fill="#00783E" d="M27677.516-115.247c0-10.078,20.166-20.176,46.416-20.176c36.299,0,38.311,4.023,14.092,20.176
			C27699.732-89.036,27677.516-89.036,27677.516-115.247z"/>
		<path fill="#00783E" d="M27828.785-155.589c6.064-10.088,26.23-20.166,42.373-20.166c16.123,0,24.209,10.078,18.125,20.166
			c-6.016,12.1-26.182,20.166-42.344,20.166C27830.826-135.423,27822.75-143.489,27828.785-155.589z"/>
		<path fill="#00783E" d="M27132.984-216.087c-16.123-10.088-22.168-24.209-14.111-32.285c8.066-8.057,26.23-4.023,38.32,8.076
			c12.1,12.1,20.166,28.232,14.121,32.275C27167.271-201.985,27149.117-206.009,27132.984-216.087z"/>
		<path fill="#00783E" d="M27959.879-212.063c0-10.078,14.131-26.211,32.295-32.266c20.176-8.066,28.193-2.012,24.18,12.09
			C28006.275-201.985,27959.879-185.833,27959.879-212.063z"/>
		<path fill="#00783E" d="M27221.734-552.903c8.047-104.902,6.045-189.59-6.045-205.723c-26.23-40.342-153.301-38.311-199.668,4.033
			c-54.473,48.408-64.551,42.354-64.551-36.299c0-82.686,40.332-110.918,159.346-110.918c62.5,0,96.807,14.102,141.172,56.455
			c58.486,52.441,60.518,62.52,66.553,256.152l6.045,201.67l-58.486,6.055l-56.484,8.066L27221.734-552.903z"/>
		<path fill="#00783E" d="M27383.092-443.997c6.035-24.199,12.09-60.508,12.09-78.652c0-20.176,28.242-50.43,60.508-66.553
			c86.719-44.385,119.004-118.994,72.617-169.424c-20.176-22.178-62.549-50.42-94.805-62.51
			c-86.719-36.309-72.617-60.508,36.309-60.508c68.574,0,106.885,12.09,141.172,44.365l46.387,44.365l32.285-44.365
			c38.291-56.484,108.877-56.484,310.566-4.043c82.715,22.188,177.49,40.342,207.744,40.342c52.422,0,56.484,4.043,50.43,76.631
			c-4.053,58.496-14.111,74.629-46.416,74.629c-22.178,0-68.535,16.133-104.854,36.309c-88.76,46.396-199.688,46.396-227.939-4.033
			c-32.246-62.52-24.17-80.693,38.34-78.662c74.648,2.021,116.992-22.188,80.684-46.387
			c-34.287-22.188-201.699-22.188-233.955-2.012c-12.1,8.066-28.242,88.75-36.309,181.523
			c-10.098,110.908-24.189,165.371-40.342,165.371c-28.213,0-50.43-62.52-50.43-145.215c0-54.443,0-54.443-86.689,32.266
			c-48.418,46.387-106.885,90.762-133.115,98.828C27377.047-401.653,27372.994-405.677,27383.092-443.997z"/>
		<path fill="#00783E" d="M26822.408-530.716c-8.086-20.176-2.031-28.242,12.08-24.199c30.264,10.078,46.396,56.465,20.186,56.465
			C26844.576-498.45,26828.463-512.571,26822.408-530.716z"/>
		<path fill="#00783E" d="M28685.943-901.81v-312.617l-316.631-316.65c-175.469-175.469-304.541-318.672-286.377-318.672
			c18.125,0,239.971,203.711,494.131,451.768l461.807,451.777l-175.41,179.512l-177.52,177.49V-901.81z"/>
		<path fill="#00783E" d="M28343.072-647.708c0-16.123,10.088-36.289,20.156-42.344c12.148-6.055,20.176,6.055,20.176,28.242
			c0,24.199-8.027,42.363-20.176,42.363C28353.16-619.446,28343.072-631.556,28343.072-647.708z"/>
		<path fill="#00783E" d="M26560.221-712.239c-6.064-18.154-12.119-320.664-12.119-675.645v-643.369h252.119
			c139.16,0,252.08,4.053,252.08,8.057c0,6.074-98.789,106.934-221.836,225.879l-221.855,215.811v451.787
			C26608.609-722.317,26596.51-617.444,26560.221-712.239z"/>
		<path fill="#00783E" d="M28383.404-800.979c0-22.188,10.088-40.342,20.176-40.342c12.129,0,20.176,18.154,20.176,40.342
			c0,22.178-8.047,40.342-20.176,40.342C28393.492-760.638,28383.404-778.802,28383.404-800.979z"/>
		<path fill="#00783E" d="M26903.082-1073.245c-6.064-16.143,0-30.244,12.09-30.244c14.141,0,18.154-42.383,12.1-127.07
			c-10.078-118.994-8.066-127.07,30.254-125.049c42.363,4.043,76.65,50.43,36.289,50.43c-12.09,0-22.178,18.125-22.178,40.322
			c0,30.254,14.131,40.342,52.471,40.342c50.41,0,52.412-4.033,38.281-72.607c-12.08-68.574-10.088-70.596,34.277-58.486
			c60.527,18.145,72.627,34.287,42.373,44.385c-32.266,12.09-36.289,207.734-6.055,207.734c12.119,0,20.166,14.102,20.166,30.244
			c0,18.145-18.145,30.254-48.389,30.254c-26.23,0-52.461-14.121-60.498-30.254c-6.074-16.143-2.041-30.244,8.037-30.244
			c12.119,0,20.186-18.174,20.186-40.342c0-30.254-14.131-40.352-50.43-40.352c-36.289,0-50.42,10.098-50.42,40.352
			c0,22.168,10.088,40.342,20.166,40.342c12.119,0,20.176,14.102,20.176,30.244c0,18.145-18.164,30.254-48.408,30.254
			C26937.35-1042.991,26911.139-1057.112,26903.082-1073.245z"/>
		<path fill="#00783E" d="M27233.834-1071.233c0-18.154,10.078-32.256,20.176-32.256c30.244,0,24.199-42.383-28.223-145.225
			l-44.385-92.764l46.377-10.088c48.408-8.086,92.783,28.213,50.43,42.354c-46.396,14.102-22.188,44.355,36.289,44.355
			c54.453,0,60.488-6.025,48.418-48.389c-10.078-42.363-6.045-46.406,40.332-38.32c50.439,10.088,68.555,36.299,36.309,50.42
			c-10.088,4.023-36.309,60.518-58.486,127.061c-34.287,104.873-46.416,120.996-92.793,127.041
			C27249.957-1042.991,27233.834-1049.056,27233.834-1071.233z M27354.85-1208.372c0-10.098-14.121-16.143-30.264-16.143
			c-30.244,0-40.332,42.344-16.133,66.543C27322.584-1143.831,27354.85-1180.13,27354.85-1208.372z"/>
		<path fill="#00783E" d="M27475.846-1073.245c0-16.143,10.098-30.244,20.176-30.244c30.244,0,26.211-195.645-4.043-207.734
			c-38.291-12.129-10.078-34.287,46.406-38.33c149.219-6.055,169.375,2.002,167.373,64.541c0,34.287-10.078,58.477-20.156,56.465
			c-10.098-4.033-16.133-22.178-14.121-40.332c4.023-28.242-8.076-36.299-54.482-36.299c-58.438,0-60.459,2.002-60.459,100.84
			c0,76.641,8.057,100.85,30.234,100.85c16.133,0,30.225,14.102,30.225,30.244c0,20.156-22.168,30.254-70.557,30.254
			S27475.846-1053.089,27475.846-1073.245z"/>
		<path fill="#00783E" d="M27778.355-1071.233c0-18.154,10.088-32.256,22.217-32.256c26.211,0,10.078-80.693-34.316-169.434
			c-36.279-74.629-36.279-72.588,22.188-72.588c28.232,0,50.42,10.059,50.42,20.156c0,12.109-8.037,20.176-20.156,20.176
			c-10.107,0-20.176,10.068-20.176,20.166c0,12.09,28.252,20.156,62.549,20.156c52.422,0,58.467-6.025,48.379-40.322
			c-10.078-32.285-4.023-40.332,38.32-40.332c50.43,0,72.588,28.213,36.318,44.365c-10.088,4.023-36.318,60.518-58.486,127.061
			c-34.277,104.873-46.426,120.996-92.773,127.041C27794.508-1042.991,27778.355-1049.056,27778.355-1071.233z M27897.369-1208.372
			c2.012-10.098-12.109-16.143-28.242-16.143c-32.285,0-38.301,18.145-16.113,72.598c12.09,32.275,14.092,32.275,28.242-4.033
			C27889.283-1176.116,27897.369-1200.296,27897.369-1208.372z"/>
		<path fill="#00783E" d="M28020.367-1073.245c0-16.143,8.105-30.244,18.174-30.244c30.254,0,36.328-185.566,8.086-195.645
			c-62.529-24.219-16.152-46.377,94.766-46.377h121.016v70.576c0,38.32-8.066,70.596-20.186,70.596
			c-10.088,0-20.166-22.197-20.166-50.43c0-42.354-10.078-50.41-60.498-50.41c-58.447,0-60.498,2.002-60.498,100.84
			c0,76.641,8.057,100.85,30.254,100.85c16.143,0,30.244,14.102,30.244,30.244c0,20.156-22.178,30.254-70.596,30.254
			C28042.613-1042.991,28020.367-1053.089,28020.367-1073.245z"/>
		<path fill="#00783E" d="M26729.625-1101.487c0-24.219,10.088-42.344,20.166-42.344c12.109,0,20.166,12.09,20.166,28.213
			c0,16.162-8.057,36.318-20.166,42.373C26739.713-1067.2,26729.625-1079.3,26729.625-1101.487z"/>
		<path fill="#00783E" d="M28383.404-1093.421c0-16.133,10.088-30.244,20.176-30.244c12.129,0,20.176,14.111,20.176,30.244
			c0,16.123-8.047,30.264-20.176,30.264C28393.492-1063.157,28383.404-1077.298,28383.404-1093.421z"/>
		<path fill="#00783E" d="M26769.957-1244.671c0-38.34,6.045-42.383,24.219-24.209c18.154,18.154,18.154,30.254,0,48.398
			C26776.002-1202.337,26769.957-1206.37,26769.957-1244.671z"/>
		<path fill="#00783E" d="M26669.117-1492.757c0-20.156,203.701-242.002,451.777-494.111l453.799-457.832l161.318,161.338
			c90.771,88.74,163.369,167.412,163.369,175.488c0,10.078-133.125,16.113-294.463,16.113h-294.443l-258.174,258.174
			C26669.117-1452.405,26669.117-1452.405,26669.117-1492.757z"/>
		<path fill="#00783E" d="M28383.404-1758.978l-211.758-211.777h-441.67c-389.248,0-437.646-4.014-415.479-30.244
			c22.207-26.201,121.016-30.254,657.52-30.254h633.242v242.021c0,133.105-1.992,242.031-6.035,242.031
			C28597.223-1547.2,28500.416-1642.005,28383.404-1758.978z"/>
		<path fill="#00783E" d="M27016.021-1591.585c10.078-30.244,56.465-46.377,56.465-20.176c0,10.098-14.131,26.23-32.256,32.256
			C27020.045-1571.419,27011.979-1577.464,27016.021-1591.585z"/>
		<path fill="#00783E" d="M28103.111-1585.53c-16.152-10.098-18.164-22.188-6.084-30.254c10.098-6.045,30.273,2.021,44.365,18.154
			C28169.625-1565.374,28147.457-1557.278,28103.111-1585.53z"/>
		<path fill="#00783E" d="M27137.037-1672.259c10.078-30.244,56.445-46.377,56.445-20.166c0,10.078-14.111,26.221-32.246,32.275
			C27141.061-1652.093,27132.984-1658.128,27137.037-1672.259z"/>
		<path fill="#00783E" d="M27980.045-1668.226c-40.332-24.199-10.078-48.408,32.305-24.199
			c18.125,10.078,24.18,24.199,14.082,30.273C28016.354-1656.126,27996.197-1658.128,27980.045-1668.226z"/>
		<path fill="#00783E" d="M27859.039-1728.743c-16.123-10.068-22.197-24.17-14.111-32.246c8.086-8.086,26.23-4.023,38.34,8.076
			C27913.502-1722.659,27897.369-1704.515,27859.039-1728.743z"/>
		<path fill="#00783E" d="M27546.441-1789.231c-6.035-10.088,6.045-20.176,28.252-20.176c24.199,0,42.305,10.088,42.305,20.176
			c0,12.08-12.08,20.156-28.193,20.156C27572.662-1769.075,27552.486-1777.151,27546.441-1789.231z"/>
		<path fill="#00783E" d="M28800.924,524.089c-94.805-54.453-131.074-86.719-117.002-100.85
			c14.16-14.111,28.271-14.111,46.416,2.021c20.186,16.152,38.32,12.109,74.609-14.111c40.352-30.254,44.414-42.363,24.209-78.662
			c-16.133-30.254-16.133-46.387,0-54.453c26.201-16.143,18.145-28.242,92.803,145.205
			C29004.615,612.839,28984.459,630.983,28800.924,524.089z M28903.775,485.759c-14.102-26.201-28.242-50.42-30.254-54.443
			c-4.004-4.043-20.156,4.023-36.318,18.154c-30.244,24.199-28.193,30.244,14.141,52.432
			C28917.896,540.222,28932.018,536.188,28903.775,485.759z"/>
		<path fill="#00783E" d="M28982.447,356.687c-100.84-80.664-139.17-129.082-102.842-129.082c6.025,0,52.412,32.275,100.82,72.617
			c48.398,40.332,88.73,66.543,88.73,60.498c0-8.076-26.221-54.453-60.518-102.852c-90.742-133.115-82.695-155.303,42.383-102.861
			c155.273,62.529,171.436,58.486,74.619-16.133c-84.707-66.562-121.025-112.949-84.707-112.949
			c6.025,0,64.521,42.363,129.062,92.773c74.629,58.496,114.961,102.852,106.895,121.016c-12.08,34.277,2.021,36.309-137.158-12.109
			c-64.531-22.178-121.016-40.322-125.02-40.322c-4.023,0,18.145,38.311,50.4,86.709c84.697,125.049,86.748,129.082,58.516,151.27
			C29103.443,441.413,29069.156,423.239,28982.447,356.687z"/>
		<path fill="#00783E" d="M25965.26,370.808c-60.508-60.508-52.451-116.973,26.201-195.635
			c78.652-78.652,153.281-88.74,213.779-28.232c44.395,44.375,50.42,84.697,18.164,143.203
			c-28.242,54.443-62.539,28.232-46.367-36.309c20.137-78.662-38.35-114.961-114.99-74.629
			c-78.662,40.342-104.873,92.773-68.584,141.191c14.131,22.168,46.406,38.301,68.584,38.301c58.496,0,54.463,38.33-6.055,46.396
			C26025.758,409.128,25989.439,395.007,25965.26,370.808z"/>
		<path fill="#00783E" d="M25830.113,185.261c-6.025-12.109-8.066-22.188-6.025-26.221c4.004-2.021,60.498-36.309,123.008-78.662
			c114.951-74.609,157.295-88.74,157.295-58.486C26104.391,52.136,25844.225,205.427,25830.113,185.261z"/>
		<path fill="#00783E" d="M29210.309,72.312c-72.578-40.332-135.107-76.641-139.111-78.652
			c-10.098-10.078,62.52-149.248,84.688-163.369c34.268-22.188,36.328,12.1,4.023,74.619c-28.213,54.453-30.254,68.574-6.035,82.695
			c42.354,28.242,52.422,22.188,88.75-44.365c20.176-42.354,38.281-56.475,52.432-42.354c12.1,12.1,10.098,40.332-12.109,80.664
			c-16.133,32.285-24.209,64.551-18.135,72.617c28.232,28.232,66.504,8.057,98.828-50.42c20.176-40.342,38.281-56.465,50.42-44.385
			c12.1,12.109,2.021,50.43-28.262,102.861l-46.387,82.695L29210.309,72.312z"/>
		<path fill="#00783E" d="M25757.496,72.312c-4.014-22.188,26.24-68.564,84.707-123.027l90.752-86.719l-133.086,14.121
			c-104.883,10.078-135.127,6.045-145.215-16.143c-6.055-20.166,28.242-48.408,118.994-92.783
			c135.127-66.543,169.404-76.621,169.404-48.398c0,10.078-44.375,38.32-100.85,64.551c-54.463,26.211-98.818,50.41-94.795,52.432
			c2.041,4.033,56.484-2.021,121.016-10.088c66.553-8.066,121.016-8.066,127.09,2.012c8.047,10.088-32.305,58.496-84.717,106.904
			c-112.969,102.861-106.904,110.928,32.256,40.342c54.453-28.232,102.881-42.363,110.928-32.275
			c8.066,16.123-40.332,44.365-276.318,159.326C25771.627,106.608,25761.549,92.487,25757.496,72.312z"/>
		<path fill="#00783E" d="M29391.822-125.325c-157.285-56.484-223.838-90.762-211.758-108.916c8.096-14.131,30.244-14.131,64.561,0
			c92.783,34.277,125.039-78.672,32.266-121.006c-34.268-16.152-46.387-30.254-32.266-44.375
			c22.188-22.188,127.041,16.133,127.041,44.375c0,8.066,28.242,18.145,62.568,22.168c92.744,8.086,110.928,52.441,66.514,151.27
			l-38.301,82.695L29391.822-125.325z M29464.479-270.56c-18.154-44.355-72.656-30.244-92.812,26.23
			c-26.191,66.562-26.191,64.531,26.24,72.598C29444.303-165.677,29482.604-220.13,29464.479-270.56z"/>
		<path fill="#00783E" d="M25586.061-347.181c-6.045-18.154-8.047-34.297-4.023-38.32c12.109-8.086,209.746-141.182,215.791-147.227
			c4.043-2.031,2.041-38.32-6.045-82.705l-12.07-78.652l-123.066,20.166c-74.609,10.088-129.053,10.088-141.172-2.031
			c-14.092-14.102,201.689-64.521,284.395-64.521c10.078,0,28.223,48.408,42.334,104.863
			c18.154,92.783,18.154,108.926-12.09,131.104c-52.451,38.33-20.166,147.227,44.375,147.227c26.201,0,48.398,10.098,48.398,20.176
			c0,12.109-66.553,20.176-161.338,20.176C25634.479-316.927,25596.148-322.991,25586.061-347.181z M25781.705-375.423
			c0-6.055-8.057-24.199-18.164-40.332c-14.092-22.188-26.201-20.176-70.557,8.066c-28.242,20.156-52.451,38.32-52.451,42.354
			s32.275,6.045,70.586,4.033C25749.449-363.323,25781.705-369.368,25781.705-375.423z"/>
		<path fill="#00783E" d="M29387.818-413.743c-70.566-20.166-116.992-44.375-116.992-60.508s14.131-22.178,36.328-16.133
			c18.154,6.055,86.738,24.209,151.27,42.363c62.5,18.145,114.922,42.344,114.922,52.432
			C29573.346-371.399,29526.979-375.423,29387.818-413.743z"/>
		<path fill="#00783E" d="M29343.453-540.804c-30.225-24.209-52.451-60.508-52.451-90.752c0-54.453,64.57-129.082,110.918-129.082
			c44.404,0,36.328,54.453-10.098,66.553c-60.508,16.123-52.412,102.861,10.098,131.104c28.232,14.121,68.584,24.199,86.738,24.199
			c78.662,0,114.961-102.861,50.43-139.18c-30.254-16.123-32.266-24.199-10.078-46.387c22.168-22.178,34.248-18.145,66.562,22.188
			c48.369,60.518,48.369,112.959-2.051,163.379C29539.088-484.329,29414.059-484.329,29343.453-540.804z"/>
		<path fill="#00783E" d="M25521.549-798.968c-22.188-22.168-36.328-56.455-32.285-76.641c4.033-20.166,8.066-46.377,8.066-60.508
			c2.031-32.256,72.607-52.422,123.037-36.289c22.197,8.047,46.377,40.352,56.465,76.631c18.154,70.596,76.65,96.807,98.838,42.354
			c8.066-22.188-2.021-46.387-34.297-72.598c-60.508-48.418-28.242-90.771,36.289-44.375
			c80.684,56.475,40.332,209.756-54.434,209.756c-46.396,0-80.664-40.342-100.85-114.971c-8.086-30.264-28.232-56.445-44.365-56.445
			c-40.352,0-46.377,68.555-8.076,110.918C25616.305-770.735,25571.949-748.548,25521.549-798.968z"/>
		<path fill="#00783E" d="M29331.314-809.046c0-14.121,18.193-32.275,40.352-38.33c28.242-6.045,40.342-28.232,40.342-64.531
			c0-36.318-12.1-58.486-40.342-64.551c-22.158-6.035-40.352-22.158-40.352-36.289c0-20.156,44.434-12.109,161.348,26.221
			c203.75,66.543,203.75,94.795,0,159.336c-82.656,24.199-153.252,46.387-155.254,46.387
			C29333.395-780.804,29331.314-792.913,29331.314-809.046z M29526.979-883.675c52.441-20.166,54.453-24.209,16.123-38.311
			c-66.533-28.252-90.752-22.188-90.752,20.176C29452.35-855.423,29452.35-855.423,29526.979-883.675z"/>
		<path fill="#00783E" d="M25646.559-1036.956c-98.809-6.035-147.197-16.133-147.197-32.256c0-18.164,44.365-22.197,161.318-18.164
			c123.057,6.035,161.367,14.131,161.367,36.299c0,16.143-6.045,26.221-14.111,24.219
			C25797.828-1028.88,25725.23-1034.935,25646.559-1036.956z"/>
		<path fill="#00783E" d="M29537.076-1369.72c12.09-36.328,56.445-42.354,56.445-8.096c0,18.164-14.102,32.305-32.246,32.305
			C29543.102-1345.511,29533.033-1355.608,29537.076-1369.72z"/>
		<path fill="#00783E" d="M25696.998-1442.327c-72.598-20.176-116.982-44.365-116.982-60.508c0-18.154,12.129-24.209,34.277-16.143
			c18.193,8.066,90.771,28.242,159.355,44.375c70.576,18.164,123.018,40.312,116.963,50.41
			C25876.49-1399.983,25836.158-1404.026,25696.998-1442.327z"/>
		<path fill="#00783E" d="M29252.711-1462.503c-12.129-4.043-22.207-18.154-20.156-30.254c0-26.221,227.842-195.625,260.107-195.625
			c32.305,0,24.238,36.289-12.07,56.465c-54.434,30.254-20.195,125.029,42.354,125.029c32.295,0,50.4,12.1,50.4,30.254
			c0,26.221-26.182,30.293-149.199,26.221C29343.453-1452.405,29264.811-1458.479,29252.711-1462.503z M29418.053-1539.163
			c-14.082-38.301-32.256-36.289-86.738,8.086l-46.357,36.289l72.598-8.047
			C29407.994-1508.909,29426.158-1518.978,29418.053-1539.163z"/>
		<path fill="#00783E" d="M25707.096-1547.2c-119.004-72.607-78.662-242.031,58.486-242.031
			c145.215,0,233.926,112.939,175.469,219.824C25902.721-1500.823,25795.826-1490.735,25707.096-1547.2z M25878.512-1579.505
			c58.516-40.303,56.465-76.621-10.088-129.053c-62.51-48.418-143.193-46.357-175.439,6.055c-26.24,42.354,0,92.754,70.557,129.082
			C25824.088-1541.165,25824.088-1541.165,25878.512-1579.505z"/>
		<path fill="#00783E" d="M25862.359-1839.661c-135.107-137.119-120.986-173.447,40.361-112.939
			c60.488,22.197,110.928,38.33,114.951,36.338c2.021-4.072-30.244-42.383-74.619-84.736
			c-74.629-72.607-102.852-131.084-64.541-131.084c14.111,0,181.504,54.463,282.354,90.732
			c14.121,6.084,22.207,18.154,14.121,28.242c-6.055,12.109-58.477,4.014-127.061-20.156l-114.971-40.342l84.717,86.738
			c112.939,114.951,94.805,151.26-52.412,94.775c-60.508-22.178-110.947-36.309-114.961-32.256
			c-6.074,4.014,30.234,44.355,80.645,90.762c78.662,72.598,94.814,104.844,52.441,104.844
			C25977.35-1728.743,25922.887-1779.153,25862.359-1839.661z"/>
		<path fill="#00783E" d="M29109.469-1773.099c-48.369-52.412-52.412-102.842-8.008-145.225
			c44.326-46.377,88.691-40.322,153.242,22.227c42.363,40.332,62.549,48.369,78.691,32.266
			c34.258-34.316,8.027-84.756-56.504-110.938c-54.434-22.188-56.484-24.219-10.078-32.266
			c68.584-10.088,102.852,8.047,125.01,66.523c44.414,117.012-68.535,189.609-159.268,102.852
			c-66.582-62.5-102.9-66.523-102.9-12.09c0,26.25,20.156,48.408,54.492,62.529c44.346,16.143,48.408,24.229,26.162,38.33
			C29165.973-1720.647,29155.885-1724.671,29109.469-1773.099z"/>
		<path fill="#00783E" d="M29412.008-1756.976c0-18.125,14.15-32.256,32.295-32.256c34.287,0,28.223,44.375-8.066,56.475
			C29422.086-1728.743,29412.008-1738.812,29412.008-1756.976z"/>
		<path fill="#00783E" d="M28948.141-2023.196c0-6.045,42.373-50.41,96.816-98.828c78.672-72.598,90.752-92.764,72.598-122.998
			c-34.287-58.506-58.486-54.453-165.352,30.234c-131.084,104.854-157.344,72.598-30.244-36.318
			c118.975-100.84,193.574-108.877,233.926-26.172c36.328,74.59,26.221,102.842-80.684,191.572
			C28992.535-2017.122,28948.141-1994.944,28948.141-2023.196z"/>
		<path fill="#00783E" d="M29220.406-2089.759c-14.111-24.189,24.219-48.369,50.42-32.266c22.217,14.15,8.086,50.43-20.176,50.43
			C29240.582-2071.595,29228.492-2079.681,29220.406-2089.759z"/>
		<path fill="#00783E" d="M26068.102-2154.29c-70.596-32.256-123.018-66.553-114.951-78.652c8.066-14.102,24.199-14.102,48.398,0
			c54.443,28.242,108.906-38.33,90.762-108.906c-22.197-94.795,28.232-56.455,102.852,74.629
			c38.32,70.586,70.586,139.17,70.586,151.27C26265.748-2077.62,26205.24-2089.759,26068.102-2154.29z M26193.15-2176.458
			c-38.33-68.564-52.451-76.65-82.695-52.432c-24.199,20.186-22.188,28.213,18.145,48.379
			C26189.098-2146.204,26211.295-2146.204,26193.15-2176.458z"/>
		<path fill="#00783E" d="M28776.715-2434.622c-42.354-46.377-24.209-78.672,26.23-48.428c38.33,24.248,58.486,88.76,28.232,88.76
			C28821.119-2394.29,28796.861-2412.444,28776.715-2434.622z"/>
		<path fill="#00783E" d="M26306.1-2430.56c0-20.166,66.533-84.746,86.709-84.746c30.244,0,12.1,60.498-24.189,80.684
			C26320.211-2410.403,26306.1-2408.392,26306.1-2430.56z"/>
		<path fill="#00783E" d="M28449.977-2468.899c-76.641-38.33-76.641-42.354-34.268-143.193l30.264-74.639l38.291,50.43
			c32.305,40.312,44.375,46.396,74.639,28.232c58.506-36.318,46.357-98.818-18.154-98.818c-72.598-2.012-88.77-22.207-42.354-48.428
			c88.75-46.377,177.451,62.549,127.041,157.324c-24.199,46.406-116.973,58.496-155.293,20.186
			c-14.102-14.111-24.17-12.1-32.275,8.066c-6.025,18.154,8.105,40.342,38.35,54.434c26.201,16.162,48.379,38.33,48.379,54.492
			c0,14.111-2.012,26.191-4.023,24.17C28516.568-2436.644,28484.264-2452.796,28449.977-2468.899z"/>
		<path fill="#00783E" d="M26588.434-2493.128c-30.234-58.457-26.221-78.623,30.264-127.031
			c56.455-48.428,64.541-92.773,20.156-108.936c-40.322-16.133-90.752,26.25-90.752,74.609c0,22.227-8.057,38.34-20.156,38.34
			c-34.307,0-22.188-92.754,16.123-127.041c50.42-46.396,139.17-44.385,165.391,4.023c30.254,58.506,26.211,80.664-32.275,133.115
			c-34.297,30.244-48.408,60.498-40.322,82.656c16.133,40.342,56.465,28.252,82.666-28.193c22.207-50.41,70.605-60.508,70.605-14.15
			C26790.133-2474.964,26628.775-2418.479,26588.434-2493.128z"/>
		<path fill="#00783E" d="M28238.209-2571.751c-74.609-34.297-114.941-104.893-40.352-74.639
			c104.873,42.344,104.873,42.344,100.85-88.74c-2.012-110.938,10.098-165.381,32.275-141.191
			c8.066,8.076,20.166,260.176,14.141,316.66C28343.072-2529.397,28333.014-2531.399,28238.209-2571.751z"/>
		<path fill="#00783E" d="M26802.232-2630.247c-18.164-42.354-44.375-106.895-60.498-141.182
			c-24.209-52.412-24.209-66.562-4.043-66.562c14.131,0,54.463,64.551,88.73,141.152c44.385,100.85,54.463,141.191,36.318,141.191
			C26846.588-2555.647,26820.377-2589.905,26802.232-2630.247z"/>
		<path fill="#00783E" d="M26872.818-2718.987c-28.242-84.707-38.33-151.279-28.242-161.338
			c12.109-12.1,34.297,28.242,56.484,96.816l38.32,116.943l30.264-135.127c16.123-74.629,42.334-141.172,54.463-145.225
			c30.225-12.08,135.098,284.414,106.885,300.527c-20.176,14.131-28.242-4.014-68.604-135.117l-26.201-86.738l-22.178,90.762
			C26953.512-2535.472,26935.338-2527.405,26872.818-2718.987z"/>
		<path fill="#00783E" d="M27992.174-2668.587c-44.395-42.334-40.342-100.83,8.047-149.238
			c32.295-32.256,50.41-36.279,90.742-20.166c68.604,26.24,68.604,26.24,56.494-18.154c-12.09-44.365-58.496-70.596-76.65-42.363
			c-18.135,30.264-50.439,24.219-50.439-8.066c0-26.201,40.361-52.422,82.744-52.422c10.088,0,36.27,18.145,58.447,40.332
			c34.307,34.307,38.32,56.484,28.242,116.973C28161.559-2652.425,28068.795-2589.905,27992.174-2668.587z M28111.139-2737.142
			c0-36.299-12.07-52.441-42.344-56.455c-52.441-8.096-80.684,48.369-46.387,90.752
			C28058.717-2660.511,28111.139-2680.657,28111.139-2737.142z"/>
		<path fill="#00783E" d="M27209.615-2696.839c-60.498-46.348-86.709-153.242-58.477-227.842
			c34.287-90.781,187.559-96.826,213.779-12.139c20.176,62.529-4.033,70.576-48.389,16.152
			c-32.275-40.342-46.406-44.355-76.641-26.25c-42.363,26.25-58.486,131.104-26.23,189.58
			c30.254,56.494,90.781,50.449,139.18-14.092l40.332-56.494l2.012,52.451C27395.182-2678.646,27288.277-2634.29,27209.615-2696.839
			z"/>
		<path fill="#00783E" d="M27834.85-2718.987c-44.355-48.428-44.355-52.441,4.014-64.521c30.264-8.076,40.322-28.242,40.322-78.672
			c0-66.572,28.252-135.166,48.428-114.99c14.15,14.15-30.244,300.527-46.357,298.525
			C27875.172-2678.646,27853.014-2696.839,27834.85-2718.987z"/>
		<path fill="#00783E" d="M27449.635-2741.185c-4.043-26.23-10.078-98.818-12.08-161.348l-4.053-116.973h100.84
			c54.463,0,104.873,8.066,110.918,18.154c14.131,22.178-98.818,50.43-129.082,32.246c-12.09-8.066-20.156,8.096-20.156,38.33
			c0,46.416,8.066,52.451,70.596,52.451c88.711,0,92.773,36.309,6.045,44.375c-50.43,4.014-68.574,16.123-72.598,52.441
			c-6.045,38.32,2.002,44.365,64.531,44.365c40.322,0,72.578,10.059,72.578,20.156c0,12.1-40.322,20.146-88.701,20.146
			C27473.844-2696.839,27457.711-2702.845,27449.635-2741.185z"/>
		<path fill="#00783E" d="M29238.551-2595.989c-135.107-54.414-145.195-282.334-14.092-340.83
			c125.049-56.445,272.285,0,294.463,116.992C29553.189-2652.425,29397.906-2531.399,29238.551-2595.989z M29428.15-2656.497
			c119.014-110.918-1.992-318.633-151.26-260.156c-108.906,40.332-139.16,153.301-64.531,248.066
			C29264.811-2601.995,29363.639-2597.991,29428.15-2656.497z"/>
		<path fill="#00783E" d="M29250.65-2775.472c0-56.465,10.107-102.852,20.176-102.852c12.119,0,20.176,18.145,20.176,40.332
			c0,22.178,12.129,40.322,28.232,40.322c16.162,0,36.338-18.145,42.354-40.322c22.227-72.607,44.395-42.334,42.383,56.484
			c-2.051,94.775-2.051,94.775-76.67,100.85l-76.65,6.025V-2775.472z M29357.555-2727.083c2.012-10.059-12.08-22.158-30.254-26.172
			c-22.148-4.082-36.299,6.025-36.299,26.172C29291.002-2692.767,29351.49-2690.745,29357.555-2727.083z"/>
	</g>
</g>
<g>
	<g>
		<path fill="#AFAFAF" d="M1985.382,101.403c9.188,0.002,66.263,27.998,74.476,56.058c1.344,4.59,2.364,9.543,2.969,14.621
			c36.424-34.396,85.544-55.487,139.597-55.487c112.32,0,203.375,91.055,203.375,203.375c0,112.322-91.055,203.374-203.375,203.374
			c-112.322,0-203.376-91.052-203.376-203.374c0-33.121,7.924-64.392,21.97-92.024c-16.888-1.699-33.579-13.133-42.97-26.616
			c-23.061-33.111,8.982-60.703,6.093-99.197C1984.1,101.64,1984.539,101.403,1985.382,101.403 M1985.386,81.127
			c-0.001,0-0.001,0-0.002,0c-6.296,0-12.02,2.335-16.118,6.751c-3.959,4.27-5.979,10.009-5.541,15.833
			c0.86,11.479-2.803,22.606-6.687,34.413c-6.854,20.848-15.382,46.781,4.209,74.913c6.297,9.045,14.759,17.092,24.464,23.282
			c2.41,1.537,4.869,2.936,7.363,4.197c-9.633,25.264-14.5,51.892-14.5,79.453c0,30.21,5.92,59.525,17.599,87.14
			c11.274,26.655,27.412,50.593,47.964,71.146c20.551,20.55,44.487,36.688,71.146,47.962c27.607,11.678,56.927,17.601,87.138,17.601
			s59.526-5.923,87.137-17.601c26.658-11.273,50.597-27.412,71.146-47.963c20.552-20.553,36.688-44.487,47.963-71.146
			c11.68-27.611,17.6-56.931,17.6-87.14c0-30.21-5.92-59.526-17.6-87.138c-11.273-26.658-27.411-50.596-47.963-71.145
			c-20.55-20.553-44.487-36.689-71.146-47.965c-27.61-11.679-56.926-17.6-87.137-17.6c-46.887,0-91.894,14.482-129.548,41.271
			c-7.735-12.184-20.743-24.154-38.864-35.733c-8.326-5.32-17.501-10.229-25.829-13.998
			C1995.186,81.785,1989.171,81.127,1985.386,81.127L1985.386,81.127z"/>
	</g>
	<circle fill="#60AAD4" cx="2202.42" cy="319.97" r="203.375"/>
	<path fill="#95BC4E" d="M2059.855,157.461c6.651,22.729,5.614,54.269-16.978,66.383c-22.594,12.114-51.301-3.083-64.835-22.516
		c-23.061-33.111,8.982-60.703,6.093-99.198C1983.697,96.272,2050.891,126.829,2059.855,157.461z"/>
	<path fill="#DEDE3B" d="M2047.107,223.177c2.404-4.933-8.01-39.385-8.01-39.385l14.463-29.148l-2.002-1.113
		c0,0-13.821,25.441-14.021,24.922c-8.232-21.473-30.039-61.635-38.718-61.191c-0.669,0.035-2.679,2.231-1.058,3.312
		c7.23,4.812,24.646,33.516,26.424,41.638c0.097,0.438-27.537-13.574-36.49-15.131c-0.668-0.116-3.083,1.682-0.446,2.67
		c13.073,4.896,35.228,15.367,39.438,19.581c3.116,3.115,9.623,25.145,7.512,25.145c-3.449,0-43.557-23.586-54.737-23.363
		c-0.951,0.019-3.634,2.617-1.335,3.561c14.909,6.118,52.768,24.735,57.443,28.777c1.632,1.41,0.666,22.77,1.742,23.512
		C2039.479,228.449,2046.438,224.549,2047.107,223.177z"/>
	<g>
		<g>
			<path fill="#FFFFFF" d="M2041.859,404.305v-164.22h12.434v164.22H2041.859z"/>
			<path fill="#FFFFFF" d="M2226.016,381.549c-16.42,16.425-38.235,24.634-59.82,24.634c-55.365,0-84.223-38.709-84.456-83.047
				c-0.47-43.871,28.151-84.928,84.456-84.928c21.585,0,43.4,8.211,59.82,24.634l-8.679,7.507
				c-14.075-14.076-32.61-20.879-51.144-20.879c-47.857,0-72.49,33.783-72.258,73.194c0.472,38.476,24.868,71.789,72.258,71.789
				c18.533,0,37.303-7.039,51.378-20.88L2226.016,381.549z"/>
			<path fill="#FFFFFF" d="M2364.659,271.757c-11.966-19.238-31.204-22.053-49.735-22.288c-19.238,0-49.736,7.037-49.736,33.312
				c0,20.881,22.523,25.807,50.204,30.969c31.673,6.103,64.515,11.729,64.515,47.154c-0.23,37.067-37.533,45.979-64.98,45.979
				c-25.572,0-54.662-10.557-67.332-35.656l11.261-5.633c10.088,19.94,35.896,29.793,56.071,29.793s52.312-5.629,52.312-34.719
				c0.236-24.635-26.979-30.029-53.959-35.189c-30.027-5.864-60.76-11.967-60.76-42.229c-0.703-34.721,35.424-45.514,62.404-45.514
				c23.46,0,43.869,3.754,60.059,27.918L2364.659,271.757z"/>
		</g>
	</g>
</g>
<g>
	<circle fill="#224E8A" cx="240.352" cy="263.12" r="210.476"/>
	<path fill="#FFFFFF" d="M181.133,172.377v177.392h-40.43l-23.997-80.644v80.644H78.139V172.377h38.567l25.859,79.875v-79.875
		H181.133z"/>
	<path fill="#FFFFFF" d="M293.215,226.065h-42.842v-13.148c0-6.135-0.548-10.042-1.644-11.725c-1.097-1.678-2.922-2.52-5.479-2.52
		c-2.776,0-4.876,1.133-6.3,3.4c-1.424,2.267-2.136,5.701-2.136,10.306c0,5.92,0.798,10.38,2.4,13.376
		c1.53,2.997,5.875,6.613,13.037,10.846c20.535,12.187,33.466,22.189,38.799,30.004c5.331,7.816,7.998,20.416,7.998,37.801
		c0,12.638-1.478,21.951-4.437,27.938c-2.958,5.99-8.675,11.012-17.147,15.064c-8.476,4.055-18.337,6.083-29.585,6.083
		c-12.345,0-22.882-2.341-31.609-7.011c-8.731-4.678-14.447-10.631-17.148-17.861c-2.704-7.229-4.054-17.494-4.054-30.789v-11.614
		h42.841V307.8c0,6.648,0.603,10.922,1.807,12.82c1.206,1.898,3.343,2.849,6.41,2.849c3.069,0,5.35-1.206,6.85-3.616
		c1.496-2.412,2.245-5.986,2.245-10.735c0-10.446-1.423-17.274-4.271-20.49c-2.923-3.213-10.119-8.582-21.585-16.105
		c-11.469-7.598-19.065-13.11-22.791-16.545c-3.725-3.434-6.812-8.18-9.258-14.244c-2.448-6.062-3.671-13.806-3.671-23.229
		c0-13.586,1.735-23.52,5.205-29.802c3.468-6.281,9.076-11.193,16.819-14.737c7.741-3.542,17.092-5.314,28.049-5.314
		c11.979,0,22.188,1.938,30.624,5.808c8.438,3.873,14.025,8.748,16.765,14.627c2.739,5.88,4.109,15.871,4.109,29.966
		L293.215,226.065L293.215,226.065z"/>
	<path fill="#FFFFFF" d="M307.342,172.377h78.123v35.5h-31.994v33.638h28.487v33.747h-28.487v74.507h-46.129V172.377z"/>
	
		<rect x="28.868" y="497.765" fill="none" stroke="#224E8A" stroke-width="6.0424" stroke-miterlimit="10" width="418.938" height="75.53"/>
	<g>
		<g>
			<g>
				<path fill="#224E8A" d="M131.639,505.501c2.273,1.211,3.664,3.333,4.172,6.363h-3.11c-0.373-1.693-1.14-2.932-2.306-3.702
					c-1.166-0.772-2.634-1.159-4.407-1.159c-2.104,0-3.874,0.804-5.312,2.414c-1.437,1.61-2.157,4.012-2.157,7.201
					c0,2.759,0.594,5.005,1.78,6.733c1.187,1.732,3.121,2.6,5.805,2.6c2.052,0,3.751-0.606,5.098-1.825
					c1.348-1.215,2.037-3.18,2.067-5.897h-7.265v-2.604h10.186v12.412h-2.02l-0.759-2.983c-1.046,1.167-1.973,1.979-2.781,2.434
					c-1.356,0.777-3.079,1.167-5.172,1.167c-2.704,0-5.028-0.89-6.974-2.668c-2.124-2.232-3.186-5.295-3.186-9.19
					c0-3.885,1.039-6.974,3.113-9.271c1.972-2.188,4.524-3.282,7.658-3.282C128.216,504.238,130.073,504.659,131.639,505.501z"/>
				<path fill="#224E8A" d="M141.599,504.838h4.502l6.669,19.612l6.623-19.612h4.471v23.197h-3v-13.69
					c0-0.474,0.01-1.258,0.031-2.354c0.022-1.097,0.033-2.271,0.033-3.521l-6.624,19.564h-3.113l-6.686-19.564v0.711
					c0,0.568,0.017,1.434,0.047,2.6c0.031,1.163,0.047,2.019,0.047,2.563v13.69h-3V504.838z"/>
				<path fill="#224E8A" d="M169.241,504.838h10.381c2.05,0,3.708,0.582,4.969,1.745c1.263,1.164,1.894,2.798,1.894,4.903
					c0,1.812-0.563,3.387-1.689,4.729s-2.85,2.011-5.17,2.011h-7.244v9.81h-3.141V504.838z M181.429,508.029
					c-0.688-0.327-1.636-0.492-2.837-0.492h-6.209v8.039h6.209c1.399,0,2.537-0.301,3.409-0.9c0.873-0.599,1.309-1.658,1.309-3.174
					C183.31,509.797,182.683,508.638,181.429,508.029z"/>
				<path fill="#224E8A" d="M199.954,504.838H210.5c1.735,0,3.167,0.257,4.295,0.774c2.139,0.988,3.209,2.815,3.209,5.479
					c0,1.393-0.287,2.527-0.86,3.41c-0.574,0.887-1.376,1.597-2.409,2.134c0.906,0.368,1.588,0.854,2.045,1.451
					c0.459,0.604,0.714,1.576,0.766,2.923l0.11,3.11c0.033,0.885,0.104,1.543,0.222,1.975c0.189,0.737,0.526,1.211,1.01,1.422v0.521
					h-3.854c-0.104-0.2-0.188-0.458-0.251-0.773c-0.064-0.314-0.117-0.928-0.159-1.832l-0.188-3.87
					c-0.074-1.514-0.621-2.527-1.643-3.045c-0.583-0.287-1.5-0.429-2.748-0.429h-6.951v9.949h-3.142v-23.198L199.954,504.838
					L199.954,504.838z M210.162,515.465c1.432,0,2.565-0.293,3.4-0.884c0.835-0.59,1.252-1.651,1.252-3.188
					c0-1.65-0.583-2.777-1.751-3.38c-0.624-0.313-1.458-0.476-2.502-0.476h-7.464v7.928H210.162z"/>
				<path fill="#224E8A" d="M233.321,511.588c1.119,0.563,1.973,1.294,2.559,2.189c0.565,0.851,0.94,1.846,1.129,2.981
					c0.167,0.78,0.25,2.021,0.25,3.729h-12.301c0.053,1.722,0.455,3.102,1.208,4.142c0.751,1.038,1.917,1.56,3.493,1.56
					c1.473,0,2.648-0.49,3.526-1.475c0.491-0.571,0.838-1.23,1.043-1.984h2.795c-0.074,0.623-0.318,1.313-0.734,2.077
					c-0.417,0.766-0.88,1.387-1.393,1.869c-0.856,0.846-1.916,1.413-3.182,1.707c-0.678,0.168-1.446,0.253-2.303,0.253
					c-2.092,0-3.867-0.767-5.322-2.297c-1.452-1.532-2.18-3.679-2.18-6.438c0-2.715,0.733-4.921,2.198-6.615
					c1.464-1.696,3.378-2.543,5.743-2.543C231.046,510.743,232.201,511.025,233.321,511.588z M234.339,518.229
					c-0.115-1.229-0.38-2.215-0.799-2.951c-0.771-1.368-2.062-2.054-3.867-2.054c-1.293,0-2.379,0.473-3.256,1.413
					c-0.877,0.942-1.342,2.142-1.395,3.592H234.339L234.339,518.229z"/>
				<path fill="#224E8A" d="M250.587,511.802c0.535,0.369,1.08,0.908,1.635,1.61v-2.133h2.622v15.383
					c0,2.146-0.316,3.842-0.945,5.084c-1.174,2.295-3.394,3.443-6.657,3.443c-1.814,0-3.343-0.408-4.58-1.226
					c-1.238-0.813-1.93-2.095-2.078-3.829h2.889c0.137,0.757,0.409,1.344,0.817,1.753c0.64,0.631,1.645,0.947,3.016,0.947
					c2.167,0,3.586-0.77,4.256-2.306c0.398-0.905,0.582-2.521,0.55-4.852c-0.567,0.865-1.248,1.507-2.046,1.93
					c-0.796,0.42-1.85,0.631-3.161,0.631c-1.824,0-3.42-0.649-4.79-1.949c-1.368-1.299-2.052-3.45-2.052-6.451
					c0-2.832,0.691-5.042,2.067-6.632c1.38-1.591,3.045-2.385,4.995-2.385C248.448,510.823,249.601,511.149,250.587,511.802z
					 M250.934,514.851c-0.858-1.012-1.952-1.518-3.283-1.518c-1.991,0-3.352,0.938-4.084,2.812
					c-0.387,1.003-0.581,2.312-0.581,3.934c0,1.906,0.384,3.354,1.155,4.352c0.768,0.993,1.803,1.491,3.102,1.491
					c2.032,0,3.462-0.92,4.289-2.763c0.46-1.042,0.691-2.258,0.691-3.646C252.223,517.413,251.793,515.861,250.934,514.851z"/>
				<path fill="#224E8A" d="M259.495,504.838h2.89v3.221h-2.89V504.838z M259.495,511.201h2.89v16.834h-2.89V511.201z"/>
				<path fill="#224E8A" d="M268.693,522.729c0.084,0.948,0.326,1.678,0.724,2.183c0.73,0.915,1.998,1.375,3.804,1.375
					c1.073,0,2.021-0.23,2.836-0.69c0.815-0.457,1.225-1.164,1.225-2.121c0-0.727-0.326-1.278-0.979-1.657
					c-0.417-0.23-1.241-0.5-2.472-0.807l-2.294-0.566c-1.467-0.359-2.547-0.76-3.243-1.201c-1.241-0.771-1.862-1.832-1.862-3.188
					c0-1.6,0.585-2.896,1.754-3.886c1.168-0.988,2.738-1.483,4.712-1.483c2.583,0,4.444,0.747,5.585,2.24
					c0.715,0.949,1.062,1.972,1.041,3.065h-2.685c-0.054-0.641-0.285-1.218-0.694-1.744c-0.668-0.742-1.827-1.115-3.477-1.115
					c-1.1,0-1.932,0.205-2.497,0.615c-0.566,0.408-0.848,0.948-0.848,1.619c0,0.732,0.371,1.321,1.115,1.763
					c0.428,0.262,1.062,0.493,1.897,0.693l1.916,0.457c2.079,0.497,3.476,0.973,4.183,1.438c1.105,0.728,1.657,1.868,1.657,3.426
					c0,1.506-0.578,2.807-1.735,3.9c-1.156,1.095-2.917,1.645-5.284,1.645c-2.547,0-4.352-0.571-5.41-1.716
					c-1.062-1.143-1.63-2.557-1.705-4.239h2.736V522.729z"/>
				<path fill="#224E8A" d="M284.065,506.402h2.874v4.721h2.701v2.32h-2.701v11.039c0,0.589,0.201,0.984,0.6,1.185
					c0.222,0.115,0.589,0.174,1.104,0.174c0.138,0,0.285-0.003,0.442-0.009c0.159-0.009,0.343-0.026,0.555-0.054v2.257
					c-0.327,0.095-0.667,0.162-1.02,0.205c-0.352,0.042-0.734,0.062-1.145,0.062c-1.327,0-2.227-0.341-2.7-1.019
					c-0.474-0.679-0.71-1.562-0.71-2.646v-11.194h-2.29v-2.32h2.29V506.402z"/>
				<path fill="#224E8A" d="M303.253,511.588c1.118,0.563,1.971,1.294,2.558,2.189c0.564,0.851,0.941,1.846,1.129,2.981
					c0.167,0.78,0.25,2.021,0.25,3.729h-12.3c0.051,1.722,0.453,3.102,1.206,4.142c0.751,1.038,1.917,1.56,3.493,1.56
					c1.474,0,2.65-0.49,3.526-1.475c0.491-0.571,0.839-1.23,1.043-1.984h2.795c-0.074,0.623-0.32,1.313-0.735,2.077
					c-0.415,0.766-0.879,1.387-1.391,1.869c-0.856,0.846-1.918,1.413-3.182,1.707c-0.68,0.168-1.448,0.253-2.304,0.253
					c-2.092,0-3.865-0.767-5.32-2.297c-1.456-1.532-2.182-3.679-2.182-6.438c0-2.715,0.733-4.921,2.197-6.615
					c1.465-1.696,3.38-2.543,5.746-2.543C300.976,510.743,302.133,511.025,303.253,511.588z M304.271,518.229
					c-0.117-1.229-0.382-2.215-0.8-2.951c-0.771-1.368-2.062-2.054-3.868-2.054c-1.295,0-2.38,0.473-3.258,1.413
					c-0.876,0.942-1.34,2.142-1.393,3.592H304.271L304.271,518.229z"/>
				<path fill="#224E8A" d="M311.193,511.123h2.701v2.92c0.222-0.568,0.763-1.258,1.625-2.073c0.863-0.815,1.859-1.227,2.985-1.227
					c0.052,0,0.144,0.007,0.27,0.016c0.127,0.013,0.342,0.032,0.647,0.064v3.001c-0.168-0.034-0.324-0.055-0.466-0.065
					c-0.144-0.008-0.299-0.014-0.466-0.014c-1.434,0-2.533,0.46-3.301,1.382c-0.77,0.92-1.153,1.98-1.153,3.182v9.729h-2.843
					V511.123z"/>
				<path fill="#224E8A" d="M332.655,511.588c1.118,0.563,1.972,1.294,2.559,2.189c0.565,0.851,0.941,1.846,1.129,2.981
					c0.168,0.78,0.251,2.021,0.251,3.729h-12.302c0.053,1.722,0.456,3.102,1.206,4.142c0.752,1.038,1.919,1.56,3.495,1.56
					c1.474,0,2.647-0.49,3.524-1.475c0.492-0.571,0.838-1.23,1.043-1.984h2.797c-0.073,0.623-0.318,1.313-0.735,2.077
					c-0.417,0.766-0.879,1.387-1.392,1.869c-0.855,0.846-1.918,1.413-3.182,1.707c-0.678,0.168-1.447,0.253-2.304,0.253
					c-2.091,0-3.866-0.767-5.32-2.297c-1.454-1.532-2.18-3.679-2.18-6.438c0-2.715,0.73-4.921,2.197-6.615
					c1.464-1.696,3.379-2.543,5.743-2.543C330.378,510.743,331.535,511.025,332.655,511.588z M333.672,518.229
					c-0.115-1.229-0.38-2.215-0.798-2.951c-0.773-1.368-2.062-2.054-3.867-2.054c-1.293,0-2.38,0.473-3.256,1.413
					c-0.878,0.942-1.343,2.142-1.396,3.592H333.672L333.672,518.229z"/>
				<path fill="#224E8A" d="M349.81,511.645c0.502,0.314,1.075,0.869,1.715,1.658v-8.544h2.731v23.276h-2.559v-2.354
					c-0.66,1.042-1.442,1.796-2.345,2.263c-0.901,0.462-1.936,0.691-3.099,0.691c-1.878,0-3.503-0.793-4.878-2.377
					c-1.373-1.584-2.06-3.689-2.06-6.325c0-2.462,0.627-4.598,1.881-6.4c1.252-1.808,3.043-2.708,5.371-2.708
					C347.859,510.823,348.939,511.098,349.81,511.645z M343.464,524.324c0.767,1.221,1.991,1.832,3.679,1.832
					c1.309,0,2.386-0.565,3.229-1.697s1.264-2.756,1.264-4.873c0-2.137-0.434-3.718-1.304-4.745
					c-0.871-1.024-1.943-1.538-3.222-1.538c-1.424,0-2.579,0.547-3.465,1.645c-0.886,1.095-1.327,2.703-1.327,4.83
					C342.318,521.589,342.701,523.104,343.464,524.324z"/>
			</g>
			<g>
				<path fill="#224E8A" d="M84.675,537.49h9.272c3.146,0,5.589,1.134,7.324,3.396c1.548,2.041,2.323,4.657,2.323,7.848
					c0,2.465-0.458,4.69-1.372,6.681c-1.61,3.517-4.379,5.273-8.307,5.273h-9.24V537.49z M93.33,558.004
					c1.04,0,1.895-0.109,2.564-0.332c1.194-0.409,2.172-1.202,2.934-2.369c0.607-0.936,1.044-2.137,1.312-3.599
					c0.155-0.874,0.231-1.688,0.231-2.433c0-2.873-0.558-5.106-1.675-6.696c-1.116-1.59-2.915-2.384-5.396-2.384h-5.45v17.812
					L93.33,558.004L93.33,558.004z"/>
				<path fill="#224E8A" d="M107.832,537.49h2.891v3.222h-2.891V537.49z M107.832,543.855h2.891v16.834h-2.891V543.855z"/>
				<path fill="#224E8A" d="M125.788,544.242c1.12,0.562,1.972,1.292,2.559,2.188c0.564,0.854,0.941,1.849,1.13,2.985
					c0.168,0.779,0.25,2.02,0.25,3.727h-12.3c0.052,1.721,0.454,3.102,1.205,4.142c0.753,1.04,1.918,1.559,3.496,1.559
					c1.473,0,2.647-0.49,3.525-1.473c0.491-0.572,0.838-1.235,1.043-1.985h2.795c-0.074,0.623-0.319,1.314-0.734,2.077
					s-0.879,1.387-1.391,1.871c-0.857,0.843-1.918,1.412-3.183,1.705c-0.678,0.17-1.446,0.254-2.303,0.254
					c-2.093,0-3.866-0.767-5.321-2.297c-1.453-1.533-2.18-3.679-2.18-6.438c0-2.715,0.732-4.922,2.198-6.613
					c1.464-1.696,3.378-2.543,5.743-2.543C123.511,543.396,124.668,543.678,125.788,544.242z M126.806,550.883
					c-0.115-1.231-0.381-2.217-0.799-2.954c-0.771-1.369-2.062-2.052-3.866-2.052c-1.294,0-2.382,0.471-3.257,1.413
					c-0.877,0.943-1.343,2.14-1.396,3.593H126.806L126.806,550.883z"/>
				<path fill="#224E8A" d="M134.22,539.055h2.875v4.724h2.701v2.319h-2.701v11.038c0,0.591,0.2,0.985,0.599,1.186
					c0.221,0.117,0.59,0.175,1.106,0.175c0.137,0,0.285-0.005,0.441-0.011c0.158-0.009,0.342-0.025,0.555-0.054v2.259
					c-0.327,0.095-0.667,0.159-1.02,0.205c-0.353,0.041-0.734,0.062-1.146,0.062c-1.326,0-2.227-0.34-2.7-1.019
					c-0.474-0.681-0.71-1.562-0.71-2.646v-11.194h-2.29v-2.319h2.29V539.055z"/>
				<path fill="#224E8A" d="M152.024,550.454c0.652-0.085,1.089-0.357,1.31-0.82c0.126-0.254,0.19-0.618,0.19-1.093
					c0-0.973-0.344-1.679-1.032-2.115c-0.689-0.44-1.673-0.66-2.956-0.66c-1.481,0-2.533,0.403-3.152,1.207
					c-0.347,0.443-0.573,1.105-0.677,1.981h-2.654c0.053-2.088,0.729-3.543,2.027-4.363c1.298-0.813,2.805-1.226,4.519-1.226
					c1.988,0,3.601,0.379,4.842,1.136c1.231,0.76,1.847,1.938,1.847,3.54v9.743c0,0.293,0.061,0.532,0.182,0.71
					c0.119,0.178,0.375,0.268,0.766,0.268c0.126,0,0.268-0.008,0.426-0.021c0.157-0.018,0.325-0.04,0.505-0.071v2.103
					c-0.443,0.125-0.78,0.203-1.011,0.234c-0.231,0.031-0.547,0.048-0.947,0.048c-0.98,0-1.691-0.348-2.133-1.042
					c-0.231-0.367-0.395-0.889-0.489-1.562c-0.58,0.758-1.412,1.416-2.495,1.975c-1.084,0.561-2.28,0.838-3.585,0.838
					c-1.569,0-2.851-0.478-3.845-1.428c-0.996-0.953-1.492-2.144-1.492-3.574c0-1.563,0.488-2.78,1.468-3.643
					c0.979-0.862,2.263-1.396,3.854-1.593L152.024,550.454z M146.04,558.131c0.601,0.478,1.311,0.709,2.13,0.709
					c1.001,0,1.969-0.229,2.907-0.689c1.579-0.77,2.367-2.024,2.367-3.771v-2.287c-0.346,0.224-0.792,0.405-1.339,0.557
					c-0.545,0.146-1.082,0.253-1.607,0.313l-1.718,0.222c-1.029,0.14-1.804,0.354-2.322,0.646c-0.879,0.493-1.318,1.282-1.318,2.364
					C145.139,557.015,145.438,557.659,146.04,558.131z"/>
				<path fill="#224E8A" d="M161.349,543.776h2.701v2.92c0.221-0.568,0.762-1.259,1.625-2.076c0.864-0.814,1.859-1.224,2.985-1.224
					c0.053,0,0.141,0.006,0.269,0.016c0.127,0.012,0.342,0.032,0.647,0.062v3.002c-0.168-0.032-0.324-0.052-0.465-0.062
					c-0.144-0.01-0.298-0.016-0.466-0.016c-1.433,0-2.533,0.46-3.301,1.383c-0.768,0.92-1.152,1.979-1.152,3.182v9.728h-2.842
					L161.349,543.776L161.349,543.776z"/>
				<path fill="#224E8A" d="M182.935,543.776h3.141c-0.399,1.085-1.289,3.561-2.668,7.425c-1.032,2.909-1.896,5.275-2.589,7.107
					c-1.641,4.314-2.798,6.943-3.471,7.892c-0.674,0.944-1.831,1.421-3.472,1.421c-0.398,0-0.708-0.016-0.922-0.047
					c-0.216-0.032-0.482-0.09-0.797-0.174v-2.592c0.495,0.139,0.851,0.222,1.071,0.253c0.221,0.031,0.417,0.05,0.584,0.05
					c0.525,0,0.911-0.09,1.158-0.264c0.247-0.174,0.455-0.386,0.624-0.638c0.052-0.085,0.242-0.515,0.566-1.291
					c0.327-0.778,0.563-1.354,0.711-1.735l-6.254-17.408h3.222l4.531,13.775L182.935,543.776z"/>
				<path fill="#224E8A" d="M200.596,553.203c0.071,1.313,0.372,2.385,0.899,3.205c1.002,1.538,2.773,2.307,5.308,2.307
					c1.136,0,2.171-0.168,3.104-0.507c1.805-0.652,2.708-1.82,2.708-3.505c0-1.264-0.382-2.162-1.148-2.699
					c-0.775-0.527-1.989-0.984-3.641-1.374l-3.045-0.712c-1.987-0.462-3.396-0.972-4.221-1.53c-1.428-0.97-2.143-2.415-2.143-4.344
					c0-2.083,0.702-3.796,2.107-5.132c1.403-1.338,3.39-2.005,5.962-2.005c2.367,0,4.376,0.585,6.031,1.76
					c1.655,1.175,2.482,3.053,2.482,5.63h-2.955c-0.149-1.242-0.473-2.193-0.969-2.856c-0.917-1.21-2.477-1.817-4.676-1.817
					c-1.777,0-3.053,0.392-3.831,1.17c-0.778,0.78-1.167,1.686-1.167,2.717c0,1.137,0.46,1.969,1.378,2.495
					c0.601,0.339,1.963,0.757,4.085,1.263l3.151,0.742c1.521,0.36,2.693,0.85,3.519,1.469c1.428,1.084,2.141,2.659,2.141,4.724
					c0,2.568-0.91,4.405-2.732,5.512c-1.822,1.104-3.94,1.659-6.353,1.659c-2.812,0-5.014-0.738-6.606-2.212
					c-1.592-1.463-2.372-3.447-2.341-5.954h2.953V553.203z"/>
				<path fill="#224E8A" d="M222.901,543.776v11.227c0,0.865,0.134,1.57,0.401,2.116c0.492,1.012,1.409,1.518,2.752,1.518
					c1.928,0,3.239-0.885,3.938-2.651c0.38-0.947,0.569-2.249,0.569-3.899v-8.308h2.842v16.912h-2.686l0.033-2.496
					c-0.363,0.644-0.812,1.186-1.349,1.627c-1.064,0.885-2.356,1.328-3.874,1.328c-2.367,0-3.978-0.808-4.835-2.418
					c-0.466-0.863-0.697-2.018-0.697-3.457v-11.496L222.901,543.776L222.901,543.776z"/>
				<path fill="#224E8A" d="M238.132,543.855h2.78v2.241c0.569-0.769,1.193-1.361,1.868-1.782c0.96-0.633,2.089-0.948,3.388-0.948
					c1.92,0,3.551,0.732,4.892,2.203c1.341,1.469,2.012,3.564,2.012,6.293c0,3.688-0.967,6.314-2.902,7.896
					c-1.226,0.999-2.653,1.502-4.28,1.502c-1.278,0-2.352-0.277-3.218-0.838c-0.507-0.313-1.072-0.859-1.696-1.628v8.641h-2.843
					L238.132,543.855L238.132,543.855z M248.827,557.111c0.882-1.109,1.323-2.771,1.323-4.981c0-1.347-0.196-2.504-0.587-3.473
					c-0.74-1.865-2.091-2.798-4.057-2.798c-1.975,0-3.327,0.983-4.056,2.951c-0.391,1.057-0.586,2.393-0.586,4.016
					c0,1.304,0.196,2.415,0.586,3.33c0.74,1.748,2.091,2.622,4.056,2.622C246.839,558.778,247.944,558.222,248.827,557.111z"/>
				<path fill="#224E8A" d="M256.442,543.855h2.778v2.241c0.57-0.769,1.193-1.361,1.868-1.782c0.96-0.633,2.091-0.948,3.389-0.948
					c1.921,0,3.55,0.732,4.892,2.203c1.34,1.469,2.01,3.564,2.01,6.293c0,3.688-0.967,6.314-2.902,7.896
					c-1.225,0.999-2.651,1.502-4.279,1.502c-1.281,0-2.351-0.277-3.219-0.838c-0.508-0.313-1.074-0.859-1.696-1.628v8.641h-2.842
					L256.442,543.855L256.442,543.855z M267.137,557.111c0.88-1.109,1.322-2.771,1.322-4.981c0-1.347-0.194-2.504-0.586-3.473
					c-0.739-1.865-2.091-2.798-4.057-2.798c-1.974,0-3.328,0.983-4.055,2.951c-0.391,1.057-0.586,2.393-0.586,4.016
					c0,1.304,0.196,2.415,0.586,3.33c0.739,1.748,2.09,2.622,4.055,2.622C265.146,558.778,266.254,558.222,267.137,557.111z"/>
				<path fill="#224E8A" d="M275.068,537.49h2.842v23.197h-2.842V537.49z"/>
				<path fill="#224E8A" d="M292.943,544.242c1.12,0.562,1.972,1.292,2.56,2.188c0.564,0.854,0.94,1.849,1.129,2.985
					c0.168,0.779,0.251,2.02,0.251,3.727h-12.301c0.052,1.721,0.456,3.102,1.206,4.142c0.753,1.04,1.916,1.559,3.495,1.559
					c1.473,0,2.648-0.49,3.524-1.473c0.492-0.572,0.839-1.235,1.044-1.985h2.795c-0.074,0.623-0.319,1.314-0.735,2.077
					c-0.415,0.763-0.879,1.387-1.392,1.871c-0.856,0.843-1.917,1.412-3.181,1.705c-0.679,0.17-1.448,0.254-2.303,0.254
					c-2.092,0-3.866-0.767-5.32-2.297c-1.454-1.533-2.182-3.679-2.182-6.438c0-2.715,0.733-4.922,2.199-6.613
					c1.464-1.696,3.378-2.543,5.743-2.543C290.667,543.396,291.824,543.678,292.943,544.242z M293.961,550.883
					c-0.115-1.231-0.38-2.217-0.799-2.954c-0.772-1.369-2.061-2.052-3.866-2.052c-1.295,0-2.38,0.471-3.258,1.413
					c-0.876,0.943-1.341,2.14-1.394,3.593H293.961L293.961,550.883z"/>
				<path fill="#224E8A" d="M300.807,543.776h2.811v2.399c0.673-0.832,1.284-1.438,1.832-1.815c0.937-0.645,2-0.964,3.19-0.964
					c1.347,0,2.431,0.33,3.251,0.993c0.465,0.38,0.885,0.938,1.265,1.675c0.632-0.905,1.374-1.574,2.226-2.013
					c0.854-0.438,1.812-0.655,2.875-0.655c2.273,0,3.822,0.819,4.644,2.463c0.44,0.886,0.663,2.073,0.663,3.568v11.26h-2.952V548.94
					c0-1.128-0.283-1.899-0.847-2.321c-0.562-0.422-1.25-0.635-2.06-0.635c-1.116,0-2.077,0.375-2.882,1.122
					c-0.806,0.749-1.209,1.994-1.209,3.741v9.84h-2.89v-11.039c0-1.147-0.137-1.982-0.409-2.51
					c-0.434-0.789-1.239-1.186-2.417-1.186c-1.074,0-2.05,0.417-2.929,1.249c-0.88,0.831-1.317,2.337-1.317,4.515v8.971h-2.843
					L300.807,543.776L300.807,543.776z"/>
				<path fill="#224E8A" d="M338.518,544.242c1.118,0.562,1.972,1.292,2.559,2.188c0.564,0.854,0.941,1.849,1.13,2.985
					c0.168,0.779,0.251,2.02,0.251,3.727h-12.302c0.052,1.721,0.455,3.102,1.206,4.142c0.752,1.04,1.917,1.559,3.494,1.559
					c1.473,0,2.648-0.49,3.524-1.473c0.491-0.572,0.838-1.235,1.043-1.985h2.795c-0.073,0.623-0.317,1.314-0.732,2.077
					c-0.417,0.763-0.88,1.387-1.393,1.871c-0.855,0.843-1.918,1.412-3.182,1.705c-0.679,0.17-1.447,0.254-2.304,0.254
					c-2.093,0-3.866-0.767-5.319-2.297c-1.455-1.533-2.182-3.679-2.182-6.438c0-2.715,0.731-4.922,2.196-6.613
					c1.464-1.696,3.38-2.543,5.744-2.543C336.241,543.396,337.396,543.678,338.518,544.242z M339.536,550.883
					c-0.116-1.231-0.381-2.217-0.8-2.954c-0.771-1.369-2.062-2.052-3.867-2.052c-1.294,0-2.381,0.471-3.257,1.413
					c-0.877,0.943-1.343,2.14-1.396,3.593H339.536L339.536,550.883z"/>
				<path fill="#224E8A" d="M346.381,543.776h2.7v2.399c0.801-0.988,1.647-1.7,2.542-2.134c0.895-0.431,1.891-0.646,2.984-0.646
					c2.399,0,4.021,0.838,4.862,2.512c0.464,0.916,0.695,2.227,0.695,3.933v10.85h-2.89v-10.658c0-1.033-0.152-1.864-0.457-2.496
					c-0.506-1.052-1.422-1.579-2.748-1.579c-0.676,0-1.229,0.068-1.658,0.206c-0.78,0.229-1.464,0.693-2.053,1.389
					c-0.475,0.561-0.782,1.137-0.924,1.729c-0.143,0.596-0.213,1.442-0.213,2.551v8.858h-2.842V543.776z"/>
				<path fill="#224E8A" d="M365.258,539.055h2.874v4.724h2.7v2.319h-2.7v11.038c0,0.591,0.201,0.985,0.602,1.186
					c0.221,0.117,0.589,0.175,1.104,0.175c0.137,0,0.285-0.005,0.442-0.011c0.157-0.009,0.342-0.025,0.552-0.054v2.259
					c-0.327,0.095-0.664,0.159-1.018,0.205c-0.354,0.041-0.734,0.062-1.146,0.062c-1.326,0-2.226-0.34-2.7-1.019
					c-0.473-0.681-0.71-1.562-0.71-2.646v-11.194h-2.29v-2.319h2.29L365.258,539.055L365.258,539.055z"/>
				<path fill="#224E8A" d="M375.687,555.382c0.086,0.947,0.329,1.674,0.727,2.179c0.73,0.916,2,1.375,3.803,1.375
					c1.076,0,2.021-0.229,2.838-0.688c0.817-0.457,1.226-1.165,1.226-2.123c0-0.726-0.326-1.279-0.979-1.658
					c-0.418-0.229-1.242-0.499-2.472-0.806l-2.294-0.568c-1.466-0.356-2.546-0.759-3.242-1.2c-1.241-0.768-1.861-1.83-1.861-3.188
					c0-1.602,0.584-2.896,1.752-3.883c1.168-0.989,2.738-1.485,4.714-1.485c2.581,0,4.442,0.749,5.584,2.243
					c0.716,0.947,1.062,1.966,1.04,3.062h-2.685c-0.054-0.639-0.287-1.219-0.694-1.742c-0.668-0.742-1.828-1.113-3.477-1.113
					c-1.098,0-1.931,0.203-2.497,0.615c-0.567,0.406-0.849,0.945-0.849,1.617c0,0.732,0.372,1.32,1.115,1.764
					c0.43,0.263,1.062,0.492,1.898,0.691l1.914,0.457c2.083,0.497,3.477,0.977,4.186,1.438c1.104,0.727,1.657,1.869,1.657,3.427
					c0,1.506-0.579,2.807-1.734,3.899c-1.156,1.098-2.917,1.643-5.284,1.643c-2.546,0-4.353-0.569-5.412-1.713
					c-1.061-1.141-1.628-2.554-1.703-4.24L375.687,555.382L375.687,555.382z"/>
			</g>
		</g>
	</g>
</g>
<g>
	<g>
		<path fill="#FFFFFF" d="M386.799,351.961c-7.896,0-14.318-6.425-14.318-14.317c0-7.897,6.423-14.319,14.318-14.319
			c7.896,0,14.318,6.422,14.318,14.319C401.117,345.536,394.694,351.961,386.799,351.961z M386.799,325.583
			c-6.647,0-12.059,5.41-12.059,12.061c0,6.646,5.409,12.058,12.059,12.058c6.648,0,12.059-5.408,12.059-12.058
			C398.857,330.993,393.447,325.583,386.799,325.583z"/>
	</g>
	<g>
		<path fill="#FFFFFF" d="M391.529,346.745l-4.118-7.221h-3.078v7.221h-2.19v-17.104h5.372c3.47,0,5.972,1.25,5.972,4.797
			c0,2.658-1.514,4.25-3.833,4.852l4.354,7.455H391.529z M384.333,337.751h2.868c2.659,0,4.121-1.096,4.121-3.312
			c0-2.242-1.461-3.049-4.121-3.049h-2.868V337.751z"/>
	</g>
</g>
</svg>
