<?xml version="1.0" encoding="UTF-8" standalone="no"?>
<svg
   xmlns:dc="http://purl.org/dc/elements/1.1/"
   xmlns:cc="http://creativecommons.org/ns#"
   xmlns:rdf="http://www.w3.org/1999/02/22-rdf-syntax-ns#"
   xmlns:svg="http://www.w3.org/2000/svg"
   xmlns="http://www.w3.org/2000/svg"
   xmlns:sodipodi="http://sodipodi.sourceforge.net/DTD/sodipodi-0.dtd"
   xmlns:inkscape="http://www.inkscape.org/namespaces/inkscape"
   inkscape:version="1.0beta1 (32d4812, 2019-09-19)"
   sodipodi:docname="certification3h.svg"
   xml:space="preserve"
   enable-background="new -971 0 4100 660"
   viewBox="-971 0 4100 660"
   height="660px"
   width="4100px"
   y="0px"
   x="0px"
   id="Capa_1"
   version="1.1"><metadata
   id="metadata1263">
  <rdf:RDF>
    <cc:Work
       rdf:about="">
      <dc:format>image/svg+xml</dc:format>
      <dc:type
         rdf:resource="http://purl.org/dc/dcmitype/StillImage" />
    </cc:Work>
  </rdf:RDF>
</metadata>
<defs
   id="defs1261" />
<sodipodi:namedview
   inkscape:current-layer="Capa_1"
   inkscape:window-maximized="0"
   inkscape:window-y="23"
   inkscape:window-x="0"
   inkscape:cy="601.1372"
   inkscape:cx="2467.5078"
   inkscape:zoom="11.994007"
   showgrid="false"
   id="namedview1259"
   inkscape:window-height="713"
   inkscape:window-width="1280"
   inkscape:pageshadow="2"
   inkscape:pageopacity="0"
   guidetolerance="10"
   gridtolerance="10"
   objecttolerance="10"
   borderopacity="1"
   inkscape:document-rotation="0"
   bordercolor="#666666"
   pagecolor="#ffffff" />

<ellipse
   ry="10.171747"
   rx="10.296809"
   cy="597.63184"
   cx="1490.8545"
   id="path1280"
   style="opacity:1;fill:#ffffff" />
<g
   style="fill:#ffffff"
   id="g1276">
  <rect
     style="opacity:1;fill:#ffffff;stroke-width:1.00438"
     id="rect1267"
     width="421.66742"
     height="545.8429"
     x="1060.4286"
     y="46.246109"
     ry="35.11174" />
  <rect
     style="opacity:1;fill:#ffffff;stroke-width:1.31676"
     id="rect1269"
     width="302.0191"
     height="74.37574"
     x="1118.7539"
     y="-85.272491"
     transform="scale(1,-1)"
     ry="30.268742" />
  <rect
     style="opacity:1;fill:#ffffff"
     id="rect1271"
     width="271.20782"
     height="82.331001"
     x="1130.8615"
     y="-630.8006"
     transform="scale(1,-1)"
     ry="25.425743" />
</g>
<ellipse
   ry="298.57141"
   rx="300"
   cy="321.42859"
   cx="1869"
   id="path1265"
   style="opacity:1;fill:#ffffff;stroke-width:0.995249" />
<g
   id="g1115">
	<circle
   id="circle1075"
   r="303.732"
   cy="322.5"
   cx="-633.665"
   fill="#FFFFFF" />

	<path
   id="path1077"
   d="M-371.636,322.5c0,144.715-117.314,262.029-262.029,262.029s-262.03-117.314-262.03-262.029H-371.636z"
   fill="#00855F" />

	<path
   id="path1079"
   d="M-329.933,322.5c0,167.746-135.986,303.732-303.732,303.732c-167.747,0-303.732-135.986-303.732-303.732   c0-167.748,135.985-303.732,303.732-303.732C-465.919,18.768-329.933,154.752-329.933,322.5z M-633.665,42.405   c-154.691,0-280.095,125.403-280.095,280.095s125.404,280.095,280.095,280.095c154.691,0,280.095-125.403,280.095-280.095   S-478.974,42.405-633.665,42.405z"
   fill="#6E3F13" />

	<path
   id="path1081"
   d="M-876.432,421.289l504.796-98.789l-509.27,87.001C-879.506,413.475-878.014,417.405-876.432,421.289z"
   fill="#62A576" />

	<path
   id="path1083"
   d="M-819.349,507.378L-371.636,322.5l-456.415,175.707C-825.224,501.334-822.322,504.392-819.349,507.378z"
   fill="#62A576" />

	<path
   id="path1085"
   d="M-720.002,569.968L-371.636,322.5L-734.09,564.59C-729.46,566.513-724.762,568.309-720.002,569.968z"
   fill="#62A576" />

	<path
   id="path1087"
   d="M-578.693,578.75l207.058-256.25l-225.35,259.482C-590.815,581.119-584.717,580.037-578.693,578.75z"
   fill="#62A576" />

	<g
   id="g1097">
		<path
   id="path1089"
   d="M-761.154,177.576v84.226c0,11.284,3.075,14.227,8.203,14.227c5.127,0,8.203-2.942,8.203-14.227v-84.226    h27.247v76.537c0,32.71-12.598,42.521-35.45,42.521s-35.452-9.811-35.452-42.521v-76.537H-761.154z"
   fill="#00855F" />

		<path
   id="path1091"
   d="M-667.985,211.265v-2.779c0-6.869-2.491-12.594-7.765-12.594c-5.859,0-8.496,5.071-8.496,10.304    c0,23.059,44.533,11.774,44.533,54.458c0,24.858-13.038,35.979-37.062,35.979c-22.56,0-35.158-8.668-35.158-32.872v-4.087h26.369    v2.779c0,9.976,3.662,13.574,8.936,13.574c5.567,0,8.79-4.905,8.79-11.285c0-23.058-42.776-11.61-42.776-52.987    c0-23.549,11.28-36.47,34.28-36.47c23.73,0,33.839,10.958,33.839,35.979H-667.985z"
   fill="#00855F" />

		<path
   id="path1093"
   d="M-627.116,177.576h39.553c31.496,0,33.107,27.802,33.107,58.384c0,30.584-1.611,58.384-33.107,58.384    h-39.553V177.576z M-599.869,272.43h5.421c10.547,0,11.866-4.907,11.866-36.471c0-31.563-1.319-36.468-11.866-36.468h-5.421    V272.43z"
   fill="#00855F" />

		<path
   id="path1095"
   d="M-528.503,177.576h34.279l25.489,116.768h-29.005l-2.781-20.442h-21.684l-2.783,20.442h-29.006    L-528.503,177.576z M-511.217,201.454h-0.293l-7.471,49.552h15.234L-511.217,201.454z"
   fill="#00855F" />

	</g>

	<g
   id="g1113">
		<path
   id="path1099"
   d="M-805.637,354.366c21.278,0,28.558,12.961,28.558,46.232c0,33.272-7.279,46.232-28.558,46.232    c-21.277,0-28.557-12.96-28.557-46.232C-834.193,367.327-826.914,354.366-805.637,354.366z M-805.637,431.13    c6.383,0,7.056-6.479,7.056-30.531c0-24.051-0.673-30.529-7.056-30.529s-7.055,6.479-7.055,30.529    C-812.691,424.65-812.02,431.13-805.637,431.13z"
   fill="#FFFFFF" />

		<path
   id="path1101"
   d="M-769.575,356.111h32.588c15.903,0,21.95,9.971,21.95,23.677c0,11.838-4.144,19.565-13.662,21.185v0.249    c10.078,0.998,13.103,8.101,13.103,19.938v7.603c0,4.611,0,10.593,1.008,12.338c0.56,0.996,1.007,1.992,2.351,2.739v1.247h-22.173    c-2.016-4.736-2.016-13.209-2.016-16.947v-5.98c0-10.094-1.792-12.712-6.832-12.712h-5.486v35.64h-20.83V356.111z     M-748.745,393.744h4.144c5.935,0,8.734-4.235,8.734-10.591c0-7.229-2.575-10.343-8.847-10.343h-4.031V393.744z"
   fill="#FFFFFF" />

		<path
   id="path1103"
   d="M-678.417,396.736h26.876v48.35h-14.11l-0.447-7.85h-0.225c-2.8,7.602-10.19,9.595-17.246,9.595    c-21.166,0-23.07-16.823-23.07-46.232c0-29.783,5.153-46.232,29.791-46.232c14.781,0,25.308,8.351,25.308,29.908h-20.157    c0-4.486-0.335-7.976-1.119-10.343c-0.784-2.492-2.353-3.862-4.816-3.862c-6.831,0-7.503,6.479-7.503,30.529    c0,24.052,0.672,30.531,7.055,30.531c4.367,0,6.943-3.116,7.056-18.692h-7.391V396.736z"
   fill="#FFFFFF" />

		<path
   id="path1105"
   d="M-629.925,356.111h26.203l19.488,88.975h-22.176l-2.128-15.576h-16.572l-2.129,15.576h-22.173    L-629.925,356.111z M-616.712,374.305h-0.223l-5.712,37.76H-611L-616.712,374.305z"
   fill="#FFFFFF" />

		<path
   id="path1107"
   d="M-580.762,356.111h23.293l13.438,54.832h0.224v-54.832h19.488v88.975h-22.848l-13.887-54.954h-0.223    v54.954h-19.485V356.111z"
   fill="#FFFFFF" />

		<path
   id="path1109"
   d="M-515.249,356.111h20.829v88.975h-20.829V356.111z"
   fill="#FFFFFF" />

		<path
   id="path1111"
   d="M-453.433,383.153c0-10.094-1.68-13.084-5.712-13.084c-6.383,0-7.054,6.479-7.054,30.529    c0,24.052,0.671,30.531,7.054,30.531c5.153,0,6.272-4.985,6.272-21.808h20.156v6.603c0,24.926-13.102,30.906-26.429,30.906    c-23.405,0-28.556-13.086-28.556-46.232c0-34.019,6.941-46.232,28.556-46.232c18.814,0,25.87,10.966,25.87,28.163v5.607h-20.158    V383.153z"
   fill="#FFFFFF" />

	</g>

</g>

<g
   id="g1185">
	<g
   id="g1121">
		<path
   id="path1117"
   d="M1420.773,40.952v12.841h20.549c26.793,0,34.537,8.65,34.537,38.558v195.752h12.84V92.351    c0-36.983-13.285-51.399-47.377-51.399H1420.773z"
   fill="#336336" />

		<path
   id="path1119"
   d="M1482.271,321.846c-2.169,0-18.901-42.281-16.845-44.338c2.021-2.037,11.545,10.595,11.545,10.595h11.563    c0,0,9.634-12.506,11.579-10.595C1502.02,279.433,1484.457,321.846,1482.271,321.846"
   fill="#336336" />

	</g>

	<g
   id="g1127">
		<path
   id="path1123"
   d="M1475.359,336.614V546.58c0,26.771-8.654,34.517-38.578,34.517h-17.212v12.845h17.212    c37.004,0,51.418-13.267,51.418-47.361V336.614H1475.359z"
   fill="#336336" />

		<path
   id="path1125"
   d="M1395.057,587.529c0-2.167,42.28-18.92,44.318-16.863c2.057,2.038-10.596,11.542-10.596,11.542v11.581    c0,0,12.526,9.636,10.596,11.547C1437.45,607.28,1395.057,589.694,1395.057,587.529"
   fill="#336336" />

	</g>

	<g
   id="g1133">
		<path
   id="path1129"
   d="M1046.514,347.063v195.753c0,37.004,13.285,51.422,47.359,51.422h39.576v-12.863h-39.576    c-26.461,0-34.519-8.982-34.519-38.559V347.063H1046.514z"
   fill="#336336" />

		<path
   id="path1131"
   d="M1052.942,313.341c2.149,0,18.881,42.265,16.843,44.302c-2.057,2.058-11.562-10.579-11.562-10.579h-11.542    c0,0-9.655,12.526-11.58,10.579C1033.189,355.734,1050.757,313.341,1052.942,313.341"
   fill="#336336" />

	</g>

	<g
   id="g1183">
		<path
   id="path1135"
   d="M1098.432,41.229c-37.002,0-51.418,13.284-51.418,47.377v209.965h12.84V88.607    c0-26.478,9.004-34.537,38.578-34.537h17.213V41.229H1098.432z"
   fill="#336336" />

		<path
   id="path1137"
   d="M1133.395,47.658c0,2.167-42.265,18.898-44.322,16.861c-2.019-2.056,10.619-11.58,10.619-11.58V41.398    c0,0-12.527-9.655-10.619-11.564C1091.02,27.926,1133.395,45.492,1133.395,47.658"
   fill="#336336" />

		<path
   id="path1139"
   d="M1193.389,132.945c11.359,2.262,20.235,9.637,28.906,16.362c-1.927-12.526-8.671-22.162-12.525-33.703    c-1.928-2.891-4.818-4.835-6.764-7.708c10.618,2.873,16.398,10.579,24.106,17.344c0.962,0,1.927,0,1.927-0.966    c-0.965-12.526-0.965-25.053-7.727-35.668c2.908,0,4.818,1.945,6.762,3.855c3.854,6.76,8.673,11.581,12.527,16.376    c2.871,2.91,2.871,7.728,4.816,11.563c1.928,2.89,1.928-0.962,2.872-0.962c0-11.543,6.745-22.162,7.726-33.703    c6.727,10.595,4.801,24.067,10.6,35.648c4.817-10.615,5.762-21.217,7.689-32.778c3.854,4.835,2.891,12.526,6.762,17.341    c5.764-6.726,12.527-13.486,17.326-21.177c2.889,1.928-0.945,4.818-0.945,6.746c0,13.489,3.834,26.958-1.945,39.485    c0,0.965,0.963,1.944,1.945,0.965c9.635-9.616,13.488-23.127,18.287-35.634c0-0.962,1.926-3.87,3.854-4.815    c1.926,3.854-0.964,6.743-0.964,9.617c1.928,5.801-1.927,12.543,2.89,18.307c5.782-4.817,13.472-8.67,18.307-15.397    c-1.926,8.671-4.835,16.359-4.835,25.05c0,0.942,0.98,0.942,1.945,0.942c6.744-3.852,12.523-6.743,17.324-12.523    c-2.872,9.633-7.689,19.27-11.543,28.925c11.543,1.905,26.014-2.91,32.74,9.633c0,0.942-0.945,1.908-0.945,1.908    c-5.781-2.87-12.525-0.965-17.344,1.928c2.891,1.928,5.763,0,8.652,0.962c5.783,3.873,12.545,5.781,19.272,7.725    c-3.838,0.946-8.673,0.946-12.508,2.874c-2.892,0.962-8.673-0.962-10.599,3.853c10.599,1.948,19.269,5.781,28.904,10.602    c0.945,0.962,0.945,1.925,0.945,2.891c-7.709-2.891-15.416,0.962-24.069,0c-0.981-0.966-4.836,0.962-3.854,0.962    c5.781,5.797,13.489,9.652,19.27,16.378c2.891,4.818,9.617,7.708,10.582,11.561c0.979,2.874-5.779-1.945-6.727,0.966    c0,1.908,2.891,1.908,3.854,3.855c-8.671,0-18.306-7.711-26.979-2.894c10.6,4.799,13.489,16.379,21.181,24.088    c-3.838,1.908-5.781-0.982-8.673-1.944c-0.963,0-0.963,0.962-0.963,1.944c1.944,5.783,5.798,9.636,10.615,12.51    c-4.817,1.944-10.615-3.836-13.487-0.966c-4.818,4.818,2.872,10.615,2.872,17.341c-5.764-3.853-10.58-9.633-16.361-11.541    c-5.799-1.928-9.637-7.708-15.416-6.766c3.836,8.673,4.818,17.361,1.908,26.977c-0.963,5.784,2.91,10.622,4.836,15.417    c-0.965,0-1.926,0-1.926-0.962c-1.928,1.929-0.982,3.853-0.982,5.784c-3.836-4.822-6.726-11.564-11.545-16.382    c-2.889,5.78,0,12.526-0.98,18.306c-4.799-10.582-10.581-21.197-21.178-26.977c0,0-1.928,0.965-0.965,1.944    c4.816,4.817,6.745,11.544,5.781,17.324c-0.965,8.654-0.965,18.324-4.816,26.98c-0.965-7.691-3.854-13.472-8.672-19.272    c-4.818,4.818,0,10.616-2.891,15.417c-1.928-7.708-6.744-13.472-12.527-19.271c-3.852,9.656-7.705,18.306-7.705,28.908    c0,0.962-1.91,0.962-1.91,0.962c-2.908-11.565-4.816-24.071-12.524-33.724c-5.781,5.784-2.909,13.509-1.946,20.235    c-6.725-3.856-6.725-11.581-10.598-17.344c-5.764,4.817-7.689,12.526-14.434,16.399c0.943-2.911,0.943-5.781,1.926-7.726    c0-4.821,2.891-14.438-2.908-14.438c-8.652,0-15.398,10.582-25.033,14.438c3.854-6.726,10.58-11.564,12.526-18.29    c0.962-1.945,2.872-5.781,0.962-4.835c-10.615,2.89-20.232,6.743-30.83,11.561c3.854-7.708,15.416-13.489,10.598-23.125    c-11.561,0-19.27,8.67-26.033,16.399c0.982-12.543,7.727-23.125,12.545-34.706c-7.727-0.943-14.453,2.91-22.162,4.838    c-2.871,0.946-6.724,1.928-9.634,0c2.91-1.928,7.708-3.873,9.634-7.728c0,0-0.961-1.905-1.926-0.963    c-1.926,2.91-4.798,1.948-7.708,1.948c8.673-4.822,13.488-12.526,19.251-21.197c0-0.966,0-1.948-0.943-1.948    c-7.709,0.981-10.6,7.708-16.379,11.581c0-8.671,5.779-15.434,9.652-22.159c1.907-3.856-2.908-1.912-4.818-1.912    c-5.799-2.906-12.543,0.946-19.287,1.912c9.635-8.67,19.287-17.342,31.775-21.197c0.982-0.966,0.982-2.911,0.982-2.911    c-15.414-1.909-18.305-18.287-26.979-27.923c7.709,0.965,13.508,8.67,22.162,7.708c-3.836-3.853-5.783-8.67-10.598-12.523    c5.779-2.89,9.633,2.907,15.414,0.963c-5.781-3.853-13.471-3.853-20.233-5.784c6.763-1.905,14.452-1.905,21.197-4.814    c5.78-1.928,11.544,1.924,17.343,1.924c0.964,0,0.964-0.962,0.964-1.924c-6.763-8.671-13.489-15.417-22.161-21.197    C1184.719,131.001,1188.572,131.966,1193.389,132.945 M1239.619,150.27c3.113-1.558,0.982-3.833,0-5.781    c-6.727-9.616-11.545-19.249-22.16-25.049c-0.945,0-0.945,1.945-0.945,2.91c2.891,10.595,6.744,20.232,16.379,26.957    C1234.801,150.27,1237.691,151.232,1239.619,150.27 M1248.29,142.582c0-13.638-3.835-27.959-14.433-37.576    c-0.965,0-1.929,0-1.929,0.942c0,14.454,3.854,28.925,14.452,39.503C1247.346,145.452,1248.29,145.452,1248.29,142.582     M1263.725,139.672c0-15.546-0.982-30.833-7.709-44.302c-4.834,15.399-6.744,35.631,5.782,47.212    C1262.742,142.582,1263.725,142.582,1263.725,139.672 M1277.195,138.709c4.188-10.453,3.871-22.143,0-32.761    c-2.891,9.656-6.744,20.235-5.763,30.833C1272.377,138.709,1275.287,143.527,1277.195,138.709 M1285.867,143.527    c6.114-6.098-2.892-15.417,1.926-21.177c0-0.965,1.926,3.833,1.926,2.891c8.674-6.766,4.818-17.344,4.818-26.981    c0,0,0-2.89-0.943-2.89c-4.818,3.852-6.764,9.636-9.637,15.399c-3.854,7.706-0.981,16.375-2.891,24.104    c-0.963,3.836-2.908,9.616,1.909,11.564C1283.957,146.437,1284.922,144.489,1285.867,143.527 M1302.246,137.764    c-0.537,2.982-0.965,4.818-0.965,7.688c0,0.985,0.965,0.985,1.929,0.985c5.763-3.855,7.726-10.622,11.542-16.402    c1.946-3.852,1.946-8.65,0.982-12.523v-3.835C1309.954,121.385,1304.172,127.145,1302.246,137.764 M1327.297,133.911    c4.836-6.078,4.816-13.508,6.744-20.234c-6.744,1.928-12.526,6.726-14.452,12.506c-1.929,3.852-5.78,5.783-3.854,10.598    l0.964-0.966c0.962,3.856-2.89,5.784-3.854,8.674c0,0.962,0,1.948,0.965,1.948    C1320.553,144.489,1323.461,138.709,1327.297,133.911 M1334.041,145.452c3.409-3.406,5.78-6.742,8.672-10.579    c0-0.962,0-2.907-0.963-2.907c-8.672,0-13.471,6.743-19.271,12.523c-1.926,2.907-7.727,8.671-3.854,9.633    C1324.405,156.07,1329.223,150.27,1334.041,145.452 M1344.621,160.868c7.838-1.316,14.471-7.708,22.16-9.636    c-11.543-5.781-25.031-0.962-35.63,4.838c-1.929,1.908-4.818,4.798-2.872,5.764    C1332.113,165.687,1338.857,161.834,1344.621,160.868 M1347.512,176.285c7.819-2.592,16.396-3.855,24.088-8.67    c-8.673-6.746-19.252-3.875-27.924,1.925c-2.89,0.965-6.744-0.946-9.635,0c-1.928,0.965-4.818,3.875-2.89,5.78    C1334.041,181.1,1341.75,178.229,1347.512,176.285 M1344.621,183.993c-2.02,0.685-4.8,2.89-3.835,3.853    c3.835,5.78,13.47,2.891,18.306-0.962c7.689-5.783,16.361,0.962,24.086-2.89c-10.597-4.818-22.158-7.708-32.758-3.853    C1348.494,180.14,1347.512,183.031,1344.621,183.993 M1361.982,195.571c-5.65-4.055-11.562,0-12.527,3.855    c0,3.816,7.709,3.816,11.564,4.802c2.889,0.961,5.762,1.924,8.67,1.924c3.854,0.965,5.764,5.761,10.58,3.856    C1376.416,203.242,1368.727,200.372,1361.982,195.571 M1361.02,215.769c5.893-1.461,11.562,1.945,17.342,0    c1.908,0-1.945-2.87-2.908-3.855c-8.672-4.795-18.289-9.633-28.887-7.685c-0.982,0-3.854,0.961-3.854,1.924    C1345.584,212.898,1353.293,217.713,1361.02,215.769 M1357.164,220.587c-0.964,0.128-0.964,0.981-1.926,1.947    c5.781,4.815,13.488,7.705,19.27,13.485c0.945,0.946,1.908-0.962,1.908-0.962C1371.6,228.315,1365.816,219.641,1357.164,220.587     M1354.256,236.966c5.799,5.78,12.525,12.546,21.197,10.615c-2.872-6.742-8.672-9.649-13.471-14.471    c-2.891-2.871-6.744-4.795-10.599-4.795c-5.8-0.965-9.634-4.822-14.452-4.822C1338.857,232.167,1348.494,231.206,1354.256,236.966     M1353.293,252.402c5.799,2.87,10.615,6.743,15.434,11.561c0.963,0.946,1.908,0,1.908-0.982    c-3.854-13.469-14.435-20.234-26.014-27.923c-2.871-0.982-9.635-3.852-8.654,0.962    C1336.932,243.729,1345.584,248.546,1353.293,252.402 M1333.078,279.359c1.203,2.447,3.854,2.89,5.779,4.818    c1.929-2.894-0.962-6.743-0.962-9.616c-0.964-5.8-3.854-11.581-8.673-16.379c-0.943,2.89-4.817,0.962-4.817,2.89    C1324.405,267.818,1330.188,273.579,1333.078,279.359 M1318.625,266.833c-3.762-3.002-7.689-2.871-11.543-4.799    c-0.964,0-0.964,0.946-0.964,1.928c4.817,8.651,14.435,12.507,21.179,19.269C1330.188,277.435,1323.461,270.709,1318.625,266.833     M1332.614,246.397c-3.762-3.019-7.708-2.911-11.562-4.815c-0.963,0-0.963,0.959-0.963,1.905    c4.816,8.671,14.451,12.527,21.195,19.289C1344.195,256.979,1337.431,250.253,1332.614,246.397 M1299.355,281.284    c2.613,10.454,9.617,17.345,14.453,26.019c5.78-7.711,2.89-21.196-2.873-28.888c-0.981-0.979-1.963,0.945-1.963,0.945    c-3.836-1.924-4.801-7.691-8.654-10.598c-0.963,0-1.926,0-1.926,0.982C1298.393,273.579,1298.393,277.435,1299.355,281.284     M1289.719,272.614c-1.926-3.853-4.797-5.78-7.705-8.651c-0.947,0-1.91,0-1.91,0.946c0.963,15.416,5.764,28.901,17.344,40.482    c0.945,0.946,1.908,0,1.908-0.999c0-9.617-2.891-18.287-5.762-26.958h-1.947C1290.684,275.523,1290.684,274.562,1289.719,272.614     M1282.014,290.92c0-8.671-4.818-16.359-11.562-22.159c-2.872,13.488,3.854,27.939,10.615,39.503    C1283.957,302.481,1282.014,296.7,1282.014,290.92 M1264.67,285.141c0.759-3.781,1.945-9.617-2.872-12.527    c-2.89,8.67-7.708,18.307-2.89,26.978C1260.816,294.775,1263.725,289.958,1264.67,285.141 M1254.09,275.523    c-0.74-2.963,0-8.69-1.947-6.762c-9.615,5.8-6.725,20.251-0.961,29.868C1255.035,291.906,1256.016,283.231,1254.09,275.523     M1240.602,286.106c1.926-3.856,3.854-8.671,1.926-12.527c-2.908,2.891-5.78,5.78-9.635,7.705    c-3.854,0.966-4.818,8.674-3.854,12.526c0.945,2.89,4.818-1.904,7.708-2.89C1238.655,289.958,1239.619,288.03,1240.602,286.106     M1239.619,265.888c-0.481-3,0.982-8.671-0.964-8.671c-8.671,0.966-6.727,14.451-6.727,22.143c0,0.965,0.964,1.924,1.929,0.965    C1236.747,275.523,1240.602,271.668,1239.619,265.888 M1228.074,260.091c-6.816,0-9.635,4.818-13.488,9.652    c-1.926,3.836-0.962,8.671-3.854,12.506c11.562-0.966,23.125-11.54,20.234-23.104    C1230.967,259.145,1229.039,260.091,1228.074,260.091 M1223.258,251.417c0-3.02,3.854-8.671,0.963-7.688    c-6.762,0-10.597,7.688-13.488,13.488c-1.945,4.818-5.781,9.617-7.727,13.493c-0.944,1.904,2.91,0,4.836-0.966    c6.744-1.925,9.617-10.598,15.416-15.436V251.417z M1203.987,246.622c-7.374,7.375-12.507,15.413-14.452,25.992    c0,0.965,0.964,0.965,1.945,0.965c4.801-3.836,9.617-6.746,11.525-11.544c1.945-6.762,7.727-12.523,8.689-18.306    C1211.695,240.838,1205.916,244.691,1203.987,246.622 M1206.879,236.02c1.52-1.534,1.908-3.852,3.854-4.814    c-1.945-1.948-4.816-0.966-5.781-0.966c-9.652,8.671-18.324,14.452-28.905,20.215c-0.962,0.963,0,1.948,0.964,1.948    c4.799-0.985,11.562-0.985,14.471-3.856C1197.244,244.691,1202.062,240.838,1206.879,236.02 M1193.389,225.405    c-9.41,3.148-12.523,12.526-18.305,20.231c0,0.986,1.926,0.986,2.891,0.986c8.652-8.691,23.123-11.564,25.031-23.129    C1203.006,220.587,1196.281,224.439,1193.389,225.405 M1186.627,213.861c-4.336,4.355-10.581,5.78-13.471,10.579    c0,0.965-2.891,4.818-1.926,3.875c6.744-2.91,26.977-5.781,18.305-15.417C1188.572,211.913,1187.609,212.898,1186.627,213.861     M1194.354,200.372c-0.965-1.928-2.873-0.946-2.873-0.946c-10.615-0.982-20.25,3.816-26.994,11.544c-0.965,0,1.926-0.962,2.891,0    c0,0.942-2.891,0.942-2.891,1.928c7.705,2.87,18.305,0.962,25.049-3.856c-2.908-2.89-5.78,0.966-8.67-0.962    c5.762-0.962,13.488-0.962,17.342-5.8C1198.207,201.337,1195.299,202.28,1194.354,200.372 M1203.006,187.846    c-9.672-6.448-23.105-4.814-33.686-11.561c0,0-0.98,0.982-0.98,1.945c3.852,4.802,6.744,8.654,11.561,12.507    c7.709,3.835,16.381,2.89,24.087,1.927C1204.951,192.663,1205.916,189.774,1203.006,187.846 M1198.207,168.593    c-7.818-2.629-16.398-5.796-25.051-2.906c8.652,7.728,17.343,20.234,30.831,16.379l-0.981-0.965c2.91-1.925,7.727,0,10.618-1.925    c-1.929-2.891-7.708-2.891-8.673-6.746C1204.951,170.504,1201.098,169.539,1198.207,168.593 M1216.514,169.539    c0.927,0.262,2.891,0,2.891-0.946c-6.744-11.58-21.197-12.522-32.777-13.485c-0.944,0-5.762,0-4.818,1.905    c2.91,4.821,10.619,6.727,16.398,6.727C1204.951,163.739,1209.77,167.614,1216.514,169.539 M1223.258,162.797    c0.963,0,3.854,0.942,3.854-0.963c-2.892-12.527-14.452-18.307-24.106-24.07c-1.908-0.982-4.799-2.891-7.707,0    c8.688,7.688,13.488,16.359,22.16,24.07C1219.404,162.797,1221.312,162.797,1223.258,162.797 M1221.312,176.285    c-2.927-0.76-4.799-1.928-7.688,0c2.89,2.891,7.688,6.747,11.542,3.855C1226.131,179.175,1225.166,177.267,1221.312,176.285     M1206.879,194.572c-4.91,0-8.672-0.946-13.49,0.999c6.745,2.873,14.453,2.873,22.162,4.801c0.963,0,0.963-0.946,0.963-1.928    C1213.624,195.571,1210.732,194.572,1206.879,194.572 M1204.951,212.898c1.168-0.708,2.891-1.928,2.891-2.89    c-4.836-6.767-12.543-1.929-17.343,1.904C1194.354,214.823,1200.134,215.769,1204.951,212.898 M1211.695,212.898    c-3.576,2.388-7.708,2.87-10.598,5.781c-0.964,0.961,0,1.908,0.964,1.908c5.78-0.947,13.489-0.947,16.378-5.764    C1219.404,211.913,1214.586,210.971,1211.695,212.898 M1218.439,225.405c1.207-0.595,3.855-0.965,2.873-2.871    c0-0.965-1.908-1.947-1.908-1.947c-2.891,1.947-6.744,2.906-6.744,5.796C1212.66,229.258,1216.514,226.384,1218.439,225.405     M1222.295,236.02c2.039-0.684,3.836-4.814,0.963-5.78c-3.854,0-6.744,2.871-9.634,5.78c-0.964,0.946,0,1.912,0.962,1.912    C1217.459,238.91,1219.404,236.966,1222.295,236.02 M1232.893,247.581c3.854-1.944,0.965-5.796-0.964-5.796    c-3.854-0.946-5.798,6.762-3.854,9.633C1229.984,253.364,1230.967,248.546,1232.893,247.581 M1244.455,249.512    c0.852-1.726-1.928-3.875-3.854-2.89c-0.982,0.958-1.946,2.89-2.91,3.832c-0.944,0.963,0,1.948,0.964,1.948    C1241.545,252.402,1243.473,251.417,1244.455,249.512 M1252.143,258.183c0-2.91,5.802-4.818,1.947-6.766    c-1.947,0-4.818-0.963-5.8-0.963c-2.872,2.91-0.944,8.691,1.946,10.619C1251.182,261.073,1252.143,259.145,1252.143,258.183     M1315.734,253.364c-3.094-1.557-4.799-2.91-6.762-5.784c-4.801,6.727,3.871,11.564,8.688,11.564    C1320.553,259.145,1317.66,254.307,1315.734,253.364 M1256.963,149.307c-3.115-1.557-2.873-4.818-4.82-6.725    c-2.871,3.855,0.984,7.688,1.947,11.541c0.945,2.89,3.854,0,4.818-0.962C1259.87,152.198,1258.908,150.27,1256.963,149.307     M1304.172,152.198c0-0.966-0.962-0.966-1.926-0.966c-1.928,0.966-0.965,2.89-0.965,4.838c0,0.942,0.965,0.942,1.929,0.942    C1305.137,156.07,1304.172,154.123,1304.172,152.198 M1318.625,163.739c0.611-1.204,1.928-1.905,1.928-1.905    c-1.928-2.89-4.818,0-6.744,1.905c0,1.001,0,1.947,0.943,1.947C1316.698,165.687,1317.66,165.687,1318.625,163.739     M1324.405,181.1c-0.443,0.873,0.964,3.855,1.928,3.855c2.89,0,5.78-2.89,8.653-4.815    C1331.151,177.267,1326.333,177.267,1324.405,181.1 M1338.857,195.571c4.893,0,9.637,1.912,13.49-1.945    c-5.781-0.963-15.416-4.814-17.361,0.946C1334.041,196.517,1336.932,195.571,1338.857,195.571 M1334.041,203.242    c1.926,0.986,4.816-0.962,3.854-1.905c-0.964-2.894-7.708-3.855-7.708,0C1329.223,203.242,1332.113,202.28,1334.041,203.242     M1333.078,210.971c0.686,0.665,2.889,0,3.854,0c0.964,0,0.964-0.962,0.964-1.928c-1.929-1.925-3.854-3.853-6.744-2.89    c-0.964,0-1.929,0.965-1.929,1.928C1328.279,210.971,1332.113,210.009,1333.078,210.971 M1330.188,227.35    c0.907-0.298,3.854,0.965,3.854-0.966c-1.928-4.815-7.708-3.85-10.58-5.796c-0.982-0.947-2.908,3.852-0.982,4.817    c0.982,0,0.982-1.912,2.891-1.912C1324.405,227.35,1327.297,228.315,1330.188,227.35 M1289.719,256.238    c3.484-3.465-4.797-3.836-6.743-1.931c1.946,0.965,0.981,5.784,3.854,4.838C1287.793,258.183,1288.775,257.217,1289.719,256.238     M1216.514,188.812c1.926,0,3.854,0.962,4.799-0.966c-3.854-0.962-7.688-2.89-12.525-0.962    C1210.732,188.812,1213.624,188.812,1216.514,188.812 M1235.783,161.834l0.964,0.963c0.944,0,1.908-0.963,0.944-1.929    c-1.908-1.924-4.799-2.89-7.707-4.798c0,0-0.945,0.942-0.945,1.908C1230.967,159.906,1232.893,162.797,1235.783,161.834     M1267.579,144.489c0-2.721,0.963-2.89,0.963-4.817c0-0.962-0.963-1.908-1.927-0.962c-1.945,1.928-1.945,4.818-1.945,6.742    c0,0.985,0.963,0.985,1.945,0.985C1266.615,145.452,1267.579,145.452,1267.579,144.489 M1276.881,252.362    c25.088,0,45.598-10.244,48.174-47.486c1.834-26.514-17.343-52.678-48.174-52.03c-25.07,0.519-55.883,24.791-55.883,51.382    C1220.998,233.334,1241.897,252.362,1276.881,252.362 M1302.246,201.337c0-0.965,0-5.767-2.891-3.855    c0.963,0,0.963,0.961,0.963,1.944c-0.963,2.854-4.816,1.911-5.781,0c-0.943-3.855,5.781-3.855,5.781-6.763    c0-0.962-1.926-3.852-3.854-2.889c0,0.962,0,0.962,0.982,1.927c0,0.962,0,1.925-0.982,1.925c-2.871,0.946-2.871-1.925-4.818-2.89    c1.947-0.962,1.947-3.853,1.947-5.781c0-0.962-1.947-0.962-1.947-1.924c0-1.931,2.891-2.891,0.983-4.802    c0,1.911-0.983,2.871-1.946,3.836c-2.891,0-3.854,0.966-6.727-0.965c-1.943-0.96-2.891,0.965-4.836,0.965    c-3.834-0.965-1.926-7.708-6.744-7.708c1.928,2.91,3.873,3.873,2.91,7.708c0.963,0,1.908,0,1.908,0.966    c-0.945,2.89-3.854,0.962-4.818,0c-0.944-1.931-3.835-2.891-4.798-3.856c-1.946,0-3.854,0.965-5.781,0.965    c1.927,0.96,1.927,2.891,0,4.815c-0.981-0.962-1.928-0.962-2.89-0.962c-0.964,1.928,1.908,1.928,2.89,2.89    c2.872-2.89,6.744-7.708,10.579-3.852c0,0.962-2.891,1.924-0.944,3.852c-2.891,0.962-5.8,0-8.69,1.928v3.852    c-2.872,2.908-6.727,4.819-8.652,8.674c-0.963-0.965-0.963-0.965-1.947-1.911c-0.961,6.726,5.802,1.911,9.655,2.854    c0.944,0.962,0.944,1.948,0.944,2.91c-1.926,3.853-4.798,0-6.727,0c-0.98,0.963,0.947,3.853-0.98,4.819    c-2.893,0.962-4.799-1.929-6.745-1.929c1.946,3.833,5.8,3.833,8.673,2.891c1.945-0.962,2.907-2.891,4.835-1.928    c0.944,0,0.944,0.966,0.944,1.928c-0.944,1.928-3.834,1.928-5.779,1.928c0.981,2.87,2.907,4.815,0,6.742    c0,0-0.947-0.961-1.928-1.927v2.874c1.928,2.906,4.835,0,5.781-1.908h2.908c2.891,1.908,3.854,3.855,2.891,6.726    c-0.982,2.91-3.873-0.965-5.799,0v1.945c4.816,2.89,5.799-3.856,9.635-4.815c0.981-0.965,0,2.871,2.891,3.85    c0,0.966,0.963,2.874-0.965,3.855c-0.944,0-2.891-1.924-3.835-0.981c-0.963,0.981,0.944,0.981,0.944,1.948    c0,0.962-0.944,0.962-1.907,0.962c0.963,0.942-0.964,2.89,0.963,1.908c0-0.965,0-2.87,0.944-2.87c1.946,1.904,2.891-0.966,4.818,0    c0-0.966,0.982-2.891-0.963-3.856c3.854-0.966,1.945-4.815,5.779-5.781c0,0,0.982,1.924,1.945,0.965    c2.891-4.821,5.764-2.894,10.58-3.855c0.983,0,0.983-4.818,2.891-3.856c2.91,0,5.781-2.91,7.709-4.814h-3.854    c-0.945,0-0.945-0.966-0.945-1.929c0.945-0.962,1.908-1.928,1.908-3.852C1299.355,203.242,1301.281,202.28,1302.246,201.337     M1288.775,192.663c0.408-0.869,0-0.962,0-1.927c-0.982-0.962-2.908-1.925-3.854-1.925c-1.946,0.962-2.908,3.852-0.965,4.814    C1285.867,193.626,1287.793,194.572,1288.775,192.663 M1278.158,188.812c0.963-0.966,1.945-0.966,1.945-1.928    c-0.982-1.928-2.908-0.962-3.854-0.962c-1.945,0.962-0.963,2.891-0.963,3.853C1276.25,192.663,1277.195,189.774,1278.158,188.812     M1280.104,216.767c2.447,2.447,1.91-1.944,3.854-1.944c-0.981-0.962-1.943-1.925-3.854-1.925c-0.982,0-1.945,0.962-1.945,1.925    C1278.158,215.769,1279.121,215.769,1280.104,216.767 M1275.287,219.641c0.666,2.058,2.871,0.947,3.834,0.947    c2.893-1.908-0.963-2.874-1.926-3.82C1276.25,216.767,1274.305,216.767,1275.287,219.641 M1267.579,202.28    c0-1.908-0.964-1.908-1.946-2.854c-1.908,0.946-0.963,2.854-0.963,3.816c0,0.986,0.963,0.986,1.945,0.986    C1266.615,203.242,1267.579,203.242,1267.579,202.28 M1264.67,197.482c1.52-1.538-0.945-1.912-1.928-2.911    c-1.926,0.999-2.872,3.872-0.944,4.854C1263.725,200.372,1263.725,198.444,1264.67,197.482 M1269.486,216.767    c0,0.946,1.946,0.946,2.891,0.946c0.965,0,0.965-0.946,0.965-1.945c-0.965-0.945-1.909-0.945-2.891-0.945    C1270.451,214.823,1269.486,215.769,1269.486,216.767 M1292.63,203.242c0.519-0.793,0-1.905-0.983-1.905    c-1.928-0.965-2.871,0.942-3.854,1.905C1289.719,204.228,1290.684,206.152,1292.63,203.242 M1291.646,209.042    c0-0.962-1.928-0.962-2.871-0.962c-0.982,0-0.982,0.962-0.982,1.929c0.982,0.962,0.982,1.904,1.926,1.904    C1290.684,211.913,1291.646,210.009,1291.646,209.042 M1282.976,209.042c-0.962,0-1.909,0-1.909,0.966    c0,0.962,0,1.904,0.947,1.904h1.943c0.965,0,0.965-0.942,0.965-1.904C1283.957,210.009,1283.957,209.042,1282.976,209.042     M1273.342,193.626c0.686-0.684,0-1.925,0-2.89c0-0.962-0.965-0.962-1.909-0.962c-0.981,0.962-1.946,2.889-1.946,3.852    C1270.451,195.571,1272.377,194.572,1273.342,193.626 M1282.014,194.572c0.852-0.407,0-1.909,0-2.871    c0-0.965-0.947-0.965-1.91-0.965c-0.982,0.965-0.982,0.965-1.945,1.927C1279.121,193.626,1280.104,195.571,1282.014,194.572     M1283.957,187.846c2.021-0.685,0.965-3.853-0.981-4.814c-0.962,0-1.909,0-1.909,0.962    C1280.104,185.921,1281.066,188.812,1283.957,187.846 M1291.646,187.846c1.799-1.204-1.928-3.853-2.871-4.814    c-0.982,0-1.945,0-1.945,0.962C1287.793,185.921,1288.775,189.774,1291.646,187.846 M1292.63,197.482    c2.13,0,0.964-3.856-0.983-4.819c-0.963,0.963-2.871,0.963-1.928,2.908C1290.684,196.517,1291.646,197.482,1292.63,197.482     M1267.579,191.701c0.963,0,0.963-0.965,0.963-1.927c-0.963-0.962-1.927-0.962-2.909-0.962c-0.963,0-0.963,0.962-0.963,1.925    C1265.633,191.701,1266.615,191.701,1267.579,191.701 M1272.377,206.152c0.965,0,0.965-0.963,0.965-1.924    c-1.909-2.891-1.909,0.961-2.891,0.961C1269.486,207.118,1271.433,206.152,1272.377,206.152 M1286.83,201.337    c0.963,0,1.945-0.965,1.945-1.911c0-0.982-0.982-0.982-1.945-0.982c-0.963,0.982-0.963,0.982-1.908,1.928    C1285.867,200.372,1285.867,201.337,1286.83,201.337 M1278.158,196.517c3.484,0-1.908-1.945-1.908-3.854    c-0.963,0-0.963,0.963-0.963,1.909C1276.25,195.571,1277.195,196.517,1278.158,196.517 M1261.798,215.769    c0,0.999,0.944,0.999,1.927,0.999c0.945,0,0.945-0.999,0.945-1.944c-0.945-0.962-0.945-1.925-1.928-1.925    C1261.798,212.898,1261.798,214.823,1261.798,215.769 M1290.684,214.823c0-2.166-3.854-2.91-4.816,0c0,0.945,0,1.944,0.963,1.944    C1288.775,216.767,1290.684,216.767,1290.684,214.823 M1276.25,213.861c3.465,0-0.963-1.948-0.963-2.89    c-0.982,0.942-1.945,0.942-1.945,1.928C1273.342,213.861,1275.287,213.861,1276.25,213.861 M1297.447,205.189    c0.945-0.961-0.982-1.947-1.945-2.91c-0.965,0-0.965,0.962-0.965,1.948C1295.502,205.189,1296.465,206.152,1297.447,205.189     M1270.451,197.482c-0.965-0.966-0.965-0.966-1.909-1.912c-0.963,0-1.927,0-1.927,0.946c0,0.966,0.964,1.927,1.927,1.927    C1269.486,198.444,1269.486,197.482,1270.451,197.482 M1290.684,224.439c0.963-3.852-2.891-2.871-4.816-3.852l-0.945,1.947    c1.908,0,3.854,0.959,3.854,2.871c0,0.979-0.982,0.979-1.945,0.979c0,0.966,0,0.966,0.963,0.966    C1289.719,227.35,1289.719,225.405,1290.684,224.439 M1297.447,227.35c-2.91-2.91-0.982-5.781,0.945-9.636    c1.926,1.927,0.963,5.78,3.854,6.726c0.964,0,0.964-0.946,1.926-0.946c0.965,0,0.965,0.946,0.965,1.912    c0.981,0,1.945,0,0.981-0.965c-0.981,0-1.946,0-1.946-0.946v-1.924c0,0.965-0.962,0.965-1.926,0.965    c-0.965,0-0.965-0.965-0.965-1.947c1.929-1.908,2.891-2.874,2.891-5.764c0-0.962-1.926-0.962-1.926-0.962    c-0.965,4.818-6.744,2.906-7.709,5.78c0,2.894-4.818,8.674,0,8.674C1295.502,228.315,1296.465,227.35,1297.447,227.35     M1310.936,209.042c0-0.962-0.981-1.925-1.963-0.962c-0.947,0.962,0.981,3.833-0.947,4.818    C1310.936,213.861,1311.881,210.971,1310.936,209.042 M1304.172,202.28c0.965,1.948-0.962,2.91-0.962,4.838    c0,0.962,1.239,1.627,1.927,0.962C1307.082,206.152,1307.082,203.242,1304.172,202.28 M1293.611,157.033    c0.945,1.927-0.963,2.889-0.963,4.834c0,0.945,1.223,1.634,1.908,0.945C1296.483,160.908,1296.483,157.999,1293.611,157.033     M1309.954,195.571h-1.929v1.912C1308.973,197.482,1310.936,197.482,1309.954,195.571 M1262.742,172.429h-1.926v1.928    C1261.798,174.357,1263.725,174.357,1262.742,172.429 M1304.172,190.736c0-0.962,0-1.925,0.965-1.925    C1305.137,189.774,1305.137,190.736,1304.172,190.736 M1250.236,216.767h-1.946c0,0.946,0,0.946,0.981,0.946L1250.236,216.767z     M1258.908,191.701c0.962-0.965-0.964-6.746-3.873-3.855c0,0.966,3.873,0.966,2.909,2.891c-0.981,2.89-3.854,0-5.802,0.965    c0,0,0,0.962,0.984,1.925C1256.016,196.517,1256.963,192.663,1258.908,191.701 M1262.742,172.429    c-0.944,0.985-2.872-0.962-1.926,0.985C1260.816,173.415,1262.742,174.357,1262.742,172.429 M1284.922,179.175    c1.908,0.965,0-1.908,1.908-1.908c0,0,0-1.948-0.963-1.948c-0.945,0-0.945,0-0.945,0.965V179.175z M1299.355,183.031    c0-1.931-0.963-3.856-1.908-3.856c-2.91,0.965,0.945,2.89,0,4.818C1298.393,183.993,1299.355,183.031,1299.355,183.031     M1276.25,170.504c0-0.965-0.963-0.965-1.945-0.965c0.982,0.965-0.963,1.928,0.982,1.928L1276.25,170.504z M1244.77,177.879    c0-0.946-0.965-0.946-1.926-0.946c0.961,0.946-0.982,1.944,0.961,1.944L1244.77,177.879z M1257.609,181.417    c0-0.966-0.963-0.966-1.908-0.966c0.945,0.966-0.963,1.949,0.945,1.949L1257.609,181.417z M1282.014,160.868    c0-0.962-0.947-0.962-1.91-0.962c0.963,0.962-0.982,1.928,0.963,1.928L1282.014,160.868z M1238.655,194.923    c0-0.959-0.964-0.959-1.908-0.959c0.944,0.959-0.964,1.905,0.944,1.905L1238.655,194.923z M1238.988,201.021    c0-0.983-0.98-0.983-1.928-0.983c0.947,0.983-0.962,1.949,0.947,1.949L1238.988,201.021z M1247.012,199.426    c0-0.982-0.944-0.982-1.926-0.982c0.981,0.982-0.965,1.928,0.981,1.928L1247.012,199.426z M1239.619,206.486    c0-0.982-0.964-0.982-1.928-0.982c0.964,0.982-0.944,1.945,0.964,1.945L1239.619,206.486z M1245.418,208.08    c0-0.962-0.963-0.962-1.945-0.962c0.982,0.962-0.945,1.925,0.982,1.925L1245.418,208.08z M1240.916,212.564    c0-0.945-0.963-0.945-1.928-0.945c0.965,0.945-0.98,1.908,0.965,1.908L1240.916,212.564z M1241.861,218.679    c0-0.966-0.945-0.966-1.908-0.966c0.963,0.966-0.965,1.927,0.963,1.927L1241.861,218.679z M1251.532,223.493    c0-0.959-1.001-0.959-1.944-0.959c0.943,0.959-0.965,1.905,0.943,1.905L1251.532,223.493z M1273.342,163.13    c0-0.985-0.965-0.985-1.909-0.985c0.944,0.985-0.981,1.948,0.944,1.948L1273.342,163.13z M1264.355,163.739    c0-0.942-0.965-0.942-1.928-0.942c0.963,0.942-0.965,1.944,0.963,1.944L1264.355,163.739z M1259.538,165.687    c0-0.946-0.964-0.946-1.929-0.946c0.965,0.946-0.963,1.908,0.965,1.908L1259.538,165.687z M1263.391,173.415    c0-0.985-0.963-0.985-1.928-0.985c0.965,0.985-0.962,1.928,0.965,1.928L1263.391,173.415z M1314.141,185.584    c0-0.942-0.982-0.942-1.944-0.942c0.962,0.942-0.964,1.908,0.962,1.908L1314.141,185.584z M1283.957,171.467    c0-0.962-0.981-1.928-1.943-0.962v1.925C1282.976,172.429,1282.976,171.467,1283.957,171.467 M1296.799,172.766    c0-0.965-0.963-1.947-1.945-0.965v1.924C1295.836,173.725,1295.836,172.766,1296.799,172.766 M1301.912,164.093    c0-0.963-0.943-1.948-1.908-0.963v1.909C1300.969,165.039,1300.969,164.093,1301.912,164.093 M1324.405,202.28    c0.964-0.942-1.927-2.854-2.891-3.836c0-0.961,2.891-0.961,2.891-1.927c-0.944-0.946-2.891-2.891-3.853-1.945    c-0.964,0.999,1.926,1.945,1.926,2.911c0,2.89-4.724-0.761-3.854,0.961C1319.589,200.372,1321.515,203.242,1324.405,202.28     M1322.888,218.567c0.962-0.946-1.946-2.891-2.91-3.853c0-0.946,2.91-0.946,2.91-1.909c-0.964-0.984-2.91-2.89-3.854-1.928    c-0.963,0.943,1.908,1.928,1.908,2.89c0,2.874-4.706-0.757-3.854,0.946C1318.07,216.642,1319.978,219.532,1322.888,218.567     M1323.664,189.347c0.427-1.316-3-1.739-4.299-2.203c-0.406-0.853,2.17-2.133,1.762-3.002c-1.297-0.427-3.873-1.296-4.318-0.02    c-0.443,1.276,2.576,0.873,3.002,1.722c1.279,2.612-4.576,1.409-3.038,2.597C1318.479,189.717,1321.496,191.477,1323.664,189.347     M1323.461,208.08c0.944-1.928-0.982-4.838-3.872-4.838c0,0,0,0.986,0.964,1.947    C1321.515,206.152,1322.479,209.042,1323.461,208.08 M1319.016,225.828c0.962-1.905-0.965-4.794-3.854-4.794    c0,0,0,0.962,0.944,1.904C1317.068,223.923,1318.051,226.794,1319.016,225.828 M1311.547,226.054    c1.945,1.944,0.982,5.8,2.91,7.708c0.943,0.962,0.943,0,0.943-0.962C1315.4,229.926,1314.457,227.036,1311.547,226.054     M1231.559,230.742c3.002,0.496,11.025,0.185,13.249-1.392c-0.797-1.111-1.427-3.168-2.54-2.372    c-2.371,2.557-6.651-1.091-8.059,1.614C1234.023,229.535,1230.614,230.59,1231.559,230.742 M1237.377,237.058    c3.021,0.041,10.913-1.461,12.877-3.353c-0.944-0.982-1.872-2.93-2.873-1.965c-1.943,2.854-6.744-0.092-7.744,2.779    C1239.619,235.485,1236.395,237.058,1237.377,237.058 M1244.047,242.448c3.021-0.403,10.598-3.091,12.246-5.278    c-1.093-0.816-2.296-2.576-3.111-1.5c-1.519,3.131-6.707,0.945-7.264,3.928C1246.067,240.561,1243.103,242.581,1244.047,242.448     M1251.477,246.787c2.909-0.89,10.006-4.669,11.305-7.06c-1.207-0.648-2.67-2.226-3.317-1.039    c-1.038,3.316-6.468,1.928-6.579,4.983C1253.182,244.598,1250.552,247.045,1251.477,246.787 M1259.464,249.936    c2.759-1.316,9.188-6.115,10.116-8.707c-1.279-0.447-2.965-1.779-3.447-0.483c-0.518,3.429-6.096,2.854-5.725,5.876    C1260.816,247.508,1258.592,250.326,1259.464,249.936 M1267.838,251.827c2.52-1.687,8.152-7.414,8.691-10.099    c-1.354-0.258-3.207-1.316-3.467,0.02c0,3.481-5.596,3.76-4.779,6.707C1268.803,249.25,1267.041,252.382,1267.838,251.827     M1276.398,252.455c2.241-2.057,6.967-8.558,7.078-11.283c-1.371-0.072-3.373-0.833-3.428,0.536    c0.519,3.429-4.985,4.56-3.727,7.32C1276.974,249.73,1275.693,253.123,1276.398,252.455 M1284.957,251.787    c1.91-2.368,5.598-9.504,5.32-12.229c-1.373,0.169-3.484-0.295-3.336,1.058c1.056,3.316-4.225,5.244-2.575,7.817    C1285.125,249.028,1284.348,252.548,1284.957,251.787 M1293.314,249.823c1.539-2.613,4.113-10.225,3.408-12.857    c-1.314,0.351-3.463,0.205-3.111,1.538c1.52,3.112-3.409,5.817-1.371,8.098C1293.056,247.102,1292.832,250.676,1293.314,249.823     M1301.3,246.655c1.114-2.814,2.502-10.727,1.428-13.227c-1.261,0.519-3.409,0.721-2.854,1.964c1.983,2.87-2.464,6.263-0.13,8.244    C1300.634,243.989,1300.947,247.564,1301.3,246.655 M1308.713,242.323c0.686-2.983,0.852-11.008-0.594-13.323    c-1.147,0.725-3.242,1.24-2.52,2.391c2.391,2.52-1.502,6.573,1.092,8.151C1307.619,239.764,1308.508,243.249,1308.713,242.323     M1241.545,222.534c0,0.959,0.982,1.905,1.928,0.959v-1.924c-1.928-0.981-2.871,0.965-3.854,1.924    c-3.836,1.912-8.652-2.906-12.507-0.959c1.927,1.905,4.706,2.223,6.745,2.871C1236.747,226.384,1239.619,224.439,1241.545,222.534     M1236.747,217.713c-3.854,0.966-6.763,0-10.616-0.946v1.912c2.908,1.908,5.947,2.833,8.67,1.908    C1237.691,219.641,1236.747,218.679,1236.747,217.713 M1235.783,214.823c0.964-0.962-0.982-1.925-0.982-1.925    c-3.834,2.87-6.727-0.985-9.635-0.985c0,2.91,3.873,3.855,6.763,3.855C1232.893,215.769,1234.801,214.823,1235.783,214.823     M1233.857,210.009c-2.891-1.929-5.783-1.929-8.691-3.856v1.928c1.946,0.962,2.908,1.929,5.801,1.929H1233.857z M1233.857,203.242    c-2.891,0.986-4.818-4.798-8.691-1.905c1.946,1.905,3.873,2.891,6.763,2.891C1232.893,204.228,1233.857,205.189,1233.857,203.242     M1233.857,196.517c-2.891,0.966-4.818-0.946-6.745-1.945v1.945c0.962,0.966,1.927,1.927,3.854,1.927    C1233.857,198.444,1233.857,197.482,1233.857,196.517 M1233.857,190.736c-0.965-1.925-3.873-2.891-5.783-1.925    c0.965,0.962,0.965,1.925,2.893,1.925H1233.857z M1234.801,185.921v-1.928c-1.908,0.962-2.872-0.962-3.834-0.962v1.924    c0.962,0,0.556,0.965,1.926,0.965H1234.801z M1236.747,179.175c-0.964,0-2.89-0.946-3.854,0.965c0,0.96,0.965,0.96,1.908,0.96    C1235.783,181.1,1237.691,180.14,1236.747,179.175 M1250.829,164.093c-0.964,0-2.892-0.942-3.854,0.962    c0,0.966,0.963,0.966,1.927,0.966S1251.791,165.055,1250.829,164.093 M1257.609,160.868c-0.963,0-2.871-0.962-3.854,0.966    c0,0.963,0.982,0.963,1.945,0.963C1256.646,162.797,1258.574,161.834,1257.609,160.868 M1238.655,174.357    c-0.964-0.942-1.908,0-1.908,0.962c0,0.965,0,0.965,0.944,0.965C1238.655,176.285,1239.619,175.319,1238.655,174.357     M1307.082,182.694c-0.964-0.943-1.945,0-1.945,0.985c0,0.962,0,0.962,0.981,0.962    C1307.082,184.642,1308.025,183.679,1307.082,182.694 M1315.104,175.967c-0.964-0.959-1.946,0-1.946,0.966    c0,0.946,0,0.946,0.982,0.946C1315.104,177.879,1316.049,176.933,1315.104,175.967 M1309.954,170.819    c-0.981-0.962-1.929,0-1.929,0.982c0,0.965,0,0.965,0.947,0.965C1309.954,172.766,1310.936,171.801,1309.954,170.819     M1303.857,176.619c-0.98-0.962-1.945,0-1.945,0.943c0,0.965,0,0.965,0.965,0.965    C1303.857,178.527,1304.822,177.562,1303.857,176.619 M1305.784,166.001c-0.962-0.962-1.927,0-1.927,0.982    c0,0.962,0,0.962,0.965,0.962C1305.784,167.945,1306.73,166.983,1305.784,166.001 M1253.127,168.891    c-0.984-0.946-1.945,0-1.945,0.965c0,0.962,0,0.962,0.961,0.962C1253.127,170.819,1254.09,169.856,1253.127,168.891     M1248.623,172.115c-0.963-0.962-1.945,0-1.945,0.945c0,0.982,0,0.982,0.982,0.982    C1248.623,174.042,1249.588,173.061,1248.623,172.115 M1241.23,183.031c-0.963-0.966-1.928,0-1.928,0.962    c0,0.962,0,0.962,0.965,0.962C1241.23,184.956,1242.213,183.993,1241.23,183.031 M1247.66,187.846    c-0.982-0.962-1.927,0-1.927,0.966c0,0.962,0,0.962,0.944,0.962C1247.66,189.774,1248.623,188.812,1247.66,187.846     M1238.988,188.812c-0.98-0.966-1.928,0-1.928,0.962s0,0.962,0.947,0.962C1238.988,190.736,1239.953,189.774,1238.988,188.812     M1242.527,169.539c-0.982-0.946-1.926,0-1.926,0.965c0,0.962,0,0.962,0.943,0.962    C1242.527,171.467,1243.473,170.504,1242.527,169.539 M1242.527,177.267h1.928H1242.527z M1267.579,157.013    c0-0.942-1.946-0.942-2.909-0.942c-0.945,0.942,0,1.908,0.963,1.908C1266.615,157.978,1267.579,157.013,1267.579,157.013     M1272.377,156.07l-0.944-0.962l-0.981,0.962c0,0.942,0,0.942,0.981,0.942L1272.377,156.07z M1278.158,155.108h-1.908    c0,0.962,0,0.962,0.945,0.962L1278.158,155.108z M1282.976,155.108h-1.909v1.905    C1282.014,157.013,1283.957,157.013,1282.976,155.108 M1289.719,157.013c0-1.905-0.943,0-1.926-0.942    C1287.793,157.978,1288.775,156.07,1289.719,157.013 M1261.798,257.217c1.501-1.538,0.944-2.91,0.944-3.853    c0-0.962-0.944-0.962-1.926-0.962c-1.908,0.962-2.872,2.87-1.908,4.814C1259.87,259.145,1260.816,258.183,1261.798,257.217     M1272.377,258.183v-2.91c0-0.965-0.944-0.965-1.926-0.965c-2.872,1.931,0,3.875,0.981,5.784    C1271.433,259.145,1272.377,259.145,1272.377,258.183 M1318.625,240.838c0.426-0.85,0-2.907-0.965-2.907    c-0.962,0.979-2.908,0.979-3.852,2.907c0,0.946,0,1.908,0.943,1.908C1315.734,240.838,1317.66,242.746,1318.625,240.838     M1246.381,157.013c0.854,0.446,1.909,0,1.909-0.942c-1.909-0.962-1.909-4.838-3.835-3.872    C1242.527,152.198,1244.455,156.07,1246.381,157.013 M1241.545,154.123c0.982,0,0-1.924-0.943-1.924c-0.982,0-2.91,0-2.91,0.962    c0,0.962,0.964,1.947,1.928,1.947C1240.602,155.108,1240.602,154.123,1241.545,154.123 M1296.465,145.452    c0.982,0,0.982-0.962,0.982-1.924c-1.945-2.89-1.945,0.962-2.91,0.962C1293.594,146.437,1295.502,145.452,1296.465,145.452     M1283.957,229.258h-4.836c-0.963,0.981,0,1.948,0.982,1.948C1282.014,231.206,1282.976,231.206,1283.957,229.258     M1282.976,225.405h-2.872c-0.982,0.979,0,1.945,0.963,1.945h1.909V225.405z M1297.447,179.175c-1.945,1.925,0,2.89,0.945,4.818    C1300.318,182.065,1298.393,181.1,1297.447,179.175 M1286.83,176.285c0-0.965-0.963-1.928-1.908-0.965v3.856    c0.945,0,0.945,0,0.945-0.946C1285.867,177.267,1286.83,177.267,1286.83,176.285"
   fill="#DEB02E" />

		<path
   id="path1141"
   d="M1169.82,609.112c-15.043,0-25.939-8.115-25.939-23.994c0-14.246,9.339-24.716,26.367-24.716    c14.508,0,26.144,7.838,26.144,23.439C1196.392,601.222,1183.403,609.112,1169.82,609.112 M1170.377,565.205    c-10.264,0-14.193,9.648-14.193,20.267c0,13.436,6.615,18.846,13.637,18.846c8.6,0,14.269-7.434,14.269-20.331    C1184.089,572.836,1179.16,565.205,1170.377,565.205"
   fill="#336336" />

		<path
   id="path1143"
   d="M1223.74,585.528c-1.149-0.813-2.297-1.409-3.65-1.409c-4.725,0-4.725,5.265-4.725,9.597    c0,2.242,0.056,8.578,0.666,14.51c-1.759-0.257-4.187-0.317-6.15-0.317c-2.299,0-4.503,0.187-5.317,0.317    c0.332-4.173,0.462-5.932,0.462-14.639c0-7.173,0-12.305-0.555-18.582c0.962,0.126,3.057,0.352,5.632,0.352    c2.354,0,4.447-0.226,5.263-0.352l-0.463,7.077c3.168-7.896,6.744-7.691,10.135-7.486c-0.298,2.222-0.686,5.614-0.482,10.469    L1223.74,585.528z"
   fill="#336336" />

		<path
   id="path1145"
   d="M1235.487,608.371c-2.762-0.813-4.726-2.685-4.726-5.74c0-1.481,0.611-5.209,6.818-6.767v-0.607    c-4.928-1.203-8.374-4.729-8.374-9.914c0-6.891,5.669-10.88,14.249-10.88c2.111,0,4.057,0.266,6.56,0.615    c3.778,0.516,5.132,0.668,8.114,0.668c1.741,0,2.688-0.059,4.318-0.205c-0.204,0.407-0.335,1.019-0.335,1.76    c0,0.945,0.186,1.631,0.335,2.075l-6.357-0.26c1.744,1.501,2.502,3.853,2.502,6.227c0,7.836-7.502,10.873-14.321,10.873    c-0.594,0-1.631,0-2.632-0.146c-0.13,0-0.816-0.133-0.945-0.133c-0.611,0-1.964,1.484-1.964,2.785c0,2.222,1.89,2.758,8.319,2.758    c8.838,0.054,10.19,0.611,11.877,1.964c2.834,2.242,3.317,5.668,3.317,7.837c0,6.747-5.541,15.397-19.253,15.397    c-9.115,0-14.73-4.055-14.73-10.133c0-5.934,5.615-7.374,7.228-7.783V608.371z M1254.072,615.469c0-3.113-1.836-5.54-4.947-5.945    c-1.001-0.205-7.282-0.411-8.506-0.411c-1.834,0-2.427,0.132-3.705,1.892c-1.353,1.911-1.631,3.578-1.631,4.669    c0,3.426,2.631,7.354,9.135,7.354C1252.293,623.027,1254.072,618.154,1254.072,615.469 M1248.531,585.21    c0-5.072-1.353-7.651-4.392-7.651c-4.114,0-4.669,5.007-4.669,8.525c0,2.428,0.223,7.225,4.594,7.225    C1247.566,593.309,1248.531,589.661,1248.531,585.21"
   fill="#336336" />

		<path
   id="path1147"
   d="M1269.543,583.229c-0.203-1.405-0.557-3.02-1.224-4.242c4.595-3.651,9.319-4.465,12.822-4.465    c3.595,0,7.374,0.813,10.136,3.24c2.296,2.038,2.854,4.948,2.854,7.766c0,3.24-0.352,7.78-0.352,14.543    c0,2.483,0,4.726,2.296,4.726c0.741,0,1.705-0.278,2.224-0.816c-0.11,0.946-0.11,1.819,0,2.688    c-1.352,0.889-4.242,2.37-7.207,2.37c-4.614,0-5.928-3.094-6.43-4.391c-1.353,1.759-3.649,4.65-9.246,4.65    c-7.503,0-9.598-5.187-9.598-9.095c0-7.025,4.465-8.453,13.508-11.157c4.724-1.41,4.799-1.687,4.799-3.519    c0-3.765-2.076-5.8-6.076-5.8c-4.523,0-7.098,2.374-8.377,3.577L1269.543,583.229z M1275.824,598.907    c0,2.037,0.463,5.021,4.039,5.021c1.891,0,3.316-1.096,3.799-2.983c0.334-1.356,0.334-3.32,0.334-9.748    C1277.584,592.551,1275.824,594.179,1275.824,598.907"
   fill="#336336" />

		<path
   id="path1149"
   d="M1313.308,580.264c1.964-3.294,5.669-5.726,10.396-5.726c3.316,0,7.521,1.188,9.338,3.914    c1.611,2.365,1.815,4.443,1.815,7.222v14.193c0,2.743,0.147,5.594,0.353,8.358c-1.762-0.203-3.854-0.336-5.818-0.336    c-2.502,0-4.651,0.205-5.613,0.336c0.535-4.371,0.684-10.654,0.684-15.194c0-8.356-0.277-12.153-5.206-12.153    c-4.261,0-5.467,3.374-5.467,7.778v14.51c0,1.429,0.131,3.65,0.335,5.06c-1.762-0.203-3.502-0.336-5.264-0.336    c-1.834,0-4.205,0.079-6.021,0.336c0.334-3.372,0.465-6.672,0.465-10.063v-12.69c0-3.647-0.131-6.896-0.52-10.467    c0.926,0.146,2.965,0.331,5.541,0.331c2.427,0,4.52-0.186,5.41-0.331L1313.308,580.264z"
   fill="#336336" />

		<path
   id="path1151"
   d="M1354.662,563.365c0,3.188-2.574,5.688-5.612,5.688c-3.113,0-5.671-2.5-5.671-5.688    c0-3.036,2.501-5.595,5.671-5.595C1352.161,557.771,1354.662,560.329,1354.662,563.365 M1343.379,575.005    c1.816,0.199,3.91,0.331,5.8,0.331s3.725-0.132,5.54-0.331c-0.482,4.796-0.537,9.723-0.537,14.504    c0,5.614,0.186,13.323,0.666,18.717c-1.611-0.185-3.982-0.317-5.854-0.317c-2.039,0-4.278,0.133-5.54,0.317    c0.465-5.132,0.593-11.62,0.593-16.863C1344.046,585.951,1343.972,580.416,1343.379,575.005"
   fill="#336336" />

		<path
   id="path1153"
   d="M1391.072,601.89c-0.871,1.422-1.221,2.295-2.095,4.594c-1.149,0.87-4.259,2.504-9.728,2.504    c-12.71,0-17.637-8.453-17.637-16.825c0-16.214,13.783-17.845,18.51-17.845c6.15,0,9.113,1.944,10.855,3.188    c-1.684,3.498-2.205,6.279-2.427,7.704h-1.944c-0.686-5.152-3.78-6.707-6.097-6.707c-6.876,0-7.615,9.009-7.615,12.693    c0,6.412,2.501,12.638,9.859,12.638c1.426,0,3.369-0.186,6.964-3.3L1391.072,601.89z"
   fill="#336336" />

		<path
   id="path1155"
   d="M1177.975,30.39c-1.611-4.058-6.559-6.633-11.822-6.633c-10.34,0-15.342,8.932-15.342,19.604    c0,11.339,5.689,19.381,16.156,19.381c5.338,0,9.1-2.222,12.693-5.262l1.148,0.665c-0.592,1.558-1.277,3.446-1.965,6.432    c-4.52,2.167-9.523,3.039-14.451,3.039c-16.547,0-25.865-10.562-25.865-23.994c0-14.25,10.264-24.441,26.625-24.441    c5.595,0,11.211,1.002,16.268,3.45c-1.296,2.553-1.76,6.335-1.965,7.76H1177.975z"
   fill="#336336" />

		<path
   id="path1157"
   d="M1217.682,59.646c-1,2.149-1.409,3.63-1.743,4.93c-4.111,2.89-9.468,3.297-11.895,3.297    c-11.21,0-17.36-7.282-17.36-17.49c0-12.636,8.3-17.288,16.951-17.288c10.545,0,15.214,6.67,15.214,15.119    c0,0.817-0.149,2.093-0.224,2.725c-3.908-0.221-7.836-0.298-11.746-0.298c-2.835,0-4.65,0.077-9.117,0.298    c-0.074,4.17,0.741,11.396,9.783,11.396c2.04,0,5.615-0.261,8.931-3.853L1217.682,59.646z M1208.231,47.011    c-0.073-7.967-1.427-10.692-4.854-10.692c-2.706,0-5.742,2.242-5.615,10.692H1208.231z"
   fill="#336336" />

		<path
   id="path1159"
   d="M1244.918,44.176c-1.148-0.833-2.298-1.429-3.65-1.429c-4.725,0-4.725,5.265-4.725,9.597    c0,2.226,0.055,8.582,0.667,14.511c-1.741-0.258-4.188-0.317-6.151-0.317c-2.298,0-4.504,0.185-5.336,0.317    c0.352-4.167,0.482-5.929,0.482-14.636c0-7.173,0-12.305-0.557-18.585c0.963,0.129,3.057,0.331,5.614,0.331    c2.353,0,4.466-0.202,5.28-0.331l-0.464,7.077c3.169-7.893,6.746-7.708,10.118-7.487c-0.279,2.223-0.667,5.615-0.464,10.47    L1244.918,44.176z"
   fill="#336336" />

		<path
   id="path1161"
   d="M1265.578,22.146c-0.26,3.981-0.814,9.729-0.814,12.024c1.48,0,3.797-0.205,5.816-0.334    c-0.129,0.685-0.279,1.131-0.279,2.078c0,1.093,0.15,1.775,0.279,2.238c-1.963-0.126-4.262-0.331-5.816-0.331    c-0.206,5.744-0.26,12.896-0.26,18.697c0,4.074,0,7.097,3.316,7.097c0.797,0,1.89-0.262,2.631-0.596    c-0.15,0.596-0.204,1.151-0.204,1.687c0,0.688,0.147,1.276,0.204,1.614c-2.965,0.942-5.004,1.574-7.449,1.574    c-2.871,0-5.113-0.89-6.727-2.576c-1.852-1.909-2.242-3.913-2.242-7.375c0-5.615,0.26-14.527,0.26-20.122    c-1.26,0-2.891,0.205-4.242,0.331c0.203-0.681,0.26-1.204,0.26-2.238c0-0.946-0.131-1.393-0.26-2.078    c1.686,0.129,3.242,0.334,4.242,0.334c0-2.982-0.129-5.06-0.186-7.652c5.264-1.815,8.784-3.888,10.656-4.986L1265.578,22.146z"
   fill="#336336" />

		<path
   id="path1163"
   d="M1289.109,22.014c0,3.168-2.594,5.671-5.633,5.671c-3.113,0-5.67-2.503-5.67-5.671    c0-3.056,2.502-5.615,5.67-5.615C1286.59,16.398,1289.109,18.958,1289.109,22.014 M1277.807,33.634    c1.834,0.202,3.929,0.331,5.818,0.331c1.891,0,3.705-0.129,5.539-0.331c-0.48,4.799-0.537,9.726-0.537,14.507    c0,5.612,0.205,13.323,0.668,18.733c-1.613-0.225-3.985-0.354-5.875-0.354c-2.018,0-4.262,0.129-5.539,0.354    c0.463-5.152,0.612-11.637,0.612-16.897C1278.493,44.583,1278.418,39.044,1277.807,33.634"
   fill="#336336" />

		<path
   id="path1165"
   d="M1311.584,53.197c0,4.746,0,9.338,0.482,13.677c-1.297-0.132-3.393-0.354-5.818-0.354    c-3.298,0-4.521,0.222-5.67,0.354c0.537-4.411,0.611-8.783,0.611-13.194v-15.86c-1.76,0.052-2.371,0.052-4.114,0.331    c0.056-0.757,0.26-1.405,0.26-2.146c0-0.685-0.204-1.373-0.26-2.169c1.409,0.262,2.762,0.314,4.171,0.314    c1.631-13.376,8.652-17.804,14.803-17.804c0.539,0,1.558,0,2.967,0.258c-0.335,1.223-0.725,3.168-0.725,5.727    c0,1.038,0.056,2.11,0.188,3.112l-0.818,0.426c-1.833-1.018-4.26-1.907-6.336-1.907c-1.76,0-3.391,0.611-3.391,2.575    c0,1.482,1.168,4.316,3.316,7.612c1.409,0,3.445,0,5.818-0.314c-0.13,0.483-0.277,1.409-0.277,2.169    c0,0.741,0.075,1.481,0.277,2.146c-0.334-0.073-3.373-0.278-5.484-0.331V53.197z M1333.059,22.014    c0,3.168-2.557,5.671-5.594,5.671c-3.115,0-5.672-2.503-5.672-5.671c0-3.056,2.502-5.615,5.672-5.615    C1330.576,16.398,1333.059,18.958,1333.059,22.014 M1321.793,33.634c1.816,0.202,3.928,0.331,5.801,0.331    c1.907,0,3.723-0.129,5.539-0.331c-0.464,4.799-0.519,9.726-0.519,14.507c0,5.612,0.185,13.323,0.667,18.733    c-1.631-0.225-4.002-0.354-5.891-0.354c-2.004,0-4.245,0.129-5.541,0.354c0.48-5.152,0.611-11.637,0.611-16.897    C1322.461,44.583,1322.404,39.044,1321.793,33.634"
   fill="#336336" />

		<path
   id="path1167"
   d="M1370.172,59.646c-1.038,2.149-1.428,3.63-1.761,4.93c-4.132,2.89-9.448,3.297-11.877,3.297    c-11.247,0-17.379-7.282-17.379-17.49c0-12.636,8.3-17.288,16.953-17.288c10.526,0,15.193,6.67,15.193,15.119    c0,0.817-0.13,2.093-0.204,2.725c-3.908-0.221-7.837-0.298-11.748-0.298c-2.815,0-4.666,0.077-9.115,0.298    c-0.074,4.17,0.723,11.396,9.784,11.396c2.019,0,5.613-0.261,8.912-3.853L1370.172,59.646z M1360.705,47.011    c-0.057-7.967-1.428-10.692-4.855-10.692c-2.725,0-5.764,2.242-5.615,10.692H1360.705z"
   fill="#336336" />

		<path
   id="path1169"
   d="M1400.631,62.351c-2.016,2.89-4.131,5.449-9.725,5.449c-9.821,0-14.749-7.354-14.749-17.215    c0-9.062,4.41-17.361,14.267-17.361c5.67,0,8.32,2.576,9.93,4.188c0-8.168,0-15.06-0.609-20.269    c1.688,0.202,4.334,0.354,6.08,0.354c1.832,0,3.646-0.152,5.482-0.354c-0.813,11.561-0.874,23.251-0.874,32.834    c0,10.67,0.185,13.452,0.522,16.877c-1.207-0.132-3.43-0.317-5.41-0.317c-1.947,0-4.113,0.185-5.244,0.317L1400.631,62.351z     M1394.074,38.025c-4.983,0-6.542,5.596-6.542,13.099c0,3.984,0.648,12.172,6.34,12.172c5.796,0,6.481-8.949,6.481-13.062    C1400.354,45.936,1399.744,38.025,1394.074,38.025"
   fill="#336336" />

		<path
   id="path1171"
   d="M1186.274,347.435c-2.833-7.431-11.524-12.137-20.807-12.137c-18.178,0-26.979,16.342-26.979,35.905    c0,20.811,10.008,35.544,28.425,35.544c9.394,0,16.045-4.099,22.345-9.677l2.02,1.243c-1.074,2.87-2.26,6.316-3.465,11.767    c-7.948,3.965-16.75,5.575-25.422,5.575c-29.127,0-45.523-19.326-45.523-43.97c0-26.123,18.066-44.8,46.84-44.8    c9.857,0,19.734,1.852,28.646,6.317c-2.261,4.709-3.095,11.62-3.448,14.232H1186.274z"
   fill="#336336" />

		<path
   id="path1173"
   d="M1264.984,347.435c-2.872-7.431-11.543-12.137-20.807-12.137c-18.178,0-26.998,16.342-26.998,35.905    c0,20.811,10.008,35.544,28.424,35.544c9.395,0,16.047-4.099,22.346-9.677l2.021,1.243c-1.057,2.87-2.261,6.316-3.447,11.767    c-7.948,3.965-16.75,5.575-25.422,5.575c-29.126,0-45.544-19.326-45.544-43.97c0-26.123,18.067-44.8,46.823-44.8    c9.896,0,19.732,1.852,28.683,6.317c-2.279,4.709-3.113,11.62-3.466,14.232H1264.984z"
   fill="#336336" />

		<path
   id="path1175"
   d="M1319.792,415.899c-26.515,0-45.653-14.861-45.653-43.936c0-26.163,16.416-45.336,46.357-45.336    c25.551,0,46.007,14.357,46.007,42.982C1366.503,401.43,1343.676,415.899,1319.792,415.899 M1320.738,335.411    c-18.066,0-24.977,17.71-24.977,37.149c0,24.643,11.653,34.556,24.03,34.556c15.101,0,25.069-13.62,25.069-37.28    C1344.861,349.419,1336.171,335.411,1320.738,335.411"
   fill="#336336" />

		<path
   id="path1177"
   d="M1399.189,395.476c0,5.579,0.109,13.252,0.943,18.829c-2.484-0.501-6.168-0.739-10.229-0.739    c-3.78,0-7.949,0.37-11.877,0.739c0.963-5.947,1.074-12.155,1.074-18.196l-0.111-47.821c0-6.539-0.369-12.989-0.832-19.92    c6.762,0.854,13.545,0.983,19.844,0.983c8.079,0,17.934-0.371,28.053-0.983c-0.351,2.223-0.596,4.319-0.596,6.321    c0,1.963,0.245,4.077,0.596,5.928c-11.283-1.613-20.92-1.613-26.494-1.613c-0.133,3.724-0.371,9.914-0.371,13.75v11.896    c9.634,0,16.528,0,26.031-1.373c-0.225,1.613-0.596,4.097-0.596,5.688c0,2.115,0.371,4.596,0.596,6.189    c-5.707-0.966-11.064-1.092-26.031-1.092V395.476z"
   fill="#336336" />

		<path
   id="path1179"
   d="M1433.594,428.701h-159.328c0.205,3.501,1.854,6.264,1.854,8.968c0.981,1.947,3.872,3.852,6.782,4.818    h6.725c8.672-1.911,17.363,0,25.068,2.909c5.783,1.925,8.691-4.82,14.472-2.909c-0.962,0.963-1.927,2.909-1.927,3.871    c4.818,3.853,10.34,1.945,17.361,1.945c2.891,0,5.782-1.945,8.673-2.907c13.507-1.946,26.995,1.925,39.54-3.876    c1.924,0,4.818-0.944,6.746,0.967c-3.836,2.909-11.564,2.909-11.564,6.763c1.928,5.779,11.564,1.926,17.361,5.779    c-8.688,2.89-17.361-0.962-24.106-3.854c-6.743-2.872-14.47-1.926-22.179,0c-3.871,0.963,2.893,3.854,0,4.816    c-0.962,0-2.891-1.925-3.871-1.925c-11.562,1.925-22.18,0-32.779-0.966c5.783,4.817,11.563,10.618,18.326,12.526    c5.764,2.91,13.488,0,19.271,3.872c-5.782,0.962-12.526,0-18.308,0.962c3.836,2.891,30.221,14.141,33.092,17.993    c0,0.501-4.982,1.002-10.596-1.279c-1.28-0.516,12.783,15.919,11.561,15.437c-3.908-1.595-23.088-22.514-23.439-22.514    c-5.816-0.946-11.58-2.889-17.379-6.746c-3.854-1.925-4.818-7.725-9.635-10.596c-1.928-0.965-3.854-1.946-5.781-1.946    s0-2.892-1.927-2.892c-6.763-1.927-12.544-6.743-19.308-7.708c1.946,2.891,5.799,3.856,6.764,7.708c0,0-1.945,0.983-0.965,1.929    h1.928c1.946,0.963,1.946,3.872,2.891,5.78c2.891,3.872,6.744,5.8,10.617,8.671c3.854,1.944,8.672,2.911,11.562,6.782    c0,0.946-1.928,0.946-2.89,0.946c-0.224-0.15,3.576,7.188,9.635,13.508c9.765,10.132,24.086,21.585,23.16,22.511    c-4.502,4.483-35.963-31.186-36-27.663c-0.131,9.339,1.629,24.346,0,23.81c-1.464-0.502-7.283-36.187-8.524-37.003    c-8.634-5.596-12.748-17.953-22.03-22.16c-4.818-1.928-10.6-3.854-16.379-3.854c2.872,4.816,3.854,9.635,6.744,14.452    c2.891,4.834,9.635,5.8,14.471,7.725c0.964,0.946,4.816,1.931,2.872,4.822c-1.908,0.978-4.818-0.965-6.727,0.978    c0.964,0.946,5.467,10.603,4.484,10.603c-1.927-0.966-8.022-8.988-8.986-10.952c-5.78-6.727-12.858-11.23-13.823-20.884    c-3.854,12.543-0.981,26.053,1.928,38.559c0.963,6.763,6.763,10.619,12.525,13.528c-2.89,1.925-7.709,0-8.652,3.854    c-0.982,4.838,2.89,9.652,0,14.47c-6.782-7.729-0.982-19.309-6.782-26.996c-0.944,0-2.872-0.983-3.854,0.962    c-1.926-7.726,4.836-17.36-1.926-23.143c-2.891-0.978-0.947,2.875-2.891,3.836c-0.964,0-3.521-2.222-3.521-2.222    c4.8-8.69,7.375-17.047,6.412-26.699c-1.908,0-0.947-2.892-1.908-1.929c-2.91,4.819-4.836,10.618-6.764,15.434    c-2.909,6.727,0.963,15.416-1.927,23.126c-2.891-4.819-3.854-11.546-2.891-16.399c-5.781,3.876-5.781,10.636-7.726,16.399    c-0.965,6.781,0,13.507,0,20.27c-0.965,5.78,6.762,7.729,8.688,13.509c0,0.946,0,2.891-0.962,2.891    c-1.946-1.944-3.854-5.801-6.765-7.712c-1.926-1.962-3.852,2.874-3.852,0.945c-0.963-10.595-2.892-22.175,0-32.777    c-3.836-0.979-4.818,2.875-7.707,4.821c-0.965,0-1.93,0-1.93-0.966c1.93-5.8,8.674-7.707,9.637-11.58    c2.891-8.671,7.707-17.342,13.507-25.069c-15.435,3.873-21.214,19.27-27.016,30.85c-2.89,5.8-5.78,12.547-7.688,18.326    c-1.946,4.815-0.981,10.616-4.818,15.45c-1.945-3.869,1.908-8.688-0.981-12.559c-0.964-0.946-4.818,1.924-3.872,0    c2.908-4.802,6.449-7.709,9.338-13.493c3.854-12.522,10.283-25.713,19.604-32.793c-18.324,2.909-31.813,15.433-46.266,27.013    c-1,0-1.947-0.979-1.947-0.979c4.818-6.746,12.545-10.602,17.363-16.383c-3.854,0.966-7.727,2.891-11.58,3.837    c-3.836,1.944-6.744,3.876-10.6,5.8c-9.634,7.725-15.453,19.289-17.361,30.869c-4.816-1.947-0.963-8.673-2.909-9.635    c-2.872-1.945-8.671,3.835-12.524,0.962c3.854-1.945,8.671-2.907,12.524-5.817c12.544-12.506,22.197-29.867,42.45-31.815    c2.891,0,6.762-1.905,9.634-4.814c-17.36-0.945-36.649,0-49.175,13.505c0,0-0.963-0.962-0.963-1.925    c1.908-1.928,2.871-4.817,4.818-6.766c-2.91-1.905-5.783,0-8.672-1.905c3.854-1.946,7.708-0.965,11.58-0.965    c1.908-0.981,2.871-1.944,4.818-1.944c0-1.929-4.818-1.929-1.947-3.855c2.891-0.963,5.799,3.855,8.691,2.91    c6.744-0.983,14.451-1.944,21.215-2.91c-15.416-7.688-33.76-13.505-52.085-10.596c-6.745,0.962-12.524,4.814-20.233,6.742    c-7.726,0.963-12.545,8.672-21.232,9.653c3.872-5.8,9.652-7.725,14.471-11.581c-2.91-0.961-6.764,0.965-9.654-0.961    c3.871-1.929,7.727,0,11.58-2.892c3.854-0.962,7.709,0.963,11.58-0.962c4.799-1.946,8.672-4.82,13.489-5.78    c14.452-2.909,27.016,3.834,40.505,2.871c0.98,0,0.98,1.944,0,2.909c1.944,0,3.854,0,5.799,0.962    c9.635,9.634,22.16,8.671,34.723,7.709c0.944,0,0.944-0.966,0.944-1.929c-1.927-1.928-4.815-3.835-4.815-6.742    c0-0.965,0.961-0.965,1.925-0.965c1.946,1.927,3.854,4.818,5.782,5.779c1.926,0,3.852,0,4.835,1.928    c3.835-3.835,9.636-6.742,12.526-11.562c2.594-6.02-1.279-6.985,1.203-11.875h-166.795c0,0,0.205,38.224,0.205,55.585    c0,25.607,20.25,58.015,53.844,58.015h232.052c22.44,0,49.694-24.255,49.694-50.679    C1433.799,465.237,1433.594,428.701,1433.594,428.701"
   fill="#336336" />

		<path
   id="path1181"
   d="M1490.869,587.122c5.834,0,10.486,4.742,10.486,10.654c0,6.019-4.652,10.728-10.525,10.728    c-5.855,0-10.578-4.709-10.578-10.728c0-5.912,4.723-10.654,10.578-10.654H1490.869z M1490.83,588.769    c-4.706,0-8.539,4.041-8.539,9.008c0,5.072,3.833,9.062,8.578,9.062c4.742,0.051,8.539-3.989,8.539-9.027    c0-5.001-3.797-9.042-8.539-9.042H1490.83z M1488.828,604.001h-1.889v-11.912c0.98-0.133,1.924-0.278,3.354-0.278    c1.799,0,3.004,0.37,3.705,0.906c0.723,0.516,1.094,1.337,1.094,2.464c0,1.557-1.035,2.503-2.334,2.89v0.092    c1.074,0.187,1.762,1.133,2,2.876c0.277,1.87,0.555,2.592,0.762,2.963h-2.002c-0.277-0.371-0.576-1.482-0.797-3.057    c-0.277-1.521-1.039-2.058-2.559-2.058h-1.334V604.001z M1488.828,597.406h1.395c1.553,0,2.887-0.576,2.887-2.04    c0-1.035-0.76-2.093-2.887-2.093c-0.635,0-1.04,0.051-1.395,0.092V597.406z"
   fill="#336336" />

	</g>

</g>

<g
   id="g1220">
	<rect
   id="rect1187"
   height="388.435"
   width="420.217"
   fill="#2B4288"
   y="53.283"
   x="2652.783" />

	<text
   id="text1189"
   font-size="143.9693"
   font-family="'AvenirNext-Bold'"
   fill="#FFFFFF"
   transform="matrix(1 0 0 1 2690.4121 192.5576)">NON</text>

	
		<text
   id="text1191"
   letter-spacing="-7"
   font-size="143.9693"
   font-family="'AvenirNext-Bold'"
   fill="#FFFFFF"
   transform="matrix(1 0 0 1 2684.5645 302.2344)">GMO</text>

	
		<text
   id="text1193"
   letter-spacing="-1"
   font-size="113.1093"
   font-family="'AvenirNext-Medium'"
   fill="#FFFFFF"
   transform="matrix(1 0 0 1 2686.3301 404.5996)">Project</text>

	<rect
   id="rect1195"
   height="144.781"
   width="841.316"
   fill="#1D7F2C"
   y="436.421"
   x="2229.918" />

	<linearGradient
   y2="53.395"
   x2="2442.9434"
   y1="441.8301"
   x1="2442.9434"
   gradientUnits="userSpaceOnUse"
   id="SVGID_1_">
		<stop
   id="stop1197"
   style="stop-color:#FFFFFF"
   offset="0" />

		<stop
   id="stop1199"
   style="stop-color:#81CEFF"
   offset="1" />

	</linearGradient>

	<rect
   id="rect1202"
   height="388.436"
   width="427.279"
   fill="url(#SVGID_1_)"
   y="53.395"
   x="2229.304" />

	<path
   id="path1204"
   d="M2626.299,79.767c0,0-148.312,210.108-164.202,383.138c-2.422,26.377-110.812,4.545-104.171-21.188   c14.125-54.733-104.056-200.144-102.406-199.514c134.188,51.203,145.869,144.646,146.547,143.015   C2488.567,176.87,2626.299,79.767,2626.299,79.767z"
   fill="#1D7F2C" />

	<g
   id="g1208">
		
			<text
   id="text1206"
   letter-spacing="33"
   font-size="122.6976"
   font-family="'AvenirNext-Medium'"
   fill="#FFFFFF"
   transform="matrix(1 0 0 1 2267.8984 554.0781)">VERIFIED</text>

	</g>

	<g
   id="g1218">
		<path
   id="path1210"
   d="M2519.57,130.898c-16.383-9.688-46.477,1.43-69.012,35.527c-4.529,6.851-8.941,16.029-10.73,20.498    c-5.64-12.977-11.834-26.031-17.898-37.856c-26.484-51.645-61.369-79.458-78.129-68.859    c-26.289,16.623-16.332,70.625-0.883,111.233c0.156,0.413-11.035,15.008-11.918,37.961c-0.791,20.587,29.038,41.886,49.879,48.554    c18.729,6.996,52.028,5.849,60.472,7.504c2.742,0.537,5.135,0.959,7.228,1.282c-0.932,1.985-1.489,4.439-1.489,7.104    c0,6.583,3.36,11.918,7.504,11.918c4.145,0,7.504-5.335,7.504-11.918c0-2.432-0.46-4.69-1.248-6.576    c2.284-0.733,0.907-2.429-0.2-3.505c8.681-6.986,14.578-11.738,43.382-61.426C2534.777,169.303,2531.211,137.78,2519.57,130.898z" />

		<g
   id="g1216">
			<path
   id="path1212"
   d="M2452.834,280.454c-0.241-0.393-1.134-12.036-3.207-23.419c0.132-15.337-14.479-53.446-30.346-81.042     c-19.813-34.458-43.258-57.824-56.059-49.879c-20.078,12.462-5.738,55.617,1.766,73.273c0.152,0.359,0.317,0.72,0.486,1.084     c-6.289,9.067-10.197,19.491-10.197,28.049c0,15.445,11.365,28.601,27.282,33.6c14.305,5.244,39.983,11.065,46.432,12.306     C2451.944,278.84,2453.112,280.908,2452.834,280.454z"
   fill="#DD5213" />

			<path
   id="path1214"
   d="M2486.815,231.168c-8.716,19.175-9.418,14.737-26.484,41.933c0,0-2.776-18.808-3.09-20.746     c-3.717-23.049-11.477-50.32-12.359-50.762c-0.395-0.197,3.934-10.034,8.387-16.773c16.332-24.719,34.522-35.19,45.906-27.809     S2504.472,192.325,2486.815,231.168z"
   fill="#DD5213" />

		</g>

	</g>

</g>

<g
   id="g1236">
	<rect
   id="rect1222"
   height="432"
   width="1258"
   fill="#EBCD0A"
   y="116.5"
   x="-273" />

	<rect
   id="rect1224"
   height="386"
   width="386"
   fill="#018752"
   y="139.5"
   x="575" />

	<rect
   id="rect1226"
   height="386"
   width="386"
   fill="#018752"
   y="139.5"
   x="163" />

	<rect
   id="rect1228"
   height="386"
   width="386"
   fill="#018752"
   y="139.5"
   x="-249" />

	<path
   id="path1230"
   d="M68.883,288.009c0,5.332-1.051,10.521-3.15,15.565c-2.101,5.048-5.296,9.867-9.59,14.46   c-4.294,4.593-9.59,8.819-15.889,12.674c-6.297,3.856-31.009,13.936-39.406,16.657c0,0,27.37,31.425,40.211,53.495   c11.489,19.747,24.209,36.583,27.645,40.211l-34.747,0.382c-1.719-1.587-3.104-3.429-4.151-5.528   c-1.051-2.098-46.191-74.915-62.707-84.609c-7.444-4.37-22.255-1.437-34.466-1.437l-81.894-0.458v92.032h-38.647V226.938h147.72   c17.556,0,33.109,1.815,46.663,5.443c13.548,3.631,24.951,8.365,34.21,14.205c9.254,5.842,16.268,12.392,21.041,19.648   C66.495,273.493,68.883,280.752,68.883,288.009z M-149.261,329.347h109.072c9.541,0,18.558-1.076,27.052-3.231   c8.491-2.153,15.983-5.104,22.473-8.847c6.486-3.742,11.594-8.165,15.317-13.269c3.721-5.104,5.581-10.548,5.581-16.331   c0-5.784-1.766-11.113-5.296-15.991c-3.533-4.875-8.444-9.102-14.743-12.674c-6.297-3.572-13.74-6.35-22.329-8.335   c-8.589-1.983-17.942-2.978-28.055-2.978h-109.072V329.347z"
   fill="#FFFFFF" />

	<path
   id="path1232"
   d="M375.936,231.938l110.937,214.516h-34.32l-33.837-65.665H287.718l-33.837,65.665h-34.804l112.388-214.516   H375.936z M353.217,252.861l-54.622,107.514h109.002L353.217,252.861z"
   fill="#FFFFFF" />

	<path
   id="path1234"
   d="M773.619,262.832l-66.53,178.621h-29.832l-68.248-214.516h30.046l53.87,173.688l67.174-173.688h27.256   l66.103,171.986c8.869-28.69,18.028-57.355,27.471-85.993c9.443-28.635,18.527-57.3,27.257-85.993h30.046l-68.248,214.516h-29.831   L773.619,262.832z"
   fill="#FFFFFF" />

</g>

<g
   id="g1256">
	<path
   id="path1238"
   d="M2170.993,322.5c0,167.746-135.986,303.732-303.732,303.732c-167.747,0-303.732-135.986-303.732-303.732   c0-167.748,135.985-303.732,303.732-303.732C2035.007,18.768,2170.993,154.752,2170.993,322.5z M1867.261,42.405   c-154.691,0-280.095,125.403-280.095,280.095s125.403,280.095,280.095,280.095s280.095-125.403,280.095-280.095   S2021.952,42.405,1867.261,42.405z"
   fill="#A1B424" />

	<path
   id="path1240"
   d="M2129.29,322.5h-524.059c0,30.5,5.229,59.773,14.809,86.998l-0.02,0.003   c0.185,0.525,0.385,1.044,0.573,1.568c0.354,0.986,0.714,1.972,1.08,2.953c0.367,0.982,0.739,1.962,1.117,2.938   c0.393,1.015,0.79,2.027,1.195,3.036c0.172,0.43,0.333,0.864,0.508,1.292l0.019-0.004c11.603,28.484,28.062,54.472,48.366,76.921   l-0.004,0.001c0.038,0.042,0.078,0.083,0.116,0.125c0.999,1.104,2.018,2.19,3.035,3.277c0.429,0.457,0.85,0.922,1.281,1.376   c0.995,1.047,2.008,2.077,3.021,3.107c0.419,0.427,0.827,0.862,1.249,1.285l0.004-0.002c24.187,24.291,53.11,43.854,85.266,57.207   l-0.011,0.007c0.366,0.152,0.74,0.291,1.107,0.441c1.661,0.681,3.33,1.348,5.009,1.996c0.65,0.251,1.303,0.497,1.956,0.743   c1.616,0.609,3.239,1.201,4.871,1.779c0.383,0.136,0.761,0.284,1.145,0.418l0.014-0.01c27.033,9.429,56.075,14.571,86.323,14.571   c12.458,0,24.706-0.89,36.7-2.571l-0.021,0.024c0.761-0.106,1.518-0.227,2.277-0.34c0.492-0.073,0.986-0.145,1.479-0.221   c1.905-0.295,3.805-0.607,5.695-0.943c0.398-0.07,0.793-0.149,1.191-0.222c1.486-0.271,2.969-0.556,4.447-0.853   c0.685-0.137,1.368-0.276,2.051-0.419c0.384-0.08,0.769-0.153,1.151-0.235l0.015-0.019   C2040.559,553.464,2129.29,448.352,2129.29,322.5z"
   fill="#059140" />

	<path
   id="path1242"
   d="M1844.041,280.761L1804.84,82.196h34.737l27.502,154.585l27.864-154.585h34.738l-39.927,198.564H1844.041z"
   fill="#00954C" />

	<g
   id="g1254">
		<path
   id="path1244"
   d="M1726.619,464.095l-18.189-92.133h16.118l12.761,71.727l12.929-71.727h16.118l-18.525,92.133H1726.619z"
   fill="#FFFFFF" />

		<path
   id="path1246"
   d="M1782.15,464.095v-92.133h43.822v13.891h-28.432v25.256h20.764v13.891h-20.764v25.205h28.432v13.891    H1782.15z"
   fill="#FFFFFF" />

		<path
   id="path1248"
   d="M1863.818,465.257c-6.791,0-12.557-2.155-17.295-6.466c-4.738-4.31-7.107-9.479-7.107-15.507v-50.461    c0-6.095,2.387-11.289,7.164-15.583c4.775-4.293,10.521-6.439,17.238-6.439c6.79,0,12.545,2.155,17.266,6.465    c4.72,4.312,7.08,9.496,7.08,15.558v10.507h-15.951v-10.759c0-2.223-0.867-4.117-2.602-5.683    c-1.736-1.566-3.834-2.349-6.297-2.349c-2.426,0-4.496,0.782-6.213,2.349c-1.717,1.565-2.574,3.46-2.574,5.683v50.562    c0,2.223,0.857,4.108,2.574,5.657s3.787,2.323,6.213,2.323c2.463,0,4.561-0.774,6.297-2.323c1.734-1.549,2.602-3.435,2.602-5.657    v-7.299h-8.562v-13.891h24.514v21.341c0,6.129-2.389,11.323-7.164,15.583C1876.224,463.127,1870.496,465.257,1863.818,465.257z"
   fill="#FFFFFF" />

		<path
   id="path1250"
   d="M1921.364,442.931l-3.75,21.164h-16.007l17.294-92.133h21.212l17.07,92.133h-16.119l-3.638-21.164    H1921.364z M1929.424,393.076l-5.709,36.317h11.418L1929.424,393.076z"
   fill="#FFFFFF" />

		<path
   id="path1252"
   d="M1990.328,371.962l20.372,61.877v-61.877h15.392v92.133h-16.486l-21.181-58.997v58.997h-15.392v-92.133    H1990.328z"
   fill="#FFFFFF" />

	</g>

</g>

</svg>
