<?xml version="1.0" encoding="utf-8"?>
<!-- Generator: Adobe Illustrator 16.0.0, SVG Export Plug-In . SVG Version: 6.00 Build 0)  -->
<!DOCTYPE svg PUBLIC "-//W3C//DTD SVG 1.1//EN" "http://www.w3.org/Graphics/SVG/1.1/DTD/svg11.dtd">
<svg version="1.1" id="Capa_1" xmlns="http://www.w3.org/2000/svg" xmlns:xlink="http://www.w3.org/1999/xlink" x="0px" y="0px"
	 width="3017px" height="660px" viewBox="0 0 3017 660" enable-background="new 0 0 3017 660" xml:space="preserve">
<g>
	<g>
		<path fill="#179184" d="M1853.975,6.79c-151.957,0-275.142,123.185-275.142,275.142c0,151.956,123.185,275.141,275.142,275.141
			c151.956,0,275.141-123.185,275.141-275.141C2129.115,129.975,2005.931,6.79,1853.975,6.79z M2025.379,406.252L1979.402,361
			h-92.197l92.738,91.08c-35.21,26.081-78.786,41.611-125.969,41.611c-117.006,0-211.859-94.804-211.859-211.809
			c0-47.174,15.426-90.793,41.496-126L1733.785,205h92.199l-96.545-94.537c34.957-25.444,77.988-40.43,124.535-40.43
			c117.006,0,211.858,94.774,211.858,211.781C2065.833,328.352,2050.815,371.297,2025.379,406.252z"/>
		<polygon fill="#179184" points="1700,250 1725,250 1725,334 1750,334 1750,250 1774,250 1774,228 1700,228 		"/>
		<polygon fill="#179184" points="1862,270 1824,270 1824,228 1798,228 1798,334 1824,334 1824,292 1862,292 1862,334 1889,334 
			1889,228 1862,228 		"/>
		<path fill="#179184" d="M2000.686,292.994c-3.434,6.391-7.668,11.162-12.521,14.141c-5.172,3.056-10.615,4.541-16.64,4.541
			c-8.818,0-16.146-2.93-22.38-8.939c-6.215-6.064-9.236-13.17-9.236-21.723c0-8.552,3.021-15.658,9.217-21.703
			c6.256-6.028,13.582-8.959,22.399-8.959c6.005,0,11.435,1.519,16.639,4.667c4.886,2.888,9.097,7.6,12.518,14.006l1.94,3.634
			l22.669-9.48l-2.166-4.164c-5.542-10.66-12.843-18.781-21.663-24.115c-9.055-5.592-19.127-8.428-29.937-8.428
			c-7.56,0-14.915,1.429-21.917,4.264c-6.697,2.812-12.695,6.76-17.825,11.735c-5.13,4.975-9.201,10.768-12.129,17.287
			c-2.899,6.775-4.369,13.927-4.369,21.257c0,7.334,1.472,14.468,4.396,21.254c2.896,6.495,6.969,12.312,12.103,17.289
			c5.131,4.978,11.129,8.926,17.88,11.758c6.949,2.814,14.305,4.241,21.862,4.241c10.812,0,20.884-2.836,29.9-8.405
			c8.854-5.355,16.155-13.476,21.699-24.138l2.166-4.163l-22.66-9.477L2000.686,292.994z"/>
	</g>
	<g>
		<g>
			<polygon fill="#179184" points="1836,601 1852,601 1852,656 1869,656 1869,601 1885,601 1885,587 1836,587 			"/>
			<polygon fill="#179184" points="1941,613 1918,613 1918,587 1899,587 1899,656 1918,656 1918,630 1941,630 1941,656 1961,656 
				1961,587 1941,587 			"/>
			<path fill="#179184" d="M2032.988,629.24c-2.257,4.199-5.038,7.335-8.229,9.293c-3.398,2.008-6.975,2.984-10.934,2.984
				c-5.795,0-10.61-1.926-14.707-5.876c-4.084-3.983-6.069-8.653-6.069-14.274c0-5.62,1.985-10.287,6.057-14.262
				c4.11-3.96,8.925-5.887,14.72-5.887c3.945,0,7.514,0.998,10.933,3.066c3.211,1.897,5.979,4.994,8.226,9.203l1.276,2.389
				l14.896-6.23l-1.425-2.735c-3.641-7.005-8.438-12.342-14.233-15.847c-5.951-3.675-12.568-5.538-19.672-5.538
				c-4.969,0-9.802,0.938-14.403,2.803c-4.4,1.846-8.342,4.441-11.713,7.711c-3.371,3.268-6.047,7.074-7.971,11.358
				c-1.905,4.451-2.871,9.152-2.871,13.969c0,4.82,0.968,9.508,2.89,13.967c1.903,4.269,4.58,8.09,7.952,11.361
				s7.313,5.866,11.749,7.727c4.566,1.848,9.4,2.787,14.367,2.787c7.104,0,13.723-1.863,19.647-5.523
				c5.819-3.52,10.617-8.855,14.258-15.861l1.425-2.735l-14.889-6.228L2032.988,629.24z"/>
		</g>
		<g>
			<polygon fill="#179184" points="1716,657.876 1673.154,618.371 1673.138,656 1658,656 1658,582.163 1701.205,622.971 
				1700.51,587 1716,587 			"/>
			<path fill="#179184" d="M1766.268,586.428c-19.141,0-34.658,15.516-34.658,34.656c0,19.142,15.518,34.658,34.658,34.658
				s34.656-15.517,34.656-34.658C1800.924,601.943,1785.408,586.428,1766.268,586.428z M1766.268,640.493
				c-10.721,0-19.408-8.688-19.408-19.409c0-10.718,8.688-19.405,19.408-19.405c10.718,0,19.408,8.688,19.408,19.405
				C1785.676,631.805,1776.985,640.493,1766.268,640.493z"/>
		</g>
	</g>
</g>
<g>
	<path fill="#8BB568" d="M1255.333,163c10.667,10.666-38.431,95.017-67.109,112.694c-28.185,17.373-93.496,14.323-94.724,13.972
		c-2.333-0.667,76.995-68.651,72-73.5c-5.667-5.501-39.499,8.259-47.333,13.167c-13.833,8.666-55.072,45.486-55.167,44
		c-3-47,11.242-74.142,58.776-98.361C1151.794,159.678,1242.888,150.555,1255.333,163z"/>
	<path fill="#8BB568" d="M936.375,193c7.305-5.552,63.674,11.868,80.25,29.5c33.375,35.5,13.113,58.069,12.875,58.75
		c-0.453,1.295-23.57-32.549-26.5-29.5c-3.326,3.462,2.127,18.819,3.625,23.125c4,11.5,8.369,20.812,7.5,20.75
		c-16-1.125-41.945-14.094-55.217-27.68C936.25,244.75,933.25,195.375,936.375,193z"/>
	<g>
		<path fill="#539E51" d="M1067.715,3.729c-1.038,1.555-4.927,2.593-8.816,2.334c-17.888-1.038-74.409,17.369-98.263,32.409
			c-56.263,34.745-57.817,36.04-54.966,41.484c2.593,4.405,2.334,4.927-1.555,3.37c-8.039-3.111-16.853,8.039-16.853,21.003
			c0,6.221,1.035,11.146,2.332,11.146c3.889,0,22.299-21.518,25.927-30.334c2.854-6.739,5.446-8.557,16.076-11.15
			c8.816-2.07,15.037-5.701,20.222-11.925c4.408-4.927,9.075-8.816,10.632-8.816c1.555,0,9.333-3.368,17.63-7.518
			c8.037-4.149,25.927-10.632,39.41-14.26c13.48-3.89,28.521-9.335,33.187-11.929c7.259-4.406,8.297-4.406,8.297-0.775
			c0,2.852,1.035,3.369,3.37,1.556c6.482-5.187,24.371-5.704,50.559-1.556c21,3.369,28.001,3.629,31.891,1.297
			c6.481-4.149,12.705-3.889,17.63,0.259c4.927,4.147,23.076,9.591,32.151,9.591c4.924,0,6.482,1.038,5.443,3.889
			c-1.035,2.594,0.778,4.669,5.447,6.482c3.628,1.297,10.629,5.446,15.557,9.074c4.666,3.631,12.184,7.779,16.592,9.074
			c7.001,1.818,8.039,1.558,8.039-2.851c0-5.962,4.666-6.481,6.74-1.038c1.038,2.076,3.111,3.889,5.185,3.889
			c7.259,0,3.112-4.924-11.148-13.738c-34.225-20.742-70.004-33.447-112.266-39.671C1114.384,1.916,1069.27,0.878,1067.715,3.729z"
			/>
		<path fill="#539E51" d="M1258.281,64.916l-9.074,3.114l6.74,2.332c3.63,1.296,19.964,16.592,36.04,34.225l29.558,31.891
			l0.777-12.445l1.036-12.446l-26.963-25.148c-14.78-14.002-27.224-25.149-28.001-25.149
			C1267.614,61.549,1263.209,63.104,1258.281,64.916z"/>
		<path fill="#539E51" d="M1058.382,69.066c-22.818,4.924-48.227,13.482-60.929,20.48c-35.002,18.929-52.893,31.635-53.151,37.337
			c0,2.851-1.296,4.147-3.631,3.372c-5.963-2.334-11.926,6.74-11.926,17.628v10.112l10.11-9.852
			c5.705-5.705,11.667-13.482,13.483-17.372c1.815-4.667,4.927-7.52,8.036-7.52c6.224,0,19.188-6.74,22.038-11.146
			c2.077-3.373,31.113-17.891,42.264-21.004c24.889-7,41.483-13.224,41.483-15.557c0-1.814,0.778-1.557,2.074,0.262
			c1.555,2.332,4.667,2.332,13.222,0.258c8.556-2.334,12.444-2.076,16.334,0.259c3.372,2.076,13.483,3.112,29.039,2.593
			c18.149-0.517,25.408,0.258,31.89,3.631c4.669,2.334,11.928,4.405,16.336,4.405c4.666,0,7.778,1.297,7.778,3.373
			c0,3.89,25.409,19.962,31.63,19.962c2.334,0,4.927-2.07,5.446-4.664c1.036-4.149,1.297-4.149,1.555,0
			c0,2.594,2.074,4.664,4.15,4.664c6.482,0,1.813-6.221-9.854-12.964c-12.963-7.778-47.705-22.038-59.372-24.89
			c-16.333-3.631-19.187-3.889-52.632-4.927C1085.345,66.992,1064.864,67.77,1058.382,69.066z"/>
		<path fill="#539E51" d="M880.261,98.883c-4.928,2.073-21.261,25.928-25.928,38.113c-2.334,5.963-7.259,14.26-11.148,18.666
			c-9.075,9.854-18.929,31.635-24.115,53.15c-7.778,32.41-12.963,80.375-10.887,102.416c3.109,34.483,5.443,50.816,9.075,60.93
			c13.74,39.929,31.89,78.559,39.926,84.78c3.37,2.593,6.481,5.966,7.001,7.262c4.408,10.371,17.111,26.966,19.704,25.928
			c1.815-0.519,3.373,0.517,3.373,2.335c0,5.959,51.075,46.408,74.41,59.11c49.004,26.449,117.969,39.671,152.194,29.301
			c7.001-2.076,18.149-3.889,24.892-3.889c6.74,0,17.37-1.816,23.335-3.89c5.963-2.076,13.741-3.89,16.853-3.89
			c3.37,0,6.482-1.296,6.999-2.851c0.519-1.558,7.001-3.114,14.26-3.631c25.927-1.815,54.966-21.521,103.451-69.745
			c34.483-34.745,37.076-37.854,49.781-63.781c23.854-49.004,36.038-99.562,33.186-135.86c-1.038-11.406-2.334-24.631-2.851-28.781
			c-0.78-4.405-2.076-15.035-2.854-24.109c-2.074-19.188-5.186-22.56-7.517-8.3c-1.038,5.708-2.854,10.371-4.15,10.371
			c-2.851,0,0.261,50.3,3.37,51.338c1.296,0.518,1.557,7.518,0.78,15.558c-0.78,8.297-1.816,19.964-2.335,26.445
			c-0.519,6.482-2.073,14.519-3.889,17.631c-1.815,3.37-2.334,8.297-1.555,10.89c1.036,3.631,0.517,5.186-2.334,5.186
			c-2.073,0-4.408,3.37-5.443,8.295c-4.15,18.93-23.596,54.708-45.892,84.265c-16.076,21.521-20.223,25.669-46.15,46.151
			c-11.928,9.592-23.596,19.705-25.411,22.297c-1.813,2.593-5.963,4.928-9.075,4.928c-2.851,0-18.926,5.444-35.26,11.925
			c-42.003,16.854-94.635,26.707-112.784,21.523c-4.408-1.297-16.853-3.632-27.743-4.928c-19.185-2.594-66.892-17.893-85.3-27.224
			c-12.705-6.482-29.039-17.892-43.041-30.075c-6.74-5.966-17.373-12.964-23.593-16.078c-6.743-3.368-10.89-6.74-10.113-8.814
			c0.777-1.814,0.261-3.37-1.036-3.37c-1.815,0-13.225-17.11-31.893-47.965c-5.444-8.816-9.591-12.447-9.852-8.558
			c-0.519,9.596-20.481-64.039-20.481-75.19c0-6.482-2.334-11.145-9.075-17.888c-10.631-10.633-10.89-11.668-3.373-9.853
			c5.965,1.555,5.965,1.297,5.965-23.854c0-14.002,2.074-37.078,4.667-51.339c2.592-14.26,5.443-30.852,6.221-37.072
			c0.779-5.966,2.592-10.893,3.631-10.893c1.296,0,2.334-3.629,2.334-8.037c0-5.963,1.035-7.777,3.628-6.739
			c2.334,1.038,4.927-2.335,8.04-10.372c2.593-6.48,7.778-15.297,11.667-19.964c8.556-9.852,14.26-20.741,16.853-32.148
			c1.555-8.039,3.628-21.521,2.851-21.003C883.63,97.586,882.076,98.363,880.261,98.883z"/>
		<path fill="#539E51" d="M1228.207,114.958c-4.408,1.555-1.297,5.702,22.815,30.075l27.743,28.52v-10.629
			c0-9.854-1.296-11.668-21.78-30.336c-11.925-10.891-22.296-19.706-22.557-19.445
			C1233.909,113.403,1231.058,114.178,1228.207,114.958z"/>
		<path fill="#539E51" d="M1326.989,128.959c2.851,21.001,4.147,23.594,9.852,19.446c3.889-2.854,4.408-5.185,2.854-11.151
			c-1.039-4.146-2.593-5.962-3.112-4.405c-2.334,6.482-5.963,3.109-5.963-5.446c0-4.925-1.296-9.852-2.592-10.632
			C1325.951,115.475,1325.693,119.363,1326.989,128.959z"/>
		<path fill="#539E51" d="M916.04,151.256c-4.408,5.702-10.113,15.557-12.964,22.039c-2.851,6.223-6.224,12.444-7.778,13.48
			c-1.555,0.779-5.186,6.223-8.036,11.666c-23.854,46.67-27.485,135.603-7.779,180.199c2.593,5.701,7.779,17.369,11.667,25.927
			c3.628,8.556,9.591,18.408,12.703,22.039c3.37,3.63,9.335,11.408,13.224,17.63c4.667,7.259,8.556,10.631,11.148,9.594
			c2.332-0.78,3.112,0,2.332,2.334c-1.813,4.664,26.966,29.556,49.523,43.038c26.963,15.815,53.151,24.89,86.857,30.074
			c24.112,3.632,31.89,3.89,35.521,1.556c2.851-1.556,11.667-3.629,19.962-4.406c16.853-1.814,47.449-9.333,47.449-11.925
			c0-0.78,3.109-1.038,6.74-0.261c15.556,2.853,57.04-24.631,93.338-61.965c17.111-17.633,23.077-26.449,32.668-46.411
			c17.633-37.337,23.596-56.783,26.707-85.561c2.332-25.411-7.778-95.155-15.04-103.19c-2.332-2.594-4.406-6.482-4.406-8.559
			c0-4.666-11.151-28.262-13.225-28.262c-1.036,0-3.111,1.818-4.924,3.889c-2.593,3.115-2.077,6.482,2.592,17.892
			c3.109,7.778,7.778,16.075,10.629,18.667c2.852,2.594,4.408,6.222,3.631,8.299c-0.78,2.073,0,8.555,1.555,14.26l2.851,10.887
			l3.63-7.777l3.631-7.779l-1.558,7.779c-0.777,4.149-2.331,8.039-3.111,8.299c-2.851,1.035-0.517,43.039,2.334,46.667
			c1.816,2.077,1.555,8.3-0.519,18.671l-3.112,15.814l-214.159-0.257h-214.16l-9.074-9.336c-7.001-7.26-7.778-9.075-3.889-8.04
			c4.925,1.038,5.186,0,5.444-19.703c0.258-11.667,2.334-30.077,4.667-40.965c2.334-10.89,4.15-24.115,4.15-29.3
			c0-4.925,1.296-9.075,2.593-9.075c1.554,0,2.592-2.332,2.592-5.186c0-2.851,1.813-5.186,3.89-5.186
			c2.073,0,3.889-2.07,3.889-4.664c0-2.592,5.186-11.928,11.407-20.741c7.52-10.893,11.928-20.226,13.225-28.003
			c0.777-6.482,1.035-12.445,0.516-12.965C924.596,141.662,920.448,145.812,916.04,151.256z M951.3,349.34
			c9.594,10.112,16.076,29.301,11.667,33.706c-3.889,3.889-4.147,12.964-0.516,16.595c3.109,3.111-1.039,17.891-6.743,24.631
			c-2.073,2.076-3.628,4.927-3.628,6.224c0,3.369-8.816,8.816-14.521,9.074c-3.112,0-6.481-1.815-7.259-4.147
			c-1.815-4.927,0.519-9.596,3.889-7.52c1.296,1.038,4.147-0.258,6.482-2.593c3.37-3.111,3.631-4.928,1.296-7.262
			c-3.37-3.367-3.889-32.668-0.258-41.742c1.555-4.406,1.555-6.998-0.261-8.037c-1.296-1.038-1.815-3.889-1.036-6.224
			c0.777-2.593,0.517-7.259-0.78-10.629c-1.813-4.669-2.851-2.076-5.444,13.223c-1.815,10.629-4.408,21.261-5.963,24.113
			c-1.557,3.11-1.557,4.148,0.258,2.852c3.889-2.335,3.889,23.852,0,34.744c-3.37,9.85-7.001,9.333-13.482-2.076
			c-3.109-5.963-4.147-11.148-2.852-16.595c1.039-4.664,0.519-8.295-1.296-9.592c-2.334-1.295-2.074-4.669,0.777-13.222
			c2.334-6.223,4.15-14.002,4.15-17.374c0-12.442,11.667-26.186,22.296-26.444C940.929,341.045,946.895,344.934,951.3,349.34z
			 M1010.417,346.747c5.444,4.15,6.482,7.262,6.482,18.41c0,16.075-2.593,21.261-10.113,19.185
			c-6.74-1.555-7.001,2.593-0.777,13.486c2.333,4.404,5.963,7.518,7.778,6.739c2.074-0.78,3.112,1.554,3.112,6.481
			c0,5.186,1.296,7.779,3.889,7.779c2.074,0,3.889,1.037,3.889,2.592c0,1.297-1.038,2.593-2.334,2.593s-2.851,3.109-3.37,6.999
			c-0.519,6.223-2.074,7.261-8.556,7.261c-9.594,0-14.26-8.036-14.26-25.41c0-6.741-1.557-14.519-3.111-17.369
			c-2.593-4.147-2.334-6.482,1.296-12.964c6.482-10.63,3.37-36.557-3.63-32.151c-2.332,1.297-1.555,66.373,0.777,79.858
			c1.039,6.74-7.517,11.926-11.148,6.74c-2.073-2.852-3.111-3.112-4.147-0.779c-0.519,1.817-3.631,3.372-6.224,3.372
			c-3.112,0-4.408-1.038-3.37-2.851c2.073-3.632,2.073-77.524-0.258-88.153l-1.815-7.779l19.964,0.518
			C999.527,341.562,1005.748,342.858,1010.417,346.747z M1064.084,346.23c-0.517,2.851,0.52,2.594,3.112-0.779
			c3.37-4.406,3.889-4.147,5.446,3.373c1.035,4.666,0.516,9.332-1.038,11.408c-2.074,2.593-1.815,4.406,1.038,6.74
			c4.924,4.148,4.924,10.371,0,10.371c-3.631,0-7.52-9.333-5.965-14.519c0.261-1.296-2.333-5.185-5.963-8.816l-6.74-6.74
			l-3.37,11.926c-2.335,7.259-3.373,22.038-3.112,39.93c0.777,29.036,1.555,33.963,6.221,31.112
			c1.557-1.038,1.815-9.074,0.78-22.038c-1.815-19.706-1.557-20.483,3.628-20.483c3.112,0,5.446,1.554,5.704,3.109
			c0,2.592,0.519,2.592,1.555,0c1.296-3.629,18.929-4.406,18.929-0.517c0,1.296-2.334,3.63-5.446,5.186
			c-4.666,2.592-5.186,4.405-3.628,15.556c1.555,11.927,1.297,12.964-7.001,20.484c-4.667,4.405-10.89,8.036-13.483,8.036
			c-8.297,0-21-10.371-25.669-21.261c-5.443-12.188-5.443-15.037-0.777-15.037c2.074,0,4.408-2.334,5.446-4.928
			c0.778-2.851,3.889-5.962,6.74-6.74c5.186-1.815,7.001-6.482,2.334-6.482c-1.296,0-2.593,1.039-2.593,2.594
			c0,1.296-3.373,2.593-7.778,2.593c-8.816,0-9.075-1.297-4.927-20.226c3.63-17.627,14.779-29.037,27.743-28.26
			C1062.01,342.342,1064.604,343.639,1064.084,346.23z M1126.829,345.192c0.777,2.335,1.557,8.036,1.557,12.706
			c0,4.927,1.036,11.667,2.332,15.037c2.074,5.186,1.557,7.517-2.332,10.891c-3.889,3.369-4.15,5.185-1.815,7.777
			c1.815,2.073,3.628,2.334,4.667,0.778c0.777-1.297,3.631,7.517,6.224,19.444c5.963,26.964,11.148,28.002,12.184,2.333
			c1.039-21.777,5.965-24.371,8.039-3.89c0.777,8.3,2.332,17.891,3.112,21.521l1.555,6.481l-22.558,0.778
			c-24.89,0.777-26.963-0.261-26.963-14c0-5.186-2.334-9.854-6.223-13.225c-7.26-6.48-9.853-5.186-7.001,2.854
			c3.37,9.073,2.074,23.334-2.332,24.109c-5.446,1.038-15.04-6.741-11.409-9.075c3.37-2.07,6.74-11.667,7.778-22.555
			c0.519-4.408,2.074-14.26,3.631-22.039c1.555-7.777,2.593-16.853,2.593-20.225c0-3.109,1.296-5.702,2.593-5.702
			c1.555,0,2.593-1.815,2.593-3.889C1105.052,343.38,1122.94,335.08,1126.829,345.192z M1165.981,345.192
			c-2.854,2.076-7.262,3.373-9.594,2.852c-2.334-0.775-4.927,0-5.704,1.817c-0.778,1.813-2.074,1.555-3.889-1.037
			c-3.89-5.705-1.039-7.779,12.186-7.779C1170.387,341.304,1170.905,341.562,1165.981,345.192z M1208.761,345.192
			c0,2.076-1.038,3.373-2.334,2.594c-4.408-2.853-8.036,12.446-8.036,34.743c0,12.964-1.038,23.335-2.334,23.335
			c-1.555,0-1.815,4.147-1.038,9.073c0.78,5.187,0.261,10.63-1.555,12.707c-2.074,2.592-2.334,4.146-0.258,5.442
			c4.924,3.11,2.592,6.482-4.669,6.482c-6.482,0-7.518-1.297-10.63-12.447c-1.554-6.998-7.778-21.516-13.482-32.667
			c-15.814-30.595-13.482-46.669,6.224-41.742c6.74,1.812,8.036,3.89,16.853,32.408l5.444,16.854l-0.52-23.854
			c-0.258-13.225-1.296-24.112-2.074-24.112c-1.036,0-1.554-2.851-1.554-6.481c0-5.705,1.035-6.482,9.852-6.482
			C1206.168,341.045,1208.761,342.083,1208.761,345.192z M1219.391,345.451c0.258,4.41,0.519,4.41,1.555,0
			c1.815-6.481,13.744-5.96,13.744,0.521c0,2.852-1.039,5.702-2.077,6.482c-3.628,2.07-3.889,69.743-0.258,77.521
			c4.146,9.336,1.554,11.406-9.594,7.259c-7.001-2.592-9.853-2.592-12.703-0.258c-3.373,2.852-3.89-2.593-3.89-41.226
			c0-25.669,1.036-44.076,2.332-43.296c1.297,0.773,3.112-1.297,3.89-4.928C1214.205,340.008,1218.872,338.711,1219.391,345.451z
			 M1271.503,344.676c1.296,1.813,2.853,1.813,5.186-0.521c5.965-5.96,7.261-3.109,7.261,14.782c0,25.927-4.927,27.224-12.963,3.108
			c-4.408-13.221-9.075-16.072-11.409-7.52c-1.815,7.52-2.074,74.673,0,74.673c4.408,0,11.926-6.481,15.557-13.222
			c5.444-10.893,10.629-6.481,6.481,5.702c-6.74,19.188-22.038,24.114-34.482,10.63c-10.371-11.146-12.444-17.112-12.444-37.596
			c0-32.409,11.148-54.188,26.962-53.151C1266.06,341.822,1270.468,343.38,1271.503,344.676z"/>
		<path fill="#539E51" d="M1105.31,372.158c-0.258,6.482-1.038,16.072-1.815,21.258c-1.296,8.039-1.035,9.855,2.593,9.855
			c3.37,0,4.15-2.852,3.889-15.041c-0.258-8.036-1.296-17.627-2.332-21.258C1105.829,361.529,1105.568,362.564,1105.31,372.158z"/>
		<path fill="#539E51" d="M1120.608,399.124c0,0.517,1.812,2.331,3.889,4.147c3.109,2.593,3.889,2.593,3.889-1.039
			c0-2.334-1.815-4.147-3.889-4.147C1122.421,398.085,1120.608,398.603,1120.608,399.124z"/>
		<path fill="#539E51" d="M1341.507,149.18c-3.109,2.854-5.702,5.965-5.702,6.482c0,4.928,12.184,30.338,18.148,37.855
			c4.406,5.445,6.999,11.406,6.221,14.26c-0.519,2.854,0.52,10.11,2.593,16.593l3.631,11.667l4.408-10.371
			c5.185-12.184,3.889-25.666-3.89-33.706c-2.854-3.108-5.185-8.294-5.446-11.925c0-3.371-3.112-12.964-7.001-21.259l-6.999-15.04
			L1341.507,149.18z"/>
		<path fill="#539E51" d="M1282.135,163.439c0,4.15,0.519,11.151,1.554,15.299c1.558,7.262,1.558,7.262,6.224,2.335
			c4.925-5.705,3.37-14.779-2.334-12.706c-2.074,0.779-3.629-1.296-4.409-5.701C1282.135,155.923,1282.135,155.923,1282.135,163.439
			z"/>
	</g>
	<g>
		<path fill="#8BB568" d="M1058.812,335.969C1100.167,255,1151,231,1149.333,228.334c-3.699-5.916-93.333,51.5-113.667,107.666
			C1035.661,336.016,1058.79,336.013,1058.812,335.969z"/>
		<path fill="#8BB568" d="M1050.333,311.666c0,0-4.798,8.384-6.333,6.834c-7.917-8-36.919-50.691-34.5-52.166
			C1011.416,265.166,1050.333,311.666,1050.333,311.666z"/>
	</g>
</g>
<g>
	<circle fill="#D7E3DE" cx="2648.25" cy="291.25" r="289.25"/>
	<g>
		<path stroke="#000000" stroke-width="1.239" stroke-miterlimit="10" d="M2385.694,344.574c-1.308-1.651-3.081-2.872-5.316-3.664
			c-2.237-0.791-4.354-1.188-6.349-1.188c-1.171,0-2.374,0.139-3.613,0.413c-1.239,0.275-2.41,0.706-3.51,1.29
			c-1.102,0.586-1.997,1.36-2.685,2.323c-0.688,0.964-1.032,2.134-1.032,3.51c0,2.203,0.826,3.889,2.478,5.059
			c1.652,1.171,3.732,2.168,6.246,2.993c2.512,0.826,5.213,1.652,8.104,2.478c2.891,0.826,5.591,1.997,8.104,3.511
			c2.511,1.515,4.594,3.545,6.245,6.091c1.651,2.547,2.478,5.953,2.478,10.22c0,4.062-0.758,7.605-2.271,10.633
			c-1.514,3.029-3.562,5.541-6.142,7.536c-2.581,1.997-5.575,3.477-8.981,4.439c-3.407,0.963-7.004,1.445-10.788,1.445
			c-4.749,0-9.154-0.723-13.214-2.168c-4.062-1.445-7.846-3.784-11.355-7.021l11.459-12.594c1.651,2.203,3.732,3.906,6.245,5.109
			c2.512,1.205,5.11,1.807,7.794,1.807c1.307,0,2.633-0.154,3.975-0.464s2.546-0.774,3.613-1.394c1.066-0.62,1.926-1.41,2.581-2.375
			c0.653-0.963,0.98-2.099,0.98-3.406c0-2.202-0.844-3.939-2.529-5.214c-1.688-1.272-3.804-2.356-6.349-3.252
			c-2.547-0.894-5.301-1.788-8.259-2.684c-2.96-0.894-5.713-2.099-8.259-3.613c-2.547-1.513-4.663-3.51-6.349-5.987
			c-1.688-2.478-2.529-5.746-2.529-9.808c0-3.923,0.774-7.363,2.322-10.323c1.549-2.958,3.613-5.436,6.194-7.433
			c2.581-1.996,5.557-3.492,8.93-4.491c3.371-0.997,6.848-1.497,10.427-1.497c4.129,0,8.12,0.586,11.976,1.755
			c3.854,1.172,7.329,3.133,10.426,5.885L2385.694,344.574z"/>
		<path stroke="#000000" stroke-width="1.239" stroke-miterlimit="10" d="M2408.921,326.715h27.15c3.784,0,7.364,0.346,10.736,1.032
			c3.372,0.689,6.313,1.876,8.827,3.562c2.512,1.688,4.507,3.959,5.987,6.813c1.479,2.857,2.22,6.452,2.22,10.788
			c0,4.269-0.688,7.846-2.064,10.736c-1.378,2.891-3.271,5.197-5.679,6.917c-2.409,1.721-5.265,2.942-8.568,3.665
			c-3.303,0.723-6.883,1.084-10.736,1.084h-11.769v28.492h-16.104V326.715z M2425.025,357.686h10.736
			c1.445,0,2.839-0.138,4.182-0.413c1.342-0.274,2.545-0.739,3.612-1.394c1.066-0.653,1.927-1.549,2.581-2.685
			c0.653-1.136,0.981-2.562,0.981-4.284c0-1.858-0.431-3.354-1.291-4.49c-0.861-1.136-1.961-2.014-3.304-2.633
			c-1.342-0.619-2.839-1.015-4.49-1.188c-1.651-0.171-3.235-0.258-4.749-0.258h-8.259V357.686z"/>
		<path stroke="#000000" stroke-width="1.239" stroke-miterlimit="10" d="M2474.061,326.715h28.286
			c3.717,0,7.243,0.361,10.582,1.084c3.337,0.723,6.262,1.928,8.774,3.613c2.512,1.688,4.507,3.958,5.987,6.813
			c1.479,2.856,2.22,6.418,2.22,10.685c0,5.162-1.342,9.549-4.026,13.162c-2.684,3.613-6.606,5.902-11.769,6.865l18.582,30.867
			h-19.305l-15.278-29.215h-7.949v29.215h-16.104V326.715z M2490.165,356.963h9.498c1.445,0,2.976-0.052,4.594-0.155
			c1.616-0.104,3.079-0.413,4.388-0.929c1.307-0.517,2.391-1.324,3.252-2.427c0.859-1.1,1.29-2.648,1.29-4.646
			c0-1.857-0.379-3.337-1.136-4.438c-0.758-1.101-1.721-1.943-2.891-2.529c-1.171-0.584-2.513-0.98-4.026-1.188
			c-1.515-0.206-2.993-0.31-4.438-0.31h-10.53V356.963z"/>
		<path stroke="#000000" stroke-width="1.239" stroke-miterlimit="10" d="M2541.679,326.715h49.655v14.866h-33.551v13.627h31.692
			v14.865h-31.692v14.866h35.409v14.865h-51.514V326.715z"/>
		<path stroke="#000000" stroke-width="1.239" stroke-miterlimit="10" d="M2653.996,345.71c-1.584-1.926-3.528-3.406-5.833-4.438
			c-2.307-1.033-4.973-1.549-8.001-1.549c-3.029,0-5.832,0.585-8.413,1.755c-2.581,1.171-4.818,2.805-6.71,4.903
			c-1.895,2.101-3.373,4.594-4.439,7.484c-1.067,2.891-1.601,6.023-1.601,9.395c0,3.442,0.533,6.591,1.601,9.446
			c1.066,2.856,2.529,5.334,4.388,7.433c1.858,2.101,4.042,3.734,6.555,4.903c2.512,1.171,5.214,1.755,8.104,1.755
			c3.304,0,6.228-0.687,8.774-2.064c2.546-1.376,4.646-3.304,6.298-5.781l13.42,10.014c-3.097,4.336-7.02,7.536-11.769,9.601
			c-4.749,2.065-9.636,3.098-14.659,3.098c-5.713,0-10.979-0.896-15.795-2.685c-4.818-1.788-8.981-4.352-12.491-7.69
			c-3.51-3.338-6.246-7.382-8.207-12.13c-1.962-4.749-2.942-10.048-2.942-15.898c0-5.849,0.98-11.149,2.942-15.897
			c1.961-4.749,4.697-8.792,8.207-12.131c3.51-3.337,7.673-5.9,12.491-7.69c4.816-1.789,10.082-2.685,15.795-2.685
			c2.064,0,4.215,0.19,6.452,0.568c2.235,0.379,4.439,0.98,6.607,1.807c2.167,0.825,4.248,1.928,6.245,3.304
			c1.995,1.377,3.784,3.062,5.368,5.058L2653.996,345.71z"/>
		<path stroke="#000000" stroke-width="1.239" stroke-miterlimit="10" d="M2691.16,340.961h-20.854v-14.246h57.811v14.246h-20.853
			v58.844h-16.104V340.961z"/>
		<path stroke="#000000" stroke-width="1.239" stroke-miterlimit="10" d="M2736.375,326.715h28.286
			c3.717,0,7.243,0.361,10.582,1.084c3.337,0.723,6.262,1.928,8.774,3.613c2.512,1.688,4.507,3.958,5.987,6.813
			c1.479,2.856,2.22,6.418,2.22,10.685c0,5.162-1.342,9.549-4.026,13.162c-2.684,3.613-6.606,5.902-11.769,6.865l18.582,30.867
			h-19.305l-15.278-29.215h-7.949v29.215h-16.104V326.715z M2752.479,356.963h9.498c1.445,0,2.976-0.052,4.594-0.155
			c1.616-0.104,3.079-0.413,4.388-0.929c1.307-0.517,2.391-1.324,3.252-2.427c0.859-1.1,1.29-2.648,1.29-4.646
			c0-1.857-0.379-3.337-1.136-4.438c-0.758-1.101-1.721-1.943-2.891-2.529c-1.171-0.584-2.513-0.98-4.026-1.188
			c-1.515-0.206-2.993-0.31-4.438-0.31h-10.53V356.963z"/>
		<path stroke="#000000" stroke-width="1.239" stroke-miterlimit="10" d="M2865.005,371.622c0,4.336-0.655,8.328-1.961,11.975
			c-1.309,3.649-3.252,6.813-5.833,9.498c-2.581,2.684-5.799,4.784-9.652,6.297c-3.855,1.513-8.294,2.271-13.317,2.271
			c-5.094,0-9.566-0.759-13.421-2.271s-7.071-3.613-9.652-6.297c-2.58-2.685-4.525-5.849-5.832-9.498
			c-1.309-3.646-1.962-7.639-1.962-11.975v-44.907h16.104v44.287c0,2.271,0.361,4.372,1.084,6.298
			c0.723,1.928,1.737,3.597,3.046,5.007c1.307,1.411,2.872,2.513,4.697,3.304c1.822,0.792,3.802,1.187,5.936,1.187
			c2.133,0,4.094-0.395,5.885-1.187c1.788-0.791,3.337-1.893,4.646-3.304c1.307-1.41,2.322-3.079,3.045-5.007
			c0.723-1.926,1.084-4.026,1.084-6.298v-44.287h16.104V371.622z"/>
		<path stroke="#000000" stroke-width="1.239" stroke-miterlimit="10" d="M2879.973,326.715h24.363l16.827,47.694h0.207
			l16.93-47.694h24.261v73.09h-16.104v-56.056h-0.207l-19.201,56.056h-12.285l-18.479-56.056h-0.207v56.056h-16.104V326.715z"/>
	</g>
	<g>
		<path stroke="#000000" stroke-width="1.239" stroke-miterlimit="10" d="M2475.229,202.834h27.254c3.165,0,6.349,0.225,9.549,0.672
			s6.073,1.342,8.62,2.684c2.546,1.342,4.61,3.218,6.194,5.626c1.582,2.41,2.374,5.61,2.374,9.601c0,4.129-1.153,7.555-3.458,10.271
			c-2.307,2.721-5.352,4.664-9.136,5.834v0.205c2.408,0.346,4.594,1.018,6.555,2.014c1.962,0.998,3.647,2.271,5.059,3.82
			c1.41,1.548,2.494,3.354,3.252,5.42c0.757,2.064,1.136,4.268,1.136,6.606c0,3.854-0.826,7.071-2.478,9.652
			c-1.652,2.581-3.786,4.663-6.4,6.245c-2.616,1.584-5.559,2.72-8.827,3.407c-3.27,0.688-6.521,1.032-9.755,1.032h-29.938V202.834z
			 M2491.333,232.049h11.666c1.238,0,2.46-0.137,3.664-0.412c1.204-0.274,2.288-0.723,3.252-1.342
			c0.963-0.62,1.737-1.445,2.323-2.479c0.584-1.031,0.877-2.271,0.877-3.716c0-1.513-0.327-2.771-0.98-3.769
			c-0.654-0.996-1.497-1.771-2.529-2.322s-2.203-0.945-3.51-1.188c-1.309-0.24-2.581-0.361-3.819-0.361h-10.943V232.049z
			 M2491.333,262.297h14.453c1.238,0,2.493-0.137,3.768-0.413c1.273-0.274,2.427-0.757,3.459-1.444s1.874-1.583,2.529-2.685
			c0.653-1.101,0.98-2.442,0.98-4.026c0-1.72-0.431-3.113-1.291-4.182c-0.861-1.065-1.945-1.873-3.251-2.426
			c-1.309-0.55-2.72-0.929-4.233-1.135c-1.515-0.207-2.926-0.311-4.232-0.311h-12.182V262.297z"/>
		<path stroke="#000000" stroke-width="1.239" stroke-miterlimit="10" d="M2542.124,202.834h28.286
			c3.717,0,7.243,0.361,10.582,1.084c3.337,0.723,6.262,1.928,8.774,3.613c2.512,1.688,4.507,3.959,5.987,6.813
			c1.479,2.856,2.22,6.419,2.22,10.685c0,5.162-1.342,9.549-4.026,13.162c-2.684,3.613-6.606,5.902-11.769,6.865l18.582,30.867
			h-19.305l-15.278-29.215h-7.949v29.215h-16.104V202.834z M2558.229,233.082h9.498c1.445,0,2.976-0.052,4.594-0.155
			c1.616-0.103,3.079-0.413,4.388-0.929c1.307-0.517,2.391-1.324,3.252-2.426c0.859-1.101,1.29-2.648,1.29-4.646
			c0-1.857-0.379-3.337-1.136-4.438c-0.758-1.101-1.721-1.944-2.891-2.529c-1.171-0.584-2.513-0.981-4.026-1.188
			c-1.515-0.206-2.993-0.31-4.438-0.31h-10.53V233.082z"/>
		<path stroke="#000000" stroke-width="1.239" stroke-miterlimit="10" d="M2605.096,239.379c0-5.849,0.98-11.149,2.942-15.898
			c1.961-4.748,4.697-8.791,8.207-12.129s7.673-5.9,12.491-7.691c4.816-1.789,10.082-2.684,15.795-2.684
			c5.712,0,10.977,0.895,15.795,2.684c4.816,1.791,8.981,4.354,12.491,7.691s6.246,7.381,8.207,12.129
			c1.962,4.749,2.942,10.05,2.942,15.898c0,5.851-0.98,11.149-2.942,15.898c-1.961,4.748-4.697,8.793-8.207,12.13
			c-3.51,3.339-7.675,5.901-12.491,7.69c-4.818,1.789-10.083,2.685-15.795,2.685c-5.713,0-10.979-0.896-15.795-2.685
			c-4.818-1.789-8.981-4.352-12.491-7.69c-3.51-3.337-6.246-7.382-8.207-12.13C2606.076,250.528,2605.096,245.229,2605.096,239.379z
			 M2621.819,239.379c0,3.442,0.533,6.591,1.601,9.445c1.066,2.857,2.597,5.335,4.594,7.434c1.995,2.1,4.388,3.734,7.175,4.903
			c2.787,1.171,5.9,1.755,9.343,1.755c3.44,0,6.556-0.584,9.343-1.755c2.787-1.169,5.178-2.804,7.175-4.903
			c1.995-2.099,3.526-4.576,4.594-7.434c1.066-2.854,1.601-6.003,1.601-9.445c0-3.371-0.534-6.504-1.601-9.395
			c-1.067-2.891-2.599-5.384-4.594-7.484c-1.997-2.098-4.388-3.732-7.175-4.903c-2.787-1.169-5.902-1.755-9.343-1.755
			c-3.442,0-6.556,0.586-9.343,1.755c-2.787,1.171-5.18,2.806-7.175,4.903c-1.997,2.101-3.527,4.594-4.594,7.484
			C2622.353,232.875,2621.819,236.008,2621.819,239.379z"/>
		<path stroke="#000000" stroke-width="1.239" stroke-miterlimit="10" d="M2718.962,202.834h13.317l31.796,73.09h-18.169
			l-6.298-15.484h-28.389l-6.091,15.484h-17.757L2718.962,202.834z M2725.156,224.101l-8.878,22.712h17.859L2725.156,224.101z"/>
		<path stroke="#000000" stroke-width="1.239" stroke-miterlimit="10" d="M2771.404,202.834h24.157
			c5.849,0,11.407,0.655,16.672,1.961c5.265,1.309,9.859,3.426,13.782,6.35c3.923,2.926,7.036,6.729,9.343,11.407
			c2.305,4.681,3.458,10.358,3.458,17.034c0,5.92-1.119,11.133-3.355,15.64c-2.237,4.509-5.248,8.294-9.032,11.355
			c-3.786,3.063-8.156,5.386-13.111,6.968c-4.955,1.584-10.152,2.375-15.588,2.375h-26.325V202.834z M2787.509,261.059h8.362
			c3.717,0,7.175-0.378,10.375-1.137c3.2-0.756,5.97-2.012,8.311-3.768c2.339-1.755,4.181-4.06,5.522-6.916
			c1.343-2.855,2.014-6.35,2.014-10.479c0-3.578-0.671-6.693-2.014-9.343c-1.342-2.648-3.148-4.835-5.42-6.556
			c-2.271-1.719-4.938-3.01-8-3.871c-3.063-0.859-6.281-1.291-9.652-1.291h-9.498V261.059z"/>
	</g>
</g>
<g>
	<g>
		<g>
			<g>
				<rect x="290" y="123" fill="#C33254" width="315" height="24"/>
				<rect x="290" y="174" fill="#C33254" width="315" height="26"/>
				<rect x="290" y="226" fill="#C33254" width="315" height="26"/>
				<rect x="290" y="279" fill="#C33254" width="315" height="27"/>
				<rect x="54" y="332" fill="#C33254" width="551" height="27"/>
				<rect x="54" y="385" fill="#C33254" width="551" height="26"/>
				<rect x="54" y="437" fill="#C33254" width="551" height="24"/>
			</g>
			<rect x="54" y="124" fill="#1168A2" width="237" height="183"/>
		</g>
		<g>
			<polygon fill="#FFFFFF" points="88,148.957 90.888,154.809 97.344,155.746 92.672,160.301 93.775,166.73 88,163.695 
				82.225,166.73 83.328,160.301 78.656,155.746 85.112,154.809 			"/>
			<polygon fill="#FFFFFF" points="129,148.957 131.888,154.809 138.344,155.746 133.672,160.301 134.775,166.73 129,163.695 
				123.225,166.73 124.328,160.301 119.656,155.746 126.112,154.809 			"/>
			<polygon fill="#FFFFFF" points="170,148.957 172.888,154.809 179.344,155.746 174.672,160.301 175.775,166.73 170,163.695 
				164.225,166.73 165.328,160.301 160.656,155.746 167.112,154.809 			"/>
			<polygon fill="#FFFFFF" points="211,148.957 213.888,154.809 220.344,155.746 215.672,160.301 216.775,166.73 211,163.695 
				205.225,166.73 206.328,160.301 201.656,155.746 208.112,154.809 			"/>
			<polygon fill="#FFFFFF" points="252,148.957 254.888,154.809 261.344,155.746 256.672,160.301 257.775,166.73 252,163.695 
				246.225,166.73 247.328,160.301 242.656,155.746 249.112,154.809 			"/>
			<polygon fill="#FFFFFF" points="68,128.957 70.888,134.809 77.344,135.746 72.672,140.301 73.775,146.73 68,143.695 
				62.225,146.73 63.328,140.301 58.656,135.746 65.112,134.809 			"/>
			<polygon fill="#FFFFFF" points="109,128.957 111.888,134.809 118.344,135.746 113.672,140.301 114.775,146.73 109,143.695 
				103.225,146.73 104.328,140.301 99.656,135.746 106.112,134.809 			"/>
			<polygon fill="#FFFFFF" points="150,128.957 152.888,134.809 159.344,135.746 154.672,140.301 155.775,146.73 150,143.695 
				144.225,146.73 145.328,140.301 140.656,135.746 147.112,134.809 			"/>
			<polygon fill="#FFFFFF" points="191,128.957 193.888,134.809 200.344,135.746 195.672,140.301 196.775,146.73 191,143.695 
				185.225,146.73 186.328,140.301 181.656,135.746 188.112,134.809 			"/>
			<polygon fill="#FFFFFF" points="232,128.957 234.888,134.809 241.344,135.746 236.672,140.301 237.775,146.73 232,143.695 
				226.225,146.73 227.328,140.301 222.656,135.746 229.112,134.809 			"/>
			<polygon fill="#FFFFFF" points="273,128.957 275.888,134.809 282.344,135.746 277.672,140.301 278.775,146.73 273,143.695 
				267.225,146.73 268.328,140.301 263.656,135.746 270.112,134.809 			"/>
			<polygon fill="#FFFFFF" points="68,167.957 70.888,173.809 77.344,174.746 72.672,179.301 73.775,185.73 68,182.695 
				62.225,185.73 63.328,179.301 58.656,174.746 65.112,173.809 			"/>
			<polygon fill="#FFFFFF" points="109,167.957 111.888,173.809 118.344,174.746 113.672,179.301 114.775,185.73 109,182.695 
				103.225,185.73 104.328,179.301 99.656,174.746 106.112,173.809 			"/>
			<polygon fill="#FFFFFF" points="150,167.957 152.888,173.809 159.344,174.746 154.672,179.301 155.775,185.73 150,182.695 
				144.225,185.73 145.328,179.301 140.656,174.746 147.112,173.809 			"/>
			<polygon fill="#FFFFFF" points="191,167.957 193.888,173.809 200.344,174.746 195.672,179.301 196.775,185.73 191,182.695 
				185.225,185.73 186.328,179.301 181.656,174.746 188.112,173.809 			"/>
			<polygon fill="#FFFFFF" points="232,167.957 234.888,173.809 241.344,174.746 236.672,179.301 237.775,185.73 232,182.695 
				226.225,185.73 227.328,179.301 222.656,174.746 229.112,173.809 			"/>
			<polygon fill="#FFFFFF" points="273,167.957 275.888,173.809 282.344,174.746 277.672,179.301 278.775,185.73 273,182.695 
				267.225,185.73 268.328,179.301 263.656,174.746 270.112,173.809 			"/>
			<polygon fill="#FFFFFF" points="68,206.957 70.888,212.809 77.344,213.746 72.672,218.301 73.775,224.73 68,221.695 
				62.225,224.73 63.328,218.301 58.656,213.746 65.112,212.809 			"/>
			<polygon fill="#FFFFFF" points="109,206.957 111.888,212.809 118.344,213.746 113.672,218.301 114.775,224.73 109,221.695 
				103.225,224.73 104.328,218.301 99.656,213.746 106.112,212.809 			"/>
			<polygon fill="#FFFFFF" points="150,206.957 152.888,212.809 159.344,213.746 154.672,218.301 155.775,224.73 150,221.695 
				144.225,224.73 145.328,218.301 140.656,213.746 147.112,212.809 			"/>
			<polygon fill="#FFFFFF" points="191,206.957 193.888,212.809 200.344,213.746 195.672,218.301 196.775,224.73 191,221.695 
				185.225,224.73 186.328,218.301 181.656,213.746 188.112,212.809 			"/>
			<polygon fill="#FFFFFF" points="232,206.957 234.888,212.809 241.344,213.746 236.672,218.301 237.775,224.73 232,221.695 
				226.225,224.73 227.328,218.301 222.656,213.746 229.112,212.809 			"/>
			<polygon fill="#FFFFFF" points="273,206.957 275.888,212.809 282.344,213.746 277.672,218.301 278.775,224.73 273,221.695 
				267.225,224.73 268.328,218.301 263.656,213.746 270.112,212.809 			"/>
			<polygon fill="#FFFFFF" points="68,245.957 70.888,251.809 77.344,252.746 72.672,257.301 73.775,263.73 68,260.695 
				62.225,263.73 63.328,257.301 58.656,252.746 65.112,251.809 			"/>
			<polygon fill="#FFFFFF" points="109,245.957 111.888,251.809 118.344,252.746 113.672,257.301 114.775,263.73 109,260.695 
				103.225,263.73 104.328,257.301 99.656,252.746 106.112,251.809 			"/>
			<polygon fill="#FFFFFF" points="150,245.957 152.888,251.809 159.344,252.746 154.672,257.301 155.775,263.73 150,260.695 
				144.225,263.73 145.328,257.301 140.656,252.746 147.112,251.809 			"/>
			<polygon fill="#FFFFFF" points="191,245.957 193.888,251.809 200.344,252.746 195.672,257.301 196.775,263.73 191,260.695 
				185.225,263.73 186.328,257.301 181.656,252.746 188.112,251.809 			"/>
			<polygon fill="#FFFFFF" points="232,245.957 234.888,251.809 241.344,252.746 236.672,257.301 237.775,263.73 232,260.695 
				226.225,263.73 227.328,257.301 222.656,252.746 229.112,251.809 			"/>
			<polygon fill="#FFFFFF" points="273,245.957 275.888,251.809 282.344,252.746 277.672,257.301 278.775,263.73 273,260.695 
				267.225,263.73 268.328,257.301 263.656,252.746 270.112,251.809 			"/>
			<polygon fill="#FFFFFF" points="68,284.957 70.888,290.809 77.344,291.746 72.672,296.301 73.775,302.73 68,299.695 
				62.225,302.73 63.328,296.301 58.656,291.746 65.112,290.809 			"/>
			<polygon fill="#FFFFFF" points="109,284.957 111.888,290.809 118.344,291.746 113.672,296.301 114.775,302.73 109,299.695 
				103.225,302.73 104.328,296.301 99.656,291.746 106.112,290.809 			"/>
			<polygon fill="#FFFFFF" points="150,284.957 152.888,290.809 159.344,291.746 154.672,296.301 155.775,302.73 150,299.695 
				144.225,302.73 145.328,296.301 140.656,291.746 147.112,290.809 			"/>
			<polygon fill="#FFFFFF" points="191,284.957 193.888,290.809 200.344,291.746 195.672,296.301 196.775,302.73 191,299.695 
				185.225,302.73 186.328,296.301 181.656,291.746 188.112,290.809 			"/>
			<polygon fill="#FFFFFF" points="232,284.957 234.888,290.809 241.344,291.746 236.672,296.301 237.775,302.73 232,299.695 
				226.225,302.73 227.328,296.301 222.656,291.746 229.112,290.809 			"/>
			<polygon fill="#FFFFFF" points="273,284.957 275.888,290.809 282.344,291.746 277.672,296.301 278.775,302.73 273,299.695 
				267.225,302.73 268.328,296.301 263.656,291.746 270.112,290.809 			"/>
			<polygon fill="#FFFFFF" points="88,187.957 90.888,193.809 97.344,194.746 92.672,199.301 93.775,205.73 88,202.695 
				82.225,205.73 83.328,199.301 78.656,194.746 85.112,193.809 			"/>
			<polygon fill="#FFFFFF" points="129,187.957 131.888,193.809 138.344,194.746 133.672,199.301 134.775,205.73 129,202.695 
				123.225,205.73 124.328,199.301 119.656,194.746 126.112,193.809 			"/>
			<polygon fill="#FFFFFF" points="170,187.957 172.888,193.809 179.344,194.746 174.672,199.301 175.775,205.73 170,202.695 
				164.225,205.73 165.328,199.301 160.656,194.746 167.112,193.809 			"/>
			<polygon fill="#FFFFFF" points="211,187.957 213.888,193.809 220.344,194.746 215.672,199.301 216.775,205.73 211,202.695 
				205.225,205.73 206.328,199.301 201.656,194.746 208.112,193.809 			"/>
			<polygon fill="#FFFFFF" points="252,187.957 254.888,193.809 261.344,194.746 256.672,199.301 257.775,205.73 252,202.695 
				246.225,205.73 247.328,199.301 242.656,194.746 249.112,193.809 			"/>
			<polygon fill="#FFFFFF" points="88,226.957 90.888,232.809 97.344,233.746 92.672,238.301 93.775,244.73 88,241.695 
				82.225,244.73 83.328,238.301 78.656,233.746 85.112,232.809 			"/>
			<polygon fill="#FFFFFF" points="129,226.957 131.888,232.809 138.344,233.746 133.672,238.301 134.775,244.73 129,241.695 
				123.225,244.73 124.328,238.301 119.656,233.746 126.112,232.809 			"/>
			<polygon fill="#FFFFFF" points="170,226.957 172.888,232.809 179.344,233.746 174.672,238.301 175.775,244.73 170,241.695 
				164.225,244.73 165.328,238.301 160.656,233.746 167.112,232.809 			"/>
			<polygon fill="#FFFFFF" points="211,226.957 213.888,232.809 220.344,233.746 215.672,238.301 216.775,244.73 211,241.695 
				205.225,244.73 206.328,238.301 201.656,233.746 208.112,232.809 			"/>
			<polygon fill="#FFFFFF" points="252,226.957 254.888,232.809 261.344,233.746 256.672,238.301 257.775,244.73 252,241.695 
				246.225,244.73 247.328,238.301 242.656,233.746 249.112,232.809 			"/>
			<polygon fill="#FFFFFF" points="88,265.957 90.888,271.809 97.344,272.746 92.672,277.301 93.775,283.73 88,280.695 
				82.225,283.73 83.328,277.301 78.656,272.746 85.112,271.809 			"/>
			<polygon fill="#FFFFFF" points="129,265.957 131.888,271.809 138.344,272.746 133.672,277.301 134.775,283.73 129,280.695 
				123.225,283.73 124.328,277.301 119.656,272.746 126.112,271.809 			"/>
			<polygon fill="#FFFFFF" points="170,265.957 172.888,271.809 179.344,272.746 174.672,277.301 175.775,283.73 170,280.695 
				164.225,283.73 165.328,277.301 160.656,272.746 167.112,271.809 			"/>
			<polygon fill="#FFFFFF" points="211,265.957 213.888,271.809 220.344,272.746 215.672,277.301 216.775,283.73 211,280.695 
				205.225,283.73 206.328,277.301 201.656,272.746 208.112,271.809 			"/>
			<polygon fill="#FFFFFF" points="252,265.957 254.888,271.809 261.344,272.746 256.672,277.301 257.775,283.73 252,280.695 
				246.225,283.73 247.328,277.301 242.656,272.746 249.112,271.809 			"/>
		</g>
	</g>
	<g>
		<polygon points="112.797,95.006 106.782,95.006 68.282,39.57 68.282,95.006 60.784,95.006 60.784,33.276 73.002,33.276 
			109.834,86.211 146.853,33.276 158.884,33.276 158.884,95.006 151.389,95.006 151.389,39.57 		"/>
		<path d="M189.972,74.922L211.26,38.74l21.562,36.182H189.972L189.972,74.922z M236.336,81.124l8.052,13.882h8.607l-36.74-61.729
			h-9.993l-36.461,61.729h8.789l7.868-13.882H236.336L236.336,81.124z"/>
		<path d="M271.499,88.805V39.57h42.385c17.398,0,18.416,8.791,18.416,23.781c0,15.736-0.279,25.453-19.158,25.453H271.499
			L271.499,88.805z M312.311,95.006h0.739c7.035,0,15.364-0.092,20.545-5.277c5.924-6.109,6.479-18.51,6.479-26.469
			c0-19.344-3.238-29.891-24.525-29.891H264V95h48.311V95.006z"/>
		<polygon points="367.081,59.932 418.813,59.932 418.813,66.131 367.081,66.131 367.081,88.805 421.403,88.805 421.403,95.006 
			359.587,95.006 359.587,33.276 420.757,33.276 420.757,39.57 367.081,39.57 		"/>
		<polygon points="507.625,33.276 507.625,95.006 500.128,95.006 500.128,33.276 		"/>
		<polygon points="536.488,95.006 528.988,95.006 528.988,33.276 541.483,33.276 598.398,89.08 598.398,33.276 605.894,33.276 
			605.894,95.006 593.585,95.006 536.488,38.921 		"/>
		<path d="M139.372,490.339v42.573c0,18.881-7.774,19.157-24.986,19.625c-4.071,0.089-8.237,0.089-12.4,0.089
			c-5.83,0-11.755-0.089-17.678-0.282c-12.121-0.455-17.583-4.995-17.583-17.208v-44.797h7.495v43.964
			c0,10.64,4.998,11.381,14.713,11.564l13.234,0.185l14.348-0.276c10.271-0.276,15.359-0.836,15.359-12.122v-1.39v-41.925H139.372
			L139.372,490.339z"/>
		<polygon points="181.096,541.888 181.096,551.977 171.842,551.977 171.842,541.888 		"/>
		<path d="M348.665,507.372c0-3.239-0.37-7.504-3.792-9.077c-4.166-2.029-14.065-2.125-20.174-2.125h-2.593
			c-5.74,0-17.491,0.368-22.672,2.682c-3.422,1.481-4.071,5.177-4.071,8.604c0,8.052,5.09,9.443,12.12,9.72
			c2.223,0.184,4.535,0.184,6.754,0.184c4.812,0,9.717-0.09,14.533-0.09c4.256,0,8.604,0.09,12.863,0.558
			c11.381,1.206,16.104,4.996,16.104,16.656c0,6.854-1.485,12.309-8.24,15.269c-5.736,2.59-15.177,2.782-22.672,2.782h-4.902
			c-6.2,0-12.584-0.098-18.79-0.934c-12.954-1.662-15.544-6.102-15.544-18.872h7.495v1.293c0.095,4.905,0.095,8.791,5.462,10.363
			c5.644,1.575,15.735,1.667,21.75,1.667c5.827,0,11.751-0.276,17.488-1.018c7.034-0.832,10.178-3.33,10.178-10.548
			c0-9.532-4.996-10.09-13.602-10.271l-14.159-0.188c-5.55-0.087-11.105-0.087-16.565-0.461c-10.737-0.649-18.14-3.334-18.14-14.62
			c0-7.502,1.944-13.885,9.442-16.75c6.57-2.409,18.506-2.59,25.633-2.59c6.015,0,12.215,0.185,18.232,0.833
			c10.824,1.111,15.36,6.294,15.36,16.934h-7.5V507.372z"/>
		<polygon points="397.422,541.888 397.422,551.977 388.172,551.977 388.172,541.888 		"/>
		<path d="M511.136,538.099l-7.867,13.878h-8.794l36.46-61.726h9.998l36.739,61.726h-8.601l-8.051-13.878H511.136L511.136,538.099z
			 M557.502,531.896l-21.565-36.191l-21.284,36.191H557.502L557.502,531.896z"/>
		<polygon points="609.507,541.888 609.507,551.977 600.253,551.977 600.253,541.888 		"/>
	</g>
</g>
</svg>
