<?xml version="1.0" encoding="UTF-8" standalone="no"?>
<svg
   xmlns:dc="http://purl.org/dc/elements/1.1/"
   xmlns:cc="http://creativecommons.org/ns#"
   xmlns:rdf="http://www.w3.org/1999/02/22-rdf-syntax-ns#"
   xmlns:svg="http://www.w3.org/2000/svg"
   xmlns="http://www.w3.org/2000/svg"
   xmlns:sodipodi="http://sodipodi.sourceforge.net/DTD/sodipodi-0.dtd"
   xmlns:inkscape="http://www.inkscape.org/namespaces/inkscape"
   version="1.1"
   id="Capa_1"
   x="0px"
   y="0px"
   width="3017px"
   height="660px"
   viewBox="0 0 3017 660"
   enable-background="new 0 0 3017 660"
   xml:space="preserve"
   sodipodi:docname="certification1.svg"
   inkscape:version="1.0beta1 (32d4812, 2019-09-19)"><metadata
   id="metadata1856">
  <rdf:RDF>
    <cc:Work
   rdf:about="">
      <dc:format>image/svg+xml</dc:format>

      <dc:type
   rdf:resource="http://purl.org/dc/dcmitype/StillImage" />

    </cc:Work>

  </rdf:RDF>

</metadata>

<defs
   id="defs1854" />

<sodipodi:namedview
   pagecolor="#ffffff"
   bordercolor="#666666"
   inkscape:document-rotation="0"
   borderopacity="1"
   objecttolerance="10"
   gridtolerance="10"
   guidetolerance="10"
   inkscape:pageopacity="0"
   inkscape:pageshadow="2"
   inkscape:window-width="1280"
   inkscape:window-height="713"
   id="namedview1852"
   showgrid="false"
   inkscape:zoom="0.74962541"
   inkscape:cx="2646.2637"
   inkscape:cy="359.68327"
   inkscape:window-x="0"
   inkscape:window-y="23"
   inkscape:window-maximized="0"
   inkscape:current-layer="g1681" />


<g
   id="g1849">
	<circle
   opacity="0.8"
   fill="#FFFFFF"
   cx="1097"
   cy="290.562"
   r="284"
   id="circle1591" />


	<circle
   opacity="0.8"
   fill="#FFFFFF"
   cx="1851"
   cy="282.562"
   r="266"
   id="circle1593" />


	<rect
   x="55"
   y="124.562"
   fill="#FFFFFF"
   width="550"
   height="335"
   id="rect1595" />


	<g
   id="g1623">
		<g
   id="g1605">
			<path
   fill="#179184"
   d="M1853.975,6.852c-151.957,0-275.142,123.185-275.142,275.142c0,151.956,123.185,275.141,275.142,275.141     c151.956,0,275.142-123.186,275.142-275.141C2129.115,130.037,2005.932,6.852,1853.975,6.852z M2025.379,406.314l-45.977-45.252     h-92.197l92.738,91.08c-35.211,26.08-78.786,41.611-125.969,41.611c-117.007,0-211.859-94.805-211.859-211.81     c0-47.174,15.426-90.793,41.496-126l50.174,49.118h92.199l-96.545-94.537c34.957-25.443,77.987-40.43,124.535-40.43     c117.006,0,211.857,94.773,211.857,211.781C2065.833,328.414,2050.814,371.359,2025.379,406.314z"
   id="path1597" />


			<polygon
   fill="#179184"
   points="1700,250.062 1725,250.062 1725,334.062 1750,334.062 1750,250.062 1774,250.062 1774,228.062      1700,228.062    "
   id="polygon1599" />


			<polygon
   fill="#179184"
   points="1862,270.062 1824,270.062 1824,228.062 1798,228.062 1798,334.062 1824,334.062 1824,292.062      1862,292.062 1862,334.062 1889,334.062 1889,228.062 1862,228.062    "
   id="polygon1601" />


			<path
   fill="#179184"
   d="M2000.686,293.056c-3.434,6.391-7.668,11.162-12.521,14.141c-5.172,3.057-10.615,4.541-16.64,4.541     c-8.818,0-16.146-2.93-22.381-8.939c-6.215-6.063-9.235-13.17-9.235-21.723c0-8.552,3.021-15.658,9.217-21.703     c6.256-6.027,13.582-8.959,22.399-8.959c6.005,0,11.435,1.52,16.639,4.668c4.887,2.888,9.098,7.6,12.518,14.006l1.94,3.634     l22.669-9.479l-2.166-4.164c-5.542-10.66-12.843-18.781-21.663-24.115c-9.055-5.592-19.127-8.428-29.937-8.428     c-7.561,0-14.916,1.428-21.918,4.264c-6.696,2.812-12.694,6.76-17.824,11.734s-9.201,10.769-12.129,17.287     c-2.899,6.775-4.369,13.928-4.369,21.258c0,7.334,1.472,14.467,4.396,21.254c2.896,6.494,6.969,12.312,12.103,17.288     c5.131,4.979,11.129,8.927,17.88,11.759c6.949,2.812,14.305,4.24,21.862,4.24c10.812,0,20.884-2.836,29.899-8.405     c8.854-5.355,16.155-13.477,21.699-24.139l2.166-4.162l-22.66-9.478L2000.686,293.056z"
   id="path1603" />


		</g>


		<g
   id="g1621">
			<g
   id="g1613">
				<polygon
   fill="#179184"
   points="1836,601.062 1852,601.062 1852,656.062 1869,656.062 1869,601.062 1885,601.062 1885,587.062       1836,587.062     "
   id="polygon1607" />


				<polygon
   fill="#179184"
   points="1941,613.062 1918,613.062 1918,587.062 1899,587.062 1899,656.062 1918,656.062 1918,630.062       1941,630.062 1941,656.062 1961,656.062 1961,587.062 1941,587.062     "
   id="polygon1609" />


				<path
   fill="#179184"
   d="M2032.988,629.303c-2.258,4.199-5.038,7.334-8.229,9.293c-3.397,2.008-6.975,2.982-10.934,2.982      c-5.795,0-10.61-1.926-14.707-5.875c-4.084-3.982-6.069-8.652-6.069-14.273s1.985-10.287,6.057-14.262      c4.11-3.961,8.926-5.889,14.721-5.889c3.945,0,7.514,0.998,10.933,3.066c3.212,1.896,5.979,4.994,8.226,9.203l1.276,2.389      l14.896-6.229l-1.425-2.736c-3.642-7.004-8.438-12.342-14.233-15.846c-5.951-3.676-12.568-5.539-19.672-5.539      c-4.97,0-9.802,0.938-14.403,2.803c-4.4,1.846-8.342,4.441-11.713,7.711c-3.371,3.268-6.047,7.074-7.971,11.359      c-1.905,4.449-2.871,9.15-2.871,13.969s0.968,9.508,2.89,13.967c1.903,4.268,4.58,8.09,7.952,11.361      c3.372,3.27,7.312,5.865,11.749,7.727c4.566,1.848,9.4,2.787,14.367,2.787c7.104,0,13.723-1.863,19.647-5.523      c5.818-3.52,10.616-8.855,14.258-15.861l1.425-2.734l-14.89-6.229L2032.988,629.303z"
   id="path1611" />


			</g>


			<g
   id="g1619">
				<polygon
   fill="#179184"
   points="1716,657.938 1673.154,618.434 1673.138,656.062 1658,656.062 1658,582.225 1701.205,623.033       1700.51,587.062 1716,587.062     "
   id="polygon1615" />


				<path
   fill="#179184"
   d="M1766.268,586.49c-19.141,0-34.658,15.516-34.658,34.656s15.519,34.658,34.658,34.658      c19.141,0,34.656-15.518,34.656-34.658S1785.408,586.49,1766.268,586.49z M1766.268,640.555      c-10.721,0-19.408-8.688-19.408-19.408c0-10.719,8.688-19.406,19.408-19.406c10.719,0,19.408,8.689,19.408,19.406      C1785.676,631.867,1776.984,640.555,1766.268,640.555z"
   id="path1617" />


			</g>


		</g>


	</g>


	<g
   id="g1659">
		<path
   fill="#8BB568"
   d="M1255.333,163.062c10.667,10.666-38.431,95.018-67.108,112.693    c-28.186,17.373-93.496,14.324-94.725,13.973c-2.333-0.667,76.995-68.65,72-73.5c-5.667-5.501-39.499,8.259-47.333,13.167    c-13.833,8.666-55.072,45.485-55.167,44c-3-47,11.242-74.142,58.775-98.36C1151.794,159.74,1242.888,150.617,1255.333,163.062z"
   id="path1625" />


		<path
   fill="#8BB568"
   d="M936.375,193.062c7.305-5.552,63.674,11.868,80.25,29.5c33.375,35.5,13.113,58.068,12.875,58.75    c-0.453,1.295-23.57-32.549-26.5-29.5c-3.326,3.462,2.127,18.818,3.625,23.125c4,11.5,8.369,20.812,7.5,20.75    c-16-1.125-41.945-14.094-55.217-27.68C936.25,244.812,933.25,195.437,936.375,193.062z"
   id="path1627" />


		<g
   id="g1651">
			<path
   fill="#539E51"
   d="M1067.715,3.791c-1.038,1.556-4.927,2.594-8.816,2.334c-17.888-1.037-74.408,17.369-98.263,32.41     c-56.263,34.744-57.817,36.039-54.966,41.483c2.593,4.405,2.334,4.927-1.555,3.37c-8.039-3.111-16.854,8.039-16.854,21.003     c0,6.221,1.035,11.146,2.332,11.146c3.889,0,22.299-21.518,25.927-30.334c2.854-6.738,5.446-8.557,16.076-11.149     c8.816-2.07,15.037-5.701,20.222-11.925c4.408-4.928,9.075-8.816,10.633-8.816c1.555,0,9.333-3.368,17.63-7.518     c8.037-4.149,25.927-10.633,39.409-14.26c13.48-3.891,28.521-9.336,33.188-11.93c7.26-4.406,8.297-4.406,8.297-0.775     c0,2.853,1.035,3.369,3.37,1.557c6.482-5.188,24.371-5.704,50.56-1.557c21,3.369,28,3.629,31.891,1.297     c6.48-4.148,12.705-3.889,17.63,0.26c4.927,4.146,23.076,9.591,32.151,9.591c4.924,0,6.481,1.038,5.442,3.89     c-1.034,2.594,0.778,4.668,5.447,6.481c3.628,1.297,10.629,5.446,15.558,9.073c4.666,3.632,12.184,7.779,16.592,9.074     c7,1.818,8.039,1.559,8.039-2.851c0-5.962,4.666-6.481,6.739-1.038c1.038,2.076,3.111,3.889,5.186,3.889     c7.259,0,3.112-4.924-11.148-13.738c-34.225-20.741-70.004-33.446-112.266-39.67C1114.384,1.978,1069.27,0.94,1067.715,3.791z"
   id="path1629" />


			<path
   fill="#539E51"
   d="M1258.281,64.978l-9.074,3.114l6.74,2.331c3.63,1.297,19.964,16.593,36.04,34.226l29.558,31.892     l0.777-12.445l1.035-12.446l-26.963-25.147c-14.779-14.002-27.224-25.149-28-25.149     C1267.614,61.611,1263.209,63.166,1258.281,64.978z"
   id="path1631" />


			<path
   fill="#539E51"
   d="M1058.382,69.128c-22.817,4.924-48.227,13.481-60.929,20.479c-35.002,18.929-52.893,31.636-53.151,37.337     c0,2.852-1.296,4.147-3.631,3.372c-5.963-2.334-11.926,6.74-11.926,17.628v10.112l10.11-9.853     c5.705-5.705,11.666-13.481,13.482-17.371c1.814-4.668,4.927-7.521,8.036-7.521c6.224,0,19.188-6.74,22.038-11.146     c2.077-3.373,31.113-17.892,42.264-21.004c24.889-7,41.483-13.225,41.483-15.558c0-1.813,0.778-1.558,2.073,0.263     c1.556,2.332,4.668,2.332,13.223,0.258c8.556-2.334,12.443-2.076,16.334,0.259c3.372,2.075,13.482,3.112,29.039,2.593     c18.148-0.518,25.408,0.258,31.89,3.631c4.669,2.334,11.929,4.405,16.336,4.405c4.666,0,7.778,1.297,7.778,3.373     c0,3.89,25.409,19.962,31.63,19.962c2.334,0,4.927-2.07,5.446-4.664c1.035-4.148,1.297-4.148,1.555,0     c0,2.594,2.074,4.664,4.15,4.664c6.482,0,1.812-6.221-9.854-12.964c-12.963-7.778-47.704-22.038-59.372-24.89     c-16.332-3.632-19.187-3.89-52.632-4.928C1085.345,67.054,1064.864,67.832,1058.382,69.128z"
   id="path1633" />


			<path
   fill="#539E51"
   d="M880.261,98.945c-4.928,2.073-21.261,25.928-25.928,38.113c-2.334,5.963-7.259,14.26-11.147,18.666     c-9.075,9.854-18.93,31.635-24.115,53.15c-7.778,32.41-12.963,80.375-10.888,102.416c3.109,34.483,5.443,50.815,9.075,60.93     c13.74,39.928,31.891,78.559,39.926,84.779c3.37,2.594,6.481,5.967,7.002,7.262c4.407,10.371,17.11,26.967,19.703,25.928     c1.815-0.518,3.373,0.518,3.373,2.336c0,5.959,51.075,46.408,74.41,59.109c49.004,26.449,117.969,39.672,152.194,29.301     c7.001-2.076,18.149-3.889,24.892-3.889c6.74,0,17.37-1.816,23.335-3.891c5.963-2.074,13.741-3.889,16.853-3.889     c3.371,0,6.482-1.297,7-2.852c0.519-1.559,7-3.113,14.26-3.631c25.927-1.814,54.966-21.521,103.451-69.744     c34.482-34.746,37.076-37.855,49.781-63.781c23.854-49.004,36.037-99.563,33.186-135.861c-1.038-11.405-2.334-24.631-2.852-28.78     c-0.779-4.406-2.075-15.035-2.854-24.109c-2.074-19.188-5.186-22.561-7.517-8.301c-1.038,5.709-2.854,10.371-4.15,10.371     c-2.851,0,0.261,50.301,3.37,51.338c1.296,0.519,1.557,7.519,0.78,15.559c-0.78,8.297-1.816,19.964-2.335,26.446     c-0.52,6.48-2.073,14.518-3.889,17.631c-1.815,3.369-2.334,8.297-1.556,10.889c1.036,3.631,0.517,5.188-2.334,5.188     c-2.073,0-4.408,3.369-5.442,8.295c-4.15,18.93-23.597,54.707-45.893,84.264c-16.076,21.521-20.223,25.67-46.15,46.152     c-11.928,9.592-23.596,19.705-25.41,22.297c-1.813,2.592-5.963,4.928-9.075,4.928c-2.851,0-18.927,5.443-35.261,11.924     c-42.002,16.855-94.635,26.707-112.783,21.523c-4.408-1.297-16.854-3.631-27.743-4.928c-19.185-2.594-66.892-17.893-85.3-27.225     c-12.705-6.48-29.039-17.891-43.041-30.074c-6.74-5.967-17.373-12.965-23.594-16.078c-6.742-3.367-10.89-6.74-10.112-8.814     c0.776-1.812,0.261-3.369-1.036-3.369c-1.815,0-13.225-17.109-31.893-47.965c-5.444-8.816-9.592-12.447-9.853-8.559     c-0.519,9.596-20.481-64.039-20.481-75.189c0-6.482-2.334-11.145-9.074-17.888c-10.631-10.633-10.891-11.668-3.373-9.854     c5.965,1.556,5.965,1.297,5.965-23.854c0-14.003,2.074-37.078,4.667-51.339c2.592-14.26,5.442-30.853,6.221-37.072     c0.779-5.967,2.592-10.893,3.631-10.893c1.296,0,2.334-3.629,2.334-8.037c0-5.963,1.035-7.777,3.628-6.739     c2.334,1.038,4.928-2.335,8.04-10.372c2.593-6.48,7.778-15.297,11.667-19.964c8.557-9.853,14.26-20.741,16.854-32.148     c1.555-8.039,3.628-21.521,2.851-21.003C883.63,97.648,882.076,98.425,880.261,98.945z"
   id="path1635" />


			<path
   fill="#539E51"
   d="M1228.207,115.02c-4.408,1.556-1.297,5.702,22.814,30.075l27.744,28.52v-10.629     c0-9.854-1.297-11.668-21.781-30.336c-11.924-10.891-22.295-19.706-22.557-19.445     C1233.909,113.464,1231.059,114.24,1228.207,115.02z"
   id="path1637" />


			<path
   fill="#539E51"
   d="M1326.989,129.021c2.851,21.001,4.146,23.594,9.852,19.445c3.89-2.854,4.408-5.184,2.854-11.15     c-1.039-4.146-2.594-5.962-3.112-4.404c-2.334,6.481-5.963,3.108-5.963-5.447c0-4.924-1.296-9.852-2.593-10.631     C1325.951,115.537,1325.693,119.425,1326.989,129.021z"
   id="path1639" />


			<path
   fill="#539E51"
   d="M916.04,151.318c-4.408,5.702-10.113,15.557-12.964,22.039c-2.852,6.223-6.225,12.444-7.778,13.48     c-1.555,0.779-5.186,6.223-8.036,11.666c-23.854,46.67-27.484,135.602-7.779,180.198c2.594,5.701,7.779,17.369,11.668,25.928     c3.628,8.557,9.591,18.408,12.703,22.039c3.369,3.631,9.334,11.408,13.224,17.631c4.667,7.258,8.556,10.631,11.147,9.594     c2.332-0.781,3.112,0,2.332,2.334c-1.812,4.664,26.967,29.555,49.523,43.037c26.963,15.814,53.15,24.891,86.857,30.074     c24.111,3.633,31.89,3.891,35.521,1.557c2.851-1.557,11.667-3.629,19.962-4.406c16.854-1.814,47.449-9.334,47.449-11.926     c0-0.779,3.109-1.037,6.74-0.26c15.556,2.852,57.039-24.631,93.338-61.965c17.111-17.635,23.076-26.449,32.668-46.412     c17.633-37.336,23.596-56.783,26.707-85.561c2.332-25.41-7.778-95.154-15.04-103.189c-2.332-2.594-4.406-6.482-4.406-8.559     c0-4.666-11.151-28.263-13.226-28.263c-1.035,0-3.11,1.817-4.924,3.89c-2.593,3.114-2.076,6.481,2.593,17.892     c3.108,7.778,7.778,16.075,10.629,18.667c2.853,2.594,4.407,6.222,3.631,8.299c-0.78,2.072,0,8.555,1.556,14.26l2.851,10.887     l3.63-7.776l3.631-7.779l-1.559,7.779c-0.776,4.149-2.33,8.039-3.11,8.299c-2.851,1.035-0.517,43.039,2.334,46.667     c1.815,2.077,1.556,8.3-0.519,18.671l-3.112,15.814l-214.159-0.258h-214.16l-9.074-9.335c-7.001-7.26-7.777-9.074-3.889-8.04     c4.925,1.038,5.186,0,5.444-19.703c0.258-11.666,2.334-30.076,4.667-40.965c2.334-10.89,4.149-24.115,4.149-29.3     c0-4.925,1.296-9.075,2.593-9.075c1.555,0,2.593-2.332,2.593-5.186c0-2.852,1.812-5.186,3.89-5.186     c2.073,0,3.889-2.07,3.889-4.664c0-2.592,5.187-11.929,11.407-20.741c7.521-10.894,11.929-20.226,13.226-28.003     c0.776-6.482,1.034-12.445,0.516-12.965C924.596,141.724,920.448,145.875,916.04,151.318z M951.3,349.402     c9.595,10.111,16.076,29.301,11.667,33.705c-3.889,3.889-4.146,12.965-0.516,16.596c3.109,3.111-1.039,17.891-6.743,24.631     c-2.073,2.076-3.628,4.928-3.628,6.225c0,3.369-8.816,8.816-14.521,9.074c-3.111,0-6.48-1.816-7.259-4.148     c-1.814-4.926,0.52-9.596,3.89-7.52c1.296,1.039,4.146-0.258,6.481-2.594c3.37-3.109,3.631-4.928,1.296-7.262     c-3.369-3.367-3.889-32.668-0.258-41.742c1.555-4.404,1.555-6.998-0.261-8.035c-1.296-1.039-1.815-3.891-1.036-6.225     c0.777-2.594,0.518-7.26-0.78-10.629c-1.812-4.67-2.851-2.076-5.444,13.223c-1.814,10.629-4.407,21.262-5.963,24.113     c-1.557,3.109-1.557,4.148,0.259,2.852c3.889-2.334,3.889,23.852,0,34.744c-3.37,9.85-7.001,9.332-13.482-2.076     c-3.108-5.963-4.147-11.148-2.852-16.596c1.038-4.664,0.519-8.295-1.296-9.592c-2.334-1.295-2.074-4.668,0.776-13.221     c2.334-6.225,4.15-14.002,4.15-17.375c0-12.441,11.667-26.186,22.296-26.443C940.929,341.107,946.895,344.996,951.3,349.402z      M1010.417,346.809c5.444,4.15,6.481,7.262,6.481,18.41c0,16.076-2.593,21.262-10.112,19.186     c-6.74-1.555-7.001,2.592-0.777,13.486c2.333,4.404,5.964,7.518,7.778,6.738c2.074-0.779,3.111,1.555,3.111,6.48     c0,5.188,1.297,7.779,3.89,7.779c2.074,0,3.889,1.037,3.889,2.592c0,1.297-1.038,2.594-2.334,2.594s-2.851,3.109-3.37,6.998     c-0.519,6.225-2.074,7.262-8.556,7.262c-9.594,0-14.26-8.035-14.26-25.41c0-6.74-1.558-14.52-3.111-17.369     c-2.593-4.146-2.334-6.482,1.296-12.963c6.482-10.631,3.37-36.559-3.63-32.152c-2.332,1.297-1.555,66.373,0.777,79.859     c1.038,6.738-7.518,11.926-11.148,6.738c-2.073-2.852-3.11-3.111-4.147-0.777c-0.519,1.816-3.631,3.371-6.224,3.371     c-3.112,0-4.407-1.037-3.37-2.852c2.073-3.631,2.073-77.523-0.258-88.152l-1.814-7.779l19.964,0.518     C999.527,341.625,1005.748,342.92,1010.417,346.809z M1064.084,346.293c-0.518,2.85,0.52,2.594,3.112-0.779     c3.37-4.406,3.889-4.148,5.446,3.373c1.035,4.666,0.516,9.332-1.039,11.408c-2.073,2.592-1.814,4.404,1.039,6.738     c4.924,4.148,4.924,10.371,0,10.371c-3.631,0-7.521-9.332-5.965-14.518c0.26-1.297-2.334-5.186-5.964-8.816l-6.739-6.74     l-3.371,11.926c-2.334,7.26-3.373,22.039-3.111,39.93c0.777,29.037,1.555,33.963,6.221,31.113     c1.557-1.039,1.814-9.074,0.78-22.039c-1.815-19.705-1.558-20.482,3.628-20.482c3.112,0,5.446,1.553,5.704,3.109     c0,2.592,0.519,2.592,1.555,0c1.296-3.629,18.929-4.406,18.929-0.518c0,1.295-2.334,3.629-5.445,5.186     c-4.666,2.592-5.187,4.406-3.629,15.557c1.556,11.926,1.298,12.963-7,20.484c-4.668,4.404-10.891,8.035-13.483,8.035     c-8.297,0-21-10.371-25.669-21.262c-5.443-12.188-5.443-15.035-0.777-15.035c2.074,0,4.408-2.334,5.446-4.93     c0.778-2.85,3.89-5.961,6.74-6.738c5.187-1.816,7.001-6.482,2.334-6.482c-1.296,0-2.593,1.039-2.593,2.594     c0,1.295-3.373,2.592-7.778,2.592c-8.815,0-9.075-1.297-4.927-20.225c3.63-17.627,14.779-29.037,27.742-28.26     C1062.01,342.404,1064.604,343.701,1064.084,346.293z M1126.829,345.254c0.776,2.336,1.557,8.035,1.557,12.707     c0,4.926,1.036,11.666,2.332,15.035c2.074,5.188,1.558,7.518-2.332,10.893c-3.889,3.369-4.149,5.184-1.814,7.775     c1.814,2.074,3.628,2.334,4.667,0.779c0.777-1.297,3.631,7.518,6.224,19.443c5.963,26.965,11.147,28.002,12.185,2.334     c1.039-21.777,5.965-24.371,8.039-3.891c0.776,8.301,2.332,17.891,3.111,21.521l1.555,6.48l-22.558,0.777     c-24.89,0.777-26.963-0.26-26.963-14c0-5.186-2.334-9.854-6.224-13.225c-7.26-6.48-9.853-5.186-7,2.854     c3.369,9.074,2.074,23.334-2.332,24.109c-5.446,1.039-15.041-6.74-11.409-9.074c3.37-2.07,6.739-11.668,7.778-22.555     c0.519-4.408,2.073-14.262,3.631-22.039c1.555-7.777,2.593-16.854,2.593-20.227c0-3.107,1.296-5.701,2.593-5.701     c1.555,0,2.593-1.814,2.593-3.889C1105.052,343.441,1122.939,335.143,1126.829,345.254z M1165.98,345.254     c-2.854,2.076-7.262,3.373-9.594,2.852c-2.334-0.775-4.927,0-5.703,1.818c-0.778,1.812-2.074,1.555-3.89-1.037     c-3.89-5.705-1.039-7.779,12.187-7.779C1170.387,341.365,1170.905,341.625,1165.98,345.254z M1208.761,345.254     c0,2.076-1.038,3.373-2.334,2.594c-4.407-2.854-8.036,12.447-8.036,34.744c0,12.963-1.037,23.334-2.334,23.334     c-1.555,0-1.814,4.146-1.037,9.072c0.779,5.188,0.261,10.631-1.556,12.707c-2.073,2.594-2.334,4.146-0.258,5.443     c4.924,3.109,2.592,6.482-4.669,6.482c-6.482,0-7.518-1.299-10.63-12.447c-1.554-6.998-7.778-21.516-13.482-32.668     c-15.813-30.594-13.481-46.668,6.224-41.742c6.74,1.812,8.037,3.891,16.854,32.408l5.443,16.854l-0.52-23.854     c-0.258-13.225-1.296-24.111-2.074-24.111c-1.035,0-1.554-2.852-1.554-6.48c0-5.705,1.035-6.482,9.853-6.482     C1206.168,341.107,1208.761,342.145,1208.761,345.254z M1219.391,345.514c0.258,4.41,0.52,4.41,1.556,0     c1.814-6.482,13.743-5.961,13.743,0.52c0,2.854-1.038,5.703-2.076,6.482c-3.629,2.07-3.889,69.744-0.258,77.521     c4.146,9.336,1.554,11.406-9.595,7.26c-7.001-2.594-9.853-2.594-12.702-0.26c-3.373,2.854-3.891-2.592-3.891-41.225     c0-25.67,1.036-44.076,2.332-43.297c1.297,0.773,3.112-1.297,3.891-4.928C1214.205,340.07,1218.872,338.773,1219.391,345.514z      M1271.503,344.738c1.296,1.812,2.853,1.812,5.187-0.521c5.965-5.959,7.261-3.109,7.261,14.783     c0,25.926-4.927,27.223-12.963,3.107c-4.408-13.221-9.075-16.072-11.409-7.52c-1.814,7.52-2.074,74.672,0,74.672     c4.408,0,11.926-6.48,15.557-13.223c5.444-10.893,10.629-6.48,6.481,5.703c-6.74,19.188-22.038,24.113-34.482,10.629     c-10.371-11.145-12.444-17.111-12.444-37.596c0-32.408,11.148-54.188,26.963-53.15     C1266.061,341.885,1270.468,343.441,1271.503,344.738z"
   id="path1641" />


			<path
   fill="#539E51"
   d="M1105.311,372.221c-0.259,6.48-1.039,16.072-1.815,21.258c-1.296,8.039-1.035,9.855,2.593,9.855     c3.37,0,4.15-2.854,3.889-15.041c-0.258-8.037-1.295-17.629-2.332-21.26C1105.829,361.592,1105.568,362.627,1105.311,372.221z"
   id="path1643" />


			<path
   fill="#539E51"
   d="M1120.607,399.186c0,0.518,1.812,2.332,3.89,4.148c3.108,2.592,3.89,2.592,3.89-1.039     c0-2.334-1.815-4.148-3.89-4.148C1122.421,398.146,1120.607,398.664,1120.607,399.186z"
   id="path1645" />


			<path
   fill="#539E51"
   d="M1341.507,149.242c-3.108,2.854-5.702,5.965-5.702,6.482c0,4.928,12.184,30.338,18.148,37.855     c4.406,5.444,6.999,11.405,6.221,14.26c-0.52,2.854,0.52,10.109,2.593,16.593l3.632,11.667l4.407-10.371     c5.185-12.184,3.89-25.666-3.89-33.706c-2.854-3.108-5.186-8.294-5.446-11.925c0-3.371-3.112-12.965-7.001-21.26l-6.999-15.039     L1341.507,149.242z"
   id="path1647" />


			<path
   fill="#539E51"
   d="M1282.135,163.501c0,4.149,0.52,11.15,1.555,15.299c1.558,7.262,1.558,7.262,6.224,2.335     c4.925-5.705,3.37-14.779-2.334-12.706c-2.074,0.779-3.629-1.297-4.409-5.701     C1282.135,155.985,1282.135,155.985,1282.135,163.501z"
   id="path1649" />


		</g>


		<g
   id="g1657">
			<path
   fill="#8BB568"
   d="M1058.812,336.031c41.354-80.969,92.188-104.969,90.521-107.635     c-3.699-5.916-93.333,51.5-113.667,107.667C1035.661,336.078,1058.79,336.074,1058.812,336.031z"
   id="path1653" />


			<path
   fill="#8BB568"
   d="M1050.333,311.728c0,0-4.798,8.384-6.333,6.834c-7.917-8-36.919-50.691-34.5-52.166     C1011.416,265.228,1050.333,311.728,1050.333,311.728z"
   id="path1655" />


		</g>


	</g>


	<g
   id="g1695">
		<circle
   fill="#D7E3DE"
   cx="2648.25"
   cy="291.312"
   r="289.25"
   id="circle1661" />


		<g
   id="g1681"
   style="fill:#000000;stroke:#d7e3de;stroke-opacity:1;stroke-width:25.56850394;stroke-miterlimit:4;stroke-dasharray:none;paint-order:markers stroke fill;stroke-linecap:square;stroke-linejoin:round">
			<path
   stroke="#000000"
   stroke-width="1.239"
   stroke-miterlimit="10"
   d="M2385.694,344.637c-1.309-1.652-3.081-2.873-5.316-3.664     c-2.237-0.791-4.354-1.189-6.349-1.189c-1.171,0-2.374,0.141-3.613,0.414c-1.239,0.275-2.41,0.705-3.51,1.289     c-1.103,0.586-1.997,1.361-2.686,2.324c-0.688,0.963-1.031,2.133-1.031,3.51c0,2.203,0.825,3.889,2.478,5.059     c1.652,1.172,3.731,2.168,6.246,2.992c2.512,0.826,5.213,1.652,8.104,2.479c2.891,0.826,5.591,1.998,8.104,3.512     c2.511,1.516,4.594,3.545,6.245,6.09c1.651,2.549,2.478,5.953,2.478,10.221c0,4.062-0.758,7.605-2.271,10.633     c-1.514,3.029-3.562,5.541-6.142,7.537c-2.582,1.996-5.575,3.477-8.981,4.438c-3.407,0.963-7.004,1.445-10.788,1.445     c-4.749,0-9.154-0.723-13.214-2.168c-4.062-1.445-7.847-3.783-11.355-7.021l11.459-12.594c1.651,2.203,3.732,3.906,6.245,5.109     c2.512,1.205,5.11,1.807,7.794,1.807c1.308,0,2.634-0.154,3.976-0.463c1.342-0.311,2.546-0.775,3.613-1.395     c1.065-0.619,1.926-1.41,2.58-2.375c0.653-0.963,0.98-2.1,0.98-3.406c0-2.201-0.844-3.939-2.529-5.213     c-1.688-1.273-3.804-2.357-6.349-3.252c-2.548-0.895-5.302-1.789-8.259-2.686c-2.961-0.893-5.713-2.098-8.26-3.611     s-4.663-3.512-6.349-5.988c-1.688-2.479-2.529-5.746-2.529-9.809c0-3.922,0.774-7.361,2.322-10.322     c1.549-2.957,3.612-5.436,6.194-7.434c2.58-1.996,5.557-3.492,8.93-4.491c3.371-0.996,6.848-1.496,10.427-1.496     c4.129,0,8.12,0.586,11.976,1.755c3.854,1.172,7.33,3.133,10.427,5.884L2385.694,344.637z"
   id="path1663"
   style="fill:#000000;stroke:#d7e3de;stroke-opacity:1;stroke-width:25.56850394;stroke-miterlimit:4;stroke-dasharray:none;paint-order:markers stroke fill;stroke-linecap:square;stroke-linejoin:round" />


			<path
   stroke="#000000"
   stroke-width="1.239"
   stroke-miterlimit="10"
   d="M2408.921,326.777h27.149     c3.784,0,7.364,0.346,10.736,1.032c3.372,0.688,6.313,1.876,8.827,3.562c2.512,1.688,4.507,3.959,5.987,6.812     c1.479,2.857,2.22,6.453,2.22,10.789c0,4.268-0.688,7.846-2.063,10.736c-1.379,2.891-3.271,5.195-5.68,6.916     s-5.265,2.941-8.568,3.664c-3.303,0.725-6.883,1.086-10.735,1.086h-11.77v28.49h-16.104V326.777L2408.921,326.777z      M2425.025,357.748h10.735c1.445,0,2.839-0.139,4.183-0.412c1.342-0.275,2.545-0.74,3.611-1.395s1.928-1.549,2.581-2.686     s0.981-2.562,0.981-4.283c0-1.859-0.432-3.355-1.291-4.49c-0.861-1.137-1.961-2.014-3.305-2.633     c-1.342-0.619-2.839-1.016-4.489-1.189c-1.651-0.17-3.235-0.258-4.749-0.258h-8.26v17.346H2425.025z"
   id="path1665"
   style="fill:#000000;stroke:#d7e3de;stroke-opacity:1;stroke-width:0;stroke-miterlimit:4;stroke-dasharray:none;paint-order:markers stroke fill;stroke-linecap:square;stroke-linejoin:round" />


			<path
   stroke="#000000"
   stroke-width="1.239"
   stroke-miterlimit="10"
   d="M2474.061,326.777h28.286     c3.718,0,7.243,0.361,10.582,1.084c3.337,0.724,6.263,1.928,8.774,3.614c2.512,1.688,4.507,3.957,5.986,6.812     s2.221,6.418,2.221,10.686c0,5.162-1.342,9.549-4.026,13.162c-2.684,3.611-6.605,5.9-11.769,6.863l18.582,30.867h-19.305     l-15.278-29.215h-7.949v29.215h-16.104V326.777z M2490.165,357.025h9.498c1.445,0,2.976-0.053,4.594-0.156     c1.616-0.104,3.079-0.412,4.388-0.928c1.308-0.518,2.392-1.324,3.252-2.428c0.859-1.1,1.291-2.648,1.291-4.646     c0-1.855-0.379-3.336-1.137-4.438s-1.721-1.943-2.891-2.529c-1.171-0.584-2.514-0.979-4.026-1.188     c-1.515-0.205-2.993-0.311-4.438-0.311h-10.53L2490.165,357.025L2490.165,357.025z"
   id="path1667"
   style="fill:#000000;stroke:#d7e3de;stroke-opacity:1;stroke-width:0;stroke-miterlimit:4;stroke-dasharray:none;paint-order:markers stroke fill;stroke-linecap:square;stroke-linejoin:round" />


			<path
   stroke="#000000"
   stroke-width="1.239"
   stroke-miterlimit="10"
   d="M2541.679,326.777h49.655v14.866h-33.551v13.627h31.691     v14.865h-31.691v14.867h35.408v14.863h-51.514L2541.679,326.777L2541.679,326.777z"
   id="path1669"
   style="fill:#000000;stroke:#d7e3de;stroke-opacity:1;stroke-width:0;stroke-miterlimit:4;stroke-dasharray:none;paint-order:markers stroke fill;stroke-linecap:square;stroke-linejoin:round" />


			<path
   stroke="#000000"
   stroke-width="1.239"
   stroke-miterlimit="10"
   d="M2653.996,345.771c-1.584-1.926-3.528-3.406-5.833-4.438     c-2.307-1.033-4.973-1.549-8.001-1.549c-3.029,0-5.832,0.584-8.413,1.754c-2.581,1.172-4.818,2.807-6.71,4.904     c-1.895,2.102-3.373,4.594-4.439,7.484s-1.601,6.021-1.601,9.395c0,3.441,0.533,6.59,1.601,9.445     c1.066,2.855,2.529,5.334,4.389,7.434c1.857,2.102,4.042,3.734,6.555,4.902c2.512,1.172,5.214,1.756,8.104,1.756     c3.305,0,6.229-0.688,8.774-2.064c2.546-1.375,4.646-3.305,6.298-5.781l13.42,10.014c-3.097,4.336-7.02,7.537-11.769,9.602     s-9.636,3.098-14.659,3.098c-5.713,0-10.979-0.896-15.795-2.684c-4.818-1.789-8.98-4.354-12.491-7.691     c-3.51-3.338-6.246-7.381-8.207-12.129c-1.962-4.75-2.941-10.049-2.941-15.898s0.979-11.148,2.941-15.896     c1.961-4.75,4.697-8.793,8.207-12.131c3.511-3.338,7.673-5.901,12.491-7.691c4.816-1.789,10.082-2.685,15.795-2.685     c2.064,0,4.215,0.189,6.452,0.567c2.235,0.379,4.438,0.98,6.606,1.808c2.167,0.824,4.248,1.928,6.245,3.303     c1.995,1.377,3.784,3.062,5.368,5.059L2653.996,345.771z"
   id="path1671"
   style="fill:#000000;stroke:#d7e3de;stroke-opacity:1;stroke-width:0;stroke-miterlimit:4;stroke-dasharray:none;paint-order:markers stroke fill;stroke-linecap:square;stroke-linejoin:round" />


			<path
   stroke="#000000"
   stroke-width="1.239"
   stroke-miterlimit="10"
   d="M2691.16,341.023h-20.854v-14.247h57.812v14.247h-20.854     v58.844h-16.104V341.023z"
   id="path1673"
   style="fill:#000000;stroke:#d7e3de;stroke-opacity:1;stroke-width:0;stroke-miterlimit:4;stroke-dasharray:none;paint-order:markers stroke fill;stroke-linecap:square;stroke-linejoin:round" />


			<path
   stroke="#000000"
   stroke-width="1.239"
   stroke-miterlimit="10"
   d="M2736.375,326.777h28.286     c3.717,0,7.243,0.361,10.582,1.084c3.337,0.724,6.262,1.928,8.773,3.614c2.513,1.688,4.507,3.957,5.987,6.812     c1.479,2.855,2.22,6.418,2.22,10.686c0,5.162-1.342,9.549-4.025,13.162c-2.685,3.611-6.606,5.9-11.77,6.863l18.582,30.867     h-19.305l-15.278-29.215h-7.949v29.215h-16.104V326.777z M2752.479,357.025h9.498c1.445,0,2.977-0.053,4.595-0.156     c1.616-0.104,3.079-0.412,4.388-0.928c1.307-0.518,2.391-1.324,3.252-2.428c0.859-1.1,1.29-2.648,1.29-4.646     c0-1.855-0.379-3.336-1.136-4.438c-0.758-1.102-1.721-1.943-2.892-2.529c-1.171-0.584-2.513-0.979-4.025-1.188     c-1.515-0.205-2.993-0.311-4.438-0.311h-10.529v16.623H2752.479z"
   id="path1675"
   style="fill:#000000;stroke:#d7e3de;stroke-opacity:1;stroke-width:0;stroke-miterlimit:4;stroke-dasharray:none;paint-order:markers stroke fill;stroke-linecap:square;stroke-linejoin:round" />


			<path
   stroke="#000000"
   stroke-width="1.239"
   stroke-miterlimit="10"
   d="M2865.005,371.684c0,4.336-0.655,8.328-1.961,11.975     c-1.31,3.65-3.252,6.814-5.833,9.498c-2.581,2.686-5.799,4.785-9.652,6.297c-3.854,1.514-8.294,2.271-13.316,2.271     c-5.094,0-9.566-0.758-13.421-2.271c-3.855-1.512-7.071-3.611-9.652-6.297c-2.58-2.684-4.524-5.848-5.832-9.498     c-1.31-3.645-1.962-7.639-1.962-11.975v-44.907h16.104v44.288c0,2.271,0.361,4.371,1.084,6.297     c0.724,1.928,1.737,3.598,3.047,5.008c1.307,1.41,2.871,2.514,4.696,3.305c1.822,0.791,3.802,1.186,5.937,1.186     c2.133,0,4.094-0.395,5.885-1.186c1.788-0.791,3.337-1.895,4.646-3.305c1.307-1.41,2.321-3.08,3.045-5.008     c0.723-1.926,1.084-4.025,1.084-6.297v-44.288h16.104L2865.005,371.684L2865.005,371.684z"
   id="path1677"
   style="fill:#000000;stroke:#d7e3de;stroke-opacity:1;stroke-width:0;stroke-miterlimit:4;stroke-dasharray:none;paint-order:markers stroke fill;stroke-linecap:square;stroke-linejoin:round" />


			<path
   stroke="#000000"
   stroke-width="1.239"
   stroke-miterlimit="10"
   d="M2879.973,326.777h24.363l16.827,47.694h0.207     l16.93-47.694h24.261v73.09h-16.104v-56.057h-0.207l-19.201,56.057h-12.285l-18.479-56.057h-0.207v56.057h-16.104     L2879.973,326.777L2879.973,326.777z"
   id="path1679"
   style="fill:#000000;stroke:#d7e3de;stroke-opacity:1;stroke-width:25.56850394;stroke-miterlimit:4;stroke-dasharray:none;paint-order:markers stroke fill;stroke-linecap:square;stroke-linejoin:round" />


		</g>


		<g
   id="g1693">
			<path
   stroke="#000000"
   stroke-width="1.239"
   stroke-miterlimit="10"
   d="M2475.229,202.896h27.254c3.166,0,6.35,0.225,9.55,0.672     s6.073,1.342,8.62,2.684c2.546,1.343,4.609,3.219,6.193,5.627c1.582,2.41,2.375,5.609,2.375,9.601     c0,4.129-1.153,7.556-3.459,10.271c-2.307,2.722-5.352,4.664-9.136,5.834v0.205c2.408,0.347,4.595,1.019,6.556,2.015     c1.961,0.998,3.646,2.271,5.059,3.819c1.41,1.549,2.494,3.354,3.252,5.42c0.757,2.064,1.136,4.269,1.136,6.606     c0,3.854-0.825,7.071-2.478,9.652s-3.786,4.663-6.4,6.245c-2.615,1.584-5.559,2.72-8.826,3.406     c-3.271,0.688-6.521,1.032-9.756,1.032h-29.938v-73.089H2475.229z M2491.333,232.111h11.666c1.238,0,2.46-0.137,3.664-0.412     c1.204-0.273,2.288-0.723,3.252-1.342c0.963-0.62,1.737-1.445,2.323-2.479c0.584-1.031,0.877-2.271,0.877-3.717     c0-1.513-0.327-2.771-0.98-3.769c-0.654-0.996-1.497-1.771-2.529-2.322c-1.031-0.551-2.202-0.944-3.51-1.188     c-1.309-0.239-2.581-0.36-3.818-0.36h-10.943L2491.333,232.111L2491.333,232.111z M2491.333,262.359h14.453     c1.237,0,2.493-0.137,3.768-0.413c1.273-0.274,2.427-0.757,3.459-1.444c1.032-0.687,1.874-1.582,2.529-2.685     c0.653-1.101,0.979-2.442,0.979-4.026c0-1.72-0.431-3.112-1.291-4.182c-0.86-1.064-1.944-1.873-3.25-2.426     c-1.31-0.551-2.721-0.93-4.233-1.135c-1.515-0.207-2.926-0.312-4.231-0.312h-12.183V262.359L2491.333,262.359z"
   id="path1683" />


			<path
   stroke="#000000"
   stroke-width="1.239"
   stroke-miterlimit="10"
   d="M2542.124,202.896h28.286     c3.717,0,7.242,0.361,10.582,1.084c3.337,0.723,6.262,1.928,8.773,3.613c2.512,1.688,4.508,3.959,5.987,6.812     c1.479,2.856,2.22,6.42,2.22,10.686c0,5.162-1.342,9.549-4.025,13.162c-2.685,3.613-6.606,5.901-11.77,6.865l18.582,30.866     h-19.305l-15.278-29.215h-7.948v29.215h-16.104V202.896z M2558.229,233.144h9.498c1.445,0,2.977-0.053,4.595-0.155     c1.616-0.103,3.079-0.413,4.388-0.929c1.307-0.518,2.391-1.324,3.252-2.426c0.859-1.102,1.29-2.648,1.29-4.646     c0-1.857-0.379-3.337-1.136-4.438c-0.758-1.102-1.721-1.944-2.892-2.529c-1.171-0.584-2.513-0.98-4.025-1.188     c-1.515-0.207-2.993-0.311-4.438-0.311h-10.529v16.621H2558.229z"
   id="path1685" />


			<path
   stroke="#000000"
   stroke-width="1.239"
   stroke-miterlimit="10"
   d="M2605.096,239.441c0-5.85,0.98-11.148,2.942-15.898     c1.961-4.748,4.696-8.791,8.207-12.129c3.51-3.338,7.673-5.899,12.491-7.69c4.815-1.789,10.082-2.685,15.795-2.685     c5.711,0,10.977,0.896,15.795,2.685c4.815,1.791,8.98,4.354,12.49,7.69c3.51,3.338,6.246,7.381,8.207,12.129     c1.962,4.75,2.942,10.051,2.942,15.898c0,5.852-0.98,11.148-2.942,15.898c-1.961,4.748-4.697,8.793-8.207,12.13     c-3.51,3.339-7.675,5.901-12.49,7.69c-4.818,1.788-10.084,2.685-15.795,2.685c-5.713,0-10.979-0.896-15.795-2.685     c-4.818-1.789-8.981-4.353-12.491-7.69c-3.511-3.337-6.246-7.382-8.207-12.13     C2606.076,250.589,2605.096,245.291,2605.096,239.441z M2621.819,239.441c0,3.441,0.532,6.592,1.601,9.445     c1.066,2.857,2.598,5.335,4.594,7.434c1.996,2.1,4.389,3.734,7.176,4.903c2.787,1.171,5.899,1.755,9.343,1.755     c3.44,0,6.556-0.584,9.343-1.755c2.787-1.169,5.178-2.804,7.176-4.903c1.994-2.099,3.525-4.576,4.594-7.434     c1.065-2.854,1.601-6.004,1.601-9.445c0-3.371-0.534-6.504-1.601-9.395c-1.067-2.892-2.6-5.385-4.594-7.484     c-1.998-2.098-4.389-3.732-7.176-4.902s-5.902-1.756-9.343-1.756c-3.442,0-6.556,0.586-9.343,1.756s-5.18,2.805-7.176,4.902     c-1.996,2.102-3.526,4.594-4.594,7.484C2622.354,232.937,2621.819,236.07,2621.819,239.441z"
   id="path1687" />


			<path
   stroke="#000000"
   stroke-width="1.239"
   stroke-miterlimit="10"
   d="M2718.962,202.896h13.317l31.795,73.09h-18.168     l-6.299-15.484h-28.389l-6.091,15.484h-17.757L2718.962,202.896z M2725.156,224.164l-8.878,22.711h17.858L2725.156,224.164z"
   id="path1689" />


			<path
   stroke="#000000"
   stroke-width="1.239"
   stroke-miterlimit="10"
   d="M2771.404,202.896h24.156     c5.85,0,11.407,0.655,16.673,1.961c5.265,1.309,9.858,3.426,13.782,6.35c3.923,2.926,7.035,6.729,9.343,11.407     c2.305,4.681,3.458,10.358,3.458,17.034c0,5.92-1.119,11.133-3.355,15.641s-5.248,8.293-9.031,11.354     c-3.786,3.063-8.156,5.386-13.111,6.968c-4.955,1.584-10.152,2.375-15.588,2.375h-26.325L2771.404,202.896L2771.404,202.896z      M2787.509,261.121h8.362c3.717,0,7.175-0.377,10.375-1.137c3.2-0.756,5.97-2.012,8.311-3.768     c2.34-1.756,4.182-4.061,5.522-6.916c1.343-2.855,2.014-6.35,2.014-10.479c0-3.577-0.671-6.692-2.014-9.343     c-1.342-2.648-3.147-4.835-5.42-6.557c-2.271-1.719-4.938-3.01-8-3.871c-3.063-0.858-6.281-1.29-9.652-1.29h-9.498V261.121z"
   id="path1691" />


		</g>


	</g>


	<g
   id="g1847">
		<g
   id="g1819">
			<g
   id="g1715">
				<g
   id="g1711">
					<rect
   x="290"
   y="123.062"
   fill="#C33254"
   width="315"
   height="24"
   id="rect1697" />


					<rect
   x="290"
   y="174.062"
   fill="#C33254"
   width="315"
   height="26"
   id="rect1699" />


					<rect
   x="290"
   y="226.062"
   fill="#C33254"
   width="315"
   height="26"
   id="rect1701" />


					<rect
   x="290"
   y="279.062"
   fill="#C33254"
   width="315"
   height="27"
   id="rect1703" />


					<rect
   x="54"
   y="332.062"
   fill="#C33254"
   width="551"
   height="27"
   id="rect1705" />


					<rect
   x="54"
   y="385.062"
   fill="#C33254"
   width="551"
   height="26"
   id="rect1707" />


					<rect
   x="54"
   y="437.062"
   fill="#C33254"
   width="551"
   height="24"
   id="rect1709" />


				</g>


				<rect
   x="54"
   y="124.062"
   fill="#1168A2"
   width="237"
   height="183"
   id="rect1713" />


			</g>


			<g
   id="g1817">
				<polygon
   fill="#FFFFFF"
   points="88,149.019 90.888,154.871 97.344,155.808 92.672,160.363 93.775,166.792 88,163.757       82.225,166.792 83.328,160.363 78.656,155.808 85.112,154.871     "
   id="polygon1717" />


				<polygon
   fill="#FFFFFF"
   points="129,149.019 131.888,154.871 138.344,155.808 133.672,160.363 134.775,166.792 129,163.757       123.225,166.792 124.328,160.363 119.656,155.808 126.112,154.871     "
   id="polygon1719" />


				<polygon
   fill="#FFFFFF"
   points="170,149.019 172.888,154.871 179.344,155.808 174.672,160.363 175.775,166.792 170,163.757       164.225,166.792 165.328,160.363 160.656,155.808 167.112,154.871     "
   id="polygon1721" />


				<polygon
   fill="#FFFFFF"
   points="211,149.019 213.888,154.871 220.344,155.808 215.672,160.363 216.775,166.792 211,163.757       205.225,166.792 206.328,160.363 201.656,155.808 208.112,154.871     "
   id="polygon1723" />


				<polygon
   fill="#FFFFFF"
   points="252,149.019 254.888,154.871 261.344,155.808 256.672,160.363 257.775,166.792 252,163.757       246.225,166.792 247.328,160.363 242.656,155.808 249.112,154.871     "
   id="polygon1725" />


				<polygon
   fill="#FFFFFF"
   points="68,129.019 70.888,134.871 77.344,135.808 72.672,140.363 73.775,146.792 68,143.757       62.225,146.792 63.328,140.363 58.656,135.808 65.112,134.871     "
   id="polygon1727" />


				<polygon
   fill="#FFFFFF"
   points="109,129.019 111.888,134.871 118.344,135.808 113.672,140.363 114.775,146.792 109,143.757       103.225,146.792 104.328,140.363 99.656,135.808 106.112,134.871     "
   id="polygon1729" />


				<polygon
   fill="#FFFFFF"
   points="150,129.019 152.888,134.871 159.344,135.808 154.672,140.363 155.775,146.792 150,143.757       144.225,146.792 145.328,140.363 140.656,135.808 147.112,134.871     "
   id="polygon1731" />


				<polygon
   fill="#FFFFFF"
   points="191,129.019 193.888,134.871 200.344,135.808 195.672,140.363 196.775,146.792 191,143.757       185.225,146.792 186.328,140.363 181.656,135.808 188.112,134.871     "
   id="polygon1733" />


				<polygon
   fill="#FFFFFF"
   points="232,129.019 234.888,134.871 241.344,135.808 236.672,140.363 237.775,146.792 232,143.757       226.225,146.792 227.328,140.363 222.656,135.808 229.112,134.871     "
   id="polygon1735" />


				<polygon
   fill="#FFFFFF"
   points="273,129.019 275.888,134.871 282.344,135.808 277.672,140.363 278.775,146.792 273,143.757       267.225,146.792 268.328,140.363 263.656,135.808 270.112,134.871     "
   id="polygon1737" />


				<polygon
   fill="#FFFFFF"
   points="68,168.019 70.888,173.871 77.344,174.808 72.672,179.363 73.775,185.792 68,182.757       62.225,185.792 63.328,179.363 58.656,174.808 65.112,173.871     "
   id="polygon1739" />


				<polygon
   fill="#FFFFFF"
   points="109,168.019 111.888,173.871 118.344,174.808 113.672,179.363 114.775,185.792 109,182.757       103.225,185.792 104.328,179.363 99.656,174.808 106.112,173.871     "
   id="polygon1741" />


				<polygon
   fill="#FFFFFF"
   points="150,168.019 152.888,173.871 159.344,174.808 154.672,179.363 155.775,185.792 150,182.757       144.225,185.792 145.328,179.363 140.656,174.808 147.112,173.871     "
   id="polygon1743" />


				<polygon
   fill="#FFFFFF"
   points="191,168.019 193.888,173.871 200.344,174.808 195.672,179.363 196.775,185.792 191,182.757       185.225,185.792 186.328,179.363 181.656,174.808 188.112,173.871     "
   id="polygon1745" />


				<polygon
   fill="#FFFFFF"
   points="232,168.019 234.888,173.871 241.344,174.808 236.672,179.363 237.775,185.792 232,182.757       226.225,185.792 227.328,179.363 222.656,174.808 229.112,173.871     "
   id="polygon1747" />


				<polygon
   fill="#FFFFFF"
   points="273,168.019 275.888,173.871 282.344,174.808 277.672,179.363 278.775,185.792 273,182.757       267.225,185.792 268.328,179.363 263.656,174.808 270.112,173.871     "
   id="polygon1749" />


				<polygon
   fill="#FFFFFF"
   points="68,207.019 70.888,212.871 77.344,213.808 72.672,218.363 73.775,224.792 68,221.757       62.225,224.792 63.328,218.363 58.656,213.808 65.112,212.871     "
   id="polygon1751" />


				<polygon
   fill="#FFFFFF"
   points="109,207.019 111.888,212.871 118.344,213.808 113.672,218.363 114.775,224.792 109,221.757       103.225,224.792 104.328,218.363 99.656,213.808 106.112,212.871     "
   id="polygon1753" />


				<polygon
   fill="#FFFFFF"
   points="150,207.019 152.888,212.871 159.344,213.808 154.672,218.363 155.775,224.792 150,221.757       144.225,224.792 145.328,218.363 140.656,213.808 147.112,212.871     "
   id="polygon1755" />


				<polygon
   fill="#FFFFFF"
   points="191,207.019 193.888,212.871 200.344,213.808 195.672,218.363 196.775,224.792 191,221.757       185.225,224.792 186.328,218.363 181.656,213.808 188.112,212.871     "
   id="polygon1757" />


				<polygon
   fill="#FFFFFF"
   points="232,207.019 234.888,212.871 241.344,213.808 236.672,218.363 237.775,224.792 232,221.757       226.225,224.792 227.328,218.363 222.656,213.808 229.112,212.871     "
   id="polygon1759" />


				<polygon
   fill="#FFFFFF"
   points="273,207.019 275.888,212.871 282.344,213.808 277.672,218.363 278.775,224.792 273,221.757       267.225,224.792 268.328,218.363 263.656,213.808 270.112,212.871     "
   id="polygon1761" />


				<polygon
   fill="#FFFFFF"
   points="68,246.019 70.888,251.871 77.344,252.808 72.672,257.363 73.775,263.792 68,260.757       62.225,263.792 63.328,257.363 58.656,252.808 65.112,251.871     "
   id="polygon1763" />


				<polygon
   fill="#FFFFFF"
   points="109,246.019 111.888,251.871 118.344,252.808 113.672,257.363 114.775,263.792 109,260.757       103.225,263.792 104.328,257.363 99.656,252.808 106.112,251.871     "
   id="polygon1765" />


				<polygon
   fill="#FFFFFF"
   points="150,246.019 152.888,251.871 159.344,252.808 154.672,257.363 155.775,263.792 150,260.757       144.225,263.792 145.328,257.363 140.656,252.808 147.112,251.871     "
   id="polygon1767" />


				<polygon
   fill="#FFFFFF"
   points="191,246.019 193.888,251.871 200.344,252.808 195.672,257.363 196.775,263.792 191,260.757       185.225,263.792 186.328,257.363 181.656,252.808 188.112,251.871     "
   id="polygon1769" />


				<polygon
   fill="#FFFFFF"
   points="232,246.019 234.888,251.871 241.344,252.808 236.672,257.363 237.775,263.792 232,260.757       226.225,263.792 227.328,257.363 222.656,252.808 229.112,251.871     "
   id="polygon1771" />


				<polygon
   fill="#FFFFFF"
   points="273,246.019 275.888,251.871 282.344,252.808 277.672,257.363 278.775,263.792 273,260.757       267.225,263.792 268.328,257.363 263.656,252.808 270.112,251.871     "
   id="polygon1773" />


				<polygon
   fill="#FFFFFF"
   points="68,285.019 70.888,290.871 77.344,291.808 72.672,296.363 73.775,302.792 68,299.757       62.225,302.792 63.328,296.363 58.656,291.808 65.112,290.871     "
   id="polygon1775" />


				<polygon
   fill="#FFFFFF"
   points="109,285.019 111.888,290.871 118.344,291.808 113.672,296.363 114.775,302.792 109,299.757       103.225,302.792 104.328,296.363 99.656,291.808 106.112,290.871     "
   id="polygon1777" />


				<polygon
   fill="#FFFFFF"
   points="150,285.019 152.888,290.871 159.344,291.808 154.672,296.363 155.775,302.792 150,299.757       144.225,302.792 145.328,296.363 140.656,291.808 147.112,290.871     "
   id="polygon1779" />


				<polygon
   fill="#FFFFFF"
   points="191,285.019 193.888,290.871 200.344,291.808 195.672,296.363 196.775,302.792 191,299.757       185.225,302.792 186.328,296.363 181.656,291.808 188.112,290.871     "
   id="polygon1781" />


				<polygon
   fill="#FFFFFF"
   points="232,285.019 234.888,290.871 241.344,291.808 236.672,296.363 237.775,302.792 232,299.757       226.225,302.792 227.328,296.363 222.656,291.808 229.112,290.871     "
   id="polygon1783" />


				<polygon
   fill="#FFFFFF"
   points="273,285.019 275.888,290.871 282.344,291.808 277.672,296.363 278.775,302.792 273,299.757       267.225,302.792 268.328,296.363 263.656,291.808 270.112,290.871     "
   id="polygon1785" />


				<polygon
   fill="#FFFFFF"
   points="88,188.019 90.888,193.871 97.344,194.808 92.672,199.363 93.775,205.792 88,202.757       82.225,205.792 83.328,199.363 78.656,194.808 85.112,193.871     "
   id="polygon1787" />


				<polygon
   fill="#FFFFFF"
   points="129,188.019 131.888,193.871 138.344,194.808 133.672,199.363 134.775,205.792 129,202.757       123.225,205.792 124.328,199.363 119.656,194.808 126.112,193.871     "
   id="polygon1789" />


				<polygon
   fill="#FFFFFF"
   points="170,188.019 172.888,193.871 179.344,194.808 174.672,199.363 175.775,205.792 170,202.757       164.225,205.792 165.328,199.363 160.656,194.808 167.112,193.871     "
   id="polygon1791" />


				<polygon
   fill="#FFFFFF"
   points="211,188.019 213.888,193.871 220.344,194.808 215.672,199.363 216.775,205.792 211,202.757       205.225,205.792 206.328,199.363 201.656,194.808 208.112,193.871     "
   id="polygon1793" />


				<polygon
   fill="#FFFFFF"
   points="252,188.019 254.888,193.871 261.344,194.808 256.672,199.363 257.775,205.792 252,202.757       246.225,205.792 247.328,199.363 242.656,194.808 249.112,193.871     "
   id="polygon1795" />


				<polygon
   fill="#FFFFFF"
   points="88,227.019 90.888,232.871 97.344,233.808 92.672,238.363 93.775,244.792 88,241.757       82.225,244.792 83.328,238.363 78.656,233.808 85.112,232.871     "
   id="polygon1797" />


				<polygon
   fill="#FFFFFF"
   points="129,227.019 131.888,232.871 138.344,233.808 133.672,238.363 134.775,244.792 129,241.757       123.225,244.792 124.328,238.363 119.656,233.808 126.112,232.871     "
   id="polygon1799" />


				<polygon
   fill="#FFFFFF"
   points="170,227.019 172.888,232.871 179.344,233.808 174.672,238.363 175.775,244.792 170,241.757       164.225,244.792 165.328,238.363 160.656,233.808 167.112,232.871     "
   id="polygon1801" />


				<polygon
   fill="#FFFFFF"
   points="211,227.019 213.888,232.871 220.344,233.808 215.672,238.363 216.775,244.792 211,241.757       205.225,244.792 206.328,238.363 201.656,233.808 208.112,232.871     "
   id="polygon1803" />


				<polygon
   fill="#FFFFFF"
   points="252,227.019 254.888,232.871 261.344,233.808 256.672,238.363 257.775,244.792 252,241.757       246.225,244.792 247.328,238.363 242.656,233.808 249.112,232.871     "
   id="polygon1805" />


				<polygon
   fill="#FFFFFF"
   points="88,266.019 90.888,271.871 97.344,272.808 92.672,277.363 93.775,283.792 88,280.757       82.225,283.792 83.328,277.363 78.656,272.808 85.112,271.871     "
   id="polygon1807" />


				<polygon
   fill="#FFFFFF"
   points="129,266.019 131.888,271.871 138.344,272.808 133.672,277.363 134.775,283.792 129,280.757       123.225,283.792 124.328,277.363 119.656,272.808 126.112,271.871     "
   id="polygon1809" />


				<polygon
   fill="#FFFFFF"
   points="170,266.019 172.888,271.871 179.344,272.808 174.672,277.363 175.775,283.792 170,280.757       164.225,283.792 165.328,277.363 160.656,272.808 167.112,271.871     "
   id="polygon1811" />


				<polygon
   fill="#FFFFFF"
   points="211,266.019 213.888,271.871 220.344,272.808 215.672,277.363 216.775,283.792 211,280.757       205.225,283.792 206.328,277.363 201.656,272.808 208.112,271.871     "
   id="polygon1813" />


				<polygon
   fill="#FFFFFF"
   points="252,266.019 254.888,271.871 261.344,272.808 256.672,277.363 257.775,283.792 252,280.757       246.225,283.792 247.328,277.363 242.656,272.808 249.112,271.871     "
   id="polygon1815" />


			</g>


		</g>


		<g
   id="g1845">
			<polygon
   fill="#FFFFFF"
   points="112.797,95.068 106.782,95.068 68.282,39.632 68.282,95.068 60.784,95.068 60.784,33.337      73.002,33.337 109.834,86.273 146.853,33.337 158.884,33.337 158.884,95.068 151.389,95.068 151.389,39.632    "
   id="polygon1821" />


			<path
   fill="#FFFFFF"
   d="M189.972,74.984l21.288-36.182l21.562,36.182H189.972L189.972,74.984z M236.336,81.186l8.052,13.882     h8.607l-36.74-61.729h-9.993l-36.461,61.729h8.789l7.868-13.882H236.336L236.336,81.186z"
   id="path1823" />


			<path
   fill="#FFFFFF"
   d="M271.499,88.867V39.632h42.385c17.398,0,18.416,8.791,18.416,23.781c0,15.735-0.279,25.453-19.158,25.453     H271.499L271.499,88.867z M312.311,95.068h0.739c7.035,0,15.364-0.092,20.545-5.277c5.924-6.108,6.479-18.51,6.479-26.469     c0-19.344-3.238-29.891-24.525-29.891H264v61.631h48.311V95.068z"
   id="path1825" />


			<polygon
   fill="#FFFFFF"
   points="367.081,59.994 418.812,59.994 418.812,66.193 367.081,66.193 367.081,88.867 421.403,88.867      421.403,95.068 359.587,95.068 359.587,33.337 420.757,33.337 420.757,39.632 367.081,39.632    "
   id="polygon1827" />


			<polygon
   fill="#FFFFFF"
   points="507.625,33.337 507.625,95.068 500.128,95.068 500.128,33.337    "
   id="polygon1829" />


			<polygon
   fill="#FFFFFF"
   points="536.488,95.068 528.988,95.068 528.988,33.337 541.482,33.337 598.398,89.142 598.398,33.337      605.895,33.337 605.895,95.068 593.585,95.068 536.488,38.983    "
   id="polygon1831" />


			<path
   fill="#FFFFFF"
   d="M139.372,490.4v42.574c0,18.881-7.774,19.156-24.986,19.625c-4.071,0.088-8.237,0.088-12.4,0.088     c-5.83,0-11.755-0.088-17.678-0.281c-12.121-0.455-17.583-4.996-17.583-17.209V490.4h7.495v43.965     c0,10.641,4.998,11.381,14.713,11.564l13.234,0.184l14.348-0.275c10.271-0.275,15.359-0.836,15.359-12.121v-1.391V490.4H139.372     L139.372,490.4z"
   id="path1833" />


			<polygon
   fill="#FFFFFF"
   points="181.096,541.949 181.096,552.039 171.842,552.039 171.842,541.949    "
   id="polygon1835" />


			<path
   fill="#FFFFFF"
   d="M348.665,507.434c0-3.238-0.37-7.504-3.792-9.076c-4.166-2.029-14.065-2.125-20.174-2.125h-2.593     c-5.74,0-17.491,0.367-22.672,2.682c-3.422,1.48-4.071,5.178-4.071,8.604c0,8.053,5.09,9.443,12.12,9.721     c2.223,0.184,4.535,0.184,6.754,0.184c4.812,0,9.717-0.09,14.533-0.09c4.256,0,8.604,0.09,12.863,0.559     c11.381,1.205,16.104,4.996,16.104,16.656c0,6.854-1.485,12.309-8.24,15.268c-5.736,2.59-15.177,2.783-22.672,2.783h-4.902     c-6.2,0-12.584-0.1-18.79-0.936c-12.954-1.66-15.544-6.102-15.544-18.871h7.495v1.293c0.095,4.904,0.095,8.791,5.462,10.363     c5.644,1.574,15.735,1.666,21.75,1.666c5.827,0,11.751-0.275,17.488-1.018c7.034-0.832,10.178-3.33,10.178-10.547     c0-9.533-4.996-10.092-13.602-10.271l-14.159-0.188c-5.55-0.088-11.105-0.088-16.565-0.461     c-10.737-0.65-18.14-3.334-18.14-14.621c0-7.502,1.944-13.885,9.442-16.75c6.57-2.408,18.506-2.59,25.633-2.59     c6.015,0,12.215,0.186,18.231,0.834c10.824,1.109,15.36,6.293,15.36,16.934h-7.5v-0.002H348.665z"
   id="path1837" />


			<polygon
   fill="#FFFFFF"
   points="397.422,541.949 397.422,552.039 388.172,552.039 388.172,541.949    "
   id="polygon1839" />


			<path
   fill="#FFFFFF"
   d="M511.136,538.16l-7.866,13.879h-8.795l36.461-61.727h9.997l36.739,61.727h-8.601l-8.052-13.879H511.136     L511.136,538.16z M557.502,531.959l-21.564-36.191l-21.284,36.191H557.502L557.502,531.959z"
   id="path1841" />


			<polygon
   fill="#FFFFFF"
   points="609.507,541.949 609.507,552.039 600.253,552.039 600.253,541.949    "
   id="polygon1843" />


		</g>


	</g>


</g>


</svg>
