<?xml version="1.0" encoding="utf-8"?>
<!-- Generator: Adobe Illustrator 16.0.0, SVG Export Plug-In . SVG Version: 6.00 Build 0)  -->
<!DOCTYPE svg PUBLIC "-//W3C//DTD SVG 1.1//EN" "http://www.w3.org/Graphics/SVG/1.1/DTD/svg11.dtd">
<svg version="1.1" id="Capa_1" xmlns="http://www.w3.org/2000/svg" xmlns:xlink="http://www.w3.org/1999/xlink" x="0px" y="0px"
	 width="512px" height="512px" viewBox="0 0 512 512" enable-background="new 0 0 512 512" xml:space="preserve">
<g>
	<path d="M361.414,443.59l-108.27-263.902c-6.004-14.641-9.051-30.086-9.051-45.91V64.02c0-7.512,2.926-14.574,8.238-19.887
		c6.477-6.477,10.047-15.09,10.047-24.25V10c0-5.523-4.48-10-10-10H112.758c-5.523,0-10,4.477-10,10v9.883
		c0,9.16,3.566,17.773,10.043,24.25c5.312,5.312,8.238,12.375,8.238,19.891v69.754c0,15.824-3.043,31.27-9.051,45.91l-29.75,72.516
		c-0.012,0.027-0.023,0.055-0.035,0.082L3.719,443.59c-6.285,15.324-4.531,32.688,4.695,46.441
		C17.641,503.789,33.035,512,49.598,512h265.938c16.562,0,31.961-8.211,41.188-21.969
		C365.945,476.273,367.699,458.914,361.414,443.59z M130.492,187.277c7-17.059,10.547-35.059,10.547-53.5V64.02
		c0-12.852-5.004-24.938-14.094-34.027c-2.672-2.672-4.156-6.219-4.188-9.992h119.621c-0.031,3.773-1.516,7.316-4.191,9.992
		c-9.086,9.09-14.094,21.172-14.094,34.027v69.754c0,18.441,3.551,36.441,10.547,53.5l24.145,58.852H106.348L130.492,187.277z
		 M340.109,478.891C334.523,487.223,325.566,492,315.535,492H49.598c-10.027,0-18.984-4.777-24.574-13.109
		c-4.215-6.285-5.824-13.574-4.73-20.762H36.77c5.52,0,10-4.48,10-10c0-5.523-4.48-10-10-10h-9.188l11.484-28h16.867
		c5.523,0,10-4.48,10-10c0-5.523-4.477-10-10-10h-8.66l11.484-28h17.344c5.523,0,10-4.48,10-10c0-5.523-4.477-10-10-10h-9.137
		l11.488-28h17.812c5.523,0,10-4.48,10-10c0-5.523-4.477-10-10-10h-9.609l11.488-28h168.844l75.922,185.055
		C346.715,460.461,345.695,470.562,340.109,478.891z"/>
	<path d="M312.031,444.215c-2.094-5.113-7.93-7.559-13.043-5.469c-5.109,2.094-7.559,7.93-5.469,13.043l0.055,0.125
		c1.586,3.871,5.316,6.215,9.258,6.215c1.262,0,2.543-0.238,3.785-0.746c5.109-2.094,7.559-7.934,5.465-13.043L312.031,444.215z"/>
	<path d="M297.898,409.762l-35.812-87.289c-2.094-5.109-7.934-7.555-13.047-5.457c-5.109,2.094-7.551,7.938-5.457,13.047
		l35.812,87.289c1.586,3.871,5.316,6.207,9.258,6.207c1.262,0,2.547-0.238,3.789-0.75
		C297.551,420.715,299.996,414.871,297.898,409.762z"/>
</g>
</svg>
