<?xml version="1.0" encoding="utf-8"?>
<!-- Generator: Adobe Illustrator 16.0.0, SVG Export Plug-In . SVG Version: 6.00 Build 0)  -->
<!DOCTYPE svg PUBLIC "-//W3C//DTD SVG 1.1//EN" "http://www.w3.org/Graphics/SVG/1.1/DTD/svg11.dtd">
<svg version="1.1" id="Capa_1" xmlns="http://www.w3.org/2000/svg" xmlns:xlink="http://www.w3.org/1999/xlink" x="0px" y="0px"
	 width="300px" height="300px" viewBox="0 0 300 300" enable-background="new 0 0 300 300" xml:space="preserve">
<g>
	<g>
		<g>
			<path d="M288.123,66.194L151.91,0.437c-1.207-0.583-2.613-0.583-3.82,0L11.877,66.194c-1.519,0.733-2.484,2.271-2.484,3.958
				v159.696c0,1.687,0.965,3.225,2.484,3.958l136.212,65.757c0.604,0.291,1.257,0.438,1.911,0.438s1.307-0.146,1.91-0.438
				l136.213-65.757c1.518-0.733,2.483-2.271,2.483-3.958V70.152C290.606,68.464,289.641,66.928,288.123,66.194z M150,9.274
				l126.104,60.877l-36.555,17.647c-0.231-0.177-0.476-0.339-0.744-0.469L113.558,26.867L150,9.274z M103.633,31.836l125.92,60.789
				l-25.789,12.451L77.895,44.311L103.633,31.836z M232.5,100.961v46.023l-24.09,11.629v-46.022L232.5,100.961z M281.817,227.091
				l-127.423,61.513V138.667l30.395-14.673c2.186-1.055,3.102-3.682,2.047-5.868c-1.056-2.185-3.683-3.103-5.869-2.046L150,131.029
				l-12.185-5.883c-2.186-1.057-4.813-0.139-5.868,2.046s-0.139,4.813,2.046,5.868l11.612,5.606v149.937L18.183,227.09V77.153
				l97.031,46.843c0.616,0.297,1.267,0.438,1.907,0.438c1.634,0,3.203-0.915,3.96-2.485c1.055-2.186,0.139-4.813-2.046-5.868
				L23.896,70.151l43.655-21.075l132.008,63.729c0.02,0.027,0.041,0.051,0.062,0.077v52.733c0,1.513,0.777,2.918,2.059,3.723
				c0.711,0.447,1.522,0.672,2.336,0.672c0.652,0,1.305-0.145,1.91-0.437l32.879-15.872c1.519-0.733,2.484-2.271,2.484-3.958V96.719
				l40.528-19.565V227.091L281.817,227.091z"/>
		</g>
	</g>
	<g>
		<g>
			<path d="M54.449,210.047l-19.989-9.65c-2.187-1.057-4.813-0.139-5.868,2.047s-0.139,4.812,2.047,5.868l19.989,9.649
				c0.616,0.298,1.267,0.438,1.907,0.438c1.633,0,3.203-0.915,3.96-2.485C57.551,213.729,56.634,211.102,54.449,210.047z"/>
		</g>
	</g>
	<g>
		<g>
			<path d="M72.846,198.071l-38.358-18.518c-2.187-1.056-4.813-0.14-5.868,2.047c-1.055,2.186-0.139,4.813,2.047,5.868
				l38.358,18.518c0.616,0.298,1.267,0.439,1.907,0.439c1.634,0,3.203-0.916,3.96-2.485
				C75.947,201.754,75.031,199.126,72.846,198.071z"/>
		</g>
	</g>
</g>
</svg>
