<?xml version="1.0" encoding="utf-8"?>
<!-- Generator: Adobe Illustrator 16.0.0, SVG Export Plug-In . SVG Version: 6.00 Build 0)  -->
<!DOCTYPE svg PUBLIC "-//W3C//DTD SVG 1.1//EN" "http://www.w3.org/Graphics/SVG/1.1/DTD/svg11.dtd">
<svg version="1.1" id="Capa_1" xmlns="http://www.w3.org/2000/svg" xmlns:xlink="http://www.w3.org/1999/xlink" x="0px" y="0px"
	 width="300px" height="300px" viewBox="0 0 300 300" enable-background="new 0 0 300 300" xml:space="preserve">
<g>
	<g>
		<g>
			<path d="M126.043,117.842l-6.651-1.655l-3.612-5.688c-0.067-0.11-0.16-0.203-0.271-0.271c-0.392-0.25-0.914-0.137-1.164,0.255
				c-0.003,0.005-0.007,0.01-0.01,0.016l-3.461,5.688l-6.531,1.655c-0.123,0.033-0.236,0.095-0.331,0.18
				c-0.317,0.328-0.317,0.847,0,1.174l4.304,5.177l-0.451,6.742c-0.025,0.119-0.025,0.242,0,0.361
				c0.167,0.431,0.651,0.646,1.083,0.481l6.26-2.498l6.2,2.468c0.419,0.2,0.923,0.022,1.123-0.398
				c0.062-0.129,0.09-0.272,0.081-0.415l-0.451-6.742l4.273-5.146c0.099-0.101,0.172-0.225,0.21-0.361
				C126.76,118.417,126.491,117.96,126.043,117.842z"/>
		</g>
	</g>
	<g>
		<g>
			<path d="M88.423,84.676l-6.591-1.535l-3.612-5.688c-0.253-0.39-0.775-0.501-1.166-0.249c-0.099,0.065-0.184,0.15-0.249,0.249
				l-3.611,5.688l-6.531,1.655c-0.452,0.11-0.729,0.566-0.619,1.018c0.03,0.123,0.087,0.238,0.168,0.336l4.334,5.176l-0.451,6.742
				c-0.031,0.464,0.32,0.866,0.785,0.897c0.122,0.008,0.245-0.011,0.359-0.054l6.26-2.498l6.291,2.438
				c0.138,0.035,0.283,0.035,0.421,0c0.464-0.032,0.814-0.435,0.782-0.898c0-0.001,0-0.003,0-0.005l-0.451-6.741l4.273-5.146
				c0.099-0.101,0.171-0.225,0.21-0.361C89.139,85.251,88.871,84.794,88.423,84.676z"/>
		</g>
	</g>
	<g>
		<g>
			<path d="M125.923,84.706l-6.531-1.565l-3.612-5.688c-0.067-0.11-0.16-0.203-0.271-0.271c-0.392-0.25-0.914-0.137-1.164,0.255
				c-0.003,0.005-0.007,0.011-0.01,0.016l-3.461,5.688l-6.531,1.655c-0.452,0.11-0.729,0.566-0.619,1.018
				c0.03,0.123,0.087,0.238,0.168,0.336l4.304,5.176l-0.451,6.742c-0.026,0.119-0.026,0.242,0,0.361
				c0.167,0.43,0.651,0.646,1.083,0.481l6.26-2.498l6.2,2.468c0.138,0.036,0.283,0.036,0.421,0c0.464-0.032,0.814-0.434,0.782-0.898
				c0-0.001,0-0.003,0-0.004l-0.451-6.742l4.273-5.146c0.099-0.101,0.171-0.225,0.21-0.361
				C126.639,85.281,126.371,84.824,125.923,84.706z"/>
		</g>
	</g>
	<g>
		<g>
			<path d="M294.975,53.978c-0.01,0-0.021,0-0.031,0H5.056C2.264,53.978,0,56.242,0,59.034v181.933c0,2.791,2.264,5.056,5.056,5.056
				l0,0h289.887c2.793,0,5.057-2.265,5.057-5.056V59.064C300.017,56.272,297.766,53.994,294.975,53.978z M10.112,64.12h134.832
				v80.839H10.112V64.12z M290.008,235.91H10.112v-20.045h279.896V235.91z M290.008,205.813H10.112v-20.345h279.896V205.813z
				 M290.008,175.416H10.112v-20.345h279.896V175.416z M155.057,145.019v-20.345h134.801l0.15,20.345H155.057L155.057,145.019z
				 M155.057,114.622V94.307h134.801l0.15,20.315H155.057z M155.057,84.225V64.12h134.801l0.15,20.104H155.057z"/>
		</g>
	</g>
	<g>
		<g>
			<path d="M50.803,117.872l-6.531-1.685l-3.581-5.688c-0.069-0.11-0.161-0.202-0.271-0.271c-0.392-0.25-0.914-0.137-1.164,0.255
				c-0.003,0.005-0.007,0.01-0.01,0.016l-3.612,5.688l-6.531,1.655c-0.123,0.033-0.236,0.095-0.331,0.18
				c-0.317,0.328-0.317,0.847,0,1.174l4.304,5.177l-0.451,6.742c-0.031,0.464,0.32,0.866,0.785,0.896
				c0.122,0.008,0.245-0.01,0.359-0.054l6.26-2.498l6.14,2.498c0.419,0.2,0.923,0.023,1.123-0.398
				c0.062-0.129,0.09-0.271,0.081-0.415l-0.452-6.741l4.274-5.146c0.099-0.101,0.171-0.225,0.21-0.361
				C51.519,118.447,51.25,117.99,50.803,117.872z"/>
		</g>
	</g>
	<g>
		<g>
			<path d="M50.803,84.676l-6.531-1.535l-3.581-5.688c-0.253-0.39-0.775-0.501-1.166-0.249c-0.1,0.065-0.185,0.15-0.249,0.249
				l-3.642,5.688l-6.531,1.655c-0.452,0.11-0.73,0.566-0.619,1.018c0.03,0.123,0.087,0.238,0.168,0.336l4.304,5.176l-0.331,6.742
				c-0.031,0.464,0.321,0.866,0.785,0.897c0.122,0.008,0.244-0.011,0.359-0.054l6.26-2.498l6.14,2.438
				c0.139,0.035,0.283,0.035,0.421,0c0.464-0.032,0.815-0.435,0.783-0.898c0-0.001,0-0.003,0-0.005l-0.452-6.741l4.273-5.146
				c0.1-0.101,0.172-0.225,0.211-0.361C51.519,85.251,51.25,84.794,50.803,84.676z"/>
		</g>
	</g>
	<g>
		<g>
			<path d="M88.423,117.872l-6.591-1.685l-3.612-5.688c-0.068-0.11-0.161-0.202-0.271-0.271c-0.392-0.25-0.913-0.137-1.164,0.255
				c-0.003,0.005-0.007,0.01-0.01,0.016l-3.612,5.688l-6.531,1.655c-0.123,0.033-0.236,0.095-0.331,0.18
				c-0.317,0.328-0.317,0.847,0,1.174l4.304,5.177l-0.452,6.742c-0.031,0.464,0.32,0.866,0.785,0.896
				c0.122,0.008,0.244-0.01,0.359-0.054l6.26-2.498l6.23,2.498c0.42,0.2,0.923,0.023,1.124-0.398
				c0.062-0.129,0.089-0.271,0.081-0.415l-0.452-6.741l4.273-5.146c0.1-0.101,0.172-0.225,0.211-0.361
				C89.139,118.447,88.871,117.99,88.423,117.872z"/>
		</g>
	</g>
</g>
</svg>
