<?xml version="1.0" encoding="utf-8"?>
<!-- Generator: Adobe Illustrator 16.0.0, SVG Export Plug-In . SVG Version: 6.00 Build 0)  -->
<!DOCTYPE svg PUBLIC "-//W3C//DTD SVG 1.1//EN" "http://www.w3.org/Graphics/SVG/1.1/DTD/svg11.dtd">
<svg version="1.1" id="Layer_1" xmlns="http://www.w3.org/2000/svg" xmlns:xlink="http://www.w3.org/1999/xlink" x="0px" y="0px"
	 width="300px" height="300px" viewBox="0 0 300 300" enable-background="new 0 0 300 300" xml:space="preserve">
<g>
	<g>
		<g>
			<path d="M237.299,201.607c-15.67,0-29.642,7.373-38.657,18.822l-90.289-52.127c2.278-5.662,3.544-11.835,3.544-18.302
				s-1.267-12.641-3.544-18.302l90.289-52.127c9.017,11.449,22.987,18.823,38.657,18.823c27.127,0,49.195-22.07,49.195-49.197
				C286.494,22.07,264.426,0,237.299,0c-27.128,0-49.197,22.069-49.197,49.196c0,6.468,1.268,12.642,3.547,18.305l-90.288,52.127
				c-9.016-11.451-22.988-18.825-38.659-18.825c-27.127,0-49.196,22.07-49.196,49.196s22.069,49.197,49.196,49.197
				c15.671,0,29.643-7.374,38.659-18.825l90.288,52.129c-2.279,5.662-3.547,11.836-3.547,18.305
				c0,27.127,22.07,49.195,49.197,49.195s49.195-22.069,49.195-49.195C286.494,223.678,264.426,201.607,237.299,201.607z
				 M237.299,13.95c19.435,0,35.246,15.812,35.246,35.246c0,19.435-15.811,35.247-35.246,35.247s-35.248-15.812-35.248-35.247
				C202.052,29.761,217.864,13.95,237.299,13.95z M62.702,185.246c-19.435,0-35.247-15.812-35.247-35.247
				c0-19.435,15.812-35.247,35.247-35.247c19.435,0,35.247,15.812,35.247,35.247C97.949,169.435,82.137,185.246,62.702,185.246z
				 M237.299,286.049c-19.436,0-35.248-15.811-35.248-35.245s15.812-35.247,35.248-35.247c19.435,0,35.246,15.812,35.246,35.247
				S256.733,286.049,237.299,286.049z"/>
		</g>
	</g>
	<g>
		<g>
			<path d="M62.702,129.261c-11.435,0-20.739,9.303-20.739,20.738c0,3.852,3.123,6.975,6.975,6.975s6.975-3.123,6.975-6.975
				c0-3.743,3.045-6.789,6.789-6.789c3.852,0,6.975-3.124,6.975-6.975S66.554,129.261,62.702,129.261z"/>
		</g>
	</g>
</g>
</svg>
