<?xml version="1.0" encoding="utf-8"?>
<!-- Generator: Adobe Illustrator 16.0.0, SVG Export Plug-In . SVG Version: 6.00 Build 0)  -->
<!DOCTYPE svg PUBLIC "-//W3C//DTD SVG 1.1//EN" "http://www.w3.org/Graphics/SVG/1.1/DTD/svg11.dtd">
<svg version="1.1" id="Capa_1" xmlns="http://www.w3.org/2000/svg" xmlns:xlink="http://www.w3.org/1999/xlink" x="0px" y="0px"
	 width="512px" height="512px" viewBox="0 0 512 512" enable-background="new 0 0 512 512" xml:space="preserve">
<g>
	<path fill="#00D33D" d="M377.121,374.078l-7.336-9.562l-8.043,6.168c-27.867,21.379-60.727,33.555-95.574,35.52
		C306.012,408.453,344.664,397.367,377.121,374.078z"/>
	<path fill="#00D33D" d="M109.562,200.398l-1.148-11.66l-0.41-0.227c-0.852,3.234-1.594,6.5-2.254,9.781L109.562,200.398z"/>
	<path d="M155.031,100.742c29.203-22.414,64.152-34.262,101.074-34.262c91.676,0,166.262,74.586,166.262,166.262
		c0,11.102-1.09,22.129-3.246,32.895l-25.141-13.883l10.363,120.543L512,316.93l-32.707-18.066
		c17.801-60.02,10.492-125.418-19.883-179.609l-13.062,7.324c29.406,52.465,35.617,116.047,16.863,173.566l-1.918,5.887
		l18.883,10.426l-62.824,32.309l-6.047-70.34l17.668,9.754l2.445-9.297c3.93-14.961,5.926-30.484,5.926-46.141
		c0-99.938-81.305-181.238-181.238-181.238c-40.246,0-78.352,12.918-110.191,37.355l-2.105,1.617l-22.234-28.984l2.105-1.613
		c38.285-29.375,84.078-44.906,132.426-44.906c74.824,0,140.523,37.438,179.961,95.039l12.359-8.461
		C406.16,39.828,335.871,0,256.105,0C204.43,0,155.488,16.598,114.566,48l-13.988,10.727l40.461,52.742L155.031,100.742z"/>
	<path d="M357.18,364.746c-63.824,48.984-151.77,44.375-210.309-6.758l-9.852,11.277c63.688,55.633,159.566,60.863,229.273,7.359
		l2.109-1.613l22.23,28.98l-2.102,1.613c-38.285,29.379-84.078,44.906-132.426,44.906c-58.172,0-112.855-22.652-153.98-63.789
		C41.516,326.133,24.719,239.805,49,165.34l1.918-5.883l-18.672-10.312l61.73-30.66l6.746,68.477l-17.488-9.656l-2.441,9.301
		c-15.41,58.66-0.605,121.938,41.215,167.941l11.082-10.074c-36.266-39.891-50.219-93.613-39.996-144.621l25.324,13.984
		L106.75,95.418L0,148.441l32.918,18.18c-23.09,77.852-4.82,167.27,58.617,230.691c43.953,43.965,102.398,68.172,164.57,68.172
		c51.672,0,100.617-16.594,141.539-47.996l13.988-10.727l-40.461-52.742L357.18,364.746z"/>
	<path d="M250.094,109.227c-3.414,4.598-83.625,113.121-83.625,160.422c0,49.426,40.211,89.637,89.637,89.637
		s89.633-40.211,89.633-89.637c0-47.301-80.211-155.824-83.625-160.422l-6.008-8.09L250.094,109.227z M330.766,269.648
		c0,41.168-33.492,74.66-74.66,74.66s-74.66-33.492-74.66-74.66c0-32.363,49.305-107.855,74.66-143.242
		C281.461,161.793,330.766,237.285,330.766,269.648z"/>
</g>
</svg>
