<?xml version="1.0" encoding="utf-8"?>
<!-- Generator: Adobe Illustrator 16.0.0, SVG Export Plug-In . SVG Version: 6.00 Build 0)  -->
<!DOCTYPE svg PUBLIC "-//W3C//DTD SVG 1.1//EN" "http://www.w3.org/Graphics/SVG/1.1/DTD/svg11.dtd">
<svg version="1.1" id="Capa_1" xmlns="http://www.w3.org/2000/svg" xmlns:xlink="http://www.w3.org/1999/xlink" x="0px" y="0px"
	 width="300px" height="300px" viewBox="0 0 300 300" enable-background="new 0 0 300 300" xml:space="preserve">
<g>
	<g>
		<g>
			<path d="M214.778,80.47c-1.141-2.473-4.071-3.552-6.543-2.411c-2.473,1.142-3.552,4.071-2.411,6.544
				c3.731,8.085,5.624,16.739,5.624,25.721c0,33.883-27.565,61.449-61.448,61.449c-33.883,0-61.448-27.565-61.448-61.449
				c0-33.882,27.565-61.448,61.448-61.448c17.328,0,33.94,7.374,45.575,20.231c1.828,2.02,4.944,2.175,6.966,0.348
				c2.02-1.828,2.175-4.946,0.347-6.965C189.387,47.57,170.109,39.014,150,39.014c-39.321,0-71.311,31.99-71.311,71.311
				c0,39.321,31.99,71.311,71.311,71.311s71.31-31.989,71.31-71.311C221.311,99.905,219.112,89.86,214.778,80.47z"/>
		</g>
	</g>
	<g>
		<g>
			<path d="M248.486,110.324c0-3.774,1.652-8.146,3.402-12.774c2.641-6.987,5.372-14.213,3.062-21.324
				c-2.406-7.409-9.318-11.912-15.416-15.886c-4.006-2.61-7.79-5.074-9.852-7.907c-2.105-2.893-3.302-7.298-4.57-11.962
				c-1.895-6.976-4.044-14.882-10.256-19.403c-6.15-4.476-13.942-4.108-21.477-3.753c-4.867,0.229-9.463,0.446-12.938-0.682
				c-3.234-1.05-6.691-3.845-10.352-6.804C164.391,5.223,157.93,0,150,0s-14.391,5.223-20.091,9.83
				c-3.66,2.958-7.118,5.753-10.351,6.804c-3.475,1.128-8.072,0.911-12.938,0.682c-7.534-0.355-15.326-0.723-21.477,3.753
				c-6.212,4.521-8.36,12.427-10.257,19.403c-1.267,4.664-2.465,9.07-4.57,11.962c-2.061,2.833-5.845,5.298-9.851,7.907
				c-6.099,3.974-13.011,8.477-15.416,15.885c-2.309,7.111,0.422,14.337,3.063,21.325c1.749,4.628,3.401,9,3.401,12.775
				c0,3.774-1.652,8.146-3.402,12.774c-2.641,6.988-5.372,14.214-3.063,21.325c2.406,7.408,9.318,11.912,15.417,15.884
				c4.005,2.61,7.79,5.075,9.851,7.908c2.105,2.893,3.303,7.299,4.57,11.962c1.896,6.976,4.044,14.882,10.257,19.403
				c6.149,4.475,13.941,4.107,21.476,3.752c4.866-0.23,9.463-0.446,12.938,0.683c3.234,1.05,6.691,3.845,10.353,6.804
				c2.754,2.227,5.689,4.592,8.878,6.446l-18.906,67.815l-17.448-19.443c-1.281-1.428-3.272-1.982-5.107-1.424l-24.981,7.612
				l15.663-56.168c0.731-2.624-0.802-5.343-3.425-6.075c-2.625-0.73-5.343,0.803-6.074,3.426L60.43,277.841
				c-0.483,1.734,0.016,3.595,1.305,4.853c1.289,1.259,3.161,1.715,4.883,1.189l30.576-9.318l21.354,23.797
				c0.947,1.056,2.288,1.639,3.67,1.639c0.373,0,0.75-0.043,1.123-0.13c1.754-0.41,3.144-1.743,3.627-3.478l21.146-75.855
				c0.621,0.064,1.247,0.109,1.886,0.109c0.637,0,1.263-0.045,1.882-0.109l21.154,75.855c0.483,1.734,1.874,3.067,3.628,3.478
				c0.372,0.087,0.748,0.13,1.121,0.13c1.384,0,2.725-0.584,3.672-1.639l21.346-23.797l30.583,9.316
				c1.722,0.525,3.593,0.07,4.882-1.188c1.288-1.259,1.789-3.118,1.305-4.853l-22.391-80.303c4.463-4.631,6.295-11.34,7.93-17.361
				c1.268-4.664,2.466-9.07,4.57-11.963c2.062-2.832,5.846-5.297,9.852-7.906c6.099-3.974,13.012-8.478,15.416-15.885
				c2.309-7.111-0.422-14.337-3.063-21.325C250.138,118.47,248.486,114.099,248.486,110.324z M227.659,271.827l-24.989-7.612
				c-1.834-0.561-3.827-0.004-5.108,1.424l-17.44,19.443l-18.912-67.816c3.19-1.855,6.126-4.221,8.882-6.448
				c3.66-2.958,7.118-5.753,10.352-6.804c3.476-1.129,8.072-0.911,12.938-0.682c5.067,0.238,10.248,0.477,14.971-0.75
				L227.659,271.827z M245.57,141.378c-1.328,4.093-6.23,7.286-11.42,10.667c-4.577,2.982-9.311,6.066-12.441,10.367
				c-3.172,4.36-4.668,9.86-6.113,15.18c-1.611,5.932-3.135,11.534-6.542,14.016c-3.347,2.434-9.108,2.162-15.208,1.875
				c-5.537-0.26-11.262-0.531-16.449,1.153c-4.969,1.613-9.309,5.121-13.506,8.514c-4.859,3.928-9.449,7.637-13.891,7.637
				c-4.442,0-9.032-3.71-13.892-7.638c-4.196-3.393-8.537-6.9-13.505-8.514c-3.272-1.062-6.758-1.347-10.274-1.347
				c-2.059,0-4.13,0.097-6.174,0.194c-6.1,0.287-11.861,0.559-15.208-1.876c-3.408-2.48-4.931-8.083-6.542-14.015
				c-1.445-5.32-2.94-10.82-6.113-15.18c-3.129-4.301-7.862-7.385-12.441-10.367c-5.19-3.381-10.091-6.575-11.42-10.668
				c-1.239-3.817,0.776-9.148,2.909-14.791c1.985-5.253,4.039-10.685,4.039-16.261c0-5.576-2.053-11.009-4.038-16.261
				c-2.133-5.643-4.148-10.974-2.909-14.792c1.329-4.093,6.23-7.286,11.42-10.667c4.577-2.982,9.311-6.066,12.441-10.366
				c3.173-4.36,4.668-9.86,6.113-15.179c1.612-5.932,3.135-11.534,6.542-14.015c3.347-2.435,9.109-2.164,15.209-1.875
				c5.535,0.261,11.261,0.531,16.449-1.153c4.969-1.614,9.308-5.121,13.505-8.513c4.858-3.929,9.449-7.639,13.89-7.639
				c4.441,0,9.033,3.71,13.891,7.637c4.196,3.393,8.537,6.9,13.505,8.514c5.188,1.685,10.912,1.415,16.449,1.153
				c6.1-0.287,11.861-0.559,15.207,1.875c3.408,2.48,4.932,8.083,6.543,14.015c1.445,5.319,2.94,10.82,6.113,15.179
				c3.129,4.301,7.862,7.385,12.44,10.367c5.189,3.381,10.091,6.574,11.421,10.667c1.238,3.817-0.775,9.147-2.909,14.792
				c-1.985,5.253-4.038,10.685-4.038,16.261c0,5.577,2.054,11.007,4.039,16.261C244.795,132.229,246.811,137.56,245.57,141.378z"/>
		</g>
	</g>
	<g>
		<g>
			<path d="M169.047,79.655h-38.092c-2.723,0-4.931,2.208-4.931,4.931c0,2.724,2.208,4.931,4.931,4.931h38.092
				c2.723,0,4.931-2.208,4.931-4.931C173.978,81.863,171.77,79.655,169.047,79.655z"/>
		</g>
	</g>
	<g>
		<g>
			<path d="M169.047,131.13h-38.092c-2.723,0-4.931,2.208-4.931,4.931c0,2.724,2.208,4.931,4.931,4.931h38.092
				c2.723,0,4.931-2.208,4.931-4.931C173.978,133.338,171.77,131.13,169.047,131.13z"/>
		</g>
	</g>
	<g>
		<g>
			<path d="M182.701,105.393h-14.854c-2.724,0-4.932,2.208-4.932,4.931c0,2.724,2.208,4.931,4.932,4.931h14.854
				c2.725,0,4.932-2.207,4.932-4.931C187.633,107.601,185.426,105.393,182.701,105.393z"/>
		</g>
	</g>
	<g>
		<g>
			<path d="M152.404,105.393h-35.105c-2.724,0-4.931,2.208-4.931,4.931c0,2.724,2.208,4.931,4.931,4.931h35.105
				c2.724,0,4.932-2.208,4.932-4.931C157.336,107.601,155.128,105.393,152.404,105.393z"/>
		</g>
	</g>
</g>
</svg>
