<?xml version="1.0" encoding="utf-8"?>
<!-- Generator: Adobe Illustrator 16.0.0, SVG Export Plug-In . SVG Version: 6.00 Build 0)  -->
<!DOCTYPE svg PUBLIC "-//W3C//DTD SVG 1.1//EN" "http://www.w3.org/Graphics/SVG/1.1/DTD/svg11.dtd">
<svg version="1.1" id="Layer_1" xmlns="http://www.w3.org/2000/svg" xmlns:xlink="http://www.w3.org/1999/xlink" x="0px" y="0px"
	 width="512px" height="512px" viewBox="0 0 512 512" enable-background="new 0 0 512 512" xml:space="preserve">
<g>
	<path d="M66.456,380.557c-2.621-3.021-7.193-3.344-10.213-0.723c-0.258,0.223-0.499,0.465-0.723,0.723
		c-2.077,2.597-4.12,5.13-6.128,7.6c-16.308,20.084-30.4,37.424-30.4,61.24c0,34.432,26.4,43.619,42,43.619
		c15.6,0,42-9.199,42-43.619c0-23.812-14.084-41.156-30.4-61.24C70.597,385.682,68.552,383.148,66.456,380.557z M60.988,479
		c-6.568,0-28-2.136-28-29.62c0-18.844,12.028-33.656,27.26-52.399l0.728-0.9l0.728,0.9c15.232,18.752,27.26,33.567,27.26,52.399
		C88.976,476.864,67.556,479,60.988,479z"/>
	<path d="M480,48.672c-22.531-31.73-66.52-39.187-98.249-16.655c-0.004,0.002-0.008,0.005-0.011,0.007L293.389,94.8l-11.281-15.888
		c-2.238-3.151-6.607-3.891-9.76-1.652l-42.368,30.076c-3.152,2.238-3.894,6.607-1.656,9.76l22.956,32.324L127.5,237.336
		c-7.537,5.34-12.314,13.751-13.04,22.96c-0.4,5.083-3.038,9.726-7.2,12.672l-21.32,15.12c-3.153,2.234-3.897,6.601-1.664,9.753
		c0.002,0.004,0.005,0.007,0.008,0.011l3.908,5.496l-28.736,20.4c-8.664,6.156-10.697,18.17-4.541,26.834
		c2.955,4.158,7.439,6.973,12.468,7.826c1.075,0.182,2.163,0.271,3.252,0.271c3.982-0.001,7.864-1.246,11.104-3.56l28.752-20.429
		l3.912,5.5c2.239,3.152,6.609,3.891,9.76,1.652l21.288-15.123c4.149-2.972,9.41-3.928,14.34-2.609
		c8.942,2.293,18.44,0.537,25.972-4.799l123.76-87.896l22.947,32.316c1.077,1.513,2.71,2.537,4.54,2.848
		c0.386,0.064,0.777,0.098,1.168,0.096c1.454,0.001,2.871-0.451,4.057-1.292l42.363-30.092c3.151-2.239,3.891-6.608,1.652-9.76
		l-11.28-15.884l88.368-62.772C495.005,124.324,502.455,80.405,480,48.672L480,48.672z M73.644,343.729
		c-2.359,1.676-5.63,1.121-7.307-1.238c0,0-0.001-0.002-0.001-0.002c-1.675-2.357-1.122-5.627,1.236-7.301
		c0.001-0.002,0.003-0.002,0.004-0.004l28.744-20.399l6.08,8.524L73.644,343.729z M177.644,307.939
		c-4.154,2.927-9.377,3.896-14.304,2.656c-8.94-2.37-18.471-0.633-26,4.74L121.768,326.4l-12.848-18.064l-5.248-7.388l-0.04-0.044
		l-3.872-5.444l15.6-11.076c7.543-5.349,12.321-13.772,13.04-22.991c0.407-5.074,3.044-9.706,7.2-12.645l123.789-87.908l42.039,59.2
		L177.644,307.939z M339.82,249.94l-22.849-32.176c-0.031-0.048-0.052-0.1-0.084-0.148c-0.031-0.048-0.075-0.084-0.111-0.128
		l-73.004-102.8l30.957-22l11.279,15.884l73.48,103.479v0.024l11.312,15.888L339.82,249.94z M455.216,135.484l-88.348,62.776
		l-65.376-92.064l88.355-62.76C415.269,25.38,450.514,31.35,468.57,56.77c18.056,25.42,12.086,60.666-13.334,78.722L455.216,135.484
		z"/>
</g>
</svg>
