<?xml version="1.0" encoding="utf-8"?>
<!-- Generator: Adobe Illustrator 16.0.0, SVG Export Plug-In . SVG Version: 6.00 Build 0)  -->
<!DOCTYPE svg PUBLIC "-//W3C//DTD SVG 1.1//EN" "http://www.w3.org/Graphics/SVG/1.1/DTD/svg11.dtd">
<svg version="1.1" id="Capa_1" xmlns="http://www.w3.org/2000/svg" xmlns:xlink="http://www.w3.org/1999/xlink" x="0px" y="0px"
	 width="512px" height="512px" viewBox="0 0 512 512" enable-background="new 0 0 512 512" xml:space="preserve">
<g>
	<path d="M420.3,33.225H312.704C301.637,13.425,280.475,0,256.223,0h-0.446c-24.25,0-45.414,13.425-56.481,33.225H91.7
		c-23.091,0-41.878,18.786-41.878,41.877v395.02C49.822,493.214,68.609,512,91.7,512h328.6c23.092,0,41.878-18.786,41.878-41.877
		V75.103C462.178,52.011,443.392,33.225,420.3,33.225z M353.282,53.225l-10.125,21.264h-22.264c0-7.112,0.227-14.229-1.035-21.264
		H353.282z M201.03,94.489c0.026,0,0.051,0.004,0.077,0.004h0.001h109.783h0.002c0.026,0,0.052-0.004,0.077-0.004h22.663
		l-11.514,24.18H189.666l-12.441-24.18H201.03z M255.777,20h0.446c18.171,0,33.832,10.912,40.8,26.522
		c0.078,0.219,0.144,0.441,0.235,0.657c2.401,5.577,3.621,11.51,3.632,17.635v9.674h-89.783v-9.655
		c0.008-6.134,1.228-12.073,3.631-17.655c0.092-0.214,0.157-0.434,0.234-0.652C221.942,30.914,237.604,20,255.777,20L255.777,20z
		 M191.376,58.949c-0.466,5.15-0.269,10.375-0.269,15.54h-24.172l-10.94-21.264h36.149
		C191.805,55.107,191.546,57.015,191.376,58.949z M442.178,470.123c0,12.062-9.813,21.877-21.878,21.877H91.7
		c-12.063,0-21.878-9.814-21.878-21.877V75.103c0-12.063,9.814-21.877,21.878-21.877h41.802l10.94,21.264h-41.338
		c-5.523,0-10,4.477-10,10v58.581c0,5.523,4.477,10,10,10s10-4.477,10-10V94.489h41.628l19.94,38.755
		c1.714,3.331,5.146,5.425,8.892,5.425h144.87c3.857,0,7.37-2.218,9.028-5.701l18.322-38.479h43.109v353.877h-285.79V231.417
		c0-5.523-4.477-10-10-10s-10,4.477-10,10v226.948c0,5.522,4.477,10,10,10h305.79c5.522,0,10-4.478,10-10V84.489
		c0-5.523-4.478-10-10-10h-43.587l10.125-21.264H420.3c12.063,0,21.878,9.814,21.878,21.877V470.123z"/>
	<path d="M246.77,54.1c1.636,3.924,5.708,6.477,9.964,6.148c4.344-0.336,8.057-3.52,9.014-7.779
		c1.958-8.72-8.164-15.514-15.5-10.366C246.466,44.755,244.992,49.832,246.77,54.1L246.77,54.1z"/>
	<path d="M172.326,259.232c1.957,1.982,4.537,2.977,7.119,2.977c2.535,0,5.072-0.958,7.02-2.878l43.724-43.099
		c3.933-3.877,3.979-10.208,0.102-14.142c-3.877-3.934-10.208-3.979-14.142-0.102l-36.605,36.083l-16.4-16.621
		c-3.879-3.931-10.211-3.974-14.142-0.095c-3.932,3.879-3.974,10.21-0.095,14.142L172.326,259.232z"/>
	<path d="M218.645,326.338c-3.905-3.904-10.237-3.904-14.143,0l-13.541,13.541l-13.541-13.541c-3.905-3.904-10.237-3.904-14.143,0
		c-3.905,3.905-3.905,10.237,0,14.143l13.541,13.541l-13.541,13.541c-3.905,3.906-3.905,10.237,0,14.144
		c1.953,1.953,4.512,2.929,7.071,2.929s5.119-0.976,7.071-2.929l13.541-13.541l13.541,13.541c1.953,1.953,4.512,2.929,7.071,2.929
		c2.559,0,5.119-0.976,7.071-2.929c3.905-3.905,3.905-10.237,0-14.144l-13.541-13.541l13.541-13.541
		C222.55,336.576,222.55,330.244,218.645,326.338L218.645,326.338z"/>
	<path d="M265.291,221.185h88.072c5.521,0,10-4.477,10-10s-4.479-10-10-10h-88.072c-5.521,0-10,4.477-10,10
		S259.77,221.185,265.291,221.185z"/>
	<path d="M265.291,263.146h57.95c5.521,0,10-4.478,10-10s-4.479-10-10-10h-57.95c-5.521,0-10,4.477-10,10
		S259.77,263.146,265.291,263.146z"/>
	<path d="M265.291,343.042h88.072c5.521,0,10-4.478,10-10s-4.479-10-10-10h-88.072c-5.521,0-10,4.478-10,10
		S259.77,343.042,265.291,343.042z"/>
	<path d="M265.291,385.002h57.95c5.521,0,10-4.477,10-10s-4.479-10-10-10h-57.95c-5.521,0-10,4.477-10,10
		S259.77,385.002,265.291,385.002z"/>
	<path d="M93.87,190.77c3.497,8.531,16.135,7.83,18.8-0.92c2.585-8.486-6.818-15.909-14.488-11.601
		C93.842,180.687,91.957,186.178,93.87,190.77z"/>
</g>
</svg>
