<?xml version="1.0" encoding="utf-8"?>
<!-- Generator: Adobe Illustrator 16.0.0, SVG Export Plug-In . SVG Version: 6.00 Build 0)  -->
<!DOCTYPE svg PUBLIC "-//W3C//DTD SVG 1.1//EN" "http://www.w3.org/Graphics/SVG/1.1/DTD/svg11.dtd">
<svg version="1.1" id="Layer_1" xmlns="http://www.w3.org/2000/svg" xmlns:xlink="http://www.w3.org/1999/xlink" x="0px" y="0px"
	 width="300px" height="300px" viewBox="0 0 300 300" enable-background="new 0 0 300 300" xml:space="preserve">
<g>
	<g>
		<g>
			<path d="M276.685,118.19c5.433-5.295,7.35-13.066,5.006-20.281c-2.345-7.215-8.464-12.374-15.971-13.464l-65.643-9.539
				c-1.288-0.187-2.402-0.996-2.979-2.165l-29.355-59.481c-3.357-6.803-10.154-11.028-17.741-11.028
				c-7.586,0-14.384,4.226-17.741,11.028l-29.356,59.482c-0.577,1.167-1.69,1.977-2.979,2.164l-65.642,9.538
				c-7.507,1.09-13.626,6.25-15.971,13.464c-2.345,7.214-0.427,14.986,5.006,20.281l47.499,46.3c0.933,0.91,1.358,2.22,1.138,3.504
				L60.742,233.37c-1.282,7.478,1.733,14.892,7.871,19.351s14.122,5.035,20.836,1.506l58.711-30.866
				c1.153-0.606,2.529-0.606,3.684,0l58.712,30.866c2.92,1.535,6.08,2.295,9.225,2.294c4.084,0,8.143-1.28,11.609-3.801
				c6.138-4.46,9.153-11.874,7.87-19.351l-11.213-65.376c-0.22-1.284,0.205-2.594,1.138-3.503L276.685,118.19z M212.449,170.67
				l11.213,65.377c0.375,2.188-0.977,3.436-1.574,3.87c-0.599,0.434-2.203,1.334-4.167,0.3l-58.712-30.866
				c-2.883-1.515-6.045-2.272-9.207-2.272c-3.163,0-6.325,0.758-9.207,2.271l-58.711,30.867c-1.965,1.032-3.569,0.133-4.167-0.301
				c-0.598-0.435-1.95-1.682-1.574-3.87l11.213-65.376c1.101-6.42-1.025-12.965-5.69-17.512l-47.499-46.3
				c-1.59-1.55-1.23-3.353-1.001-4.056c0.228-0.704,0.998-2.375,3.194-2.693l65.641-9.538c6.445-0.937,12.014-4.982,14.897-10.823
				l29.356-59.482c0.982-1.99,2.808-2.206,3.548-2.206c0.739,0,2.564,0.215,3.548,2.206v0l29.355,59.482
				c2.883,5.841,8.451,9.886,14.896,10.823l65.642,9.539c2.196,0.318,2.966,1.989,3.194,2.693s0.589,2.507-1.002,4.056l-47.498,46.3
				C213.475,157.705,211.348,164.25,212.449,170.67z"/>
		</g>
	</g>
	<g>
		<g>
			<path d="M242.451,13.257c-3.537-2.569-8.485-1.785-11.054,1.751l-8.401,11.562c-2.568,3.536-1.785,8.485,1.752,11.054
				c1.405,1.02,3.032,1.512,4.645,1.512c2.447,0,4.86-1.131,6.408-3.262l8.4-11.562C246.771,20.775,245.987,15.826,242.451,13.257z"
				/>
		</g>
	</g>
	<g>
		<g>
			<path d="M76.969,26.522l-8.4-11.562C66,11.426,61.051,10.643,57.515,13.21c-3.536,2.569-4.32,7.518-1.751,11.054l8.4,11.562
				c1.549,2.132,3.962,3.263,6.41,3.263c1.613,0,3.241-0.492,4.645-1.512C78.754,35.008,79.538,30.059,76.969,26.522z"/>
		</g>
	</g>
	<g>
		<g>
			<path d="M29.034,179.783c-1.351-4.156-5.814-6.432-9.972-5.081L5.47,179.119c-4.157,1.35-6.431,5.815-5.081,9.972
				c1.086,3.345,4.189,5.471,7.524,5.471c0.811,0,1.635-0.126,2.448-0.39l13.592-4.417C28.11,188.404,30.385,183.939,29.034,179.783
				z"/>
		</g>
	</g>
	<g>
		<g>
			<path d="M150.003,267.648c-4.371,0-7.914,3.543-7.914,7.913v14.292c0,4.371,3.543,7.914,7.914,7.914
				c4.37,0,7.913-3.543,7.913-7.914v-14.292C157.916,271.19,154.374,267.648,150.003,267.648z"/>
		</g>
	</g>
	<g>
		<g>
			<path d="M294.529,179.13l-13.592-4.417c-4.155-1.35-8.621,0.924-9.972,5.082c-1.351,4.156,0.923,8.621,5.081,9.972l13.592,4.417
				c0.812,0.264,1.637,0.389,2.446,0.389c3.337,0,6.438-2.127,7.525-5.471C300.961,184.945,298.687,180.48,294.529,179.13z"/>
		</g>
	</g>
</g>
</svg>
